<mxfile host="65bd71144e" pages="2">
    <diagram id="UlprPyHIQQtzRMvAsvIa" name="Вариант1">
        <mxGraphModel dx="680" dy="521" grid="1" gridSize="10" guides="1" tooltips="1" connect="1" arrows="1" fold="1" page="1" pageScale="1" pageWidth="827" pageHeight="1169" math="0" shadow="0">
            <root>
                <mxCell id="0"/>
                <mxCell id="1" parent="0"/>
                <mxCell id="2" value="" style="shape=image;verticalLabelPosition=bottom;labelBackgroundColor=#ffffff;verticalAlign=top;aspect=fixed;imageAspect=0;image=data:image/png,iVBORw0KGgoAAAANSUhEUgAAAggAAAEPCAYAAAAnETxGAAAAAXNSR0IArs4c6QAAIABJREFUeF7s3QeUJUXZBuDGAIgiUckiOUlGAYmSk0QBEZSclShIlgxKBokqSk6SVBRQgpJzUkBBclJAFBBRQP7zlOfdv7nO7M4yd3ZnZ6vPmTMz93ZXf/V+6a2vq6rHeffdd99t6lERqAhUBCoCFYGKQEWghcA4CAKO0P754Ac/2IwzzjgVqIpARaAiUBGoCIwSBOSg5J323+/35u+8807Ja2+99VYz3njjNR/4wAfeb1MDdl1kfPvtt4uMgy3vFoLw5z//ufne977XvPjii80jjzzSrLLKKs3222/fjD/++AMGTG24IlARqAhUBCoCEJDIf/CDHzTrrrtu89JLLzV33HFHs/7667/vpH711Vc3P/vZz5qnnnqqeeGFF8rfn/zkJwcN2AjBT3/60+ZXv/pV88wzz5T+X3LJJc244447aGQkSCEIQFxuueWavfbaq8Fovv71rzcnnnhis9lmmw0qYaswFYGKQEWgIjD0EPjPf/7TLLHEEs0MM8zQPP/8881nPvOZ5uijj25Us0fmkGgvv/zyZr/99mtmn332Zppppmm++MUvNksvvfT7Jhsjc/++nEvGs846qzn00EOb+eabr5luuumaNdZYo1l88cX7cvkoPacQBAzrwgsvLFUD7G2mmWZqtt566+bggw9u7rzzzsLAKGy22WZrVBv+9Kc/DRNS2WbmmWduHnjggeb1119v5p133qJUpKMwkHHGaSj/wx/+cGnjnnvuKe3NMccczVxzzfWezjIM9/vQhz7UfO5zn2smnHDC5q677iqkJYf22tMmMC73fPzxx5sHH3ywmWKKKZqFFlqo+ec//1nuNckkkxRZZplllqKI++67r1zv81deeaU0SzZlqPY9fPbvf/+79PkTn/hE8+abbzZ33313MTL98UO+f/3rX+U8ffaZtnOO3/rs85tvvrn8XnjhhZvJJ5+8+ctf/tLcfvvtzUc/+tFmwQUXbB566KEGq/zYxz5W+gBjf8NU2/qpT8pQCyywQPmM/Prsns594403yt/6OfHEEze33HJLke/zn/98uWf7gNf999/fTDbZZEUmfSDPX//612b++ecv7f3xj39sJphggoKvvpDR97POOmvz6quvNr/73e/KeYsuumg579lnn22efvrpoi86JGcYsc+cr0IFU/r/wx/+MEwHZHONe7kP+QSLeeaZp/ztfmTFttnApz/96ebRRx8t/XzttdfKZ75nv/7WPoy1RdecD2bkIyd5/O9+ZG8fMHz55ZebW2+9tdjGIoss0kw00UTNww8/XNrP4Xrn0mv6CUd/6yNbJps+0FX0N/300xds4czu2IZ22C3d59AuG3ZdDlW9j3/846VvbXudc845iw4fe+yx0jf64l/kdsT+2v2EHTnZiX7BYsYZZywYP/nkk+9pX1/ZJ2zZLLt0D7YL03vvvbeM0PQVTimZksXfH/nIR4b1w/X/+Mc/Svv8Ev6wZr8wYAfspN1ntkTfv//974sts9lgrn04sXXysUl48A34k9314g5ZnRP/buPh889+9rPlHPGM3YhD7qN/nXpwP3qbdNJJm7/97W/FDiQkOoSpe7Odv//976U6q1/uqx2/HfTvb3p1fvxGX9mM9ulJf+AtRrbjb+T/1Kc+VfAhM/nhyge0D5t8xibEsWDFltgAGbQrJoh3+s1P3I8M+iCBi3n8ER767Txt61/78YD+BB/6TmyaaqqpSny67bbbis2Rh5+TiU+QVYxbdtllC5b64GAvZHMPMrlm7rnnLliyHfbIn8j+hS98odlkk02KHuQmMdh18KFXdsputfPcc8/16M9kYMswcA7sEQ59ZtPklBP00/9wZnfuxe/5kL7BFg4+47N8zP3XXnvtZptttint0m1wJae/xbupp556WM7ij+Kuc90X/u08mFyhM2QUp7UVv5122mkbcYevyKlslSzsFvb6y6fECz5GXzAqBEGjLgT0OeecU8jCNddcU37OOOOMZskllyzlD9/r5Oqrr16YD5DcWLCmIEbGCY844ohSfdDBFVdcsTClr371q0Wg7373u83yyy/fXH/99aV9hu3gHJieAMV4llpqqdLOzjvv3Nx0002l0zqy3XbbNRdddFFRBuO58cYby3mHHHJIs9566zWnn356s/nmm5dOXnrppSWYAIOR6sNWW21V+nDkkUc2u+yyS1Ewg6Vg/WNkFCCpaosSjzvuuObKK69s1lxzzdK29n784x83xxxzTJHtsssua/bcc88iF2Cds++++5bzybXHHnsU4LXPYE444YSCAVb7y1/+sll11VVLEDr11FObHXfcsbniiiuK02nn+9//frPCCiuUBPetb32r+drXvtacdNJJJZA88cQTzRZbbFES7+GHH9786Ec/KgZ99tlnN9/5zneKcXB6fVTKgpnDdV/60pdKMKRrOtGGJEI+mJ533nmlbXLAEn70xxn0fddddy06woT1kVPSNYfkDMsss0yxJdc5zj///Obb3/52Oefcc88t/dauqpUgqgS40047FXvQvvZOOeWU5swzzyzfwX+fffYppJW9eQxGh6uttlpxevYDVzpl7MqV7EHJ0r1dC3O2LLjQxVe+8pWiQ8SifbAPzkJ/Sp2cGH5GJrvttlsJisqDX/7yl0tApg99E0jYjL8FUdhzdv3U1vHHH9/svvvuzQ033FAcnL3QE8wRGX1QGpUQ4pNsTz/pCmZ0JTAi84LFb3/724L5UUcdVeQRBCRoiZYsgqyD3dD1WmutVQgzzNgbXPWXr/qbX0pMm266aQlIbEH75D/wwAPLb7LAc+WVVy7641M+o7cDDjig+OlVV11V/J4tC0jOP/nkk0ui8Tn/YJ9sQf8cfIdtwkQVE+76gfRomy7dE24bbLBBsTt+IACz/8MOO6xZbLHFCt5GkO510EEHlbbcD+bf+MY3SvBlv/TE3gR+umWbfJVNSTB0rLJqJKsNeoMFnNjhr3/962Ifp512WumbBCdewtUhScBW3+k9PsKG2KK2yO07McVjXj7OHsktyYuF+iUu6KsBjuQCG5jDmT2zM/KJd3yU3/FD/gMvNuvvCy64oMivQsxH6Qo2+i7+int0Rj66ZwtiFwKg5C/+wgb+dCIXSCRbbrll8TdxTOxgB3zGoEN8FpuQPljBDIGC/XXXXVfsEmZ+k0Us+slPflLirhjkYO/k59vIJh3SmZiun3wGWRAvxRN+oM9ygHjoOrqHndiw8cYbF92Ib+KeQbHrxWT9EovYNtslg6SuHflJrmA/ZGYHiOjFF19c/vadeAUzfaQT95Mr3YO+2Ji2tYVQ/OY3vyn6hREiwPfoTF9gJo6K/+4PPzYOb7Fe3jZoZy/uzw5gaIAvrrBl/oWsuDf7Qb7oTc7Sjvauvfbacg5Z6VYep79hBEHHCCKYUqpApVNhkAyZsQpKhCU8EP0f1sthCMFRlEwEMgaPiUkkAiABBQYOBVRJxsGZAcfItMvoGQkFUbIRAKW4XqCQyAVLyZkBMgqOvP/++5fA6G+GrD9YKwcQ4ABOoXvvvXcBT8BBApANgYIzcmSgS9wSgD65N8AEaU7A0JADxiPgYrff/OY3y3UUOeWUUzY//OEPC7ERuPXTeRgb+X/+85+XvjAmfYcRpUncRq/6hLtRpgAiEXBumJArB8MQZBkiw5BoYKsPMOLgmDMjZAACkSQhcUiOjFLCFSj0S1AjtyTjvhyQIyB/8NQPRgRnupJ4NtpooyIT+SWYDTfcsAQSekzgh7P7brvttsVgYQCbddZZp+BF3wI443SOpCMos0OORh59hU3KkAIGnAVcfWRPrteuhMnp6IkNCnz0gBSwCfeFvUDYeZCPI/IDiXSllVYqwYsuONSxxx5bgjcCwwmNrAQ9toUYC3CwlQAEn+gHOdEHAY1+f/GLXxSnVknhZ2yYXe6www7DRmP0hyjyPzaaUbx+sFX2Qj76FuAlNbbqc4kph2AaW4UTX5AoEH04CPKCo0ALc7qDq6QggAho+sMWVIzEAAmaHYsLZNMvWEiqfNPnfvMbhEy/kCY2xZYkMe3DDDEQg7TNxvgouxSs2a6BAn+VePiBvtCNIOsQ0OhE35BE/sQf4CJGiEWIsuDLlsgmwbIJduJahEGgNNgRoMUsWPIpvs62xQpt8WV6ZQN0rJ9sgO/Ay/21wy4NhNghu5aYJC6+pZ/imnuyA9fzAb7F39kZfCRq7eWAg4EZwule8KZvf4sPCIZz2Bh74wtJ/vSrT/xEvOa7yLZYww6iR+TQCFw/+YuYSh7xXqKDjTjDjuQNsYDPyAV8RA7g14iI2CQe6xO/EIv9rR24qHzRAZvTLpzEUTpiAyFbBkr6KbbwJQQHyRDfQ9bEJudlPgM7E2cNAsU8+pG7+Bl85CkkVIygC+RKHKN/n7MZ+Ig5+puDTsUwMopPcOZP4gnckBj5kw3yUz4l/opDRvf8HTlig3SF5JKZvcqPiKZz5SQ2715k5SPsWX/lU4SCzbMdciP6ZDAg5wdykrhCj+xUu4io/smtZGd/rhdHYr90Aq9hqxjScQlC0HMTxkPB/sb6OQnDAaTgxhAwIOALAn4zMkGAEWZEipHqhJIHJxRoBXcGBBCHEhKCkJKOwM/YBR1tGr12EoSMPICocwxYAhc8jeokGYboe07NOSWYOALGqCRFFobhnpTJADFLhkwuQUufjEwEWsmSUjm6PlM0gsBBGJ+gi9Rol+MJroKL64yG9IvBuMZIQFBw6INyqyBLkUpwgohgIEBQqnsw2BwCC6cTJLTDWYye6I6OBAsJSAJAdhKEGT+MUoJkzOQS+OEoyTFujJSs+gQ7xqtfGD2W7DtOyz4YJBlhJqFxeofRh+QDf4ERc5f4yOZadiAQcDa4kl+Q4AiSoyArwQgm5IEZLBk3I6YvehE0BFM2pQ/sgL0KUAKbZKM9NoKocWi4dR6SD51yIHLCjl0gFeQXWNoEgQOyFaMaNiJxCapkEnA5Pt/h8EY2AoXvjZR9J5jqDww4tsSbci07dG+O7p553IaEwRx+yBfM+JYqinOMDkZEEARjtibYSC76DVPy8zV9FfjZhPZCEPTD+eREMAVPtkJmlRP2Rl6YwEPfQhD4HpsWG/zmW4K1gImg0iGd+h8e/IA95bGn5MnOVXgENXHBIaGQQ3vuibj60Z4grLpDf/yYfL0RBP4kViT2iH18QRwSS4zMQhCMlCVIfptHH7ET+iUz/bFBsYL/ITTsDqHQfySe/UgqYkRK18g0v2GnsBseQUis5tPsDCbsTMJlE/xL5ccI2mBHspZw+CQbR3r0jY9IlGIWEoWIiUF8GkliBwiAwQByFH8VDyQxevZ9HiUiDmxQwkb4PM6gazbrvnyD72qH/YR8wYvv60sIgtjDr+Ev9vhbMmS/7gNr55MFHgiNPqpCiEUGDeyWv4kHkq3YJdeJbfotX9CjftKLvoujchvbbxMESRUObNx57JW/uze/Rl4kcDZK3pA85xtIiIE+cx9xE+EwIGGj8GB/9CG/imUIHaz4J3+VB9iPONUmCPIn0kR/cObHiAMfgqt4T3Z+60fMQsD5D5/i5zDOUQiCgIBlYZkIAgIgCWHAkpPALnADmrPpEKGwb0qSiAQLLMhvSnG+m0rCwJI4ObtSj/YoQzuM1mfAEegIL6HqEPbnekCTQ8DiqMDiBBKjoETZWJnRjKDHYChJHzgjpxQ4gOochm9EKJi63jWCqr4IEEaumJmEJBCS273Iy/EFMv1zroTMuOCnhI+pUQIMjbYoSzsUBQesnyz6CBNMU6DhzAwa6XIO+SQE1zBOIxUG4TvO7uDIHNO58CMHA8cCOQOcnSuocgyyqCAYRcHZ/TkeoxMgBDqBzIgOyxRMGKVghdSlwsCRYSSg0Zn+SMaCpeTHaI0W4QVfdgEvOtIPI0gjmTxygi8dcSYJHKGDnb4y3jg9ZxHg3UN/OVceyxiBIqJkFYgyMuVM5PWZ4M3uXC/oIXHupS04ZdUOUhyCa8ROdu0gd4ILXQnYzuN0ghWyJ/FI8BwclvrCJuAgULo/G6RjOhP84SQ4SIp8SzBgLw52RA+wgjG5YehefEygJ7cALCG7zv1gof9IQ4gGf+X4Erjgw3bpV1IRtOGCDAhKriUHm4cnW0LeBXQ6EUgQK7anr3yKXpFHbQq6SJRkh8QgZIIhwsivxAv3gDcb5c9slo1pVz9cw17p3iHwSpiwEgNgy+cQfIdEnEeOkkMqAAK8wE0+OoQjfMgjMQuiqhPsAA5kFj8kRH3Tb77jvmIRO4cZ0ioW+E71zQiSH4kl9Oi+8ISzEbxkQtfkZjvsC3nRlr9hSj/uKcGyWbiQm2+ydQf/1RZ7Eb9SQYCjtiQ9ydLnEgC9Skpit776jj1rW1/FIXYNe/fSH3ZHp4g4ffETOkNqJGw+yC/di03TudggUSIz+oMQwJF/8mvniTlk5hswhwf5kH6xGmZilVggvuTxmX6LUwgNYsyOJHH/060ETGb+yObZnKQoHrFRsoizYjM9ygnuk7k/BgD8B+ZsCl7sh6zsJI8C9CX+pM/B0DmIGIzkIhjx9+hC0jXgEQfYMV2yb7agL+4rlsPANR610Yl4Jv7zP/4obhtA0iXyKzYgajBge2IB3ZCdPeiHe8LV+WI5WbSlbwYm9C2OuydfZ9P07n/+UQiCAE5RAqVkLGHrLIPhbDqMmTBKTpKJOTpBuYRGLCRx50n6AFOm4HRGbhSKeesUpq8k6DMCYZ0ZsWfkQJnupz0jXcbO0ARjcmLjgqxghOCkZC2IMBTXUrygIcCmOsC5sCYGoQLh3s4nDzAFipQaBSdlVgwySmKUjBFbpVzBwd+UzBi1J7D6myGQHfOkCAGUchErxiDQk0tQEXjdRz8QK4Yq0Ei2AgrCIYjqf0gKMiCZw07S4dSSDgPgXPqF1QtSnCjrgCUZ7WCyRhqSHodktMiIACoZkwNhMPryG7Gif+1xRKSK/pE591FREOQESzgKLHmerm8ClGtSEjdqQProjJ0xaEZON+RgwGSCp+Duc0HK80DO6W8OBEfzRhAkOiULgmhELHAhB3QOf+26j4AlWQiYcEVaUplxLmdhE65FzPSfjj3jVRonm4Csf4KOvsGVvowC2K0ABF9JGTZwkvyQDv1hF3QpKCCDkjNZcvhen9mwxOCe7E+7MOTAsCaTaoxHVWRkYypb/A6Bcegz/2HjgpugKfnxUcHCKMqAgB4kC2QkgwJts0Ukw0iXvwtEbMQ96EJSgwvyAXvJRzA3UnQum/f4Q+ChF8GWr/Ax2LMtdm6kJxYJntrTPuwlCKNFgZ6cdC8YO7TJfrXDNuiBHdIj3yIzbBBSCU+8Y2eCK5yQFTLDH+YGSogHW+f/fNiIjM1ILpIjooCo0C27kwyNCskFWwTOQR+Ijmu1LyYhxGKhwYXgDr+UjtmzCgl9sb8QXHqGl3sbONGBPvtc/8Qs/cikW7FY5QCudO7eYip/4neSj3Pgqo90hWiyMZ/7HsmDn5hJn+yEztkwWcQa93Wtg14kJrEHOYru6VM/EYgMJF1HVvbHB+iLXesbrCU8ti+hScrkRKhS0YWN/iHrMOI/4pl78VfJUGIXW8RFeY0Nilc+0zckghwGSvzEZ/QGI/7KT/m4WOx/euMn7IecztN3NiAnSeCIWWwvc/fYFJKIBMKM3SEV9CdHaM+1YiE7Yb/IDX+QD9gU3MV5/sBWkS0yw0Xf+BQ8DBBgAGf2xd7EJ77ORtkXedgffcKYT9CnPslpGcy9Zw4CIQU1gdZIGiD+liQECB2jCMlQcpBsKFdABpKEnNm8BBOkBTVOk7KopE6xAppOuUcmzmXmOANwnu85AefPrMyMqnTGwYmRGdcCNW373AiAQihDgGX0EgTjcEgc7Zm8jCEzbSUFwYHTMijt62tWOmQTD33UN/0kk+DEmDmCth1ZPcA5nQ8nvzkTUqVvfuDs0I7AmFnRWebTXhkhIPifjAzEPV2nDw4yG51p3yFABbMkH3i5J4ICb/KQm7y+y6oI98kmI3TjXpKi4AsHOmIncMhGH/53aDvyw8j99Is82vU/W3O/2AgM9cln7IiNZMa+PmX2uz6yEe2SyY/7u7e/s0rF/TNj3bnkda/ox2dGUQINZ8rBFujMPdkOh6MnSYnsrke6JGP21rnBC/ngmZUVZHO41ncSFjtjhxyUnO6T85wrOHJo9gtrtiuxCXiCHxn0Vx8cZNVOZtvTZdrL6o/2ih1/Z2WIayRLCVgcIBt7z0z0dv/IAnuBUFCiIySS7lyn3/ERcuXvyNm2VbYEA8HP9zDwOyuM6DETXX3Gx0P4I5PzfZ5Z3fpAJnYUn6V339OrI9f6O5j4ns3xBf3RBhtm664jS/zN9bE98osPDrLynfQHQaTr2GWuG2ZoTTPMR7Ligw7di68kVtGla8mWz9srBfiI5GTQhJzDEQ5kNOjKrHj6gVV0ARf2SCfk1G/3YtOSDtuU3Ng+X2W/7s9GyCgWtX3cvYJv8GmvgHE/MrgeptqEV/Tn3MQCtpv4mUcMiLgfMSQz9/Wd7ZHL70yW939iCOzy7J/NJ1aLQdmsqI258xMrEs9gEExdp3/wYDd+YAg3fYE3GbUhLsNV7KIXeLun8/hRcIW/Pmk3uUh75Gb7+sLO6IVOtO1ceRlxRBaz4i3xTT/IRu7YfAb5dOc8scH3cpM+xG98P2ySYttge/vbyFJnjcJy+IzCgTdYDp3GCjEypSRsMkRksMhY5RgcCEi2bFgJcHhrrlUpOHfbzo0gMfuB2lBMhcgoIUviIKaypww/ujdUEXSMmlQaqm+NXlsW8FWeVAKMiFVwQ6rer2SShoGfxKS6qXI1ug62pjKlEsL2VaH727/R1Zf+3peuVetU9HIgFqouKm1t4tvfexWiNxTfxYAgKI9gZwKp0hnWVo+KQCcC2Q+hIlMRGFMRkDTEuzzq8/ipv6QNQVAGl5xVQTxiHV0HGTyGM5JGls17GlsJwqjWwZAkCKMaxHq/ikBFoCJQEagIDDUEKkEYahqt/akIVAQqAhWBikAXEKgEoQsg1iYqAhWBikBFoCIw1BCoBGGoabT2pyJQEagIVAQqAl1AoBKELoBYm6gIVAQqAhWBisBQQ6AShKGm0dqfikBFoCJQEagIdAGBShC6AGJtoiJQEagIVAQqAkMNgUoQhppGa38qAhWBikBFoCLQBQQqQegCiLWJikBFoCJQEagIDDUEKkEYahqt/akIVAQqAhWBikAXEKgEoQsg1iYqAhWBikBFoCIw1BCoBGGoabT2pyJQEagIVAQqAl1AoBKELoBYmxh4BNqvDx74u9U7VAQqAhWBikDXCIJX03oNpXd1D++1uYHc+7S9x/qhhx5qZptttvI+6vnnn7+ZaaaZqla6iID3h1977bXNUkstVd6G9tRTTzWLLLJIV14L6u1x2r777rvL29W8+tib5dZaa63mjDPOaJ5++ulm7733LveS4O+7777mgQceKP/T9xe+8IXmiiuuKO9U915z13W+he6RRx5pzj777GbiiSdudt555y4iU5uqCFQEKgIVgeEh0G+CIPB7R/3uu+/eTDPNNCXgt99f39PN77///ma77bZrpptuuuaLX/xiIQkSyoknnlj+r0f3EHjxxRebBRdcsLwjXoJGGM4999zmQx/6UL9u8sILLzQ77rhj87e//a358pe/XNo97bTTik4vvfTS5vvf/34hIwceeGDz4IMPNn/5y1+aqaeeuvnKV77SPP/8881JJ53ULLPMMuXd7gcffHCxh4MOOqiZYIIJ3iOX98AjGV43+6Mf/ahfMteLKwIVgYpARaDvCPSbIORW22yzTfPYY4+NkCC8+eabZeQ44YQTNr/85S9LtQHJkEg+9alPNZtssknzyiuvlMQz6aSTNhNNNFH5+4033iijzKmmmqqMOI2GXZdjvPHGK59LRJLM5JNP3rz22mvN22+//R40MpqVICeZZJL3fKd9937nnXfKSNioeLLJJivn/P3vf29UPaaYYooy+n311Vf/B2V90q6k7Hqykkub/icfuV5//fVyj1Ra/B252o1+/OMfL+do71//+le59/jjj1+ud3/fvfXWW4WY+d/f7uFHvzMyv+WWW5qLL764XL/tttuW0Xj6rgoAWwfZg5dzfPfSSy+V8+FAxhwIx5VXXtnce++9w97NjoDstddezWWXXVbapDf32WijjUrV4utf/3rR75/+9KfmpptuKtWCO+64oxCFCy64oPnc5z5XdErn+pO/VaXIEAJBFn2rR0WgIlARqAgMHAJdIwg77LBD8/DDD4+QIDz++OOlFH3ooYeWEWiOJNFHH3202XXXXUtCMgI955xzml122aUkIdcuueSSzeGHH95suOGGjccakrVEtOmmmzbXXHNNGcHeddddzX777dccc8wxJak9++yzZfQqsU4//fSlYrH55ps3BxxwwLAkLTGSyShYEkYIEI3LL7+8XCe5IQAvv/xy8+1vf7sQGgREckYcJKzTTz+9+dWvftVcd911hcyQ7eSTT27WXnvtZt55521uvfXWkiCNvs8777xmgw02KAlZ8v7sZz9b+mck7kdC3GmnnYrsiJT2PvnJT5YEv+eeexY5EASJeN999y0YGJUjXx7ZuK/HCsjH9ddfX+5r5E62rbfeuvTdceGFF5bS/QwzzNAsv/zyzamnnlr+VhHaZ599mvnmm6+58cYbS9Vh0UUXLde492KLLVZ+fvCDH5TPEDaYkRdR/M53vlMIEmJw7LHHFmL0ta99rVQT/vCHPzQ/+9nPik7vueeeZp111inYeeQEb2ThlFNOaa6++upCQNjWDTfcMKwy9eMf/7hZaaWVBs4rassVgYpARaAi0IxyguDxgpK3RCyptw8kQaLcf//9S1JFApCEhRdeuJAECUsCkkgkOr+RDclaAjOqPf7440sCXGCBBUqCkpQkTYlHkpHknS+JSbAptRutStwS2oorrljuLYGvuuqqZQRvJG2/7NC2AAAgAElEQVSOhMSufeeSRTn9W9/6VnkO795Gu5dcckkhDs5XUjcaNvrVFrkQo3nmmackXgn2/PPPLySBbErqRtVnnXVWwcjvO++8sxCEJZZYouDyxz/+sZAx30vocNAWnCRPFYPjjjuuYGI0vuaaa5bv4Yc8mQeAgDhUJmaZZZZm++23L6RJ/7faaqtmzjnnLCX9b37zm0VuSR6WDvdHFr761a+Wz2EHB0RFez6T5J955plSZdBnFSYkCz50t9pqq5WED1ukyvXOm2OOOZqrrrqqkLJll122VBsQJdWMo48+utl4442bGWecseBUj4pARaAiUBEYOARGOUFQIZAcJUyVghzK40rURqWSxcorr1xGwciCUaTkK/khCq4zcc3o2SjfaFjJ+rDDDiujcKNUo2Ej6ieffLIkM/MkjIYvuuiikuh8JiG7VmLKMeuss5YR9RZbbNGsv/76JYF5LKIMbn6EEb8Kg8QuAYYgSLyS35FHHtn85je/KaNwI3i/JWsyIylG1hI9YmPkbNQtoZNTMpeQEQTVEH3cbbfdymMTh1HzlFNOWf5WDVBZcH9JU3Vi6aWXLslcNeHmm28uCV6bq6++erkWoXEfk0l97lCtMDFUtQOpQXQQCX33W6JGQCT9zTbbrFxDHnMCZp999uanP/1pqZ7Qn/4geUb+KhDu0xNBMPEQSVBBgBvZ6IUeEBPXdBIEjyr0RzXh9ttvL/2tR0WgIlARqAgMHAJdIwhGh0rHJimOO+64JUlJrElo6YKk7jGB0r8EZ56B0bFRNPJw1FFHlWQqOUlKSs9K5B45GEF6vCBBnHDCCWWE73GBioBHCkrvt912WxkJuy8Sou0QBJUL99G+Ssbcc89dZs5L4KkkIAj6YhRttC55Ii76JGGrQhi9P/HEEyXhqhakgrDHHnuU5+1GzwgFsoPouJ/n7Ubpv/3tb0u1wL3Jr4pCBpUSSRsBUjFAEPR73XXXLeX4VDYkZue6N9KjouGRh3MlWO0aXfvbpE9tqohIrBI6wqXvmYNgxD/zzDOXqkYqL1tuuWV5bCJ5IyDaVJ1RBdCeigGMPJ6AB8wQJwSJ3lUAEBuPgCR7uHvEARuPSDIHAUGjL5UCbakeIQjw0Q78kQy4ui9bUNlBZuqExYELCrXlikBFoCIAga4QBInAiNtoWwI3kpRkjEb9dB6IgJnvRpvLLbdcGYmboGh0rSwu4SuLG4mrHPgxEjfSNunPyNyqB6Nlo1EJ3IhX0kAMlKOVr7VlpKk9yc3o3CQ6o1UJXFI1215iywQ85XbJUwkcIfj5z39eKhhG6SYNmuhHHm2Zg6A91QQJ1f2QGAmYbEbxKhTf/e53ywQ8yVwSlHDJZPY+zMzkV3lwjuoFPNxDRQCBcP9VVlmlEAcJG+Ewcld6R8j8bxKk/43yp5122tK2ZOoxij6SgVwIDR3RlwMG6623XiEgMEeyyIhMeHyhrczhMOr32MYhgbufxwOIjkrOD3/4w6JPfUAoVBpgTT46QgTMOdBn1R4EAA4elSBCyKFzVFXoDxFiS4iEKob70IfHLuZ01KMiUBGoCFQEBg6BrhAECc1zaYdn2569G2VLBKoFPR0SqmThWb7kb5RplG0kalRpDb1EakTpXInehDvVAM/1jUglLwfigIgYfUuIkpWSt1G064ySfS6pSFRZQSDZeZ7dXvJnNGzEbaQuUaogkEmSRkY850cUJFsHmZXDEQyTA92bPColKggIC3x85tGE6xEkMmnHeXlsQR5zIxyf+MQnymOIPC7wKEASN9nSs3+VE4nXpEttwtJcBwRKe+mj35HTPeFCRm059AnWDp+TR4UAQXAPFR7kA2kyP6C9ksHnmXTonsgVmclB/8GE7O5hkiWy4XNy0i/S43BPutV/18KdbSBNzvfYBaEktz635Rg496gtVwQqAhWBsReBrhCEUQmfhGcZ3RprrDEssRtxKrcbYb7fQ4KSuI1gjbyV7SX0wXZYLYAgmDSZyZCDTcYqT0WgIlARqAiM+QiMcQRhoCA3Albm93xcedscCKP1wXaoRHiUgtAo0ZvjUI+KQEWgIlARqAh0G4FKELqNaG1vjEGgvt9hjFFVFbQiUBEYDQh0hSAod5vN7nm8Z/eWr/V2mP3vmbzDygDPta3LF6z9+D+7F44GPLpyS5MkTdw0d8Kzd3MZ/NRj8CBgnoTVJiaodu6oOXikbIoNmQuS92iYGNrT4TzzR8znsZrI/Jzh+WE3+uh+5uKYjGq+iIm0mRfUjfZHZRuZJ2NOknkyqogmJI8Jh/lfJnmLn2KrVUl1jk7vmvOY2twrOFlpx7dssFcx+1/M+k0QgGvGvwlkgpS9Aszq7+19DCYNWhYogfptdYAZ9mbMW69v9r0gN6YeJixaMmiVgdn39nywisCkw3oMDgTsBGkZq3ks5q2M6N0ho0tqkzXNN5GwTGi1ouOQQw7pUZwjjjiiLBW1V4hls/zJBmEDdVjBY4WNDbgQEROTrSwaaFIyUP1BwsQfvmolD9uwvHZMOEzkNXEbYbOqyWojg6969IyAAa3VVlZaWcpt8rY9dypmA0AQVA4sQbMPgY2J7D0AdIyspwPLRQg4opUHAp/n/kbYZ555ZiEbGJ7Z9lYeCN6uybsFMH0z4B2Zod9+j4EVCc7Pewn873v7Ibg2uyf634/D9z732338uM6Pdno7bBDU+eZKa/gtw7PfQu6l3c52fKZ9fSCXfub/yOV636cPbTmCUXsnyPRF/12bdzIEM/fMex9ynf9zv7RPFvJGxnyuXW35PEm1810XPWHl3OHpNHhH3nY/Ov9O++13auTvyJJ3Svif07d1pA+WnlotYV8Fh8+CcWwtNhF7yLs+/J/75V0guV/bDtt/63/sTx/93zla6cTW9xKUkaFEHPsgb2dbrrXaBeFWoUMQLHcd3ltV2/LFjvWN3mEWW3G/nuzcpl8IgfkwVr+07aH9jpTOttOP+IP7OGd4ds7myJQqY2923il7W259i1/EH+GYWJIdQO0/YgWNbdftvdFpO1khRJ68DyS2rW+92XDiCxnJERto+0/kbWMTLNs4usb12vS3jcnseaIvYuunP/3p96zMSjzMffOOlsTD3nQX/3cP+Gg/Maodk2ERv4h9+t2OXzByTmJ6Zzxs99137pX+te2pHV8iX2TpjBVpUz/pOphpH5m2jT8dw8x8s/a7cTpjYuKBa33X1r/P9C822tO16UP8rjO2tvuVWBD71I++xN5On44c7fwRP4hfx/ciX2L1sNz4bm/o95F+Yq0Es3mNDX1sBqTsmK18O5txO6Mde+0bfRhl2/3Qmn8EwW97GigBG42rRjB+51oGqJxmJ0SEwhp6hoRUWG+vLUEf+VCpUN1wjj0PbOyTLZPt8mcUaYMkcmrDhD+jBoE1QDMgozagkkUp2mMUsilN2XzISLSdQF1vSSRZErRVVew7YJRiZYRqi50ebUwkqHM+bWKx9hUwCrRkUB8RDngp3+bw2MJ9jOIo33JK+wOoUsw111xl/wgYwFqSsRzRd1ZnmIgpoDufQRuhwt8uikaslikK+vZG4DzZ0pgT2PwIqYOjvQ7sXaACJClpy2oSSz39D0MYuLf9IcgBQzpRJbJhlNUoloFaPbLQQguV/sMbFmT1CMB9LWvE+uEJf/3KBlY2frIBkz0nLH2Fmf/dD9YSLMKWFSlkY2P2nmAX9GcJpRUhltQKHN4eucIKK5QllvZ24PyILPmMOshkOaxNoARjoxF7Odgh0yRSdmI1DN2xWQGc/VkSqm/kZDsJSJzRqNW1vieXSoFloB63hazaHIxd2NODzuBtvxFY6C8dsG0ECPb0DH/YGdnDTdkcIUci2COZyGM3S8uE9RXGqmBk4hvapOs2qWGP7k82erXk1ihWRUZ1EN58DLkxkVZ/E3z4nR86s7zZY0V7jhj9wjWHdtgZO3dvVQqjYz7Lzg1EbKamnx69kIO++Zr9SZSQ6dNBXn5nrw3LqG3S5nxLhO1pwt70h94NeiQVbdivJQcZDYL4Kzn97Rq+KA7Ciu24Do5sAOFwSELsHKkSO9yX77v2ueeeK3r2w95s9CbOiWuWL6sgiRWLL754wZm90JFzszkc2yOLZdx0ZaCWwRJ/Fg/Ylljkzanwcj5MyOtePtN3tsJPPS52rsGfc9mXtvklDJxDz/ZsEWfpVyyCefaS4Xvsgg+EPLFj9sA26dZSakvSyWCPFnLyebGcXdsllz2TlY/Cmh9nC3iPt/i83WWz14pz2Y74guzxWY+/+D3blqP4mWvYGcxTMRJv4cV33dcjO/cSo7zfx8Fu5TAxwJ4uZOKbBsZslG2FfLovfZJdHBaf3VuVr6f8SK/6Dl9L7slPJrZED3xKtQuuIad+swFY0Yk8zObELTbHXl1rozpLy70bhz5Nxve92KNP+k2/9vOhw34/YkgHKYCjEUiA6u1teyEIOs0ZGbFn9hIjwwKwoM3xbdzD0BmMRKDDnElwEUx8RimMQ2DSHkB1TomfMiUzQQNwlkIKvIiIEb7zJUyBBgERCCUzjiIwMPy8tdF1nAcJYjAMjMIy2oIDDCR+hEIChIN7CYQcwUZQEiCCwyg5vSAmYSJFDILR2TtC/8nicwlIUAxTpmRJQbLisPrLUF1r/wJ6YIBwcY3HHO7th9wCBkLFSJSh4eBeZEMK/I0wcRhG5/CcWaB3L7gzdPpi+IxKYEjich5noC8BDKEhv/MQCn2HsX7AXGAULAVgxnvttdcWYkI29oCskENwk2glOUFW/+2dgGjAUkKmI3r2LFaCJyuHlYQc9MfBJAkYIgYwtPkWmxKkkCDB3D0FTzYlOZEDuaBbwVqg0RbsBXpJViJCugQnZElAdx+BFvYSk++RyMikPTYvcDgnpW5YcWAysCv7SNAp7GBIhyEeiIKABm/24zzBDUYcH87sSyBmf2QWhPxIKgKkgEPvyAPbp0+2g/y0RyGCISKJVGoHxjbwghuf0A8Blf/qJ3ntX0HHbEOM0L6tzyVU1QhJ3XcJquyWPK7TF7pnP3TLzj2GFEPogZ70kYxsWwISUOlQHICbZJc+asturJKDviJ+NgzzXFpwhjW7YyttYkm//Nlok93BR2BlO3yHLUimYoqkZ3BDl3zKe0pgCxsxhW2LD4iP5CooG6AYHGTwQR62DSM+AU++7Tztuod29cd5Ypp7sifYOmBAF75DNCRgsrN/bdKJwQI8EAM2Tl/uIW6Rjd2QF97ZvVZcFRPFLokk9gsbGLJ/pIA/IFt820CPf7kG9mI3+xb7JW46oEd4sTm26RxxSD/Jxn/cmxzsFgGQa3yvku2ecgafF0MQBvYiHukDHZLB9frMdvPemDwGlkjhRz8GHHyefZMJSUA+yCZnsCv2g6TqM/nFIn4nroptBgJIBJzZOttnBwYAnQdcyGlulDxDR9plF/SR1wfA2H3gy+/EPniwC7Yr3ohbbDQv5nMvMVtM4qfsCRbijPgm9iLe9KX/MOoKQeDMkgoj1ZHhPYccUQWBQhkx8I3sAKvDAiADZxyUQLF2JmRMmKgRFUflcP623a9EzbgFGMEsTIlDMVKOJ9kY6UTR2rW9rx9gkocyOAqFCUKCrUDB0SiTbBIggiCZcxhYSJ4CMqMw+UlfKN5ohXFSIMfi9IwZ69MngURgkuTJzDCcpz+CAiOSfClQsOEg+p1krm2ki3FLRhIUhsnZtC8RkguzlWRsICWQklMQ5ciqJ/rQLj+6Fhbe5yBxOB+T54AIAhmV7gUkhiZQSybuxRjplWEKPq6lBwlRYuMsHEr/yMJAtcWWBAVBU1ISvDif4CmhIF4CAjJILgQBaaNfIwtVEU5GXoc+GL3QL92TI9UlSSXv2BBg9AlWbIMNScrkFYQkWdgbyUliHJQe2CY9qSwIAkiZtgRqyTKTyBATzs0fYIOAwQZe9IU8IWP6zgaN7ukDqXAu32DnCKH7sFs65h/8hC7s5eEzwZGtqxSwDUHEj/7AQR8lY74rOfIH9odouBddsGs4hdCzGXIJWOTSNqKtKiFBCTz0K4HyE76kv+SgA5jkHSjOk9jpgi+kFE7nkhDZBGUyqSLRi8ALL/9rXxCVnPQXRpI136cbfin48T3YCph8WdXTtfzMPQVYpE6iQkAQhBAWoz12xhcNOOBkFK0aI7nRocTCBviliddsmp7gKDbRJ7zZtKTDdvSdTfNN9ipZshV+6xr40wd/pAO6RnzhxOZ8rl8GEqqm+kX+2DtCxVb5kvtpDynSB6RBf8Qh8oqlYpsYwIfz5ldJEU4wEjP4NVwkfQkeTnTv/gZWdCIe8ld2To/IhWoV2+Bjkj19q0rSDbuCvcQmVqqSsLFUQdkyEoaQqoixL7oVZ+AnTrJFsooNYrAY4D766DwkVCxwHh1JsCo0MDWICUEw+kc86U9sQkz5PNtij/yLbZFfJYhPaZ+Nsin2Jjb5Ye/6J6a7n7yUd9G4pvMgn6Se7fnZGLv0ufsgG/A1uBMHER7tIzl0SLcwYzPig5yCtOYQ7/mGuCE2BjNYw9PnCIOcxu/6TRAII5lLoJSkAwKPZOW7zokfIQjYWE9zEARdHWLkHFcHBXJGYOtdHWesHFbCURnAzLAyyjQ6EYwAil3qJIUBVbCKETNSxoztC+gCMCd3nkQh+DEMv/UrBEGQci7Zneca8jJsRg18iYr8ggdmhq27hz4LCAgCw6RcBIPDcXZBjkMLHgIEEoJ4ZUdI7SMCRolKRgKttv1QLCeEEQODl3YkLAyXszNMMsFPQNeu0RWCJSlzDJ8JVJI+GXIwQoldMhEQTUgln/shN4JWTwRBvwV0AVdAwvLd2zX0y/iRNwGNM5ERrhIrpxVQBU2EJ8FA35zHydkGUmCUwXmd67fKjOCgOuBekryDUxvtC9wCkf+RHsmb0wt47s9WOD9MOQuCAH92IwEJUBKURAEHQUYiFaCcy24FSLaS+Q6wkkTojj6070BYBFsOK8GQnUxsClGQ/CUEMrmH+9ERMgATumE7bFIAcg27hQPdhiAIkNqAO7sloyBGFrolt2vYqWAoaQsc8NJP2MavkTk6gQES457uLxjDVrtsnWywZ/Mqf/CVJNiuvmhX0IefoCfRZK6A0a1Azd4QM4nTwTaQb1U2cusffGDNf9gmn4KBOEHPEhbb9qPf9C1esE0xQmWSzUtE2kbC2wSBfwqc8HWN/iOBYo9k6n76BQP2iOjG3/NGVRhpG5Hh9/xQKR1hgRssJCXJnj6RLe2LL3wH0dB3iUFiFePEKPrk52wV8eNjIQjiUCpSiITkL1HzS3FD0uEj/FDycIhZ+qQfkhoyweboUrwlKzuVlOiT/cgB5OOPMGBr9CO+iqn+hjmfCOkTc0IQYIR8sHnxDd7sgO7EebYgyYYgwMjffNMAEm5s0Wfah41BAz0hKWItmRAk+CGr2nA/xEvMDkFwX32AP+LCP2EDC4lbtUC/+az2Eb8MrNicfoQg0B1/cA99IZO4RUcIUeYu5PGdvOBcZF0b8o44CCu5S9sql+xNf/gVn24TBDoSp9kQPXYSBH2gW3lCPBLT+CL7pS9xSNwQp/tNEAQNiVbi5ISCBsdg2EBmOO1DsMRSfS5xAYPxCfApuTMGgY+CtCnpMhKBElgCo/MxY99zMGAYVXjGKGjkGTgDpHgKBCiGLSliWgIY5wGSzxkRw6RIDmO0wTEFDr8RBYmYUTlfoAC0z7F9B+XAg8zkZ/jYLDwEJs5i9K/P2qBowc3/+i9oUToj4FACl3KWQJ25EfClZEnXaAQW+klO96HwJPE8huHQggsD5WiCvyAlgGCpkqhgxRAZjv7DKQdd0pXkiEHDTDAgE1l9hqTpBwfPCIV+OBKdk5mzMnxBSRAzKhVM4c653VuSQPL0S7sSENwEUI5tZMB+3IezcybnIijsRJ9gR+8IRuao6AtWLZDBUHuCqmCCTJBBsPUZPOCOiLiHoEPPCIX7wdHn7MiIRoAxwiQ/YqZfvpOIlT/ZipGavuqfdlJpM/LwPScVNCQ5yYnTuy952An8sHxJ02hKdYc/ITRsziMF1R/faYsN5OVlkoMKFhsRdIwcJFKBTr8FfQmc32lXYtUO/bEzdi14JYgKSnRBrwKgfiHvzmHP+kR2ehRwyKgf7i/giheCu7+1Tb9Gw5K9Q5DmJ3SNMOW9JxIN2xXIxB79lXT1zXlGtuIKfYojmTfi/mzSeQIfH0fmlI7ZvNiAgGjbIx0DFfJIaA4+ok0VIH6q3bxaHTFB+gyOfKZ9SQTOsCATvMUoo2nt0G0ehxgEuL/n9XSMqMJfUiIb/2GPZGUX2mSL8ET46QBWqk8IDowlIT7vMzGOPyA0SKmk5n7kYR9wEwvJTTYlZvfXR3phI65FKtzXveicvdCP/vNT8YVs4oDEJEYY1SKV+oh4iCsSugTGBxGcrGCjL5+ppsBS0mcbYjfbphc+xs4kZYRWPBFXxVoEhp+If+6TqgJ/E7P5sz5JhNpxHv+BGZ+T3NsHXTnHfdkNW3PAVeXU+RK8WAQfA1LyuF/K9q7RVxhJ1AawMJKnxDUELWQhdoaw+oxe2CyMxZFszy8OI6qZt5Z3DpE1j/nZgLjHxmHKj10vPtIbzFwn7oiH/oezdhF1cVJ+6DdBYCgCQA4VA4Jh/JxJImgfFJf3GHAiwVT5JrNgU7JhEEpijDVsJpMSJThMMC+CQgw4FcUJ+pIqgBmapC/gcYSUDn2mypH3HqQcJplTMGIg6FOQ0a1AZPQoqAlgDMBBPv8L6mGAzvO9+wus7gVsjiL5MKa8D8F3ZIIH50EysES4aU+QF3A5VB6fuK/rGbTkpb+c2OjUKEKiIrugpH2sOpNsfKZ9v7NOPrqAu88EILLCuj2DmyMYKWifrO7tfI5ihCjB6LuApMxGfoEIiaBbI0Q64PQcSx8RBM4Hd8nGyAr+Dn8LOg44qG4IhhKHUSCbcy8JzW8JKROp4IBsSKT6wgkkBAcZVSpgJNmwPW0jLWSCFZtjm67zvdE6nNkFfNgmOTioEYYkIgC3ZyqzKXqBg0DG7tkEsog4dO694L506r6CAdzYvfuzVbL4oRP3olfJGhmGE1/wXXTivmwG7km4+qg9GLiWDzkP1ipAkhHfQQz0RXB2CGpw5k85tBGf8rm2yeB69sBWtM1/2BYfMnJFcCQMpIQd8yn4Ce58ie5yCNCCK/+RcIzq6cj1Ais9CWYCHL3AgRxw8D2MkV5H9EM29snOxAvnsz/20sbFNWyVredAqBA79sK3kGUyuDe/QADpnU/DT3xAbBz67X/35UvuS8cwzyMVsuq/c/gM3DMHSqKgI/fn62zbI0T/sxPnulcmovKx+C9cPAYSm+nWuXQnUdIdPxWn9TfPxQ3EkH02AEv2q3/swACGnpEKuiWHfugfoggLctArneexqP5JUoixfkqQWR3Bjv1N3+RFavRLfHIfiSsrqLSd6rQYK06zr8RV19GluOxH35EKCU//EC33Yh9ihnP5TeeyYHqmC3asD3QAM33mr3IXf3UO2eQlOuVzdOSgJ7EqMZnNRV/0YZCBAObdOK6JnWmTvhAP8TaPqumWH7N9csGIjOI6n3EP/UaaHGzVYE+chLlBPNvg92zYINd1PpNrYMPXHP0mCO3kPxB/U15YPaPG1OrRfQQYH1ae10i3Z5N3+26cm1EKOAxdqbX9wqxu36+zPcEikzAFx+EtBxxoWWr7FYHBgEAeXUh4DsnJIAGBz2c+RyoRBIMu1SGkoB4jj4C8pnqCaKgQtDEe+dYG7opBTxCwHeVTTM8IQ8mmBvTuG4RSvICgbG/E3l7S1u27YbIewWCpqj/KfljyqDzIoCTnOeSYsmPeqMSn3mvsQgBp7/T5nj5TujZ/xCjVo93e3tY7dqE38r2Fraq3KkZvK/5GvtXuXzHoCUL3u1xbrAhUBCoCFYGKQEVgRAhUgjAihOr3PSLgOarHEZ5ZefaZ58GjGi6lOs/uPW83N6AeFYGKQEWgItAdBCpB6A6OY10rJniaLGPVhFnIJrb0tDPYQAOjVOexkzkNlgbWZ6IDjXhtvyJQERhbEKgEYWzRdJf7aZa1pWNm8JpNa3mR2cSj4yCL5XKe5VliNZif6Y0OfOo9KwIVgYrA+0FglBMEa86tjzYhJstdzGI3g94yFbPLrQO1rt8MT8vTTGjLNZZjmPFp7a/lX9YHu846U5PrJAoJQ+k52z9bbmZZlYmO7utck9RMjjMJUvuWkViOolxu6ZVyte+tr/e5ZSLWk2ZvAO1bR2qtreUwNhWyjtT67OziaK2rvjmygZElLtq25MekwCx3MxLWlrXXZLPUzRIko+O8lMrMYf2z4oC8lslozx4J9gDQnmVgViC4t2stuYKXflmmo79m8VuC5Bz/W9dtGY5lh5Y3WTJoOZD15TA0a9lyG/sdWHJmaRE9WP5nmQxc/U1m58DYyhM/lijB294VJgRaUmbWLuwsoTLh1EY8+i6x50UtrlOVyPImE1XJiYhYpmSpmj6Z5Oja7GNhpUt7Od77cYp6TUWgIlARqAiMhmWOEoCkaS2pJGRjEGv9bURhCY01xRKMda02QrK+HkmwAYT1tja1yEY7NgOx8YNEKEk71y57ZtZat+vZtHasYbfOVJJyuMY6WxuAIBjWYFtjbkRsnbR7SMBJfM6V+JASSdghEVvLqw1JWInb5hvW1iMV2jA7XhLMEj47qSEbNgSx7tfaYUv9HBKvv609hpG9JPRDYrScKPtLSJr6b0Me/YcfoiTJGskjB2SSRK1Bl5wlauTJ/bQt2Uuk2b8BebJxiiTvkYENbOxvYCMVew/AUUK2lpzu7PNgnbvNgnxmUyD9tO42WzMjIVadIGvW6VrfrP82iEGAECkbCNEXQoYUWsdrhrQqAPz0K/v7w9QeEvYiQERcT1fORc4QsLz0xz4D9agIVAQqAhWB/iEwyisIEpTNI7Kph8ltdmWTACRzG+bY2EFSNWL0ndG2RIcwGM363uQ4O+cZWmUAACAASURBVHrZ/cvIUwJzjh9tSGI2yLCxRXZrk4CUwSUQSVrlIK9F1rY2jY7tNGW3KhPfnC/RZdtPVQKHTW8kJknaCN33khSyI4E5JD4JnGwOJMPuaBI3AoJUIEmutVkGmezmpjrhntqxPpls2rJLG/xspIGo+B5GNjIxHwCBsk+E9hAMz+Pzngf3lOhdb9MZJAMpIr/Nruy0pz+Ij6RsjoFrJXbnIlnatjkIbJEistmBy6geMdCnlPdVIWwyYykP8mcjGnse6D8SgpTlDZWqKEiGig0ygwjAQvUAnqobCJ6dyBAZOkBO7GqJHOoDTFQOkDyY1KMiUBGoCFQE+ofAaCMIEqNkYyRsC0wJxKhVYhDwjbAlCATBjk+2AFWWtnUkgmCkbB2uBGI3KVuZSvgSssQp6SEIqgp+Gw3b5cwoU/sSklE08uHRgQ1z7KYVgiCJ2vnQKNuGFqoP2UYY5JKYBOeRidG5qoQRtJ377HKnlO6eElneR4EgSL5GznbX831eMWorZzJlt8dsQ+wzpAhBsBWrA155DCIZSrawtL2nfQyMvFUDJF7VhJCSEAQESRu2alWipwPXGumrDKiUhCDYHwFRyJvwXBeCoD9wssObPQU6CYKdyZAEj0ToRB/zPgZ6RZBUizzqIDdihiDkLXJ06tGBRyyqBR5DqdoghghSmyDY2Y2ubC+sL/WoCFQEKgIVgf4hMMoJgkSrdC6YJ9gbBSpzWzan/G1kKjlLlkbWkgQC4Tm7pKoCoSrgmbaqgJE/kuB5uufm2pOIXC9x2c5SApXAJRtlaZUHsngWb6Qt+doWNPvLGxlLVhKXZK1ULjHljYl5A6TPPQIxcjbCJb95CrayVYVAACRBz+wleiV7Sd0OZc7XH4dRsrYlW8lUkpbQzdOwDSqSYX6CkbKKAuKAUFk5YPtM3+kDTOEooSr/I1ISOVngQg5VFtsNS/aqJEiTxyMSNpzNEYAdAuYe5IEZYuEedKVqgVg53yMQ5A258AjAAUvXSfoef2jTIwa/JXb4510SqhfOMe9En1UY4MoGPIJAdMwz8DjIo4e8hQ8G8PWD0CBqtjlVSalHRaAiUBGoCPQPgVFOEMwNULZWBhfoBXUje9WCvO9A0kYKPIYwt0BCUlHIq51dL+lL3MruKgySrxn1iELeluceCIH2JV+J1KFaYKKgXcEkYGVrJMPoE8nweEMCM7pGULy/QLIygTLzCbSNcCARSApCYTdAFQVySH6IQNbmm18hIZNHOV6S1GZ7WZ6E7n7OMQo2+VCVQ0XCoXri2TsCgmCRASFynftK0kbx5i34TsL2t3kdHuXA2xwGOOuHZK5077m/79t7k/vbYwKHRyjZ2xvB0I72/Y1cmD/h7zwWQYg8giE7XUr2ecsnIqV6otJingT9Izx5pa37qeT4zLwGcxbsHQ8PlRCPKRBMmJPPZ8iK+RX6n3cl9M8t6tUVgYpARaAiMMoJwshCrlQu2UgqOYwkJZyxbTKaRKvqYBSeZ/1WaCAiHn/k3fUji/GYcr6KhUmSeaEMuWGBaKm4qBohF/WoCFQEKgIVgf4jMOgJQqoA7Zf5ZNnf2PhOBiP9zGmgfvioCpiTMNQPBAkxau9zoHJhPoL5JyaUDuQ7JIY6vrV/FYGKQEWgjcCgJwhVXRWBESHQ00tlRnRN/b4iUBGoCFQEho9AVwiCpXPezGdkZz5AX3ayMxr03NlzZHMLjPw8jx+ZrXI9S7eMzmZBfptPMLp28xtTDU1Fgv5gZ76H+QV9rcy41vwDFR3zD+pREagIjBwCqn9WNpkL5BDHrEIy0TbLo3tqke+Je2Inv1VVbFcWe7rm1VdfLdc4xFtVWdfzd+1lzlH7WvOP2u84cS/7mGTDOL5PZrE47Zpj5Rrtt9s1r6kto2tMzkbw5Yy00b4/+d5PdVRbJnSbLG0Omk3iTByvx8gh0G+CwMA9FzdZj1LMdrfpzfAO15g1b3IcpTE6RmIZWzYOGlE3GKZJf5bxeQ4/1VRTlUmIJs3Vo+8I0JtJn/RmgyRLMBOshtcKfZk8avmjCZqWTNajIlAR6DsC2cXUnBoreKyqsoRbwrWM2sTp3g4ToS0PNjnXMmWrp0xIHt5hUrY9SRABcRdJMLfLKiBE36owk5xNzpbkDeLM8xIbctjzBKERe11PZv5v5ZHJxIiBhG6CtUd/yIQYYVKyOUQmk+cxoD1q7JgqdptbZOWUQaP7O+CTvW76jup/z7SfjIntcov9VUxAt4mdCez16DsC/SYIdgaUZCw58yP5M5b2nIG2OIzOMjubIklMnACrtYSRQu1R0JfDPgeWxlnmZ/UAw7STYH0G3Rf0/v8cyxitGMD0Lde054NqQl8OeltggQVKEKkEoS+I1XMqAv9FwGDKwMokbAlMQka6rViS8K1AGh5BePLJJ8tKK/HWJmiWMGdU3xvGBlX2NLESyF4jVgBZDSZ+IweWSluKbEWU1UdG95aJ77///iWuqjRaDWbPEfvPSORkVj1GcpxnLpAN4+w+K46I8ciHZdaWYFutloqEeyI6XrIm7iMa4rqlyvAwACGDpc4je8AXIbI/jSqC+1jx5v7Z7XVk2xwbz+83QWB0kj5DYRxGn/Yo6C1RcwjGxxBVEXJYSmjDH+yUIVqC570AHMAOf9a5qxBo1yjX+nvXICJKcdqz9p+j2Mgn7ymw7FH5CjPFVMlryaHPVR585zPnK0VhxNqU9LDbHJgwR2K82LcljpgxI7d/ACfHVq0okHQtvcOkte9abVvDb7UB5sx57LFABk6I1WO3SFKWQ+qPpYIpvaVkR1ZGbi8DexCQSfmOI5HfUkn94xgSOH3Y00BCtzSU7HSGUMHFRD/LMjm2tm02lZUCdKGyY8mhEYKNrOjPfgiWFZJPgLKLofvbV4ETckZ4GNl4/EAmIyM/8NN3GyH53woEclmyadQBB/8LYEqcmYQpoBox0T05vZ/DfdiJ4Og8eOpXXkGtH0isfiBAAisbsreE7b7ZIAyUMl0PV2QHnuSzoZN9N7I7o1GIzaNgSQby2bfDNZab2nhLcFQdU7q1pNYqHL/dz4hIwPQ3HNiq+6ZEzEas0pEgfAZTIyl2Q+7sAcE/kDmHqhtbpTfnSiwp+wqS7MZmYdq14iO7j+ZV2XSjP/aj0Ba78r++IY78Q5vsAz5zzTVX2cpcu3zRqJPNKmEbJIgB7I3Psg1JiV+yTbtxsguB39JZvkI3roEFu4SVR4VGrvTJ/+nYRl529LTklXywEXecx9fIJ9mQh9zaYluwhgO71Cf9YzdikWSVx2z0Ef93nViUd73QC9vTJzqGsz6wO/3hQ/pDhrxLBWawZYtk4dvszsEm7X5qoMQ/yCzBKovDgcyWAMNRLBFfYGGHVDYtFrmPiqnRMl3AxTJf9sz2yMT/4ZTHhnSRHUrtOaLqYJAFY/4mpiEIdEy3bIW/O8gaO1d1UPUQ38RTffCdKiQ7FePswOozutV3OKSKIDapXnicYo8TcXS77bYrMV08hZdzyZOKAox8xofFT1vhq0iIQ3xFdcQjbv1BtOwKSzb3csAUxuy8DiT7Rnf6TRDchuI5HaMVxFUIenuOTVkMn8Fn2+KIKmBJEIKrAORvykcM7KSovIUICCCUz5EkLkbIqAVzR9io35IJg2LQWDMDE8wYE4PTjntlr38JD9NVkmobEWPkEIyZUwku2C6WywF9J1kzeEyc8wtKggQ5BCTBxVI8QScbHXkcI/jZi8FmTvY5IKe2VWIkWLhwCHjB1iZLHMCSPudxXNdLPBKFoCKpSSJkohd9tKOhtpUx9U0w4aScnKx2ReSM2vO94EtW+DrX4xzXY+M2QfK/wGlzKYGfruCt75i7oMXxya0vEqH75SVOPrengVEMfUisggOiqD1Jmix0o2QpGAhYiAEMQopg7zojG4FIAoe3BCppw0MwFGhVSywHpQd9dI7vXWPXS23DQsAUXOGubddIlIIY/buPJZZKpypYyqO+EyCzRTiZfUeuvBobSZUkYE1/gjDdsQd+ZA4Omdg1O2WvZHNPuqFXJE3y8lsglfwFSGVpu1f6jh7gpi8qbYibRMJG8mxbcrYxFywkRrIL7P438tOuMnbsEYmkA/20TbdAK5FK2oIyuSVIOkcIYC45CMqeqQvQ9jeRBIySEULkk3+7B/tHbBFmJWcxBQ58G6mFJ52TkWzsBznQloON+1vypQN2iqCwRXaDDIopsEJQ9UP7yBe/dh3fR5Lg7Ro6hrP3qrANtk4fdCpZu0Yscy/9EP+Qu7zfhb4lWP5KL3mejjiIG3zfZ/QvNooV8CITW6ULpBJp9sPftMNm2TY9s0V2A2/JHzb0Q+9wa8/LQhDEJzaH5MNZrGNbCIJ7sk02gtiyfdezffvAwIVP+g7e9NETQaAPunQNu+Lj+qldREscgw1yzW5CEMRTcQD54p9kSjVarLPpmz7RI9yRIH0SPxBkAxXnwIXtsmO4wgdhoXsxrVYRRiFBYDwSJqOlfEGztwkhIQiM0mOF9iERUiqH8J2EzxGzta+gzwk5kaRvxMLBOalAZ+MdjiFwcFQBSXARtBgRY7RzoYTIyRi3ACdxGIUL0BIfo3MPRMSoIJMuOYUA6X55+6EgSSajfedJJEbsrpWQJTpBmzMKSgKmRJRghAwJvKov7i+42H1QEDU68L22BTA466fgayQo0dtwSUAVHMjMaTg/LCRfzF5QEygFMQFA0LMFsv8RFLirDnB8mCEDDiMrZE55UCCWgARxQR2+dKA/qi3OEQwkNMFA8EcS9YHDI04IC1kFDAFUEISTQIDIaAf27AexMrqDk0BHXv3n3IK4Q8DRtvtJ6OxBvyU+eGf5IxuBLXsyyhJg4A0/QUdAFvQRUO9yoHM2iGyRX0JKCdhoEdERNBEdiZcN+NzoxQFrdg4flQm2JpHzCRganflO0NJ3OuI7+iCxKd/CwG+61yc6t0Om89mzHTklOOdIZPB3DyVgI226lEzcQ/B0Lh0jCdkvg55DUNlu3lNCTjZNR4gYH2KPgq/z4WsDK4FY8mOviLX7q1xoX2AX+GHN3iRT/VZG1g8Jkyzsihz0qB02K3k4HxkS0NkRrPk23PwNLzbG3ukyB5n0XxmdLslgxC2ZsSGHah6dwYQ+JEx2Sx72L0EihjDPNfQvobN/faBv/uMa94CH2IBMa59eyEIObSJmbC3JDiZkp8dUgRAAuvQjsWnP5mj8BZ7ZbRamYhlSBVPnwgYJZ+PiDtKmHwiZikcOcVCM5qvwpls+nGTM17THB/iKOM1vVTYQNJU9Omaf9IZM9UQQxA52pA39yLt0kFZY8zkkib7bBEGfkBzVEfIZMCWZ838kgD+K2QYbbEM7iA5/TvWDXfmcD4QgiIv8gt0M9T1j+pb+R3xWVyoIWWZGuUb6ErrSW2antsUwUmFkEoOEn5EqQ/aTrZIlkrwSmPNJbEasDIbTCkacUGAScAQqyheQlYY5pxFgCAJDFYgFEwEzRsNwGZtA4cgoRmLgwBI2x3C0CYKE456Mn8NpQ4Igs0CKFHQSBM7BWY0KBFmJjsySvN8SncAHB31g0PBSMtSW3yEIAqpkIJBlBCbouS67Shq1SvCCgdKqoMShjRYkmRAE/ZLwOb1KSZsg6KNRMAIl0QlECILEYfRDnhAE95dkjYaMPJT03Z9N5E2MSsBG/PQm+OhvtsCGD70ZGRldS2jsgc5CEOiDLBzcyI48CJmAgLSxEcEYQWAr8JAAEIAQBOcJoEiAEZHRRgiCa+kHQaFPiSAEIXbs+hAEoxJEgr0jcYKlUbv+S7qIEdzZr3MERn2ULNgQfEIQJALkFlawlgwlF0mGzfInxFASci/kkQ7YgoTBXugmBMFvJMxIzjlIZJsgGGkaudG7vrJzcvIt53YSBH1WWhekVTf0my/rD3/SP0HdwX/hrlqiX86VqPmHc50XgiCRI+aIV+YosVPxBD4IEn0hQRIXn+ZffsO2kyCwHzZN95K8NvgbHzOCZbtwVG0YHkEQn9gMOzRwQdbcV+LhiyocqpASHJ2IHRKVvtMfu/aZBCvJtQkCPbE/coUgiDlIYpsg0L/BF6IHSwRN3CMP3YpfcIzf8g391L/eCIIEzD7ZhESMWPDxPGKACb2aWwBHBEIfMwrPY19VIX7m3u1HDAYc9CumIDUIk4GZOIUQIBuwVw1mU22CIC4go/AS+wwInMf2/YyIIIiTKhPuy4/JQA9kZyf0iSxWgjBicuCMfhMEDJixShIMz4if4Qr+gi5n6awSKEdybAxQMnONUYHEEabM0AU9ClcixPb9CEyYKeZsFMKJySBYIhKSBmKAjRtR+wyBMHpnMIIuVslBJCHGl1KdJCoAuFawVFIkhwATgqCfgqfAIPjoH8dlcIIDoyaDYOY7y2skaIlTPwVDfRWUlaUFRs/MOYpko3IiSXFM/ZM0ORRWT3aBEnaCiDYlQZhxPgmBLsjuHMlbwIGBETqMtCkpawt2RkNGBLDhfEbhEqbROYcU5CUAid0jEo5Hv+Q2ospOhhIMmTk04mIESLewcQ3dwkjQ1kfBS1BhC64V7OElMfiMDCllSpqIir64r36xAYGHrpECJE1Ak+DoVp8FchizH+3DCHkRwJRlyeR+AhLioY9sQBBBDFR/JDPXCaA5fCZoZoa1ERH70ifPxgVenyF+knNK9nRDHo+NEMq8dEugFUDhTz9Ii+8kY/r1mUSuzJ1HNhIMrI3U+JFE4b4SsL76kWzZL9KMSJk/wdb1BTGnTyNUPgAHycf5znO9vyXTjOqcK3EI6MinH7bOZ9iwfkg4/qZzpBxxY9v6x2Yz1ygkkQ8hKu6FIKsgSS7sB/mFM/9lE/DNowHXkFe/jYrzOJCt8k864+dsTtyQMCV4VSk6zu6bfMD5yDJizGZVhbSN2JJdPHAN/0SC4eHRJHtUneLPcNdnMdD/4pY+SnRiAPtyLmwSS7TFDxGQvPbe/T12ggvf5LOw4yNkR5b4FBtmQ8ijKqi4o1LI9umDjuEt4SLX8DGHgc9Gn+Z+iCdw8fhF2xIqgqvP4hA71D4fZG98j11lDpF+65970rdYR5f8HDFkH6lmsSmxil6QTzIjUPrLbzNYy8BR31QQ2SffETv5sj5pM4+WxA3VA+SDz4oH+mOgyg7YDqzdy6BMW31dyt23NDp0z+o3QWBEDJixcSzOiK0JtgIpZXQeEg/WGiZOqRwbu5eUGb/RJ3adZ1+MApMWpIywJU4JiQMp6TJ8gZizG2UwAImPgXECgUuSEWw4CqeR7CVL9xP4EAHJz/8Cu6DpJ8bkfhIUQ+PUgieiwuGQGfIzTknAaME5HmPoB+d2LwmX0aokuF4JFUYIQ55/CjAwgic2Tx79067Rg6BnJKoSIJBIphxaQCKr/kuckqggp/+ZeOYeiAR9GfHlWZ9+kMH1HDUTk5yHiHDWOB9iJZhIFJKpYOR6/XFfwZBcAomSObLkR1B1Xh4DcWKjD4EfeWJLdAYrkzYFGwEU44etPpODzlVpXC9JG0Xrq+QsqcIc0WE7Rq2ZlNm2KUlTQhNkjeT9LzkhRvQrGbuP7wQeo3MHXbhvRuLsMK8eV2nQT/2DjaAs0SEvbAGuCJW+8hl6YW8IgNKzgEc/AqSERQaBGG4qBpmLgoiynywt5m9GmuwQBvwBfu7PbhAndodMJJCrbrAxgVZCcOT+7mmUqN/sD450Tg7X8RN2qH3Bno+xEckPNmSgK3ZIn/TB5/xIJsiXETib5Rt5NII8kFEidq2qiT6TR+JDbvSTbrUp4bILJCQjQnEEGaZbNkI/fBl+SCNSKgmSU4Iqo6Rxxim/2xtu8RfVH3qkB3rzNxuFBTuDMZKqv/CCC1vLZNdM+JXU9Ist8EcHXNg9csPO2YTYobInsZGfrvi0uMaGXM/XJXT4O8RDyZbseZcKwggDOItzMOHX+u/66DMTLxEjGPjJLrXBJXNX4rtsmO4kdf2Eu37yE9e7D39AwDwiol+JHUaJA/qDvKi6GPwgUWKI2Ny5FwLCRH90jBiJO/oqdqnWuSd9iAHuTd98CiYqCWTju+KDKpbv8tho6Kb17vWs3wShe6L0ryWGLUkbfUkEDoGHs0jAgmZ/DkZpdJBn2Ix2MB4c0shVgjGiGMgjcxSMXAXz3mYGIxmCg9EYtl9nEA+kVsbetvmoKgSii/iMaOOg0Y1UlmojiFmiaPRtHoDRdnvuwOiWdUy+v9yA8IlDPQ1Yx+S+DbTsQ4YgAAqrN6Jo7+RohGpE2pfdHYcHNgbtkYXqBVZrouFgO1RJlCqNFDxmUMUJWRoIWZULjYSNoowolL97OoygzOdQpkVc6mZWA6GN2qaqpBEuPzA69QhgMJNRo2UVOKN9j4yMpvmQGKNyqbxfZ9v336497lChM1gUg+rRdwSGFEHoe7frmRWBikBFYHAg0PkCtsEh1dCRouL7/nXZVYLgmZQfz1t7OyjLjyMbv3g+pTzo8Ay4t10Y338365UVgYpARaAiUBGoCIwMAl0jCMplJtRYlmaGcW+zRLOGGZFQBjdjWenHJBOTbJTFTcKpR0WgIlARqAhUBCoCow+BrhEEz5Y987O/geUwvREE1QMrFayfNUPa7FWz6s16NZvaErC6BGX0GUS9c0WgIlARqAhUBEqV/93U9vuBh+WHqgAmB1kSNDyC4HaWvVgnbjMREwitx7asxxIUS78skbNE0jIoa2D9b4kU4uB61QrL0ix3cliSZ0mS7yxDtLzFBB8TCy0lslzL/5YgOTdbwbrWDFcTGE1eIb82rPW19CiH1RAm/tnXIZOeyGCJj0mAqib6YembGciWoZlopBpiqZHlSZb/mSxjJq1+uK8KCrmtiICFZZfkR5xMXHIvy4H03azsyIVkmY2b171aqmgJj+V1dAFfS7AsO7NUSv8skbSSwNr19pHNSMhp2ZC+WnpFj5YUWZJpDbYlRtZ2u6dHQOSHlaWWlj3BAq7O1ydLzCxxtB8GXP1v7wG6tHSRrJZ8+d5EUpjAVJuW7ZHH4V55b4QZ6pabxQbIoD/0rTJlqZU2fRY9ZT8JbWvLbxO/7MWgXasqTA6Dkz7SDzu0rJatsJ8sfc3GX/Smv3SiLf3Ub1jqB9zpUkXMypr2q3CtMEGi4WD5ofZV08y8J5/Z7JZ70Rls6dbfbCTtZykauzYp1+oa18a27PVgqakfslhPbylYDr5gaSK7sj48O32aMOeecNY/1T1tBksrgcia7XstoTQB1fLQvP3PuZHFPgaWTtpXgX+ZQPh+Xt3bj9BUL60IVAT6gUC/CYLgL4lJqAKm9b3t/bM7ZQtBkOA8khAwBEH/W3cu2Fifa327na8kSonebHn7JliHbPMN69etJMgGOFnvbZ0vsmJ9sMRhvbOkYfmQ9eXW9dqC19pf661978d1AppHHdbat+dRkFnyl6AlT8v1EAEzj60vt+ZWUrJ5UrYN1rZELXm6nzbzHgbkCHmwrhu5sPZdoLe2WR8FeLOw4WGplsoKAoUUSfQwsMbY+maEQqIw6xlW5JGwJDckQdAX1K3AkPBh0j7M/LZOWCKw/t+SK2QDZtaf04MNTyxlJIMgb/25ZY2SjMSo+mNJpUdDEq9+SpCqSnSL5LEJyVgCkhTplv6tS7cqBKm0jwBs6AoGbEG1SRJzXys0JDP3QDLgj0whJpKaxElmj7hg4kA+EBM6tA+F75E690HkbNBifwc2Y9MXm26xY7qDqb5ZHSNBIxvsDFFCFhE+6/+1xy4QMFjqNxKhSsauJXyEh52wO/dEhK19t7mO/Qvox6ZA5IOz/rPV7Dhq5Qf7g3devES3+szW3JPN21gJwaI397fLpORtf5DsFZCXBvFV68ZznnPoxsY4SIX7+JHc4Qxvy4iRZfKyT/sTuJ7OECz2pQ/sks/CJRtjsYnBvKqgH3G0XloRGJII9JsgCBJGCJK60aBA6LcNanoKBiEIzpEMJWUEwP4C/rcRikAlcArIkp4RlMArmQrMds2SIBAE50pORmqutZmJnfxcK5FLYpKvxCqwCWiIgsArQQt0Eju5BVWBzihVW0Zz6YPRtU1+7Mplow39c66EKikL1gK9ICihSuoSuWBt1Ohz65oFU/c1EpeIJE/kIVvdCswqJ9ZIG+mpPMBC8LeJChn1RWKHuUcykhE5JQkb1KhGGFH73o5wSJwNarTdeWSTGn2S7CRkyTH7mpMLeZC0BH3BXnUE6THq1X8ERxLXbzs+kiM7Ixp1klEChh38bShDFiNf9pPd1xAE/ZNI2YMKEYwkLOfSKfLiNxIiAXmsBQsVJ4nMhlfIk3s5jN4lPd+xJdUcCd3OcAiRe8KbTLCGuw2fEECVEPpDatga+9RnerCpTwgdW1BlkMCRChjQtyoBW8smQfSMGCICRvTsmnx58ZDRvuQtabNBJCekzEYvCBWiqrqDWMGU3tkpUqhiQQd8Arlwf/bPPmCElDjgy38sTdUOWyUznbE197dpjw2q4J6XdvkbkaYz1QkECYlDgugVtrYVRrTYXt6dwnedX6sHQzKH1E4NYQT6TRBsQCFROoy+jGgkPcFHubWTJHQ+YjBSd51AaLczQVOA0q4EkB3pBL6eCIKkJigjAdoRtJSvkQEBUdAT2MiY15caPUp2khuC4DpExf0EMtcJchKKQOsYHkFwroSB6Aj+2SoXmZEIJF+jPKOrEARtksnoOe9jUIaXaI3WEJiUgY2+jWQlBolQsiCPpCD56r8RrmTvftqTdCQCSUIVAqkwUpaQsmsaGUIQ4K+krMqABCBZSV7Okdz8ljh7IwgSpVG+6ocqjyQXgkBOpEU7MPUdfUu6vREEo386QqjggWjRF/tiF0bzRq1G1R4JIGCIHTLFDoZHEFRIkKDsNY/8IToIg3sgnEr6/qcThIisyuuwdy0900e2CleRQEbYk8RJLkQGwfLoR98RFzYioZLT9QgIfOwnIcna6Q9RC0FQHaFzxAVBgKkKDpKN+GjLXB4EAbFCBpACDQgBNgAAIABJREFUVRk2qZrEHlRfHHxQ8icLe9c3P3wOwUS6VAH8TVd29tOWe5LFeXzJ96pG5FKdgBXfQyCQY6SLzbF9jyLqURGoCIxZCPSbIAiEAqBDWTT7+ks0ErrA0z6UayWHvBdAUPe4QBXASCRvYpMEjGIEXMFOlUISlnQlVQFOQhO0BXkb8fhMIBS8kRPJwxalSqx5FGI0KmCRwQjQfVwnAPs7W0crgRvBGwkKqHm5EhmNNAVG9xI8jcDyqANZEAzJLdAjG4K/EabELWEYpRqZIgiSo+8kf4HZYwMjRQkCyYGn65WmyScYC9TKvUrriI5kh0ApLxv9Iw5wMZqWZCRXfTFqFPgF+ZTgQxDyml0kyUhWUpHkJRykDcnQnmslJDggMMhLXlgkoSNj7IDe3deoGh70jTzYhhWpU0GQKOEoIas6qMLA0igVDnSW5+ueZavUICewonvt0i896zP8PArxuUTrUBnyGQJoRCvZS1rkRwhgCzsEDHZ5lTDyQadGv3QEdzIiImwBfhKkETcigSyoDtCb7yVvOLAtv43q6RvphJfRNLnz0irXwwLm5PJIxT3IBTvVMHaXFxixU8lYtSSP5pAEfmBOD4KEKHhkBg/9ygiebGRQDWFDqkzkY1N0pKrgeySMftmhtpAvRNNjC33Pq4JVmeiK3yHBeTRGJ3QGA+S3HhWBisCYhUC/CUK7u8rDnjkLSAKwwCBRtQ9B1qjWc3EjQqMRCdEISzVBoDTC98xVaVbwMYnMKE0pWPuSplKm4KcdZVmjM38L5EZVyIUyvmRq0pSqhBGN8rBA5zmwpCOw+dz/npciO5K3YCchC6qSqOApGUmk9omXzARD5WojMSNQ5+q7AC+xZUIdsmGUL2AiSPqobUFb8hL8JWDkxXNseCBKSuDIBJKhBKwN8sJE0Jb0ECylcCN7SQOZMep2DlKFTNGLRI3MSAiqDAJ9u4LgObnHEEan9KNtfZEAVUAkLFjSQ+e8VgTC6Fc/XYPQwRExMwfDiNvoFcYhkf6nK4TEI57ONk3ENIlPUje/Q4IyipWE9RdW9EuH7EZiVhnx6MBPDglZ0iSLxKcawT4kSbZgXkJsiCxsK28nJK+E6Ty6Q4bJkhcPIUSSpKSNYBqtk8HfZEAg2TD8vaOE7ukQGdYG8kLXCIZEnEck2vO3pEpelQHESkKnO4lbxYws+o0o0Bnymb7xIXZAL/rPZnOwJfasr8gPm0DY8jgFHmzTnBeTb1WS+KC23De+iZAgpeyePcFS//k0YoP40xfS19+dTMessFqlrQgMDQS6ShAyWzvPVgX9ziWLmYEOvpS62y/oyLV5NOF35ws8OqF3ThKM6/PSEZ8hB7lnzmufMzw52o9HMsM+5+d+Rp0Cs1G14Nzub2b657P2bPasLJDAkQlkKY9kcq9g0YkJGXL/dp/ymd+qKgiDMj7Z4OCZvpG9pGbkHIJgFKrcjVC4V4K5drLKw2ftF7n0ZP4jkjNtZDXA8NoM0dEHZAfxkGhUMdo2FFmDWedjrU57681O2tdpy08+62yjbd/5u40HnbQ/b9twvmvbhvY79dlpZ9Gz81SikGOPbJCJtJ82siIkj5N6Wjbcvn/8pW3vSAxSls8QVuROFaSd7Nu2EvtG7PKqaMQljzaGRsisvagIjD0IdJUgjD2w/benSrlG7p45Gz2bmNXXPRxUApS2JfIs/+vmvusqEUbvRpLmFzgkW7J6rpx7eRSknG60aDUHWQbLYcRucqDHCZKTisPYPhI1uqdb1QuVBNWwgThU9NqvuFYRUkVoL5fs7b6qIfRlLgudqTrUoyJQERjzEKgEoR868+hBmTiVkuFtMd15G9cY0Rt1SXqu7eYSMInEkaVtvXVTmV4idigVD7ZgDicy1pes/L8GJevsw9EP8x2wS+nM4xSPLOpREagIjLkIdI0gKFmmxGgU3dtIzzkpVUuI2TSoXR4d20eJY645dUdy9pFNsfI4ojst/28r7hXbzXtEuknUBkru0dluG7PM2amYDYxGVBpV+7pZXRwYSfveKp82uPLb4MTAZLC/mrvvvRtaZ3aFIFC0MrVVAZRtApRZ8D0dyo+eJWdJnrK8iVomc7nWzH+TruoxdiLgsYgZ8n5MyrMSRql6IA73Ym+eq9uF0aREczRqsusd7SxxtdeGKoFHQCY6Vsy6b6EmeZswa6KulTdD4TBAtCLLY0PzaFQ4PWZtP84aCv0cKn3oCkEw094sd+vgzXS2gqC3krBysZnXWfZnNYJJV2ZSIxaCdGWTQ8W8Rr4fHtlkGaA5E+ZFWAbZ7QNBNd/Cox3LLa1I8WzfKpV69IyA0azVCfzcyh8rKyxlrRsgdd9irOyxEZZJxlagDBUCZsK0FT6W1rIftmSO1FDpX/ctYfS22G+CoEQk0FqqRfG2XbZErrdDtcFsecvMEAuGYUa97Xst3bOu3/p667KVma1b950KQ3uVhM1lzLS2lMzmMWa3+58clnHlMYbHFQIYYuIwqUtws+GNGeAmY1mWZ1mjpXWW0lnWxmgtM7Svgc+V+CwBtDbdcjYs2Ofk1bb17O0VBZaHSXY+s97dJEAHuSw/sycB2Sw/NOOb7P43adCyQEvYBIbcx1I3cxYkNvsAOEdbuacloGaPI1f65lqyZbMjAUc/7Q9ALisv2jP6884DnwWj6NB94GzE7X527oOD5Gq5p812yGTPCCNMIx/ywjGBwP31RR+d5zpyxFaMRrO6xFJWyyn9r1/6kpnwyGSWcyKj8JthhhmKqPqq6sCu3N8mRPqr36pbrkVc2RTdCcAwUiZHSpxHDjpgU4iDDaMs9aTjYG20Y7kiWzHp0yoQiTMrF9ixvrFf98t7JeyNwa7hYiWJ5av6Yr+F9gZW9nMwFwTulmmyaTLyM3jBMSsf3DOrFuierbMTshqdkdt92S79WWasbaTLdTCyMZfzYWbpo0MVT3uwcB4fpRck3jJeh8qBkS0fsgTYJMbsfQFvdk3OBH+yIxkOAwI+oS+ub6/wYYv0o2/8Tt+1Y/koGRzmN6j60BG9+V4y9ZteXWeEak+NtJ3HVRKTfpKLLvyvf/Bil/yTjbNTv/k7PZCDvfD1PI4Sd+Cnb3CPDbAR8UP/6NgqIT7DZvSNfxsc6bt4hZha8pxHa5ZBw8pKFatJ+HtW1YgBsHO+FVCwVrElG+wcZKW76DNx0DmWhFsqLDmLOzB1jxzOJY+t2u29YQVLKr6+c74++Iwt+e1+SLY+w9x+NeKsuNomkJaS+x/WlmizafHdMmv6cb4jO3jmvR6dj6CjU37bnjhLL2K23/FX+rWUnO/xB/f0fezT/iP8gDzsyaGqqHoZv/RZezVSsKJHGNh+XY4SFywLz2NyOQbW2hEvfSeesRW+KM6xCzHE3yrsZKOnLE0WB9iN+O5vMU1/4KySZ3m6vXDYkmpM+xE+2TLHjH60kb608wc7hz3c6duScHGj3wRBULB5DkcTnG2Fa++DGGonUWgTBGzSrnuSvc1zbOYj0AqeyAawHNa6q1D4zbAEKTO4EQnJyQoC6+LNmPa3pYOMgkzOIY/VBhKJ6ziv9wJQKgexbpuyVDUYvqRgQyGlPcnGOnLt+o3caINhChScA5kwq5xDSq6MECngDB6hcPZMFtR/RiM5uK9kbgMoa+W1K+BaZ64KIylzHntKUJz/BUEykJ/Bul4gS4AWOAUehoOESQocwzr+7LEPS0kI7vBxjuVoyvoMV8CS8HOQWaCydt/KC7tBwoNRGnVb/06P5BaUre4QsPztM7jCwzUwtXeEa1WLBF7kQX8lYuvp6UuS1Sf9hIF2HJxNYmLskrkklsQvGHIeeuFAHIPsdCtwaQsmMKZjG/7Y54Dz+tx96IDcNoiCGcJLDv0kl8Sm/TgvO3MNUsS+3M/37Ir+BWEBie0IgoKzfnu0oa82pWLv8LDBkL/dJ4lRgLZHgX0JBDE2wxbsjyAouyfZ7EcgOfMRq1TomIySpV0hPcZjYzZi4lcSIvuhe3i6HxsQFCQz9u9v+4fon+RMFo8ULDmFlX0O+Affgiks3EPgsjQVkRAbbJZEf2QXhGAOmxAQeJCRD6kuut45ZPK5NiQVK3JcL4jzdbFC39mQRIz4sUUyC9AIBLuCq50fE8QtKWZrSDy5JVhtuIfVF2xUGwgTuxfUycCP6DD7d9gXBO5igGv5tGs9ErPniOv4l31PtEfnkhDsPZJ1vb1SVMncR9yiEzFV0tAOHPgjjGDDL8VG14ljllnTE9ztx5JqG5uWANkDjDzW5VPIj9jg0QW9iU/8Uv+QDv6FkLJ9bUpcyKXrxV36oGcy2ESMLYmzrmfP2mfj8M77VsSNkESEn9/yNziyVTJKrGIL++RD4pNBlATMRhE3facTsZee+SibosccyBwbEYclVbE379kRk8QIiVQs4NtIF4KAVEjK5HKIyfQEd34EL/czIEAEkCckmp3LYwYqkjF8/B8SrQ9in/4b0LgeRvQmWdvrhH2yX3ECrnIaHfAteUMc0x77Ef/9LwfQKx3xbfuNiHFkZBf0yP7pTT/Jx7bFAzaI/MDebq/sDsmla3GFvuhWDOk3QYhisB4JXpIRIHt7ZtYmCMDIy5coVCcBz+kIKtEI1oyCsgR6xiC4O5dhAYDBcDgOzNkZHoPjpAIBR5E4sGIOQTZJyehOsGPYgiNGjoGRRbBxf2BRjATICSgm7BWp0W8OTCkCFwUxbuwfcWDA2mJIWQIpyNhYSRAQJAUHgUSi1wcJXlvOYTT6qR8MSyDjLAIgh5UcEQ4jd4FC4OVolO9+nNfzPkmAwo0UMETP2hmNNiUe5EP/jJw5D4wEvTi2Ua7kyLA5v8oARsxAnWtUIVkJhvRnBEE258ED3gzfvZEQOoWzzxgux/Ed+dzDToAci70IECGccFVNcC+OLkkKSKlEZMdGycv3nEj/4aA/xx9/fNELhkznbJVNCR6CEUdhU4gum+Pg8CCzJE5eTN/fHF6bnFlbPnNwTAkRnsiQoC1ocGyOC3OOqS06kJD5Dn/ILp/Zm0BAMEply3CSJBAG5+q762BPVvpnC/ogKSNJMCYngqF/ZEXkJckc5CYz36A/P8iAYOI8iZuvsGF+CVd4woyvsQHBDjn9P/buBFq7sfwf+NZKEZmiolRIA0JJkQYpIpShiIoGRRpJExKFMmXKECnRXBSZKhoMaUCSBs2DloqstJA0/dfn7vd9/7vHOe85zzuc95z3ufZaZ51znmfve/he3+t7Xfe9931v9UmKJERspI8CHfHBOSMVPISJkR/uSWwSvNUJc23iG5JL7RG89EOyIogIqnwOpsScyOEc/+gv1eWvfviHIK39/JV94KhtfEX5kjU8S8KhLXTF9YIi7hlASOC0z8yF4IlTAhNdEDQkT0kyDRoEIMGYj+Mne8NB4ul8AVPSl2evsjmavvIBeCiDDuVtmzQDjman+CG7CnD8JjpjhKgPzqN/eOE3Htm4y4CBpvI7iQ1b46X/YUTbtNuAB68ESvbmUzRM//WHPygzM3Z4pF7Y4n2eTcNXOLK9QQ+dyAvXaCFOSyrwQmLEZnxXQJNw8wMY8EVJAGxoHRvkIU5Y4iK9URbMBUN9Uj8/pZ3wNkCg8frHFkbiub0tSRNw6SmuqJ/OCOiSZ/zPoFJ/xRh2cC6d1D+H5BHmbCL+0O4kJ/RR4g1b7Rd/6IX2sB0NkxQpQ7LDv+BPM+gAH+eL9EockwyJV/RRHPGdBE4soQ10gp3hDDc25AN8FF997n+6pY+SlnmSIGQaUYVESON0tD+92B+NcjiZPQPogIbLtgV929RyOIJIuBkhpOonCDI9wZgQyfKQzXXED4iMAuB+giB7zDSqKXYG1Q7iSQiQnINwAEGQAXwvQ0NG9SOMIIqkBIqROQbh4Pja5BxERWyODXxiKUsVUJIgMD7hVad2SyQ4JgJIFpCKM3HSvCRJ3X4c+ql+gpKdKTkQxxAwBCPOIpGBEdLCSHuJNUFC+n6CQEQyE2DEkUAiQcjrqE2/wYhYITeCEUefC/RsoY3EWB1GeuxqlC3wOY/YGy2bhsQZox/fSxCQEx/0nbiNlSBkyk7wck0eciLu7KVuGT3xkLQSavZRh2RC++EnuDhHhq4/sNAWQQnmgg5+6CcOZNQv+HI2okycBY8kxUkQ2FHQIebKIHhG4JyYExIpSaC+Kp8I9RMENtZPNhJ0+I2+EE/tI3j4rW48wwG2Z2/CK9HUZmJD/My6EEKCPZggmIlSP/EiHhFCduSHEil80BfT3QIT3ARmfiLRZwOjaLyWuKgfXkYjEgRBnSBKIvi8oGwkCMPBBIHIEk0JAh6wC/7lPSX4KxFRBoxgry56MFGCYERpJIsnkm/CKKDgC38kjPpLVPmRtgkA+ssOzhOg6Adt4rM4xd/YwTlEHq9pBq5l5ifvtNAG5/JxPpxEgs3VBUc8lIhIEIg8P1IPm+MezcKl7NKJy+pKUi9pkWzTJLySmBo4CYySAwkIHHFceQJwBhDax0bqdNAwAYoWsSM/dz6+GVHzOz5n8IajRtwSR8ELLjATDyQZ2ki/YWOmAl7qkXDSTaNmSYIAB3uaKeipj37BVnKC03wNB3CTtufQfiNndnU9f9MfiRkOJUEQZ2i59qevyuBLcOKz2pNt/tkbZyQI7J531/Bf7eHzNA8P+wkCzRcDJCw0mt2i9fDH3bxoTx2wpMO5PcOHxSz9hyHusgXf4ZO4gAfKhS87SnL0C3ckGfionZIxvICRpELdbGvgpG+4ITFjo7lOEICu4UYBRBB5jUZljojd3/YWYAKpaRgdjVNwfo0mbJxQp11HpBgeoAKcbBUZdNTfnE5WhtzOkQBwahm+wA4Azg4UogFwRENKwMiW8qZCIkbUOKSyZMAcmOiZPZBscFoG4xymB2WDiCYgGnEihxGzkQqnIcL6xNhGgkQYifMiG5knEWDQvMrYaBuZ9VFwlO367VpYCDBIRjwZUuDObnqIo2+5XpIkIBBl9cOEvWAEe3Xm/QYSNSSDod/6wa4ExQFLQkPMZOGSGriwk3IJgODLOYgOUXCuPhIUZEZgwkwQBCEJIhEhDAIZjCWXkjM2zFQj58oMAVzhhS/EG+/YQABycAh2zQwCPCV+uIKbuEeECJt6OApR40Sw9b2khYMLTBIBnwvSOKEuOEtujDYIoTbDQLB3wJiA4YW+Kc/1mX0SVPENJgI9jOCPm/qmTewuMWIDuMMTh2GM89rG6V1HJOEBW3bGc7bhP3A2G2BmzHc4QewkJQ7CIzElgvzI5xIFoxm2107Xs7eEKkm9JMDIG6Z8UxsldkSWDwme7E4T4AYvvJA0w4Ud9Tu3//RTspekjH0ETz6pfCM9mkIbcEzZbA5L5cAXH/KOktwvVpdRNdzYKLNU7IK7OKnNOCIZ4mP8SbthyD9xTJ/whBjrhwRGAFE+u7KHJB8+fJLvayeuKEM9MMNN3JLUGDDot2vVm+dsJPXsSaP4vhGw79hPGezidgvfFfQlWRLwzM7ouyDKj+kIDYMN/OiDhE9Z7Cm5xCs6oW0SMlyj4YJQZmcMLnCd79NU3OczmenFKzqun/pGX5zPhhKR3JPPrIW2SEYNLnBA8q49OC1QKlus0A7cpL38S9yQnApmdI4vG03TRwE6h/r1VfDVBsmkgZv/1Un7aJp2wUockLD0H1L2mfJxhr4biEl6+VQSBLizjcCMi3jOfzObqGzXCvrqxFmjfZwxSHIdH3ItP5EEsxlMJEcSVr4iiKuH3QVuusb3cwvONfxeTII7+0oQ8AuXYKgeXDMYomnsmIEK7ZBEwgOv+FR7Tuc/efpjFrTD/SFD40AMq/MabySGCO51Eab+kYCPmMSIgxEhQVcgk7nIrNznNuLRQQ4JoGRURkAAQWACS+QYDnk5gus4sCDOQMiU5wUEGiAhHAf0vWwVoAIR4yMGUVcegxEnDkHcJA8cXJZPWBBdkCMukoHMSiCfvnNWU7MClMCsrQjNaZSX+14MTlT0FSlgSRwIJoyJNqJqo8/8T5Q5i3ZwHNPm7KBcZflMMqK/6hUwODqMtCm7P5qmlZ0TBn/DCH4EX+CHhzqJsClYdjLNaxQl4ySIZoyQWlKAdARYWXllNdyIKwd0Hsxk8uzgthLn48T6Y7QCF0KN5ERH0uVw75Ww6GfaCds84yFB4GwIj9qZqSJgApB+4hoBEewFFIIpIDqXg+kTexN3tmZD3+MBIeO4OGiEIhmAlf7ABs6wUjZOEi0iDnsOyD8EEXxkA0FF/XmhmOuJHZz8zZGJt1E7n5JUKINttYvoED1Cqj6jFHYiSAKD8vVLGzJVTHz5oTozklIWP5bs6DsRwzf9hzPMcRLWeQ8Im+AWQfE57gtexBHH/BiZ8GWclmiwuQOH9If/EGZ1Zn183n+ifTghCBF5NshUKzvgBxuYkWJvGEjo9EkZbMSf2Yi/sK1kSuAk4njNV/g/bvqfJuCivjiHb2U3T2XSK75L2+DBz3JrFe76oy3wkuDx67wHRHkZlQoGRqfsyu/4kkQit9L4JkzgL3ATcxxiC/2SfNBK3JNACALskKl2tnEtLYZrZrUkVnyXn9FJGqfPuCZhwmNBEY4GItqfKWh2xSf+irM0z2wQv5Ic4IL24H+w1af+Q4SSHzYzeIzesz+OaKf2CrJsKkbQEoFUssbH4acNfNBhhk5A1M7cWqENdEX7DNrYx3WSPhynUbkVBG+JAyxpVp7/6ccsAR4HBWixSuJhhsEgSnKGO/wFx2m8BCd6JKDDNPs9+D63JOAkCfI/nkpkcYTdBX63hTOozntxYM1O9JF/SQpxwucSCX2Q8GmDRE3sM0uibdpvZgFm8KYdEmeDGcmqZIf2KUu5+jXXCQKjEh6N4UAheJ5yHVzumCdedZwoAcO5yVMiFNkgRIBijP7TpHka2bmAd73z/K8t2agpb5nM06z9On3mWmW7NgZVb57O1Rff95+g5YC+V6dr1KHffufpUef0N46SlWlbpv5c2z/Xtdqsvtx/YnTXpf7+3v45N7slplwJFGHgpIQ576GYU4z6G1bFBjDs90fbtVn/4BGHiKjDVvtgFpvCq9+vPJGffsS+/Y23cm+wj13402+n4MXhBQPCgn++zwOLWa2hXcrXJvUF7/BZPT5jS5+lverMtF9GHs7rb7Gduvr9gZuylAMn5WurmQ5JW0a8hFAAI54ObSTm+pC+wByeDv1xzqB/hOvaDrvwMbf90oe+P/Y5pq3+Fyz0LXZUDszSnrR7kLf+189sqtRvT59DcIidxxqa9H233758nv4Hq759lBsf6V+rz4QUzhIuuCawZtSo7XkGRzlZZePcPhdcpw9JDqMVro/G+N51fT3pvyMmfO/veip5EAAkOwR9LP1zvrb4GdxsyOBC4E9wNhqUvAm8+Brdi4ZqKztHM2OLfr+ywqJvr0GfTXnK1+exlqzDA4e02U/fp7MqJ+1IPBmL74Na1OdP3wfhFM2O9qRfrtFG9enLWDvPpixtywob18HDtX0dGXwfT99XlY8vwREGro32DPIs2IbbONjXqsS6+ILrZxf7+j4QDYoe9Pna58ZcJwjDzTfU2fMDAUY2qjGKc1tEFtx/snd+1DlWmWY6ZPxGV2ZTJCpTech8ZcBmbowqjJSm8w50WapqJJfDjInZg+nc7qm06fyoy6yRUZ0ZTKOk6bhJD582G2EWQFvNCA1zGA2aHekHcEm7xKi4NQySo31uJQgLif1Ny8tICYLp/vGWmc7P7spwPRjlMEXbD3zzs96UbZRAGI1aiaAH1/qzC1PRhqpj+iOAI5lZwJGJ3leyIHuU0fV0e0fKgsSk6p46BCpBmDqsq6aFCIFMs04mARnm3NlBlGnm/tTjTIE0GJhy7d9umyntr3aOJgLZJG8m+ty8sFglCPMCxSpjpBCw7tvtC8uwPGHvgbPxBMQDZR4YcnhQMxuoDAuY+6Bu33gQrL8ca9hypvp8I3VL3dz79nCb52Q8GDeqgjvV+Fd9c46ApNZDlnzPg9LTeaZpzns5+ysrQZhfyFa5CyUC2fjEihFT1VZwWBGRJWr9TguIHoKz4sa9ZLd+PGnff6BxsiC5D201gifVLQmdCYf76B6Ws6zV0+RuOXnyO1tjz4Q+VBtHGwEJrlULVnVYhjmZGcOFCbEpTxCIhpGXB3DcJyes9gaw1Cf7cRtd9EcYWfZEnPOd7C77TPs7e3Z7ItQyGedZ/qUuy47ca/QAmKVb2uChHwLugTAP81h2ZhmbEZ7lbZZQuZdtOZX2WUJiaWPqIfKWOZkutSY2G2rk3qZrPDSnDOem7erWbm00urSkDfn8bzlKRlna556+drlGXYMZrIcBsze9gGW5kyUr2uopfs8BWFLnc+XCxLIxS1ssOfN0dB6GkiVbRkW8TatZjua77NdtVUSeVO8/+KSfynYuO2Xfb/tV6L8jT8/a48JaZtPMylePQ3mets5Wr8FM+zxI5v+cb1mV83ymjzYpUjceKceqgDxJ7n/1WVrF7vomUDmHPTLtnf6knXmBEw5YQcDm2ZnS0jVLxbKW37JJwmEd/eDhWpzGP8uY4GHZbhKEbAXuuuDob0uT+pu+eLjM0ibPmRh99xMEOFgCnKe89cHySXw3avcgpLbruyWvuBDMnQtLNrMcE4cd2msZmqVO6nTwq7xbJNtA+xzvfJf3qlh9gYMwdb7lWPrOLzxAy87hluvt+8AeNqtJu/QptsjT1srjN8roi7Tr+JF+WJbHl7PdueV5uMm3LAHVBnWziT0N8FA/+3xha8tAnaNd7GDGBrfh3F855DsP/Vk+B2fawYfgzqfZ1/k0Avf9bzmisiVNfMpyvGx0lhURedo9/kGj8Mx5WUFimZ42RZdwWT2SMG0IRs6nK/hh5ouuwFDZ+kM/+ATc6JtniKz+oTf+d51y9UO7suqMrdjaMk/nZSVb9Fk7aK/ztRXnLS/243AdbuGYNqUtMISd+IAH2opfyuLD0V+88B3MlJml6MELdSYhAAAgAElEQVSMduib9nhgG0/6duZj+EJ/4UUX4euw14RYoe3s5RwrSiT32WJ9YUoCZteXKU8QOKw9BqyptQmH9bkcjDNaY5rNV7JJjc1sjJ6Iq30NLAlzrifVs9mSURzB9oMoHIJTMaZlJ9YnEz3ktw6WY1qLazmctekIYp24NarWwxrtEVN1+9/0kt/WjWqLxMNIDoklEJ6ct47UdJTdIAURa1oto3IgJtIRDuKpz8rSH9PT+qRca4Dt60A0rUe39tlaWPVbHzuYINgvwiY3RmnW/PrfmlpT2VY02EyK2FlN4Dz7AyC9pYgCjdEtYbEmVlut97UfhHXJzrV2mPAKiNblEkHthLu+6L9+2/SDc1m5AAsOrh32aRCgjRoFUfZgi+wamDXc1jXjALtkbwV1EAYJkr5xVHsZsA3bCj6wZzPXEg591nciwdbagWvWTGcNOhspz7Q/p5dg4Iv6LCnDA7Yl3PYfwFObmcBg8MFPiQe+Op/gjHUQWKs7LDGDOYxzaAdsBA5LHtkDBridZY7Zx8OT93iAM/0EQfkwlyy6Vl+sdbaqBUaSBZvf5MU0hJ8PZOc3Auo7+29Yu68+XIGzwEGArXG3iRIbEmr7AvAdtsVzHLE/BQztU2AdtnKTsArQgoA+8nn8wznX4j+u22/E2n++re+CO5vDJvvq64e2JfjhLo7hoM8ENu3nN9aN448gbk8SwcC+KZIg/p73fUjsnCMAWx8vIYUdv4ErTPAWF2Bv1YPbJPgPB9jop4RM8mfzGj4sIbFvQ15dLrg4T3LOv/Hcnh32Z9Aee6PAwzn8SV2wwEnY4yMe0y06yR8lTBIEt7n4H74rX1sNDBzwVY9DMObDfJwdXCMxyBbV6qADtC5vOtUWXJCEsRse2jQLZ2DItsrDTbfdBGIaiAv26wgGeTEYOwvYeG9GjA/SJO2SVNAe2MKdv6ibX0RjaYx6+bzzDHTogKTLufyf5tNU+oUTWeZLZ9iFPsM97/ywHwc+0jN9F0f8z0Z4LYFmMwkJHRmlY8oTBAGGUBDBCD/HRyRJATIzIkGWTRJezsVIiGI0RYRsfoGYBJdwK4uzIyejcmrlZRtbRiUoCJo12tacE0COkRfBCELETXJgVKocbXKOgEBYtcEa4xCIMyIhR3OdqWdiJLi7zujPiEWSgoAcVeDhIBzLuQgp0SFMCJ4XrRBKU9h5y1mfnJItIzKbdRiRcF79scGReomOEZ5EQd1IToCyCVXWwguScJaxEw2ioi2EloDoH2FUD4GVUQuKhJST6hN7EjQBKG/Y49SCKwdUhtEaYcoLr9hQOwUC52lrdgcTUAU9oq1sfSGKApPDiEYQkMiwCXsQFTgrXyKiD65lF4FSO4i6UR/bwsIsBPydoz2uhb2gJ7EzEsm2uH3sfUf8jTSymdJYwiFI46u2GrHCSCKYxNFzBfhk0xRc4AcEMCNobRPoBE8jWTbQ5/5tCjbDEwJreafrs7EVu0tK2UQA8jdM+JJEK0FJkklMcVf7fG5Wgb9KPP3oLxvCQ0CVHAlkEhOfSVyM5rJsMEl3tu9mXwl5XpSFCwIrf3SNAMs38B8f9cv6fQkWu0sWaQN/z6wPn9Qn7cAZdpVQ8FujdgFWQNOWbOokIGc/fMkSn+eL8IWT5JIv4KLkRVKiD2b0cF0QVZY6JfpGv24fwYMNnINHAhGt4/+Se/yDPZuyi6SFHdUjYOGGUbVNfwRA5wpIeCzBwiX98kxHNtHBI23XTwmyhImeZrtp10j0lB9dgHn0BP/ZVn38DQfw0OZM/JK9cIvf67fzaQFN8Tl74Qzbamde0JWdGSWV/WWVeftt3l+ShJQP6yONommSHhqpPDjot0Ei28CXH/AJmm+GAn/MMOCgNukz2yjDZ+xKg/iONuiHPuG6srIbptkuWNITyUYGBXTKzKJYMCe3CGdqUjHlCYJRo6wbITmcER7x56QIiHj9BAFBCAqHJaRIYMtIwmWaCnE4MWHKCz6IBnHLew8EzyQIHCtTZxIPBGB8oxDOwMHMQiifcxIGwpE3igmI2iEAER6kM43nFokMVYKA0AKLz7WR8HEEwiSzRl6jEP0m6OpGdqQ1OiCKHJqASHwEYuKXTS1CNgmCwJeZEk5JOAVmowvCauYiCUKmBTl2Xj/tM1NxHNJojSOxi7I4gwQB/gKCvmhr3pCp/drF0eCYBIEDcVJ4cE7CqHx2MZWn/Gw9bEREjGTvrjNCkNQZYcCc4+uTNhM4Ns4BD2IFbyJrhMWGBFj5uCLwSz4kBRIjbdaX8RIE9hNgYGfkRmgHEwSJprokSZIKWEdIxnv4johqg/bknQ3aL0FQviDHDsRROyUIRkUSLjNOziWQRArf81paWEh6BCYJCD7pI2GGaV5CZdQmWME/b0AljrgheGZ7ZCNS/WFnAQ8eEiB45TYN3sPQ7IXkQDnsSFzxNQmC2QzcwYu8sluygwuCpr7po+APB4kwPuGNUaEEQT0GAsoWCJzPN4m8I7fkBEXBnv2T9CtP4MYNmPItyZrAR4MkIsrpJwhGpNoruaAzuM02ElU2MKrNw6K4aKaM38LZzAE742Pe64LDbMNe2uB8CXbeeKsuvqhvdIhmCNQCpnIEfRrp9oCEhG8bzBjo5JAgmBnLrpPqMbPmwAn+JDDyH4kNnkkQ4WhUrJ9sy2eNunFb0KRRnp9hezMD/F57+RwdYxtaZeaAfuGVfpgF4L8w0OZ+gqDd9Ncsn5ku+EjA2Fp99DnbvdMCWPleQoF3EgR1w5zmZstzeJk9wWP9w0HJljZmq2d2hAO+wZgusTe8DBZhgjP46bkDSX3aTo/ZX5srQZiP6Q5yIY6s26gbAWWwjMkhjIIFIgSVHHAsyQTHQa68odH3BBxxkDBTiDJQTiQIu+9qlII8BFeSQRCyc5ppM2QmKn4ILSc3xUnAjDKUL8EwM4Fc2ihBQGyiJFhIbLQHQWWd+iORICQElAhrv1GDTFVdiG2KVoDRZ1mr8mSuhI4wOBdJTdW5Fqm1P2uiOYIArnx1ITi8sq2sNnFsszFGJUSWwMGfWCSomTYWpF3rGsFBokSYJVpEnggRGg7MMZ0Df3+bsSEqsHaudumP6UMjFQ7JJvDLa2vNBrhOm4mAugUa5bGT8wR61xMt2GgjpxaE9Ysd4AgXmLqWyLmOndiXbZzHfgKe9gtMBE29hIbAsR1uGjmzNw661lQlewoqSTKVDU9YCnjEHgfx1IxWki+zHAJR7ukTLwmnUZpDP9mCQOG1vklqYZvnVgREHNNfswvamhGpMsysaZsgTuQFLSLHV4z4CR2M4CPRJdz6apbIDIIkB19wQbsEePzX9swa6C+cJFr8TIKCC2xDvJUrMSHoZmUEVwehJ8q+i0/6rR7t1F7+RgfgIiEVrNkLH9SZzYycz544RfwJNR5IENjKqFpyAQv+w69w3Mg9t/MEAfpgtsRn/tce/cdvWiRgSpIkV5ICgwV2wz/YZIdD+NEL+PIvNtF2yaXfeID3bMC/3cLhzziuD/zagEEb/MDSIEeC4VrBFu7q8LcgDQu6oq+5zSRo0QrnsBeOs7ckop8gqNN5sDHax3F1+ls78ZzvGnCwicGCBEI9EjY/fIad6IJESxKuv66jo/DK66hpjXK1g2ZlRszffAauBlFwhz+cYCghV6Y+sD+/oN+wU55bvxIEugdD3GEL9eAHW9EDOOGr9tBxXMFF/OdnfJsf8HeY6GcGqZLdvD5be2GMG/xYIjZKK3CmfAbBSFoWm2lcfxOUvP+dQwswnIfYE13CGKfl4KZ1jfA4t9EXpyKAprgE3Tw8IygYrWYkiHAhK8fmFLLzvGgmD/dwQCRCzuxXrU2SGmRWn9GTIGFUZypee8yO5LW+yInIyIXIpkeRWPuUz0mUla2olUHkBRttky1rG2GSBSO6kZ5rBc9MLbpfhvh5BTZxEawFGAmSjNsshxkBIwxtNIrhmIKN4MPxiQsHdV7uqxMkzqDtHEtZ2c9cQgcHwdsMiXuInEyy4p4ubDifYKD9hEX56mErWT2H00+BSvBnWwFHH42AlQFPoyFYGokJDO61CmCmQrXBj8SKrYwW2c7UKtFxjSTECJotCLRRuJEQXkn0/E2A87CppM5IHub6K9kkhoK3JAie2SobPra3dq7Ao24Bw0FU2cU5MCEuRok5BFrY4yjx00eBGo+NSPsH/uc1rwkOfElQZB/1+99sg4BDkAUlozL+IBHBfdiboeMbuGdkzy/wQZLj4FcE2WhQUMx9bokL3OHGbnnIE//UTXBxSr0RUUkUvrEZ7NmWjYm5+iWgsGEDvoFLeQWtIGE6Gd8lJvA3IyChwuXMIOCREanrlYn/klH+kql87VK/33gAI+WxHZ3JyJfdaYpAI3HmR3CRdOEA3MwsGvGynTZKgGiYxMXsjSQ0b9d0DZvjC81L0qVtEkl8lig7T4DCQTgK3oIo/AVB7VI+PzJw4qf643v24AMGDs6hM3l1dN4rY/ZO4MUPMwYGAnA0glafuiXMsOHnkmz8xHfJpu/8COASO7eatIs98qyQWR9JIf+hY/qNL9lVVQKY95zwb/2mNXzP/24xSFBoiD6ZNaGFebgWR/A9t+kE7QzAnKud2syH3GKjMeIJrGg3HvIFfkbP6QcMYeS3JJxO0C1xSfJt0MDvJBE4k5mZ+TiGnlZFT3mCkFGPkbnpGwZjOAaSCWbffIFHYBU8fIa4/Sl2f/efpiZI+T77ShMtBwJnz28O4sie3P4WMIigoKI9RCZP5vs7e7orP5mw+pSbfbiV09/ruv+0L8ft7zeel/OoEykF0Tz1L/HIw4hEJasfkNgUKUciSg7XZs9ybTFLkXcNaGv2au/jxKH003f+jsjmKeiIfn/VhXP6e7L3VzH0y+73P+3osz3vNSC6eRpcfXBge6KpTQIm58y+4n73V0dk5kPfJYv+ZzfnwSB210fYE608qOQcuIYr+jL4LgD9yNPzWcUhiDmXHcOh9A322mLkQdgknA7lEiJtZ2N2748+fK6vjj6O+Di4HW5uMfT3t9cOQVFCoX3OkbgJYgIrH9NeyQOM8opln/X33M8KAdg51JG/08fg5v/4WnihrcEczv1tvuGnXvbWDueyd3wp7zPJKgx+0H/iHBZZ4RC79N/vwraSIEHIrINRqe+1J4LvN31xPUy0SVu0Kbzq+3VWdmg327o2nGTHrM7RF3wNzs7zmfqiNzig7LyHQ3/U7xrtpG/wyHn9TbX6f+d9AeGjdigXbsHL/85TbniWWwwCu1E9P8m7GGCnHH3TLmVpF5vAsV/ueO3q+0m4oh39lQN5jTabhFfaEOydC2u8VC/s+vqbmJGNwrIaITxImX39GfSnvLMi8cD3Bgd5j47/w8Gs2IkvSIwlHn6P2l4ICyRBGEyRMjWcJ7d9716tEf2oGWSs9JFDmDJFXKPHheUeGEGQ7Bg1SRLHWio4rdLp2TTGqNMoxmh3qra5Jmimis1S5Ml+XOE7GWHPFPzmpJ0Chhkjo0wJplmQ6fhehTnp27y6xnNWbj966NOtgQXxjpZ51ZepLocvuVVq5gO3zJaM2jEtEoRRA736+/8RMJ1plFOb5xQrhkWAgLvfbCToMBWc5zuGLWthPd+tkOyB4tmbeqfD5C0tAfVMjYHqwjIom3zv/3tmJQjDIlbnFwKFQCFQCBQCI4BAJQgjYOTqYiFQCBQChUAhMCwClSAMi1idXwgUAoVAIVAIjAAClSCMgJGri4VAIVAIFAKFwLAIVIIwLGJ1fiFQCBQChUAhMAIIVIIwAkauLhYChUAhUAgUAsMiUAnCsIjV+YVAIVAIFAKFwAggUAnCCBi5ulgIFAKFQCFQCAyLQCUIwyJW5xcChUAhUAgUAiOAQCUII2Dk6mIhUAgUAoVAITAsApUgDItYnV8IFAKFQCFQCIwAApUgjICRq4uFQCFQCBQChcCwCFSCMCxidX4hUAgUAoVAITACCLQEwXu/zz777Paee6+sffzjH99ttdVW7b3iC/Lwlr9zzjmnvY3MseKKK3YPfehDu+985zvt9bbeff6iF72o/a6jECgECoFhEfBGSK+bP/3007tnPetZ3RZbbDFsEXV+IbDQItAShJtuuqnbcMMNuze84Q3dF7/4xe6yyy7r3vKWt3SHHnpot8giiyywznvd5g9+8INup5126pZffvnugx/8YLfssst2b3/727uLLrqoO/XUU7vnPve5I/sqzgVmmKq4EFhIEJAg0JKXvexl3bvf/e5u9913X0h6Vt0oBOYegVkJAuc47rjjuo9+9KPdq171qm7ttdfuvv3tb3dG8YI0R1pnnXW6JZZYovvNb37T/fOf/2y1SyB8t/LKK3e//e1v23ePfexju5VWWqn73e9+1673fRINI/+HPexh3W233db96Ec/aqN/dS222GLdX/7yl+5vf/tb9+AHP3jW+ZKEjTbaqHv0ox/dsnzHIYcc0tp5xRVXdA94wAO6P/zhD232QxsWXXTR7s4772x19g/1Kstx73vfe1b773//+7fPf//737dZCe12/OlPf2ptfMQjHtHOv+OOO2YVl76kDjMt/VkM5ZmVGTyU4xr9dI626qt677777oadssyU/P3vf28/OZzj/FtuuaVhpb9wVObtt9/e3XjjjS15WmGFFWbVzVauUZfztdvffi+55JItsWKf4OVzeOir81yv/Bz9finX9c5dbrnlmt3YWxskc3fddVfrUw7nKltbYZ22KhPW6tG3hzzkId1SSy3V7GM2Cwb6ed/73rf717/+1drqtyO4w1Q7XKMPytIvf8PNDJTvgpdrXcNGfmubdvg7PPFbe5WhTn1ZfPHF27n45rNVVlmlfZ66YAqHX//6182uuOn/Pg7q7nMRjvohSdcefNPnPn/Z24/vYYyjyyyzTGtbeMNW4VLqjN/B07kwgH9soS14AU9985sPO7/PS5+Fl8pRhnY86EEP6pZeeulWhkMb0/boQvrrenbBC9eyp9lAWPQPdsRlPFZ2uJhz+Jk+K4cN9Fs7HLkWNg984ANnYa8t6tdO56s7h2vY6wUveEFLEnbYYYfu4Q9/eGsXu+IgXGgL3GgCHP1WD+6n//gSX9a2Qc1RDpuo3/V+4xLO40H8XTmux8n4I8z0SZ3a3OcH26VPsWd8X53sFd/+4x//2PRHf5yjnD//+c/dzTff3PoNJ9c4D4/YyP8wVwYM4mfxo3yuvL42xr/YPX13vb/5PPvqU38QGj2InsMQFjmcq79wU1/a7TPX0hD94es+U44+akN0nM3GGvjGz/t1wWMwnsSuymC3YBM8wum+1gZj7WLTnKt9zoOLsmDOxvgtHvibL+BGX0eiT87nL86ju/p66623tnjEhnwDTjjgiN6k3r7v+S62jfa1BEEDFcBwL3/5y7vzzjuvO+KII7rnP//57VbDk5/85JZlP+Yxj+kuvvjiNnL/yEc+0gC/7rrruu222645w/e///3mMFdddVWbiXDNscce2z3pSU9qRPv85z/f7bjjji0B2XXXXbs11lij+9KXvtTqEfxf8pKXtPLcQiBSjiQIq622WnfyySe3z7Ttk5/8ZJvpcJ1yna/Txx9/fBsFIA7H++Uvf9kC7pZbbtl96EMfaqLutsR73vOebvXVV2/l7L///k2gTTUSCWV99rOfbcD6e+utt+4OP/zw5pgJEk94whO6b37zmy1pMtPi/xwc8JWvfGX39a9/vQk+IyL0euut15IiOOfnsMMO67bddttuk002aXhcffXV3TOe8Yw2M2KmBFE4ERIQYMLC+Ej7xje+sdtll126Zz/72d0zn/nM7pJLLmmzLF/4whe6s846q3vXu97Vzvn0pz/d7bnnnt0LX/jC1k/t8r0p1X333bc74YQTmsNIwr785S93BxxwQPeNb3yjO/fcc5to5BBozeawz1577dXKEOw/85nPdG9+85vb9a57xzve0ZLL733ve60+xIWb20XPec5zurXWWqtxZO+99+4uvPDCdi5HxEGJgzLgrR44wYXt8Ebb41DqX3/99ZuQ44Rr8FXC+d73vrf1Fyc5pfpg9OEPf7h1B654cPnllzec8VUi/LrXva47//zzu1/96let/bhjdk0/cEWd2sX5JK5PecpTuv3226/bdNNNu9e+9rWNextvvHF3wQUXNBz5xT777NM9/elPb0mZ/rLZt771rVaHduPdpZde2vrPtso888wzZ4mzaW994ZvKZpejjz6623zzzZvtcUz/XvziFzfe6Sff5APspQ51/+QnP2l+oA799ptvEwYcxhVl6r/ZxNe85jWtfD4Ni9122635B24aBGjzxz/+8Tby/sUvftGw1WdBlSZ86lOfavWyz5prrtn8FLcFJ8k9X9WvHPBgPzqjbG3Sdhwg/PyAULJdAjhhxT+3RZ/2tKd1j3vc4xpHcF/db3rTm9pnMHn/+9/fuGl21EFI+TbuaQ/+soFzaBE8BTntUj5fOO2005of8j9BmS30GYfxm5332GOP1ne/8UAZb3vb27ozzjijYUPMib/2qQ/H2Ake9MTgB3/Z9JRTTmlaSehxGZdOPPHEhgksaBS74LDPDjzwwFYOHh988MHt1vErXvGKVj5ccZiPwZOf+f8DH/hAswn+44XraYk+wk6f6ITfT33qU5tN6BXsaTz/1kdaL8FKMoprePPOd76z8Vmf8Qdn4A4b+scPEzD1+3Of+1wLdGIGfn7sYx9r5eOpz+HGH6MZ9EHMUq7YBE96y1Zszufo1Ve+8pXuZz/7WbMVnxk8xDTcoBdsrr9HHnlka5/gDA9azq70CB/hTvtWXXXVhpU20ALli1fPe97zmkZplximXG3VNzyGB66/9KUvbbFQ7GBz5YoX2uy7a665pl1Ldww84EDXtUVd+KvtzoMrXogVEn0xAUfhj9vKo5UmBPgMO371q19tnGFP7cRBPJ/1kKLOEyAnOJAQkRj8rW99a0sIEPDaa69twkMMGOx973tfM8InPvGJJtwIdMwxx7RGCQrE8NWvfnVzLkTRKEGX+PjceRoii9cBTkt4+1mY/wFHXBxIJ1gh+EEHHdSANMpBbEIFKN9zjs0226wlCtokIBIgSQIxJ0D6SGyVlSABME6MhBIFTifJIb4SAeL505/+tIkPQzLS4MHBYnxGEzgQ07kEE76ul9QQYUTww7jOJXICDyI5F24Ewuf6RWwQhF3YgI0EUGWymXYSPH0i6MRGUOI4RksEQ5LEXhFKtr3yyitboIDbzjvvfI9+ST5gx2mIjDoRGjeIAKeQcGmPOtiGCCE2R2VrzoKgeCPBI3C4AAeBRf3sSUQ4ojbr86Me9aiW6HAsmMIiMxy4I/Eg0vqsHfqrbm3ECaMWApiDuKsXnwRGnJGgwl0b9YvjaxehYgccgp+ycUCSKoHQlgRiNiGo7MOeruVwuKZ/AjX78Rlt1W51CBZf+9rXmrMTV9hwYMGG2GmjtilDoOGv2slmRJ4NJLGEWqLHb2AVjIwOJOj6zX8lyMSMTwgmsPBbuQKAgELMBHb14AncfS4pYAvXaLO+4Lzr+A6xkxTA3XUnnXRSw8w1hAiH1IvXAoq24+kGG2zQxByP+Rz8aQNOCWCw0HYiRvT4k0BNNI1Ifaf/uC2Rgyut0Y+IrgDiwCnfCRq5xaos9bMlv8INvPE9/9dPSa6gi1fah6f6I9GXbK+77roteP/85z9vAZ2wa4+EQ1DTB7aRxOijICKBEAQFGIMEbdhmm20ab+iQIEiL9FsdeAVjv/EFJxx8xTmPfOQjm8/DFD/wgS/QBPXwv+uvv749c0GX9U+g23777VtbDH5uuOGGFqzZQpDDa9yFu+8FKb6Ap7BRFg2mnw7+c9RRR7WEUx/FAz6k3frmM/jgg8PgSRl8FL/ZUrIMX1zBLf3BJ4klbRAnJFDqZS/2eeITn9j8hl/hOz2kqcr0G+Zi1+Ah+Et8DYL5hWSFziVZ1Ge+gBMSTtopcVQmnmfmXVtwQD30yHWCNa7AUqzRRgcdEMPwB976QjdwXTyAIbzFEnW4TiwTa2mC2UQxFBbsiBvaQX/Uj3PazzfwRwzKDJa+8muJEP7QUNf4jK0c91jFwNgEghNxeMYVQJFKJZzOaFbjiQ8QCT0CIZgRJXHn+DqjYhkfgxBU4MlggIKwgowGu855g8fsbjEgEifMiADhzRgITkg0mCAQC8kCIdZGgUi9CKtfhNRUHsFAXImMvwUBWRrxEniJnTKMVJHKeQSDU2eqT0bG2LJDokrIOADjEVDOBjsEkYm6TrD48Y9/3AzGDs7RXgRwSGg4rPK0CbZGT0a1kgcE0wakQFpCAwuEF8BcQ+yU63+OmfbBgDhIfoiU9hPdwUNw4TSw4pAElu0Ri/MLsBI5WT/ngRE7cyajIOULQrglCBIuSSRecH7XcE5l6AtBlVRoD4cQIHFJti4wJfixJ0Eg3v42KheQfMYptUG9hCzJp6DBRsSGoCtPkiQYCbTf/e53W6IEb2KI3/AkysowbWj6T6BlJ+KsfH1hF7b2m4hKntidzdjJ/8SMnSUQbE9A8AqffMZOkgKHeggA/PiWAE0wBQ/YwASXjeZwlJ35gH71EwS24zOERZk4gdeEiD3ZRUAm3s7TZgFNGYKD2T6CQ7RgYrBAnNheeUYuDsmgBCHT5pIKYilx45fap2+ugyUtYVMJB39O2XwjSSfcCBfxd61bjRIO9pD8CCR8k934EHsKEMo2QNGmPqcJrWRCv2gVfzDiYi/Bnv/wRwdMBSt+g5d4jzv0Bn8FM4MTwZUuEWLl4ouAQjtzC1UZAjif4zc4j++vf/3rW0LNxuwCLzNGginNpIV4CSd+4Hp1RcyTIAimuGD0q4/0GuY0huZJyPgpW7MnfeGLBiu0RHDRdjxkJ4NHAY8+SPTxjW6wEf8wHc0XJAPsF/8SaPBU8sEGrlWnAZL6tFHAzewrLaBdNBfvxIbEDjbHdz4s0PM5QVTdfJxm8CE6LgkyuMFNOmeJulsAACAASURBVA4/SQvOssd4h77SIG3CH/6AP+yrPIkYm+CFtphZ028JoABvoEPv+ArN0j99gqN2+EzcZFua6aADYoPZPHGWf9II2OI1HeOfBu7K1leclUhJMuHiOtzzPVvip7gNV33HDxwTP8R13MMNtuO7+qxNfvM9+hcbtgQBMTgy5wEA5wA8wsqkkZFIOA8hNQKRkUylEgSOmRkDDfQZMgKQ6MmEGZe4ma7RED+cn3MTdUb0Xd+JkyAYPSrDkWcQODxDMryRthGrAEZYJTTIDgTfZQYB6YyCBXQ/6jZDgBSclfBwZOIuE2c8wU49/QQBFqYDjUo4v8AgSAPfkQRBtkgg+gmCoKdM9foe2bXJ9ZyZoZARqQYTBNmlICboyyqJCSMzMKcTIJFH+RwbUQRHzk0wOQGhZU/BhU0EUKR3nsTNNJTRDU6wi/aFMPAlpISL0GkLoVQWUTRqQXB/uyYJAgE0+la/RA7hiQmRE4wQ1m9ChNQEFxc5CcdnUxhJEgSejLb7MwhGWYIE/qlL5k4sOJ/sWX0wzm0T5Worfme0qz8CsXNxB+/0Adc5IqfUVtwRnCQNgktmfPDJ34I/R8MD10sEiR47wD8zCDgqk8cj/oDbRFL7YZCn6vUNNpI3tiG0/JQAazMcCBT76LNkmL8MziAQIAmR9hMbiYXpZYFC/URXGyUQ/BlP2NIhcOJ6EgBYSsIIPh6pG8cEjyQIuBQBxxsJk3MIqjr0hT3MIAgkRBRnBShl8G3aAksDDG2SbOqf6WmDGUKsn/qCL9qkj37DEb+d67cAkfvP2oIrEiG+r336BxvtMsrGIfjQO3XxNW2njYKGvgvIggR+aovrcEgfYMoO7MxmAgR+0Bb9oylsq23sxz5w1N9M6/NDmNAuWEhAkyDw+/5qM0mqurULB7UFX/mPpMbAAV/5mASZTWFF52FD92ml6+Cgz/ogIPIF+iPw6EtmEGgnX5Jk4qJE0SFBgJP62YcP8vs8qyGow1vy4qBBdBb2mWWCg8HZYIKgLc6XQEiYtJ8vGnTRWoEdLhIrMwg4jRvil3jATrS1/4wVzZWwwpe9lUVPJAhszpfZhsbBQ3IoGeU7fJH9xASzeX7jFGxwT520VaLMr+GvbgkCHxa7BH6cdb6YIdmhO+KBwaUELwmCdmmD+CgJwT8JrPbpK0wNMsQzOuY8g0sY0BGYsAc9hTk9x0P2oclJ2lqCIPsAJMB0ntgTLJ0RhACdbBJwGs+4rpNhawBnADqx0xmNQBojAOQQRDgQZyIESIxIEgLBHPE1jkABKfcuMwWjDQKqURYiEydBPEHP9C0BYRQjJw6CMMjpWo7AAK5HesJFuNWLUPqNrARaOxnevSjtgYEfZRihaYcAhcTETf8QVluR33QSxxDg3GeXEftbgOGUBJezIo8sVQAWCAg7oZRkwJR4CSoc3WeSMaTNvSKERDwBRRmCr2DImYx6Ob56YS5hgxcBYV8EZi+CjEy+d51AzonY3rSoOhHQd3m2gsjpl+tyuwj52dzok0MRIm0lNIIwXGX0khh1SISMRJEfsdkFtwgMYeHgcFQ+u+qndhMPeOirvsmM2drUGkEV2PFKfWzmvDwX4zf88zAdAVQGXhBw/SZI/pYI4LnEQRIn0c2IX9DENwGCUxEPfRG0+I2ghJ94lXvERFkAw21JHHGBATFRr8CDfxwTDkRamcSKkOCKhJst4Y83ggvHhmtW9wgEmYHAfUmmNmmHQIhnyuCjsFc+/8AlQUfg0lc8zH10uMOOmJkxwzfBATdxANclfdqoPkmlhFnf2DUPdRE+1/Ihh3L5DE4kqRYglW2QQKiS+AiE/A6v8IePE1WawS6CKJE2MsNr2ElAcJEtCatArQy+5zCiJdS4rh+4JPGnhX7CQZoGD5xiY0INR4kQTOiR6yQuuEqMCTGNkYTwG/7BxuzuGiLO1uqWMErOaSX/ZFc+R1P4sWBAb9hAUgEfONCVYJqH/4zi2Q2OfIJm5TkG9fiBrd8Cm+CLAz7jvwIGnrGl+nJ7GGbajMd8BDYSLQmDz8QCmBgA0iCJsvPZTZsERdiwB79iD9iYcVGfgw0NeHACR/SB/sCS5mmr/3HUDx7rN34ZaNIaM3L6LLjyIZ9rI70yqNIuekTbBGZ8DfckaXCgH3AWS7QVj2gLPsOcn+gTTaLRyqYDzoclXN3G5n80gu3UTcPFE/qg7w6arC440x118REJNy7jA72QpLGjuuHM7rnVIo45jz/wJXaUNPnBN8mTNtIkuNMBek4LnQ93CYbyxQxJOK7ic0sQEI6zmM5wss7pjM8ZVdBjdGLLAMRIIzMlT4gBQAAFVY0yVZfVCJwLIQk5gyofoZAgTwQLjqaOOBpRjqioP09GSxq0hbDkCXXT1jonyycMAJZpa3v/qeo4EKMQyzwJrF6iJ1PTHmIAeO3joMQOGSUyBN3BcYiAAKYegmzqJlN9zoVlVh7ot0P7JS3wMPoU1COg8CeysGVYBifU+skxBA/OQVwQFZHh5EC6rErIA6eucw58zSQE+6w+gZu2Byv21b/MarCl2y2EgQDKMvv9gqEf7WZPSZ5kEQ5ED955IFM9+OR8eLKpZNR5bI6I8CCYfmDAxuzKPtohiOEBp1SG/rF5bIH07KjdeOlv+KtHO7SdkOXhVzZgI3ixG4yyAiJP8sJceQKwQ1nawdGcK8nKChrfays84CBxxB+YZtWKc8Jr9QpuEiIBzm9tVqZ7gTBjE2W6xv/66Ee5MPc5n3St/3GfgPmd2wvaidP6wUZ8Ez6CO1+CsYPdlKVMeEh62SczPvqDrw5tcB1hUo7+qoe/xzfzBLfzYSb4wdNAAr7Ohav+5Z51+pjnSZzDT/VJ+fCgL8SNCBJE1/vMgRd0Rv+1Pdj7zjlJiDPL53P24/v4J6BJGAgzjNjNd9qnPm3BVQFGoiAo0Ax90l/8yBP6WRHjf23PA4nqhINkRADh2zjvM/w2MhecibV6lSPpZjft1g/t0tdoCg3JqhH9Zzu+r004pVz2Z2O+x2/YCY9oJP2gu/wjT7zjlEQowUed2gOX/uqq1oj/65Pyc4tV3fRM+9kfdtqIL9EGgZiG9VeA8UN1Oyer2/RV/crCCWXjomRYnRLq6AOfxn0aShtwM21gA3zWBgMN/Rf4Hf5PcqidnkeSCBnUqVMbccWRVRn+5kNZxaKexKWsEPO/NvIXPkTv2JB9cEP7/FZ+btWwD7vpi2txXJ38gG2Vyd+dTxvZPOfhPDwkMOqBIX92rUM9uTXCD7MaRnvx1/XBWYwYeidFGWEMokKVmPaUteX+Y0hTv/8XAeCb2kFUQSEjqcngJBmRRZrmMrpAkLGW6kymrMFzCL6pKM5tlJUHaGS5RrdGq/Nj0yyOnqd0JSGy8QSLOenHTLtGAmj0YMQwr2w50zAYtr2SPUHc9KkRchK+YcvJ+UlKzIjmgezx/NKo1OjQ6NkIb6xnpiZqh/poaB7QNKKWlJmNkKDwM1PBuUc9UXmj9r1En2aIN6bI4TjsAX8Yu32V29nwl6wl2VSmZM1sVf82xLB1TfX5Bupm0iSfBu79Jb1z0pahE4Q5qaSu+S8CiO32gmBg2lB2N9lDEDd16DAiRILBNeSTLWvwPKIlyTO12R9dzWl5k72Os7vFIwMntqbkjWjqKATGQ8C9eNO+DomVRHluDkmqqV2jMIcpV6P7sQ4BKecJ7P1gMtk2qA/njVBx3fR61tKbWjc7YYRXx9gImEmAn1G34J7bRYXXfxFwe9YspthAT+eWS5UgFLMKgUKgECgECoFC4B4ILHQJgntM7hu6D+WekenA7LQ2XezvtozpSvcV3a4xIzATD/0wXZfdMnM/S1/cKvDj2YWZNEU3P+zgXqxnJ3K/t6aP5wfKVeZ0QCDPc3newy0099OzVHc6tK/aMBwCC1WC4IE796Q81OPepClz01HT6dkIQdRDSJ6I5kDuObrXlc1bhjPfgj1bYuDpb88PwNhqBIelYaa5PLvgPthYm5Is2JZPXe2mlD3d7ME6D2Sxu9tFo/SsxdShXTUtSARw3UPOng1xy9AtGH8Pcyt1Qba/6r4nApNOEGSGjv6mHPMKUEHTU66esJzTNzMipyUt7lFZAuQJT4EpD39lJcRY97jzZL8naBE79/YFQD9z+oBe+tQPkFmf7IEoT5ZaauYeqIeu+kcwUfe8etYg5edJ2IkeYMk+7tnLfyx7a6cRsae8LY1xeCLcQz9Zruoczxlkf2//s0f6NZHNtTd7lc+Oc9rr3IkSQvV7oj/rsecVj8crx6xW9pWwJNKs0TDHWDzij2Zm+tzCX/45Px94ZEd1zO2sEH+Nvw2DxVjnsiWb91dD9Pk2p+XPqzbiJXv131UwTJssk8sW78NcB1++RXPmh24PtsXKL77vWQo6Smtjk6yooGfjvQdBW8Oric5P3Vm1FW0ZBp+JzhUX2E1fxmpzNGx2A6DBfvhfuX7nfTbjtQNv4iPz06dnh0NLECwrsV7TNKgn1xHZMkYj8ux6Z7tOI17rJAmeJ+kFBkvSrFP1N8H3AJHRkpE7xzXFb0QvAGYpmg0erHH21Kj1vx40yZIka+c9qJP9vNWPcHkPgSVBwHUbwVKjbP/qoT1t0oa85MX6T2tOrbW1CYb2WFNqZCs4ChTWwRoFZ2tly2c8sOcpV+tnEUR7PWEs8fC/tlhGkx3VPGznO0uTHNbYWmaiHfquT55+zqFexpfQWCVg5UA/WFuCJIFwHnGw5tWSm6z9hrfP7SfhoUcP6+g7IYCd5WOydtP/2goT69KtJbZm3a0NI3znClzWHrNHtuC01M5eEer1kAtHyLroschk1cN4CYKHsXAry62s+7VUVpn6oI/WK1uTqw0RFmuUzQZZz24pjz7pg35Z00t4rB3ODJHlZx4C1V/LUs1qWEdNGC1ngpMRPAz0OUuPJGew0F/XRsjZCzezlaklba6ztEr52dZZ2bijfDNWHmTTHyMny7g89GmGCF9w1zJVt5TUK/GylIlPZbdIQufJabfH9MFDedm211p65+q3h+X4Iyws94OxlS78yBPMNnyxtIr/ZfdTPg1jfYSLduB6EmB900d9tzeE83BM/+xb4qlv7VMHvxQQ9BN2sHI+P7BCx209fI1mWH3jf34hicMtAuk8mGTlAD/FURqDC7C2FI3tXQcnDybCT+Kk7z53Pj9SpjY4jxB7kFFf+Ibv+IJtcnGFTemWtf/46wEvS9ocfMeSZOfTInqQZYy4SZMspcxmVbQmmyDBltbY+AtP7AGgDH1hG4MCAxm44xcsBFZYKTs719qbwoPJMHe+5c1sjw/0Qx9pDP4qhwbQUnu44F52wsQL17FjdrxkN/WzHezUT88GA5F9ZvhMBizKgJUBAKzs18Kf/c2/bAIlJmivlQZ4wvZWYKkPNjiXl+JZdolvuGjJn/7rL11Wlz7ql9U+2bMAzyybhX3eLcFO7JU9FdjbterBV76Gv1bA5MAf/eaf9srAN/7hAXLcYDcJS5ZU9pdw2uNCX3Eattpu5lSZ6tU+7VWnctlJDGFbGLOJsmEnPsGLHoq9bsvyc3WwNQ3RzzkdqE6UCE2YIGRTC+uyGc+62jSSsxEWxOM01qQChpMhOwcg2pZX9MHKCyXs6GdzB4HQ+cRKOQRTmYQhO0kBCymcmyVEQOPkrs3LjAQLGy/ZiMnGHNrNkRAGsASacDK8vQOIG6JbX205E0FKwNYen5kKt+kMp0Qym+N4ClRiJCC7j2wKnaAIRnBBCqJNiBFYMJO8EDRkIJScK+LTz3rtRqntiELsCLGD42sDQsHNiDPvUhBMJCH6CV8bOmmHzX4QmygJ+r6XfGgrbLXfbIXgLDmy+Qps4K8MgqvPpgf1UTLgewkibIizAK7fwyQI7MgBBTvT7JyDIGmLtppuFwTZmojDwKyDthA4eHIS7dU/QZD4wZeIsKP2EWqHYAN/4s2usBCUbRQkkMNZn3yPFzjsb/jiluRYcsdJcZFo5T0Oysc7/XCtsq1rFpTUS2BwhS8QJ0/CC842Y1K3xEGySDTwVuLqILx4R1wEKOVrs+TX5lV8j43Yil+yt+TRcj8+oU0ER53+5yvaZgQt8GU3QecQavgblUielGVwIHA5iBssiZWEB9ZsL8G1ftv/eAEjOqFddrMTLGAAS0md8gwS7BfB5toKM4m4a/SNv8KXzf3vvODBXwkiTvBzGuJa97Uls3xcO9hfm1zP5/Ee1wQt/ZQ8SF5hwpf5A78XEAVD4m3UmpcqxSbaQf/wz2euZxua5TAg4DNsol022DGI0D42g5dz9V8duABz+BjY0ARBXdDUVvjxL35KR9yzh6dyYc2ucOXLgo/2Z/dCONGmvGiJj8CDruQlSbRZ+WzNX+BnwOHgX/zUOWPNruInLYVnXkqkf5Jh/XcbAce1TXKnz/pjbwg8pHFsLzFkawM012i3JJ8W5B09AjPuZ/8L/iXBsImdQK8eyaO2sCPbiUe4xp783KAzW11LeOFkd0HnSMQGE6A8ByYJob00wSCXHdlAQkOrxYO84EnSToPEQYmWMiQR/DLblos1eRujhAkG2kHbJZo4hwf8TSJprwP8pVsGptnZV3vFkWyuNTfBfk6ubTMIgCFmDEHMGAbxGYGjIDKwZVCEiBHNCCAPUhlJAFCCIDASCE7BORCG4ZAnCYJzORCQAMLhACcLlB0SxUzbEC27msnQgak8osgRiBwycjYiom51Ah7IxE07jWKRRnsFawQTfB3EkOHzdkMGVk9eKsPRstGT7xBa2wQwoq5vxBLpiRMHhBWDGt0iMAL4rH9oS15MxaHtwIUMhESwQniBEt7EngMSe9gSRQ6DcM4jlogtOAqknCHbYcNTkiUB0o9s/QxX9UhwEJPwShA4MRGHib5JgvSZwKhjmARBQIIZoRYE9VkmjweSApjAyKiVg5p6N7KXPBAGIzK2FqzMIrCLwOJWBuxl6ZyQnYkVPmXbXYHLZ64nSpIReLE/gVOfERbeGFUIVoI4PPLSH/VpC9vyAbjCh030Q2KoTEIi+HB8vFZGduIjasSDyHJ6/ZDQ5cVjMElwwSmJhmRWWTjsXLbHFdfwK4Emr2A36hRQLM9zXl7YJMGBLf4rD18IGqyUyW/NDuEUAXPgivJxXmCUmMFT34kivHEDdoKMwAQr59IAPCPu7K7PgioOC6YSMzOU7CBw+N+ISPA1Y4bDEW8+LJE1WIAzH8cHttJuP3TDtRFW7YeRgOda7TOzkJE27koWBCqjMu2DJ34LZvrX57d+wFkAp098KwE0rw6nHRJqgV2wop+4jV9G00bH/EySj6fqleTDJDO1giR+wwq38V8yZtQoMGiv8rVTwseXBLrs/KledsIB9oYvDRDwcQ/OEgNJsN80nU6xiYCfl7g5f7xbjpJ4yzpxmP7oH17RLVqkvXCPFhuwKQuHzUbSXvoveaa7eRmR4JvbjziEa/rlOnoksYQxW4tJbCpp1Bcc4mNG32bTJN/0gh9KwvGaRuAATVaWPueNpLElu2hjXpWsDXjNF5SThy0NarMEXLDnB9mCPDu+wlVZZh74I18Xi7SPjuiHOAs3iZ945Zq80ZYOsXM0yyCPf9EbdYvNU33MShAEW4Ioc+J0APQ/QiElkSEesj3Bk+AjKmHleBycgxIgGZhrCJ6sanYJgmyY4yOQOk1LCUb9GQREMMLg1EkQkIThBQXtIdTqQlyjbEQTICQDRnl5sYcAIRAqMwkC4iAtMTCC0x9OaetOAZs4IUO+53gI7XtORxwRRt8dsDTyIQbaQOhMD2Yf+xiZeBnFwRsZCSQx0kbXwFSgI1ScCWEkSgI2EhN62Eqo4A0PxDa6liDoS16qI/MWiJDUterOzAZSc1xlCYCSQyMyIskBfZYXupgWG8zCx7vFICBxFLMdypQswUkbBAd2McKQYKW9vpMACEK4p+8COaGQ0MCEQLneeUZWxAMvjPiMsjklgSA+7K69uCFAEy+jOMkA3PPSEkKvbfDqJwj4QxQJpMCnDs5ttON67ZMgwIjIsnO47Fxc4dzO0V+ioO7BBIHt+JPETHDJ67wlbzhGgPUnW93yMUIqMGQHSRx1nQTFdzglaSBUzk+CAEv9lujzFe1MgkBg84pdvigA6AOBFAjMktAC/uN/QSYv+mJHAY4NBDf2UY8A5jcfZWczUb4n8niLi/yvnyDQBPVIymBPWyRk9InNcYMfCMDq5zeS5Vwj4KofHoINvYKd6zNtK/lQb/aw7ycIbM7GdAd3DQok+o4kCITed/yQHrC7/sEcV2HF3toFF7/ZSMAVBEz3C5r0iE3oiSTAdUalysQnfM0DrnjMN5MgCMTwgxH+sr1ALtkQDA2eaAh7+a1MbTLz6zP8kUTgriO3YfqBiHb44VdJEGiL5FQ7JDym2f0vOEo6BFwrGGgizNki0+YSCQOV/r17NqGZAjKb0Xc+YmAjgLKVWQ96wZa4g5u0m4bSZoMyCbbRfRIE5bKTgYrBLvwkDtnrQoLgbwkiHPkhG8EOTvqpDdmK2yDWrAGccY0GaDc/kigkQdAefiQhUD4c9MNv30nk8IlWS+b5ZhIEbdZWiSW/N9tiVpMWTPXREgQCAnAOgSg6IMM1siCGCC0LMgLg3DpuVAE4goaQAkleY+xzYsD5OQISmaqVSbofhExGzEZ2yhZEXCuQcCKAMwSjcDZGVyciSFCMVBjJdxyAU8q0BTR1C8oIgkgcB7C+44yMj0hGQ/0EATH0jcgRBaLIeERZ3zmWYJPtmAUazsvJ9VF/8lZJ13IaBJe5CqocNm810w+CYFQnaHKqLMVUH7KaIRH4jBDUIYBLRNSpr0ZdsHOtkZRzkFHwIRowZhMCCy+zKAKrZIqzSMBkr9pITDlD3m9OUIlvHBBmnEyCxq4ES8LCZv4XJOCiXWxISPSb4GmLOn0uAdQ+NlQGh3cOJ5Ao+i0gc2BCZLSgffpAIIiH2QY2Vlbu3eKp643G/C0Y4jDxh737x5me5HyCk+Ao6OFFlmlKwIiLvkkUiAShFxAEIrxiY76CL773AzciD39tz5auOOs8nJbIEgrY+DvTxWwgMLlWe7SLDwp4zlUf3mTLcUEf1xz6GtEmfP6XLBBjfZRk4R2cJFlGPkbXZqRgKqBIhImgQ9uJuL4L6LCWNLKBH36ufgmLgYHAyq+1XdIpucMFHNXuvFQMv/hoEjNiSgv4iATL95JVhyRAMNKWvJpanWwpAPFDnJMo45wgJ1nkN/otGSHeeauepJCv5JaQ6/ir63Bev9iQjbQ5OzPqOz4LABIXt4UE+WyRTaNcD29thQefUa4y+J6BRWYOtZF+0DK+aETJp4i/gI+jAjibwJyusVE2MBN06S+82JBP6kte+pN3fPBZI03210b+hVeCtXP5l6DKVyQhuCv5og1sJ3Hgo3xAOw0+9F+d/Nj5+kiP9IVO4aCApr+STTNukkQawCbKpuXO00+45nZlZl1cbwYE/yWeAjdN5MsSbHEGZjQdlySyeKwPdFK/JRUw4ae0kj8bpNJ/tjPo8rmZBgk0HxOc9TtviaVN2itm0RQc0wb9EnPoiRgmVrKR8mmLOtkSd/GJr4g9eY8J7mszDsOWhuVtvnRBnOU3Yo/v+CBesCWNgpv2T/XREgQixbkFxNx3yT7aBBLhCYmRFVJzCOBmlYC/swc1MQUiQjKKrDr7hGeEkD2rkVR5podklIiAAHm6nQFkmz4DcPbzDkiCj7qVRxwFPgLB0WTcCKwOCZCRp/bKmPtvi8wtBuQVsJEM4Uw7GpUyHsfP+yPUzdkR1m8Ed3AchHKYeUFc9cFURswBsg8/4eTQ6tHmwdcqw9D3bEDA4EhQiZN+cujgnSnUBGD1wiP792sPYmkTMsNCcmN62YwCgSM2HFa7ss96kilT5hIkAu5cgSovSRFYjapzDQzU5fy8h0Id7AFLAUV5ghDxIdoybiM7ImY60IGDhBnfYC+71j9BP+8GcJ7+5B58HsoS7LRRcPYZfPCVnR3qy4u4tCGYSH7y9krn9ffOVzc/IHh5P0Z2v4N19szXZyJOyJTtiB2cpxy2Y8dsba0/bC3hIazOxz2H/5WDPwTNSC/T+XCPv+ACHuoXzuMVv9N3/VMGTvGXrObBXecpI/7Gx/iiunIusXbAFXe0VTBUD80g0s4n6NohMEjksuop73bIuy7YFZ8lQWyHH9oQbZAw46EDJtpIf9TlHO2Ci3IcxFub2Juv6idslGPgwR7wxAkHP9ZmdsxT9nRFO/kof3XgonIIPE3IMmS2gy1MXQMXbYM1HgjquOw8ZWm/7/kPLmtjXh+e/glCZg0cdIUN8EWdMKdLeeodvvqrPoFGculcdUrqJEQwkiBIBgRjWkxnJSgwDxdxg6/6nx7ASMA0gwtzWCaYOoeNw2nt8Zm2w9Lf2mIUzbbaxl+Vy/b0F5fy4qxoeAZgRuPKcg3u+J9WsCOsDeryIDHdkQhItPMqYwmw5MZIm79HH2iSmdzooIDb3jHwf7O16hFDxCw/7M438AYP6TPt8juDSmXBIg/aZ68XOhXeOz9vdtUP59NUiTx/4cc4ixfBB59wyKDCtfER/7PhgjgmvcxxQTRuKuok+gKXEbgZjwW1nGQq+jod6hCo3YLhhFkONR3aVW0oBGYiAu5ZmykQmIyYBWBBziyNmQj6lofrZtc/SZNRsGlvCfx00kEBXhDvb4FtFknyJeGfCYdEKA9954HJBbEqYVisRjpBYDRTi0bdRr6mA2sDm2EpNPnz4e0+vGlUB0EyYphOYjT53tSZhcCCR0Ay4LaY50WMWo1CzSS5rSSomhl0K3Kiw4yAsub3PhoTtWOs7+mGo68TY302J2VP1TVmfNxCMCtl9lHckcxN92OkEwTGCdEGCTjdDTdT29fHuzCfqVasdk8nBHLLtt+m0rXpZKH/tmUm2mTkE4TpR6PhWuT+XO7/jkVA9xmzKclwJdfZhUAhUAhMHwQ8P2O2121Kz/J45hhprgAAIABJREFUFiV7Uwy20nMc7tt7vsQ9/myANX16MzNaUgnCzLDTuK10f87T11lyky1VPWDj/pynjz3kWUchUAgUAjMVAbdArDCwssnDhB40dKtyrBfdSQo8EGjVgZU8BlBZ0TRT+7+g2j3fEgQGnZt3CLhnk21O5wc4c9o+o/SsEhhrSm9e30+fqJ3a4qloTxB7EtrT9q7xAI+lNn5yTFTWeDjnCe18r05lDfu8Rra7nR/2nF2Z2sou49lmrPuZk+HfeFwYry3OV+7cvsdgsPysHJoI17Gmoie6Zqzv55RHyhpsw2S5NDf3nAf5O9V9Vt9k+DQn7ZrJ10yESZ9ntM3yVfsgWGHhp/+8xCAn3e+3CsCqL9eZTRhWm+eVv8xkG7UEQYDxwJiHVCzvkn1Zi2mrT9M6HoARaKx5tuTDUhFPvVoCZJ0+4/jxdLq1njI9T9Va0yqLs8TFOnGAE7Psl2/ZjWUwliRaxmdpiWU61pH6znlWF1gfbymm5STqN8XkiVZP6CrPU7c2K1G+pT7KsizTcjMPhNiow7UOy2GsVbUcx3fWiXuoB4kkJB7s0SfLZSzfyYuErP01VY94MlRL8yyNtPbX8iWHz61tNXrPboSWJem/KS5TXXDRZuVa1pNduLRfezxwZGmR9rguS8ng4OnXsQ716Z/lT0kQTL95EIYTWbqkLu20pMzTzvZisIzUOmfLgtyqYF99YkszD2yh/fAxC8GWlsJZl+58D0VZrmPJkXrUYZ0xO1pqZU27JZHWIVsXDk8Zv8/YBN6+U4+gacmPPlje5e+sPTdaYHd7I+CLZZN4ph+uM0qAm0OblCF58b0lW7DFY/sAWL/s0I9sUINP+Gx/ActKlYVDBCzL0jxxnHc/wMyySOu22dwOkPY18L0nldXn1o51zLB3PpysdTY1yi88oGQ9N3+ziobNLYuzbt0afLbJUiy4us4ySUtUra/mD65nY8vH4KINuJ2tl3EMTpZU8gv+IJFkW/jDBh/Zim1xWhLH/2iCz3HBZ/YswQ99xGM21jdTvrQjLzZzjWlfNvI3bsDUw6nwgikO2L/DxjHaZZ8Oy3DZx0Yy+g5vHLZMz/py6+iz6ZFllNrOpnxGP/km37aMUbsEBja1FA4ncc1+CzDgW5b7abMlZGkDzXMuPYInDbLSxhp5ZcMCxh6stUeDZYF4ph2WQtJF+oCTyubz+pmN1pxrBAwT9Vjmpl24yC/5Me77gb/lcGypv3itzdqhbtd6EBEvYOp659FMmqb99i2wDBS2VjsoSzthl3ciwGvwwD8+CVd9g6X+sJO9K9jFg494ie95Z4L61UXT2DBLXpXvc3jqG67ZKEgf2S/cSztwx94E7KcMeynYMyWbn9FoNqH7fJ9N8BhGYgX+8g9+lffOsIW2wipLRrXfeZZT80f7z+gL/tACGkCr4WHZqCWh9JXfZb+MmRz8J9P2liAAwYYXwLNOk6NYG88wjJptUBGYswOKeBNAguXHBg9AlCQAF/EIkw0m8pIMpBCAOCDQGcVvQQLw2cSFU2WzCEa2a1reeUBoOBziC3JEg8NxGg7le44qudFeJCcw2YvBTmU2wdAmYpkthLXB7m2SIcuCCKG+2p9B4pTd/ZDHeljCQoy1QxDXJu1GauVwYPUgIKfyGcJZv61u5WoLB7d6wrmciKDDgoPqO1HjDIKjtcDDJAiSOmXZIMXyJRvuKIsd4MExOSNHI3acyeccKFtVW0JFEFxDkAigIKufxDP79cOKGOuDtuOUa5WLU/gAVwmUQCGBYhu4CD4CLg4JnjhiBoQtiJ3AyD4SGTgJJIQy9xWJl82iCIC1yQKoQEAsfO4WDLsJpLibFw7BRT+InSBBNNWtr2zEpgKPtej8g8jqHxtKeNgtm4dlAx7JsfL8FnDhIAAQL/aUEOindeuWocEFtyR/MNQ3iRVc1IXjMBQ49RNf7R9hjb/PYz/+IUjwOf3THyMofmCKVbkE0aYuNl3he3ARpA0IiF58hOiynVGbxEyg4e+w1C97F/AdfcJPZToH3+DBD5wjkEqKBEEJrlEcm+MbTJzD53Hej6CgDWxFU+wxoI3KwxdBQpJJP2CsDewlGDpXMieI6I9yXIvTNEFg1Cf7qtA2Sa622dMggVg97I6/8IIlHvncNZIq/bU/CdwlLXiRd6UIftrgSXXc1b5sgmNXPKNfSZO/JYI4w59suIT3EmfL9/KyPHoqOPNbeznwHRsnCay4I+F3LXtKMLVPQqW9bAMHqxj4jL5LXNhPe7UPD8ea5RXoJbUSXX2AE/3BOZsoaZN+B2u6QGdoovbb24MeK4dGCt60C8dxF+f5lg3ZYKI8eogbBh4GO+wrqVamvui/BAW2MOCj7KoMfJGQ4xsusgP+a7/zXOM8/MNj7cM12q0MPoZTYpdkw+E8PigOGazAUptcM7hvzWQC7Uw9Z9ZWy5yfuCIMEbPxCuflEEZINqkgjIxAmGRbyGhzCH9nRzwikXcGIC+xIzTARySB14YWHJFgZvc7gqEuTqH+3DfPZiaCD0MJAplWN3Ix+hPQBCoiwWmRnyFleYQHCXIY8cniJTEyciRCfMQVFAVSgQxpEFpQ0l6Ekez4nxALktopgEiiCI+AIXDog6SGY+kTQmoX4tuhkjjpr8yVowu0AiQn48x+c3i4Ibadu7RFW4dJEDgBYSCA6ufs2s1hs2UrrNhPVp6ZEHVwSMIkQEiI2EMAJZQCb/Yuhx2x8D17wAZWghm8lMP5tIPIsB0+4Y7nJvRb4LUHBYFj47x10CYpkjsBAJ4EkqiauRL0fO6Q2OKvoAI7QYGosD3xyG0WPMlOd9qh7ZIMiZqgoB/aYWaKMDjYmKiyob7pv6BCzCWguIIzhA2W/ACnXaOP+Ev8cBMG2Y1P3XxK37PrnMBB0PgX+wu2zpEMwYLY8zdcxW9JqHIzs6Qvkh4zJwKcxAYWcBDQJF2SXX3XVu3XVpwQwHOwCxzU4RwzB2wDO/XjBQ5LbHATR7MVrzbzA+LuQTGBz7naLnhIdCSE+UzSzObZClhdBg2CBl9Vn2BPP9gAl+DpMwMBtqUNDvzEJ7piFog9YaTtEjU8EeDUoV0CGK1KoqndvsvOpxKEbK+MW2yvXzRA4sBXtTvvrVCOpJAWwNTn8HOutjjgLUngK/6mFc6VuLIjXzR7ou5wn7/QS0FWkktvsuOi/uI1mwn4bMLeMBbsYMv38dl5BixmLyTRuDrWtLvRv+vNwrIbv8MX/WFfPPIDKzGBlgjQZuTwVh0SevqKGzhHgyWl4R3ss8U3POBoNoGO00mDUnakNQaikmV9hRdf87fzcIFuCdrZ/js7SEqE6K1DUkUv+JP+safYoU3aqq95S6nEWuygCzhDy2iacukL3+Wr/Y2TZmoCMFG7/ydBkKHJyImMwIbcRsd5BXPeUDhegoAgiJgXn8giiRGjKlO27PskCByCsCRTRFgjGsLit/YIuEYaeSMkxzDyzW0R/3MMQiN5YEiJjSSAoPtJgqAthAmhBO9srWyXMQ5MPMZKEEyZykIFBX1DXOcZWRMlQmpEyIFlxvqrb5xGIoJMslEjRElIEgTTWRxAosCZZdauEzQEQm1iB9dyNmQf673u491i6CcIeRkVZxCQ+uLK2dhmMEHQT4FFEsRGcOA0AhBHYyNlEf3ZJQjEmIizoaSHfdmNaMv0OZ6ykyAY1RsF4VtEko2cI8mULCijnyAQGw4u2dJvYghLQTpvYlOP2Qt4J0Hg5AIDuxoFsyuByDsccNqIRf+M3vN2Pnj4Xx0wdRvE1Dm8iCTRk7QoN7d+BC1cMOJjayNcHMF7wpmXSkkSjFj0IQmCWQEjb8HJbQW8If5GRWyr74TUiEwfkyAIKIIqHPiezzMzg5s4qN6JEgQ+p35czPtV9FOyZEqXbf3uJwj4k/7BRXIkyLIfHM0I8BmYa5upaaKP8xI27RSA+Bfu82Ojd5gS8LwES7BNgiAYOk8CbiTO1mZE4MO/BQ1JlcAgKONjP0GAq3ZLyvBbgFMnH8sr5iWQfFT/aVwSBBxgE30URHwuQXO9AC7x4NNwpBNmF+DifEFvvARBmdrNh3BKWyRLyhc4Jfz0if3x2WySxJVvCoJJEARBM3K0kU+OlyAI3mxES+FE//UTjhI1nMtrndXrQWlc1SeYTZQgwFaflSFJEgP4O5/JbJvEHs9wRGIpMLuOzosLfE2Sg+s+80A2/6Yd/FEcwx8aT1uTIOCZBMFgGDYGEtqb2SP2phfqYl8coic4IRmlWxIj7aELC/vREgSBFZgyPdksQggCiMWJ8k51zosAAqCAiGycGfkJub/zMhQjcIFbMGREZRMv4Mo+kZ34Mao6GZV45kUcyM04zjcKVTbCEgoipW6OwNgEnuAgB9FlUETOlp+EgeMgsfJk+EYWyuJggq6ZEyQRaAgZB0GWvGBH2YSUmBjBcS7lwgmBBU79lfyYZSEQAgKhN+2lfX47Bw764Fz4GHWoBw6ISYAILscRGIkIEYAZnAm7pMnBdurOe+TZkfNxHgmNPiA3nF1DALU3b4+DKWdka46RN4bBXLsEI0mWBEJyw2EJDceCialp4kGstRX2HEkAFlTwha0Ebvwx8hesjBJNKSpXW81yaBsBNYOgTKJoJM52psoJmxE5bgmK2WSJ+Bs9cHj2kFTCy25ybGWUJNDkNkam0tnIyJxN2Mf/+sAO6hRc4GE0AzsjO8KizdqPJ3jmb8IhyGqDUYd7t/qU1/JKWgkOwTWrZqQnIZF8SVZhQOT8zl732gZfPMZXgVF9+KA/OITPRvRGqfqg7WxGvIySlAlPQUrdpuj5GRvBUYBOEm0Uxkf0A+78StKo7drL/vTArJfP8Bveed8K7uWhMMkCfrOX9poqluDhBW7zPTrDFvrgM23BE5yUmOE0PdBvyaJkRGDUfsGDrdSJNzANv/FTX/BHG/Gfn/AFs3BwxUX1wTBb26oPZ/JsByz5L6zYSLDHNXblYwY9ZtLcQqQ7giWdk/TyVf7jO/i7JsmY26LwVB9/YlMBW/voAcxgAwMzWBIgPqR+XKNT/BeWCdY0hTaYPZC4+lxbJR60Sj0SMLzAMb4giPpbO2iTg6bxM4kdftJDfcEtvDazIfnQhhxmH2EJJ76ND9rO/3HIQEBd2s5m+E1flaN/EsTcXoKfNtFBU/qSHlyUfNEEMYNWS+zoIJ4Z4WsjP4Y9vmgfjPPyN5oHEzrIR8UwduDzZlb1X7vEIYkXTsIoL9QTZ8S2vDBKWyTbC/vREgTOReAQjsGMOATCTGnnwUWZK+GVCeeJbMHVZ/4npoRMwOKQnJooEBzixCBGZg5OgAwEghAzWl7sI1MVWDg2J1UeEhoxumfvINbKczC86dRMNyOTwC+zdCC1jM9hepoIaWteq2o0kD2xBUakyMOUBAAZBDPnIzwxJlCcmgAQNIRXhwCXpTX6aKSTFwnBw7nanQfIEB2GhAjR824HAiYzF4SJvHYhs/o5rSTLQbAJAqdhF31VR4Ig8dd+7dUXbVBXHNf3phzZT/slQQ715QVZ/uc8bKk9HI/DaEdex+qcrO7oP3EuAGoTgYNzpjqNHhxmYdgu3DM6YFu4qaNvawKLB6aecUGbjECMOvI2OtexDzzYRHuJIj5z+rwlNDMI+CTA6huhZjPi7xoCT8SMPhzELW9qFIycQ3STIAk2uCMxwxWBEY8kG4KVJNDozG22fK/9+iVwOxc3lc2+2iiw6w9BU7cAgjPamZdlCUxElu3UT+DZvz/tyt7OJ/oSB1yR5BFO9bgeF7RBP/KuAefBnB3ji/iSETKRNprjcxIpR18TBBr45vXJkl+JnfpohOTUCM6oWjkw0gbTzXzUtQYgdMPffCJv1pRsajtfMcuAO+zOZknoaBhu4D1u0AT9kKzRH+1id3/Dnm/qs7rxVTl4yMckZQZLpsHNokpe+Lo2uMa1uO62XB5wpgfaLlE0YyChEUydy+747/z0Oe84oMmZ1YJF/50Hkk8+gmd0kn30m+3pisAmUYv++SzvrJGo4J7zzWgKvmaz8gIweoIT7ON6/DZQg7l24LoELQMU9s6Mn7arS1/y4HpuYWRFAN7SoryNlobCv/9mR3XiAQzCM/XwSwkMLmoPbrGN+JBbfHTftbDgd3n3hJjmOvZy8Hd1xrfhwje1l67hE/zNQEggDKDwyzXqEJvgsrAf822Z48IOXJIRmTEHF/Cy4mE69R3pCT/Rlx1PdumpZJAACkoSh2GXCE0nDMZqi2BJzAUIwXM62E6QMprzk6WQeXKfEEo0TeMa8daxcCMgoLvNaDZofu3ZLwBLGI32DQbGO7TFOZKivJp7OvjLws2A6dG7ShDmwg6SAtNqgo2HurLUbi6KnKeXyuQ9HyDzNpo0WjO6mOjIqgAjc1m3e+a53z/RtTPleyMCt6iMbMwsuJ0zHY4ss+23RZJnatSP0c3ClqxNB9ynYxv4oURxftnbzJQ6+Pbs6pAUmLo3E+LWkudM6hgNBCpBmAs75zaLIozMJzs6n4sqh76Uc2fK33T2ZMUm1zl/fm5YNXSH5tEFM8F2/a5OtKnMPIKliikExkTALYPoXEE0OghUgjA6tq6eFgKFQCFQCBQCk0agEoRJQ1UnFgKFQCFQCBQCo4NAJQijY+vqaSFQCBQChUAhMGkEWoLgiXVrVN2XtazDPgHuO1uHapmIdd/uRVuPa1mIJSCWmHjK3ZI6y6qyJ4HzPByX+/E2ePE0rqVxlmN5WM5T2v625MSyF+dauuaJcstVPDhjSZC1sJbQeFDOUqjcB3Mv3bpZS3I8na8Ma6GtS7dGO/ttQ8FyJWu5XWNJojZri2Wdlqx4wt9yJu1UVrYB9nCQ9fSWuGRPfGWr01pcy5Us93KO5TTWMFvL7UlzG55YI+vhMp9Zv2w3NBvgwM66ZEu8PHSmTzD0VLDlMx4M9DdMLB/VN0twPAAJCzhbFmjpoyeQla+/1hx7eMjSOz9WHui38i2HgjW7eCDP/3UUAoVAIVAIFAKzQ6AlCJ6czrsYbExho4hskWqtuTXAdrCz8YZgbzMO67IFWutJPckvqRCErEm2qY010dYMZwtNa0pdI5BbH27tataGC96CpfXZltXZ9MM6ZWt0XScxsV44uytm4xdJhvW7grGAqn4bZyhX/dby29jGml6btkhk1CU4S4RsjmGzGMmI5UT2B7Dhho1WbAqjr9Y827TJYYMVuDjfOdqX7U2dl3XQgrC1xpYVWmtu3begbC20JENyIyGSKFlzbL2+dtgrQt9sNmJdufXy+icRsJxSH61N9iSx9uuj5M4T+Dbx8IS7tfrWmluSZEmchMamQj6XgFiDPexbGMuFCoFCoBAoBEYPgVlbLQsuRu6Ch8BjgwqbBwkoZg0kEUagRq8CqbW5RuTWxzoEb0FdMBTsBTIB0ujbqFr5lsoIXjagseROUBZgbfwhcKpXguA8G3JIVrTHhihG+4K/UbRAK/gZNUsG1GFGwyyITTxsvCGxsCxH0iHoCtgSBd/bMMUmITbNEfydK8mwO6RRvx0FrRHWT5un6IfDWnQJkARDsiNxsSGKZMeaeu2RVMBKgM6GROq3yYZdveAg0cjGKpIKbZEMWI+vr3an0x+zFDaBMpMiSbNFrA2HJFmWKNkAxpbDbGDWwexCXo5idgNGeYOaGROb0fTfSzF6dK8eFwKFQCFQCEwWgf9JEEx1mzI3DW7K3bS46XAJgoBlFsFIWIA3VW/q3AjdTlwCkD3nfd5PEEzRC/xmGkzhu8YIXBA2te9HgiDwJUEwA2FfAdcIfoK7JMCafgmC3dEEYjs0GkFLVrLDoBkAu2wZmfcTBO0XYCUCtnk16yFwS4TMckhQ7FDnxzS/WytmHTL6ToJgS1XtMZsi4bBHgG1Rs3uhXcLUrww4qQem9tC3b4J266td79y6gbHdBe1I6H+3EswsaK922eJVMuIwe6FP6rOTmURJQmF3SDMN1jPrkwQjCQLM3f6QnCizEoTJukadVwgUAoXAaCPQEgTByYjdtrMCiCBrG0mBzW0Cm+uY4jfyNpoWhDK1Ljnwlj67CdrhzahckBOwbQtrL3z30E2Lu3Vg2t8tBjMTkhCzFoKYwKtuU/UCvyBui1XXSFjMILglYGpeYDQK1w712wLVSNz9egFU2wRJo3j34z0z4P68YKw8wVRCYIQumBv9K1v74aDfkg57spuBsM2pe/mCrOcIBOe8ttiIXRJgpsEzFEb89kR328Dsgi1FbfNqRsX+4G4XwFliIoibDTCyt42sv/OmMM9quIWhPtuLeh5BgDeDIwkzW+FZB7M8ecmJmQu3HswcSMDgILkzuyO5Yhv911dJiUSujkKgECgECoFCYCwEWoJgFO/lHw4BR0B2mA4XkI16jabdBzeiNv1uv3UBKg+/CT6SAYHdrQjXSTIELwFUoPWdciQDeae2qXLlm4J3vkDvYUkPD5o+V5aAKGC77+8w+vZjRC4I2sPdPXyJhWRGkHa7w+Fefvb0zwjbLIaZArMSvvcApCl6swt50Ydg7wFAZTkkMu7zO9dMhPYqVxIggXCP3wyAJEOylHczmHWBl6TDjIJbLJIlzxO4JSKAu63if0mMxMeRdym4xSIJkmSoz20XtyRc51kQMygOMzUOiQHMPLBpZkG5ZmycJ8nRTgmW8iRGdRQChUAhUAgUAuMmCAVNIVAIFAKFQCFQCBQCfQRqH4TiQyFQCBQChUAhUAjcA4FKEIoUhUAhUAgUAoVAIVAJQnGgECgECoFCoBAoBCZGoGYQJsaozigECoFCoBAoBEYOgUoQRs7k1eFCoBAoBAqBQmBiBCpBmBijOqMQKAQKgUKgEBg5BCpBGDmTV4cLgUKgECgECoGJEagEYWKM6oxCoBAoBAqBQmDkEKgEYeRMXh0uBAqBQqAQKAQmRqAShIkxqjMKgUKgECgECoGRQ6AShJEzeXW4ECgECoFCoBCYGIFKECbGqM4oBAqBQqAQKARGDoFKEEbO5NXhQqAQKAQKgUJgYgQqQZgYozqjECgECoFCoBAYOQRagvDvf/+7u/vuu8ft/CKLLNLd5z736fyuoxAoBAqBQqAQKAQWfgRagnDVVVd1e+65Z3frrbe2JCCJgMThXve6V7fOOut0p556arfMMsss/IhUDwuBQqAQKAQKgUKgmzWDcNBBB3UHH3xwt/HGG3ennXZa94tf/KLbYostupVWWqm7+uqru+WWW25W4vCf//xnns0mjFfWvKyj7FwIFAKFQCFQCBQCwyEw6xmEww47rNt33327zTffvDv//PO7H//4x926667bPeQhD+nMMBxyyCHdLbfc0i277LLdDTfc0BKJ3XbbrTv++OO7X/3qV91iiy3WbkP89a9/7ZZaaqlu5ZVX7n74wx92yy+/fLv2xhtv7NQh8O+1116tlcccc0wr0//KvPzyy7sllliifWa2Qnuuv/767qyzzmrn77TTTt1mm23WXXLJJd2ZZ57ZPttmm226+9///t1ll13W7bffft2iiy46HAJ1diFQCBQChUAhUAjcA4FJJQiC9LHHHtvtv//+3XrrrdeShvPOO6876aSTuhVWWKHbdtttu9e+9rUtSTjqqKPauZKLrbbaqj3bcOWVV3Znn312d+ihh3arr756d8UVV3Rbbrlld7/73a9bY4012ncnnnhit+OOO7YGvv71r2+Jh2Tg9NNP79Zcc812q8Oshjpuu+22bq211uruuOOO7ic/+Ul3xhlndOeee2534YUXtgSjjkKgECgECoFCoBCYOwQmlSCYCfAMwt5779295z3vabMHG220UQvoZhE23XTTbrvttmuJwE033dTOlSC4RWE2YOutt26/r7nmmm611VZrMweSiqWXXrrNNpiBOPDAAzu3OVZcccXu4osvbsnBXXfd1V177bWtrNtvv7074ogjuvXXX79bddVVu7XXXrt9JmlYfPHF27lmEuooBAqBQqAQKAQKgblHYOgEwe2CTTbZpNtggw267bffvtt9991bgiDYC+SXXnppd8opp7S/zThcd9113c0339ztvPPO3TnnnNNmH9xq2GGHHdoswHHHHde+d+tBwuF7txDc6jBT4Hpl3Xnnnd0uu+zSno9w3kUXXdSSAgmCJKOOQqAQKAQKgUKgEJh3CLQE4R//+Ed3wAEHdIcffnj3jGc8o035mzUwU2BE75aA5wD22Wefbtddd22rGswmHHnkkd0qq6zSZgM23HDDNmOgnKOPProF9ZNPPrl9f8IJJ7RZA88aKM8zDpIKqyZ8fsEFF7RbDnvssUe35JJLdh/60P9r7y6A7KqyNQDvNwRmcHeH4O4W3N3d3QIEdwvuFhyCa4I7QRIk6OAEdwseCBACTM2rb706eZ3bt9OdTiadTNau6uq+956z5d+n9/+vf69zzxUhBtTRrVu3aM+dFV27dg03wjbFN998U9xl0adPnxARPXv2DBcicxCG38WRNSUCiUAikAiMvgiEQHj22WdLx44dy8CBA2Ovv3379rFV0L9//0DGnQxLL710bC/YIujbt29sKcgp6NSpU5C03AA//fr1i0TG2WefPRIMJRr26tWrjDHGGJEjgMDlG6jDucSJ15IaO3ToUNq1axe5CV7LP+jdu3fp0qVLiIG///3vIRb0hxuhcDD++uuv0r1799KjR4/oQ5ZEIBFIBBKBRCARGDYEBt3miGSbKux/CYkchM6dO4cTgOiRvvN8XltE/N5H+MhdqX57z+cEiYL45RrIa7DFQBTYsnBXxL/+9a/4qYo2leo9gkZdXjs+SyKQCCQCiUAikAgMOwIt+qpl+/+2Edj4kgRtCQzPfX/C4dRTTw3xwQHgHLh9MUsikAgkAolAIpAItA0CLRIInAB3DFROgTwBkfvwKuodMGBAuBGVo8BVyJIIJAKJQCKQCCQCbYNAiwRC23QtW00EEoFEIBFIBBKBtkIgBUJbIZ/tJgKJQCKQCCQCIzECKRBG4snXwV0PAAAgAElEQVTJriUCiUAikAgkAm2FQAqEtkI+200EEoFEIBFIBEZiBFIgjMSTk11LBBKBRCARSATaCoEUCG2FfLabCCQCiUAikAiMxAikQBiJJye7lggkAolAIpAItBUCKRDaCvlsNxFIBBKBRCARGIkRSIEwEk9Odi0RSAQSgUQgEWgrBFIgtBXy2W4ikAgkAolAIjASI5ACYSSenOxaIpAIJAKJQCLQVgikQGgr5LPdRCARSAQSgURgJEZgkEBo+Mjm6lHNtb8d05KHNHn0csPHMFePaK6Hgzq1MzzLf6LOlvTPuGvH6kmV+tPw/eHRv2q+hoRd7Zy2ZAxNHTMsdTU33uY+r/oES+Ntasy1jx0f3tfVsOCX5yYCiUAiMKohEALBUxQPPPDA8vrrr5fJJpusnHTSSeXoo48u66yzTnnkkUfKpptuWi688MKyyiqrlAMOOKDJMX777bflhBNOKP/85z/LFVdcUS699NLy2muvlTvuuKNMOOGEjc574YUX4jHPm2yySXn88cfLmWeeWfcx0tdee2159dVXy3zzzRf1OefWW28t1113XZlkkknKkUceWeaaa65yxBFHlFlnnbW8++67Ze655y477bRTozb/+OOPss8++5QOHTqUbt26xblLLLHEMM3bl19+WY466qjy4YcfxqOwxxlnnKjvzjvvLBdddFFZbrnlyjLLLFOuv/76stRSSxXjhme7du0atdu1a9eYh4kmmigefX3ooYfW7Vvfvn3LKaecUnbdddcy77zzxtM299hjj8BS3SeffHLg+d133wUmXbp0KWONNVarxvnnn3+WTp06lbfeequMP/74Ze+99y4333xz2XzzzctVV11VrrzyyvLEE09EG8Z02GGHBaaXXXZZ+fzzz6PdcccdN66x2oLUvT/zzDOXZ555Jupcf/316/bzpZdeKq4FmEw99dTF9aYv22+/fbnmmmvK8ccfXw455JDy66+/ltVXX71J7FoFQp6UCCQCicBohkAIBKS51lprlcUXXzzI84MPPigbbrhhLNb33ntvEOk222wT5EM8NFUszMjp7LPPLr179w4Cv/zyy4PUEXltueuuu6LeHXbYoTz00EOlV69esfDXFgTy5JNPlqWXXrr07NmznHvuueXwww8PwdCjR48yzTTTlAcffDBI3w+BsuCCC5ZLLrmkUV2//fZbfLbmmmtG366++uqy2WabDdO0//zzz9Gniy++uLz33nvF47AV40bgSy65ZJltttnKOeecEyLLGIiAeoQN/+eee65MPPHE4ToQHPUKYn344YeDFO+7775wKeaYY46y7777luOOOy5wmXPOOWMOiCnzUe8R2q+88kp54403QsRMO+20jRwQbbs+Vl111SDuLbbYItolrBA1IaKPxMkCCyxQXnzxxdKvX7/y7LPPloMOOqh89tlnMU7zT1TUEwiuO4JOvQif2GpqzEQIfAgpwmyeeeYpxx57bDnttNPK22+/XQYOHBgCZcwxxwzxkiURSAQSgUSgdQgMJhCQgEX/66+/LmussUZEYxZei75FHIksv/zyZeyxxw6is43Qp0+f8thjj0XEuOiii5Z77rmn7LnnngXxIG1EgignmGCCIgJUl2ha1IvIt95663LGGWeU888/P4hG1FxbRI3EAwJS54477hhkRjAgQG6HCFbEjDAeffTR+EzUW6+ssMIKZeeddw4iEuFXkfwUU0wRY2dNL7TQQuXll1+Ofld/e02AaEP0StRMPvnkcf4PP/wQ7gr3AhE///zzQbxEiPHqM1Gz3nrrRZ+feuqputs1RAQBIaKGxYknnhgCYLHFFgsh1LDY0jBGDpDztNO5c+ey5ZZbRvsEg/Y5OU0JhMqJ4OBwjHbbbbcy3XTTDeZuVAKBkDMOkT5SJkb8cAoQ89prrx1zutpqq4WwRNjvvPNOCAbXjD7WK4Sn8cFFvepx/gYbbNBIRP3+++9R/7bbbhvjJL4uuOCCstdee8X1BXtiheuRAqF1i0KelQgkAokABOoKBIvwMcccE+SDQJEO8keeImEkj6i/+eabct5554XTgMgQNHu9EggIlO1PINhysF1hUSca2OMWetsF2hLte79esfCrg6j4+OOPy0YbbTRoH5pjQVgQJlwG7SMpgmaRRRapW59of+ONNw4y4k5oX+R/ww03RP9mmWWWIFUuCrJhkyNQ49RvpKhNogWREyu2MwgqhAizu+++O0hMNMsCF2l7n3PBOYFLvT3yp59+unzyyScxDk4Et2P++eePPupLbRFJa8MWzI033hiCC1nCmwvRnEBQn719ggcpG/eUU04ZoguGSq1A+OKLL8oDDzxQVlxxxbD84VjlBsBp//33DxHBifroo4/iMw7HuuuuW3c+OC8Egjrh7/pbeeWV4/XCCy/c6Jxddtkl5sv1Zf632mqrwNe8aisFQi5uiUAikAgMOwJ1BUJttQiEQBA9I3HWvq0GNjbinnHGGSPaFgki/VqBIFpGDt4XoSJTzgOreEgJjM0Nj8XM9UCG9vZbW1jbtjpE/CLkr776qtx0001hp8sbqMSE1wgY6RFGyy67bIgSkb0InaBCWoSFqFpETxDAy/GtKYgV0dp6kQNACCiEGkdHe1wJjo08jIbFubUCwXvEFEGgEAH65305FNWWAbeDEKonEJoaB6fAfBAM3IjWFo6IMRsjkcDlQPzG2759+xCs8h44FJyJhsW1mgKhtcjneYlAIpAI/D8CQyUQkJ2IW0Qrau3evXtsObDWBwwYUD799NPYF64VCKJtSWPOQTpyFDgGCLnevnhLJuj777+PSNVWh6iTpVwlB7bk/IbH/Pjjj9E/0ao+EQC2WIyTCEB6Z511VuRKiORvu+22EA7sbaTNRZCnQSCI4hE2t0T0jyjlAthCGdYCNzkTStUn2zvmhauD6JsTCAhUzoWtkCra1r/bb7893A+uAOeD6KnuWKl1EOqNQ/6J3AfJlXIPbH+0dj6q+okWmBOf+kKcSpjl4nBj9Le2jRQIw3qV5fmJQCKQCPwfAi0SCCI6FjASJQbsybPILdwiWBEpux3R2gbo2LFj2Pwic1a1hDXbAvbERdas+J9++ins6YYFEdk3lj9QS3YNj0NGu+++ezgXcgmQm+x67zUsnADEjWTkEgypEADyLzgHtgdErtwRESrSNGakZGyIi43PIZBsKKp1HmIkhogCWNk+Qca2LIy74V0LMBUFE1gIuqniOHeBwGSqqaaK7YCYuP/5n6jP2G1hEDbwaE4g+JyYqootAbkYp59+erRRL3GyOYEg/wB5u2OCSLBNQoBIoGxYOAy2MMyHbYymikRSIsyWTsNtGCKB43TwwQfHFpdrrLa/KRByaUsEEoFEYPgg0CKBUJEfkkXybHX2LwIgAJCkSN5rAsJrCWb20lnfInyvuQcWeYl9iEIdDYu9fja5iNytgE25C8SJfeuKKEWtRIrkwYbF/jwilxzH1RhSYVeLypEOgrNtQSggJGJBdr2cgBlmmCEsbha8REDRu+0W2xAcFCIB+bkbwW+3HxJXHBPJf1WRzyHp0g+R1VRBupwMOR61t20SKm4rJcQQvcz9lgiEhscgf8W5TX1vQHMCwZ0FthWq779QF/FHJDUsVSKk64AL0FR58803y0orrRTJr7VzSgBIYiSqOCq1fU6BMHwWhqwlEUgEEoHBBIJIGcHVErPtAz/VF9pUvwkG73MOfH+C8zgD1RcD+W3BFuk61mduCZx00knjvvjagohsW4jCEUxTX8qEdEWtVXGc71moPR4JI1V70k0lyFV1IDfH2+vXj/79+8eYFOMwRs6FvteOk3tRjdtnXAfEXp2rb7V75dWdB0TRkPITtC1fQB218+IWQgl6xBLnplYcwIhI4lQ0dRdDS/4FKoEg/4JbUdsPEb/roCpIW39r80tgZBvG1kyt29OwH+bCmAmshgIAFrZSOD1u3azmpzrXtWbMxJk68i6GlsxuHpMIJAKJQH0EQiCwnCXWSQazby56bosif8Etjyzk2lv6hrY/yITQkKvAwaiNroe2vuF9PAFh28H3JHBUhraw6xGlHAkJlrWFiNpvv/1i68HtklyG1uZ7EAgEFtHkS5dcH62piztDqNgWak1+giRKzg2RUS8plWCCCdeKA8HZyJIIJAKJQCLQOgQGfdWyyJ5QEIW7Pe6/obT0K3zbYqzD2jduBuJuaq7UT0SIqokjLkdrv3pYXa4Proc6tNmauoZ1zG6r5TzVc5/MIdegcnKIoqaOa4v5zjYTgUQgERjVEMiHNY1qM5b9TQQSgUQgEUgERgACKRBGAMjZRCKQCCQCiUAiMKohkAJhVJux7G8ikAgkAolAIjACEEiBMAJAziYSgUQgEUgEEoFRDYEUCKPajGV/E4FEIBFIBBKBEYBACoQRAHI2kQgkAolAIpAIjGoIpEAY1WYs+5sIJAKJQCKQCIwABFIgjACQs4lEIBFIBBKBRGBUQyAFwqg2Y9nfRCARSAQSgURgBCCQAmEEgJxNJAKJQCKQCCQCoxoCKRBGtRnL/iYCiUAikAgkAiMAgRQIIwDkbCIRSAQSgUQgERjVEEiBMKrN2H9Jf4f1wU3/JTDkMBKBRCARGGkRCIHgKXgXXXRRee+99+Kpf/vss0880ne55ZYrzz33XDw2uF27dvHo4CeeeKLstttuZayxxiqeKHj77bfH43WXXnrpsvbaa8djgF9//fXSvXv3MtFEE5Udd9xxsCcOfv311+X888+PRzp75PENN9xQVl111fL888+X3XffvYw99tiNwOrZs2f0zaOGP/jgg3hcsCcZPvvss+X9998v22+//aDHOavn6aefLghonnnmibo9odKTAO+7777y+eefx/mvvfZa6dOnz6C2Zp999hi7+qeccsry7bffRr21Ty30dER9nmSSScq7775bllxyyUaPHv7iiy/K1VdfHfhssMEGZbHFFitvv/12eeCBB8r8889f3nzzzdKxY8cyxhhjNBprjx49ykcffVQmmGCCwHyTTTYZaS+e1nbsrrvuijk6/fTTW1tF3fMGDBhQzj333LL88ssH1nvssUc577zzyu+//17at29f9tprr8C0NcX1dPzxx5cffvghrg+Pk/b46gUWWKC8/PLLZe+99x5sPgcOHFi6desW/xuLLLJIPE5d/y644IKy7bbblmuvvbZstNFG5fLLL4/uLLTQQnG9uVazJAKJQCIwMiAQAgHZrrnmmmXeeectu+66a5CjxWvTTTctDz74YHnppZeC9C2wjkWuHqXbpUuXWPCIgg8//DAWZyLBD4J79dVXg4wRgYXPQk0wEA+Of+GFF2Kx3HrrrQtifPLJJ8t0003XCJd99923PP7442WFFVYIgfLMM8+Ua665JhbsRRddNBZiwsICvNZaa5VPPvkkBMyJJ54YBEtcbLfddrGY77///mWcccYpq6yySrSjX1999VWIII8Kfuihh6LOTz/9tDz66KONCMX4Caepp546cCGWjjzyyEF99vlWW20VQuPHH38MvPSXkDrrrLPKaqutVp566qnA0COJawuiIXzgR0A88sgjbXKdEF7GT7QN73LrrbfGuC677LLhWjXxZ+7WW2+9cv3118c147pwXfrs3nvvjeuitrgWEfqMM84Yx9d7lDVhSKASdv5XCGr4mE9zCy//Bwox4XPteo+Q1B/nr7zyyuWUU04phxxySLnlllviOnL9TDjhhHFMPdE4XEHKyhKBRCARaCECgwQCYhVtH3rooeWzzz6LRRAxi8AQPSK1oJ9xxhlBbhUBWzAnnnjisvrqq5dJJ500jhc5zzLLLCE2EORVV10VC5/I+6STTorF1KKsnc0337ycfPLJ5dJLLw0xMt544zXquijLYr/ggguWe+65J0SCBRvpI/VKIPTu3TveszCL8Cz2RImxzTTTTOGK6Ifj9EHbv/zySxwr4hcRPvbYY2W22WaLMVr4a8mC20IozTXXXKVr164ROTYkUfUay6mnnhrjW3zxxWPMxNdRRx0VfYEDcVSPDJxnrCLeimi0yb0hGoxDn+DKieBkIDaF0Pnrr78CkymmmCLmxTEzzDBDHEdAET5Vu+ri6MBy8sknD2Fonp1HyMGPuPMZ0eVzka4oXD1//vlntEV4VXVqX18Roz64Jvr16xd4c2mMwZy88847cZ7y8ccfh8Oz8MILRz0cGEV7xqbvinqQ7Zxzzhn1wMe533//fVwb+rPUUksF+XLBRPbGfthhh4WYa0ogEL+uY/3ibHF9ap2GSiAQecSz69D/AzFivonAMcccM/ppvnbZZZcQAly0+eabL3Dzv+Fac527Ljha3IVtttkm5iAFQgtXrTwsEUgERggCdQUCItlzzz2D0BBEFekh0RNOOGGQg2BBraJggqJDhw4RDVmokXCnTp1iO2HZZZcNB+LAAw8M0VFF9RZFi7c2zjzzzFhA6xV2tK0OBILwkLKy0047BbEQCBZn4sbC7T1tXHzxxeXuu++OBRhxcA4Qn0UdESKj2267rVxyySWxWCMUkT+RgsCQRb1CGIgGRcFrrLFGWWaZZQYdhhyMHy4Im+uhf8gYdvp10003lXPOOadupPrwww/HGBGLLQ9uxQ477BDtcViIGo6LH3h4b5111glSP/vss8P+Rm7aRsCI/LfffguRgrAIAsT95ZdfhgUvcibg4AaHXr16lYMOOiiO5xJpGzHb9kDE5ky9XAAigBgUSSNB7ay//vrRL4R59NFHh2AhKqeddtoQRdpyHXjfMVweWHNbiI0VV1wxxJo+EkL6x9UhUh1LmCF72xTml3AxJngTdBwd7bk24ExINCcQTJ6+m38k/dZbb0U/uF+Vo1UrEH7++edoB/auneOOO26w7QH1EViuByIA1gSza5FANH/ct8kmmywFwghZ6rKRRCARGFoE6goElViYuQQi1co6rRUIVWMWbIs+21/EJvJD1hZOkbMtBYuj6JmzgFRF6xb7qn6kWs/+rSIyCzRSFzVW0V1DgVDlLiAZ/UAmtkAQmYWfq2Abg62LBEWh6iIY5phjjnL44YcH+flBTA3bqQUVuTnG4k9kIGHkqRg/cnN+586dS9++fYMIHGeM+u53hWlt3eqs+qANrseFF14YZEqYGJ8IW5tIEtmIfokV4oGDYiwEhSh64403DsImAK688soQaoiU+EO6SFQ0az64OvDgACBHc3XMMceEbb/EEkuEGOCwwFSUjhwrgQR/RA1L2zhcB/NLJBIc3CnikPC47rrryp133hl1OQYZE6WEhrpF31wav/Vd1M5ZITgcq+0tttgiflj8xAURyV1AuLBVX3VN1AoE+HI0kLxCvLD6zZkcA4KVWEX6zlVqBYJjXQfm1ZzBhrj0vuuYYDJ/5s28+K2d6v/K7+oaSAdhaJetPD4RSARGBAJNCoR6jdcTCGx0EbkFlYNgUfRjQRUtHnHEEUFyErAs3sjROUhHtCzCa22pJxAqQSEPQhvECxHCXiZc5p577iAhjocoT/SPOBFRawpykL9wxx13xOlIBbFxUORIECsEQ2v3lpEt8iNqEApiE9UjYCRL/EiUZFuLUpGxKFrkyzGQsCdZk1hDzLCHhW2b0047LQRGlXBXTyCok7AjJNj9BApnA74+q9wcY4czEnedcEAINCTOgueccJwcw6kQqesHIjUO2zo+dz2YC9tOrit9hy+RQCBpF7EjXHWrQ7/69+9fZp555rp5HbUCATkjZXOkcMtcS9wm16x6CChip9o2qBUItdcK/Ikqxdy8+OKLcb15z3VgTARu7ZYVQZECoTX/eXlOIpAI/KcRGCaBwMZGVtwCFj4iEMFWCXYEgMWXDW6vWBHlIRaEKvpruNdrEZb1zY6v9p2HBIBo1yLMwmcxiyS1TYQgF5Y+ux5pi5YREIGgP4gJuYpGReK2H2oL8meLu/Og3ueOt8Drg1wGRb+rPW1jdJ6ENW5Cw+I8JIIYkWlTxRYNskJmyIrgQjTuwJCLwZ6X/6GfxtycQBDlsuyRN8GAqFng6nenhchd/4kMxIu81l133RACnAkuANLzea1AcD04DiFyNcwnQYLkOTeEGVfCnSba5XrISyAAjOuAAw6IpFVioqFAgJ0fc6YeYtQcEziuPVtBRIDtLVsstaVWIMBeX10PiqRQ9bgW3G3ATagVdM0JBA4CB0UxP3Iv5Cq4/jktHC1YGm/tdZAC4T+9zGX9iUAi0BoEWiwQRJcsa+SKhBCFCI4tXCUWsqEt8sgDKSBYETAhUEVOIno5Ccho+umnH6zPMs2RsT1u4qKK3uoNzK2PFl8Ls/18FrZ2tIlwvdZPn4sORY0WeY6B9y3iyMjtmUitXua6KBU5aofYaElh1SMZWwv28BV4ILOGBZm4/VH7N998c5NV20pA/LDhRLC/kSwSlciI5IwbqSFlrok7NFjy8h+ILRE7Icc+h6vtHndS2BbiMHAgqjnkUCBrxE7gcH5gSExwDmwp2L4Q0RMWxFnlAumjLaXNNtsshCABh2hdA2x380pE2n+3z89Zkluif7YDbHUgU9cQN8o15DP1+cy86YPPnEsQuF0QzpwFWzH1rpnmchDgorhumrrNsDmB0HACuSSuG1soBKI6bT0RcbXbaOkgtOS/Ko9JBBKBtkBgMIGAWERS9chShIysLGgWYTasaBQhV8UCK4IWrVtQEdlUU0012LgQmoQ35Fa7mFtYRZkW/fvvv3+I96yL2iUjKtrUjv75sdeLGKvFni0u0kZC9ry5FvptAZddbuujXkGMoneLvL3zlhT2N3KtCiz1x21sDYv9a3kRXAw2/5CK/AaYIhnkrIiAiSwRszF5LZlQMb4qT8Lras5E5W75NCb1mAP9Mx+SFgkQY+ay2MM3Drkairs6iCxWuWN9Dt+G8+hz+QvwZrMjePUTA77zgvirEkCreYM9x8J2D8HhuCo3oMoFQarcjCqZkdCApzFynFw35rHed2gYO+djSHcxtGReGwoEArDe/0hVj2PhrH8N/zdcB7XFsYRq3sXQklnIYxKBRGBEIjCYQLDgi0ZFam1RJN+JdEWnyKStC+tZBCsarxU6w9o3RCjit/1RkfCw1jmk87UHW86GhEWOw397IUbd2SE/gHgw7qYSYZvDAoETQ1wyro/tlSE5XM3V53OCjvslB4OY4tK0NlelJe3lMYlAIpAIDA0CIRBEWVXkZ9GzCLZFqW4RlIw3pAhtRPVNREw0DSsR1OsvwhFhtpawhhYD80vwKOz6kUGADe0YhvZ4+LL1/bYNYsytva78j9g+4pxwlDgWw/qthwSM/ikcF0mRre3f0GKTxycCiUAi0BwC+SyG5hDKzxOBRCARSAQSgdEQgRQIo+Gk55ATgUQgEUgEEoHmEEiB0BxC+XkikAgkAolAIjAaIpACYTSc9BxyIpAIJAKJQCLQHAIpEJpDKD9PBBKBRCARSARGQwRSIIyGk55DTgQSgUQgEUgEmkMgBUJzCOXniUAikAgkAonAaIhACoTRcNJzyIlAIpAIJAKJQHMIpEBoDqH8PBFIBBKBRCARGA0RSIEwGk56DjkRSAQSgUQgEWgOgRQIzSGUnycCiUAikAgkAqMhAikQRsNJzyEnAolAIpAIJALNIZACoTmE8vNEIBFIBBKBRGA0RCAEgicLPvbYY+Xrr78u//jHP8oaa6xRnnjiiTLXXHPFc+39/uyzzwbBM+6445YZZ5yxTDjhhMME2TPPPFM++eSTsummmzZ6zO1vv/1WevXqFY/W7d27d1l22WXLeOON16i9H374obz88stlttlmK2+99VaZddZZy7fffjvoOOOZbLLJypRTTjnCnpxYNf7+++8HrmuvvXaZdtpp421PrPQEv2mmmaZ8+OGHZZZZZikzzDBDo3GZk0ceeSSwNz44mIuqeET0Bx98UP7888/Srl27ssACCwzX8XnSoGtgySWXLE8++WTU//TTT8eTEfV9xRVXbPXc6/Pdd99dtDHRRBMVY/3555+j/+uvv/5wHUerO5knJgKJQCIwmiMQAuGPP/4oa665Zpl44onLhhtuWKaYYoqy8cYbB3H36NGj3HLLLeWss84qDz30UBC1xwZPP/305a677iozzTRTqyE84YQTon4/HvHcsDz11FNlnXXWKaeddlo5+OCDy4MPPhgkWVtuuOGG+HyjjTYqN910U7nttttK586dC/Gx1lprhbB5++234/PLL7/8P/Lo5noAEAKHHXZYufTSS8vjjz9eFllkkTjsp59+KgsvvHCMxeODt9hii3LMMcc0quLXX38t0003Xdl2223LJZdcUu6///5yzz33lIsuuqh07NixHHrooeWAAw4I7GC01VZbhbgbXqVPnz7xWOhTTjmlHHnkkdEucXD11VcHhtqtV3788cd4HHLtfDY8FgbzzjtvXGsrrLBC1Gu+XWdE3iSTTDK8hpH1JAKJQCKQCLQSgUECAZmussoqQTwiX6933333INXXXnstfp9xxhnlueeeK998801Zfvnly+GHHx4kJSIcY4wx4ln2FnsRLRJBcpyAf//73/G8e0KkX79+cazI0Xl9+/YNkeEYbsDf/va3ECqia6IF6a+66qoRxc4zzzyNhol8K8I87rjjyquvvhqkdt1110WELTolLnbccccg0fPOOy/a//7776MtZKRtxMYR8f6kk04ax4hw9VEdjuVg+BwB+lFEvgMGDAhRZfzG2L9//zjHbySrfYSoHfUhfQLsggsuiL/33XffRuPS9txzz12OPfbY+ByBfvHFF2WzzTYrt99+e7R7zjnnBHGrW9vaNA7FuLzWn6o4RpRujowDzkSFfn333XcxfnPAbfn000+DvAmTlVdeudxxxx0xlj333DNwbUogPP/886VTp05lscUWi+uHA6LdWoEw//zzlwsvvDDcFeXee+8tu+yySwqEVv4j52mJQCKQCAxvBAYTCIiYQEDsm2++eRHh+0FIiEikiqjfeOONIFuuwhxzzJq+qtAAAAc+SURBVBGRMgva1sTxxx9ftt9++4iQRfJjjz12kI9I+ogjjojXREaXLl2izoEDB4YIQIREwUcffVSOPvroECii/ltvvbVss802IVAQV20hVjgIe++9dznxxBPDQdCHa6+9NkhOQZL6q+8vvfRStGsMtjcIHAIIEYrs2flbbrllRPwEx1RTTRWkqZ+I8tFHH40tCwIESfqNcG0h6Cdxok/e22effWIs3bp1K6effnoQNkGgX5tsskm85/Vyyy3XaFwcCJ8ZG+J84IEHyiuvvBLCYqeddgq7n7Ow6KKLxrmOP+qoo8qbb74Z4zrkkEPK1FNPHdE/sfD5558XW0MnnXRS4DPBBBOEACIyzKNtHHP4+uuvRz3rrbdeEPyVV14ZAo1bpB4CgYBsSiAQG4QMQYH09QH2rodqi4iDUAkELpHCHUmBMLz/vbO+RCARSARaj0BdgVBFlAhBpCk6Rqocg4UWWii2GJAHMuQU7LbbbkGiyBwRIBd12GtHgggH4YsYr7nmmhAUiOnkk0+OaBSZiFZF1IQD4kLYVTRPYIjqRfH1irbHH3/8QdGv9hoKBH1BjNo788wzy/nnnx9C6NRTT422DjrooBAvhMrDDz8c/UaMHBWiwLgJhu222y5ITNSrfo4KgkO86pMzYLtALgdxMPPMM4fI2WOPPYLgu3fvHu9xFgglRImoYVivGH8V1RMl6l933XVDaHAS4MmJUTg1SyyxRMyJcRAE+kIsLLPMMmW11VYrO+ywQwg6GJ999tkxTxdffHEcQ6ARAV7rn79/+eWXEAVcHkSv1BMIjueMcAoabi9wVghMrs3+++8fAk5JgdD6f9g8MxFIBBKBEYVAXYFQr3ECAaEi2CpStuiLXIkFZEYgICMkJonNcSJvBCzyRUiiZ7kN5557bkSycgWQsv1nxIU8JEBK7mttqRUIonl9lBi39dZbF/vrCJFw0H8iQbQu8jXOq666KghdZG/7giNiG+T6668vSy21VFj/juEacCAQKEIWvRurcvPNN8d7tkVgQExwOZoSOS0ZK5zgiOi7du0aOCJ0YoNo0CY3ALHbPoAt8UTkEHncFUSuH++++27Y+TfeeGM4LMZpHEjc2OGv3tpSTyDox4svvhhjI8TkFhCRMLYVQnwRKMRQCoSWzHQekwgkAolA2yMwVALBFkMVXXMAkIvIH2kgV1sRst4JBCRvS0COwBVXXBF2vSifABBVSnZjkyMx0SxbH9lxDuQRsOXlLTQszkVC6hlSaSgQiAD2OXEi6kbuXA3tzD777EHwtkZ23nnn8uWXX4ZAQL7yBiRkNiUQiBnR+gYbbBCuCuGBwBG0HIwqil9wwQWjbS4JgaLO2oKgbUsQHLX79Q2PlSSKjOHseLkJ7H9i5eOPPw5nA5aSH5E8FwDhs/rNg2RNeDvfe9we80hcEHucD3MztALB1g2BqO9+YDDffPOFmOFqVPka1VjSQWj7f/zsQSKQCCQCzSHQIoFgz5ldjaAs/hZ+OQpyBg488MCwt5GuxMX77ruvuAVPxIooJRqy9Fnt9q332muvEAuOZ+OLZEWdEtskwYlqJdpph6VfFXkR9u2/+uqrIGL11yvyCWxhEAVsfue5XU8kz7UQ0RIwti3UoU4ugvYIGXvh8gzs3YuARb4I3r4/FwLh66vXiFSkbosA8Xbo0CGSML0mMhC18eoHgYCIETaSb1iMnzCxBcGhqFeMQ04Hu36//faLLQ1bF9X2jO0QZC8nwbwge8IFDiuttFKIAfPHFSHE/DYfthyQuXrkeXBJ5GEQF85viYPQ8Bg5JLYW2rdv3+TtiikQmvu3zM8TgUQgEWh7BFokEBAO+1x0iPxY1uxoSXOy/QkDEb88AZY2wmFlI39EjJBF8gizyo53L72EQUWmu+i9Otd5SK3hrXJInEVOkPTs2TO+76BekWQnmtZXbYpefc+A4yt7H4kRGfbVjcUdAtXdCupseDeG18aoffWpw2/ix7YDt8N4CRPtEDc+R5DGRDxVdw/YapCvYGwNCxy5AdwMjkRTAoFwqdpH8PBUv2JejJWzQGjpFwFknqriGA4Pd8T3RhAz3BjfG6HPfqrx+5zQG1qB0JJLOgVCS1DKYxKBRCARaFsEBvseBPfduy9f1D+0pSKXimD8bkg49V4PTRuiUpG4iJdIGJa9/KovQ7LzW9o3Y6zESGvrc4eH6J7rUCUdtrT91hxX9XlozpWI6IurbK0QS03dxdCSOqvvQZBLIVeFs0L0XXbZZbENkt+D0BIU85hEIBFIBP6zCIRAsODbl5ZUJwplpY9sRaKhiJyIGVZxMLKNzbhsVdRLChxZ+irHoEpolF9ia6a1hZMib4Loc3eGueUe+U4GuSDD8wufWtvHPC8RSAQSgdEdgXwWw+h+BeT4E4FEIBFIBBKBOgikQMjLIhFIBBKBRCARSAQaIZACIS+KRCARSAQSgUQgEUiBkNdAIpAIJAKJQCKQCDSPwP8Cl/2l3m9U4ZIAAAAASUVORK5CYII=;" parent="1" vertex="1">
                    <mxGeometry width="680" height="354.38" as="geometry"/>
                </mxCell>
                <mxCell id="6" style="edgeStyle=none;html=1;entryX=0.5;entryY=0;entryDx=0;entryDy=0;" parent="1" source="3" target="11" edge="1">
                    <mxGeometry relative="1" as="geometry">
                        <mxPoint x="340" y="510" as="targetPoint"/>
                    </mxGeometry>
                </mxCell>
                <mxCell id="3" value="strart" style="rounded=1;whiteSpace=wrap;html=1;" parent="1" vertex="1">
                    <mxGeometry x="280" y="420" width="120" height="60" as="geometry"/>
                </mxCell>
                <mxCell id="4" value="end." style="rounded=1;whiteSpace=wrap;html=1;" parent="1" vertex="1">
                    <mxGeometry x="580" y="1090" width="120" height="60" as="geometry"/>
                </mxCell>
                <mxCell id="10" style="edgeStyle=none;html=1;entryX=0.5;entryY=0;entryDx=0;entryDy=0;" parent="1" source="5" target="9" edge="1">
                    <mxGeometry relative="1" as="geometry"/>
                </mxCell>
                <mxCell id="5" value="string[] array;" style="shape=parallelogram;perimeter=parallelogramPerimeter;whiteSpace=wrap;html=1;fixedSize=1;" parent="1" vertex="1">
                    <mxGeometry x="280" y="585" width="120" height="60" as="geometry"/>
                </mxCell>
                <mxCell id="30" style="edgeStyle=none;html=1;entryX=0;entryY=0.5;entryDx=0;entryDy=0;" parent="1" source="7" target="24" edge="1">
                    <mxGeometry relative="1" as="geometry">
                        <mxPoint x="450" y="870" as="targetPoint"/>
                        <Array as="points">
                            <mxPoint x="460" y="960"/>
                            <mxPoint x="460" y="830"/>
                        </Array>
                    </mxGeometry>
                </mxCell>
                <mxCell id="7" value="if (array[i] != string.Empty)&lt;br&gt;Print;" style="shape=document;whiteSpace=wrap;html=1;boundedLbl=1;" parent="1" vertex="1">
                    <mxGeometry x="520" y="920" width="180" height="80" as="geometry"/>
                </mxCell>
                <mxCell id="14" style="edgeStyle=none;html=1;entryX=0.5;entryY=0;entryDx=0;entryDy=0;" parent="1" source="9" target="13" edge="1">
                    <mxGeometry relative="1" as="geometry"/>
                </mxCell>
                <mxCell id="20" style="edgeStyle=none;html=1;entryX=0.5;entryY=0;entryDx=0;entryDy=0;" parent="1" source="9" target="24" edge="1">
                    <mxGeometry relative="1" as="geometry">
                        <mxPoint x="610" y="750" as="targetPoint"/>
                        <Array as="points">
                            <mxPoint x="610" y="715"/>
                        </Array>
                    </mxGeometry>
                </mxCell>
                <mxCell id="9" value="for(int i; i &amp;lt; array.Length - 1; i++)" style="shape=hexagon;perimeter=hexagonPerimeter2;whiteSpace=wrap;html=1;fixedSize=1;" parent="1" vertex="1">
                    <mxGeometry x="250" y="675" width="180" height="80" as="geometry"/>
                </mxCell>
                <mxCell id="12" style="edgeStyle=none;html=1;entryX=0.5;entryY=0;entryDx=0;entryDy=0;" parent="1" source="11" target="5" edge="1">
                    <mxGeometry relative="1" as="geometry"/>
                </mxCell>
                <mxCell id="11" value="string[] array" style="rounded=0;whiteSpace=wrap;html=1;" parent="1" vertex="1">
                    <mxGeometry x="280" y="500" width="120" height="60" as="geometry"/>
                </mxCell>
                <mxCell id="16" style="edgeStyle=none;html=1;entryX=0.5;entryY=0;entryDx=0;entryDy=0;" parent="1" source="13" target="18" edge="1">
                    <mxGeometry relative="1" as="geometry">
                        <mxPoint x="339" y="910" as="targetPoint"/>
                    </mxGeometry>
                </mxCell>
                <mxCell id="13" value="iarray[i] &amp;gt; 3)" style="rhombus;whiteSpace=wrap;html=1;" parent="1" vertex="1">
                    <mxGeometry x="270" y="780" width="140" height="100" as="geometry"/>
                </mxCell>
                <mxCell id="19" style="edgeStyle=none;html=1;entryX=0;entryY=0.5;entryDx=0;entryDy=0;" parent="1" source="18" target="9" edge="1">
                    <mxGeometry relative="1" as="geometry">
                        <mxPoint x="140" y="730" as="targetPoint"/>
                        <Array as="points">
                            <mxPoint x="170" y="940"/>
                            <mxPoint x="170" y="715"/>
                        </Array>
                    </mxGeometry>
                </mxCell>
                <mxCell id="18" value="array[i] = string.Emty" style="rounded=0;whiteSpace=wrap;html=1;" parent="1" vertex="1">
                    <mxGeometry x="280" y="910" width="120" height="60" as="geometry"/>
                </mxCell>
                <mxCell id="28" style="edgeStyle=none;html=1;entryX=0.5;entryY=0;entryDx=0;entryDy=0;" parent="1" source="24" target="7" edge="1">
                    <mxGeometry relative="1" as="geometry"/>
                </mxCell>
                <mxCell id="29" style="edgeStyle=none;html=1;entryX=1;entryY=0.5;entryDx=0;entryDy=0;" parent="1" source="24" target="4" edge="1">
                    <mxGeometry relative="1" as="geometry">
                        <mxPoint x="790" y="1110" as="targetPoint"/>
                        <Array as="points">
                            <mxPoint x="790" y="830"/>
                            <mxPoint x="790" y="1120"/>
                        </Array>
                    </mxGeometry>
                </mxCell>
                <mxCell id="24" value="for(int i = 0; i &amp;lt; array.Length; i++)" style="shape=hexagon;perimeter=hexagonPerimeter2;whiteSpace=wrap;html=1;fixedSize=1;" parent="1" vertex="1">
                    <mxGeometry x="500" y="790" width="220" height="80" as="geometry"/>
                </mxCell>
            </root>
        </mxGraphModel>
    </diagram>
    <diagram id="X0kHqJS9yaPvFhuYyAAQ" name="Вариант2_основной">
        <mxGraphModel dx="680" dy="521" grid="1" gridSize="10" guides="1" tooltips="1" connect="1" arrows="1" fold="1" page="1" pageScale="1" pageWidth="827" pageHeight="1169" math="0" shadow="0">
            <root>
                <mxCell id="7J8ZopOZNkx4ZM-3AKjg-0"/>
                <mxCell id="7J8ZopOZNkx4ZM-3AKjg-1" parent="7J8ZopOZNkx4ZM-3AKjg-0"/>
                <mxCell id="eHuPXH-pFHtqsjfDOoEe-0" value="" style="shape=image;verticalLabelPosition=bottom;labelBackgroundColor=#ffffff;verticalAlign=top;aspect=fixed;imageAspect=0;image=data:image/png,iVBORw0KGgoAAAANSUhEUgAAAggAAAEPCAYAAAAnETxGAAAAAXNSR0IArs4c6QAAIABJREFUeF7s3QeUJUXZBuDGAIgiUckiOUlGAYmSk0QBEZSclShIlgxKBokqSk6SVBRQgpJzUkBBclJAFBBRQP7zlOfdv7nO7M4yd3ZnZ6vPmTMz93ZXf/V+6a2vq6rHeffdd99t6lERqAhUBCoCFYGKQEWghcA4CAKO0P754Ac/2IwzzjgVqIpARaAiUBGoCIwSBOSg5J323+/35u+8807Ja2+99VYz3njjNR/4wAfeb1MDdl1kfPvtt4uMgy3vFoLw5z//ufne977XvPjii80jjzzSrLLKKs3222/fjD/++AMGTG24IlARqAhUBCoCEJDIf/CDHzTrrrtu89JLLzV33HFHs/7667/vpH711Vc3P/vZz5qnnnqqeeGFF8rfn/zkJwcN2AjBT3/60+ZXv/pV88wzz5T+X3LJJc244447aGQkSCEIQFxuueWavfbaq8Fovv71rzcnnnhis9lmmw0qYaswFYGKQEWgIjD0EPjPf/7TLLHEEs0MM8zQPP/8881nPvOZ5uijj25Us0fmkGgvv/zyZr/99mtmn332Zppppmm++MUvNksvvfT7Jhsjc/++nEvGs846qzn00EOb+eabr5luuumaNdZYo1l88cX7cvkoPacQBAzrwgsvLFUD7G2mmWZqtt566+bggw9u7rzzzsLAKGy22WZrVBv+9Kc/DRNS2WbmmWduHnjggeb1119v5p133qJUpKMwkHHGaSj/wx/+cGnjnnvuKe3NMccczVxzzfWezjIM9/vQhz7UfO5zn2smnHDC5q677iqkJYf22tMmMC73fPzxx5sHH3ywmWKKKZqFFlqo+ec//1nuNckkkxRZZplllqKI++67r1zv81deeaU0SzZlqPY9fPbvf/+79PkTn/hE8+abbzZ33313MTL98UO+f/3rX+U8ffaZtnOO3/rs85tvvrn8XnjhhZvJJ5+8+ctf/tLcfvvtzUc/+tFmwQUXbB566KEGq/zYxz5W+gBjf8NU2/qpT8pQCyywQPmM/Prsns594403yt/6OfHEEze33HJLke/zn/98uWf7gNf999/fTDbZZEUmfSDPX//612b++ecv7f3xj39sJphggoKvvpDR97POOmvz6quvNr/73e/KeYsuumg579lnn22efvrpoi86JGcYsc+cr0IFU/r/wx/+MEwHZHONe7kP+QSLeeaZp/ztfmTFttnApz/96ebRRx8t/XzttdfKZ75nv/7WPoy1RdecD2bkIyd5/O9+ZG8fMHz55ZebW2+9tdjGIoss0kw00UTNww8/XNrP4Xrn0mv6CUd/6yNbJps+0FX0N/300xds4czu2IZ22C3d59AuG3ZdDlW9j3/846VvbXudc845iw4fe+yx0jf64l/kdsT+2v2EHTnZiX7BYsYZZywYP/nkk+9pX1/ZJ2zZLLt0D7YL03vvvbeM0PQVTimZksXfH/nIR4b1w/X/+Mc/Svv8Ev6wZr8wYAfspN1ntkTfv//974sts9lgrn04sXXysUl48A34k9314g5ZnRP/buPh889+9rPlHPGM3YhD7qN/nXpwP3qbdNJJm7/97W/FDiQkOoSpe7Odv//976U6q1/uqx2/HfTvb3p1fvxGX9mM9ulJf+AtRrbjb+T/1Kc+VfAhM/nhyge0D5t8xibEsWDFltgAGbQrJoh3+s1P3I8M+iCBi3n8ER767Txt61/78YD+BB/6TmyaaqqpSny67bbbis2Rh5+TiU+QVYxbdtllC5b64GAvZHMPMrlm7rnnLliyHfbIn8j+hS98odlkk02KHuQmMdh18KFXdsputfPcc8/16M9kYMswcA7sEQ59ZtPklBP00/9wZnfuxe/5kL7BFg4+47N8zP3XXnvtZptttint0m1wJae/xbupp556WM7ij+Kuc90X/u08mFyhM2QUp7UVv5122mkbcYevyKlslSzsFvb6y6fECz5GXzAqBEGjLgT0OeecU8jCNddcU37OOOOMZskllyzlD9/r5Oqrr16YD5DcWLCmIEbGCY844ohSfdDBFVdcsTClr371q0Wg7373u83yyy/fXH/99aV9hu3gHJieAMV4llpqqdLOzjvv3Nx0002l0zqy3XbbNRdddFFRBuO58cYby3mHHHJIs9566zWnn356s/nmm5dOXnrppSWYAIOR6sNWW21V+nDkkUc2u+yyS1Ewg6Vg/WNkFCCpaosSjzvuuObKK69s1lxzzdK29n784x83xxxzTJHtsssua/bcc88iF2Cds++++5bzybXHHnsU4LXPYE444YSCAVb7y1/+sll11VVLEDr11FObHXfcsbniiiuK02nn+9//frPCCiuUBPetb32r+drXvtacdNJJJZA88cQTzRZbbFES7+GHH9786Ec/KgZ99tlnN9/5zneKcXB6fVTKgpnDdV/60pdKMKRrOtGGJEI+mJ533nmlbXLAEn70xxn0fddddy06woT1kVPSNYfkDMsss0yxJdc5zj///Obb3/52Oefcc88t/dauqpUgqgS40047FXvQvvZOOeWU5swzzyzfwX+fffYppJW9eQxGh6uttlpxevYDVzpl7MqV7EHJ0r1dC3O2LLjQxVe+8pWiQ8SifbAPzkJ/Sp2cGH5GJrvttlsJisqDX/7yl0tApg99E0jYjL8FUdhzdv3U1vHHH9/svvvuzQ033FAcnL3QE8wRGX1QGpUQ4pNsTz/pCmZ0JTAi84LFb3/724L5UUcdVeQRBCRoiZYsgqyD3dD1WmutVQgzzNgbXPWXr/qbX0pMm266aQlIbEH75D/wwAPLb7LAc+WVVy7641M+o7cDDjig+OlVV11V/J4tC0jOP/nkk0ui8Tn/YJ9sQf8cfIdtwkQVE+76gfRomy7dE24bbLBBsTt+IACz/8MOO6xZbLHFCt5GkO510EEHlbbcD+bf+MY3SvBlv/TE3gR+umWbfJVNSTB0rLJqJKsNeoMFnNjhr3/962Ifp512WumbBCdewtUhScBW3+k9PsKG2KK2yO07McVjXj7OHsktyYuF+iUu6KsBjuQCG5jDmT2zM/KJd3yU3/FD/gMvNuvvCy64oMivQsxH6Qo2+i7+int0Rj66ZwtiFwKg5C/+wgb+dCIXSCRbbrll8TdxTOxgB3zGoEN8FpuQPljBDIGC/XXXXVfsEmZ+k0Us+slPflLirhjkYO/k59vIJh3SmZiun3wGWRAvxRN+oM9ygHjoOrqHndiw8cYbF92Ib+KeQbHrxWT9EovYNtslg6SuHflJrmA/ZGYHiOjFF19c/vadeAUzfaQT95Mr3YO+2Ji2tYVQ/OY3vyn6hREiwPfoTF9gJo6K/+4PPzYOb7Fe3jZoZy/uzw5gaIAvrrBl/oWsuDf7Qb7oTc7Sjvauvfbacg5Z6VYep79hBEHHCCKYUqpApVNhkAyZsQpKhCU8EP0f1sthCMFRlEwEMgaPiUkkAiABBQYOBVRJxsGZAcfItMvoGQkFUbIRAKW4XqCQyAVLyZkBMgqOvP/++5fA6G+GrD9YKwcQ4ABOoXvvvXcBT8BBApANgYIzcmSgS9wSgD65N8AEaU7A0JADxiPgYrff/OY3y3UUOeWUUzY//OEPC7ERuPXTeRgb+X/+85+XvjAmfYcRpUncRq/6hLtRpgAiEXBumJArB8MQZBkiw5BoYKsPMOLgmDMjZAACkSQhcUiOjFLCFSj0S1AjtyTjvhyQIyB/8NQPRgRnupJ4NtpooyIT+SWYDTfcsAQSekzgh7P7brvttsVgYQCbddZZp+BF3wI443SOpCMos0OORh59hU3KkAIGnAVcfWRPrteuhMnp6IkNCnz0gBSwCfeFvUDYeZCPI/IDiXSllVYqwYsuONSxxx5bgjcCwwmNrAQ9toUYC3CwlQAEn+gHOdEHAY1+f/GLXxSnVknhZ2yYXe6www7DRmP0hyjyPzaaUbx+sFX2Qj76FuAlNbbqc4kph2AaW4UTX5AoEH04CPKCo0ALc7qDq6QggAho+sMWVIzEAAmaHYsLZNMvWEiqfNPnfvMbhEy/kCY2xZYkMe3DDDEQg7TNxvgouxSs2a6BAn+VePiBvtCNIOsQ0OhE35BE/sQf4CJGiEWIsuDLlsgmwbIJduJahEGgNNgRoMUsWPIpvs62xQpt8WV6ZQN0rJ9sgO/Ay/21wy4NhNghu5aYJC6+pZ/imnuyA9fzAb7F39kZfCRq7eWAg4EZwule8KZvf4sPCIZz2Bh74wtJ/vSrT/xEvOa7yLZYww6iR+TQCFw/+YuYSh7xXqKDjTjDjuQNsYDPyAV8RA7g14iI2CQe6xO/EIv9rR24qHzRAZvTLpzEUTpiAyFbBkr6KbbwJQQHyRDfQ9bEJudlPgM7E2cNAsU8+pG7+Bl85CkkVIygC+RKHKN/n7MZ+Ig5+puDTsUwMopPcOZP4gnckBj5kw3yUz4l/opDRvf8HTlig3SF5JKZvcqPiKZz5SQ2715k5SPsWX/lU4SCzbMdciP6ZDAg5wdykrhCj+xUu4io/smtZGd/rhdHYr90Aq9hqxjScQlC0HMTxkPB/sb6OQnDAaTgxhAwIOALAn4zMkGAEWZEipHqhJIHJxRoBXcGBBCHEhKCkJKOwM/YBR1tGr12EoSMPICocwxYAhc8jeokGYboe07NOSWYOALGqCRFFobhnpTJADFLhkwuQUufjEwEWsmSUjm6PlM0gsBBGJ+gi9Rol+MJroKL64yG9IvBuMZIQFBw6INyqyBLkUpwgohgIEBQqnsw2BwCC6cTJLTDWYye6I6OBAsJSAJAdhKEGT+MUoJkzOQS+OEoyTFujJSs+gQ7xqtfGD2W7DtOyz4YJBlhJqFxeofRh+QDf4ERc5f4yOZadiAQcDa4kl+Q4AiSoyArwQgm5IEZLBk3I6YvehE0BFM2pQ/sgL0KUAKbZKM9NoKocWi4dR6SD51yIHLCjl0gFeQXWNoEgQOyFaMaNiJxCapkEnA5Pt/h8EY2AoXvjZR9J5jqDww4tsSbci07dG+O7p553IaEwRx+yBfM+JYqinOMDkZEEARjtibYSC76DVPy8zV9FfjZhPZCEPTD+eREMAVPtkJmlRP2Rl6YwEPfQhD4HpsWG/zmW4K1gImg0iGd+h8e/IA95bGn5MnOVXgENXHBIaGQQ3vuibj60Z4grLpDf/yYfL0RBP4kViT2iH18QRwSS4zMQhCMlCVIfptHH7ET+iUz/bFBsYL/ITTsDqHQfySe/UgqYkRK18g0v2GnsBseQUis5tPsDCbsTMJlE/xL5ccI2mBHspZw+CQbR3r0jY9IlGIWEoWIiUF8GkliBwiAwQByFH8VDyQxevZ9HiUiDmxQwkb4PM6gazbrvnyD72qH/YR8wYvv60sIgtjDr+Ev9vhbMmS/7gNr55MFHgiNPqpCiEUGDeyWv4kHkq3YJdeJbfotX9CjftKLvoujchvbbxMESRUObNx57JW/uze/Rl4kcDZK3pA85xtIiIE+cx9xE+EwIGGj8GB/9CG/imUIHaz4J3+VB9iPONUmCPIn0kR/cObHiAMfgqt4T3Z+60fMQsD5D5/i5zDOUQiCgIBlYZkIAgIgCWHAkpPALnADmrPpEKGwb0qSiAQLLMhvSnG+m0rCwJI4ObtSj/YoQzuM1mfAEegIL6HqEPbnekCTQ8DiqMDiBBKjoETZWJnRjKDHYChJHzgjpxQ4gOochm9EKJi63jWCqr4IEEaumJmEJBCS273Iy/EFMv1zroTMuOCnhI+pUQIMjbYoSzsUBQesnyz6CBNMU6DhzAwa6XIO+SQE1zBOIxUG4TvO7uDIHNO58CMHA8cCOQOcnSuocgyyqCAYRcHZ/TkeoxMgBDqBzIgOyxRMGKVghdSlwsCRYSSg0Zn+SMaCpeTHaI0W4QVfdgEvOtIPI0gjmTxygi8dcSYJHKGDnb4y3jg9ZxHg3UN/OVceyxiBIqJkFYgyMuVM5PWZ4M3uXC/oIXHupS04ZdUOUhyCa8ROdu0gd4ILXQnYzuN0ghWyJ/FI8BwclvrCJuAgULo/G6RjOhP84SQ4SIp8SzBgLw52RA+wgjG5YehefEygJ7cALCG7zv1gof9IQ4gGf+X4Erjgw3bpV1IRtOGCDAhKriUHm4cnW0LeBXQ6EUgQK7anr3yKXpFHbQq6SJRkh8QgZIIhwsivxAv3gDcb5c9slo1pVz9cw17p3iHwSpiwEgNgy+cQfIdEnEeOkkMqAAK8wE0+OoQjfMgjMQuiqhPsAA5kFj8kRH3Tb77jvmIRO4cZ0ioW+E71zQiSH4kl9Oi+8ISzEbxkQtfkZjvsC3nRlr9hSj/uKcGyWbiQm2+ydQf/1RZ7Eb9SQYCjtiQ9ydLnEgC9Skpit776jj1rW1/FIXYNe/fSH3ZHp4g4ffETOkNqJGw+yC/di03TudggUSIz+oMQwJF/8mvniTlk5hswhwf5kH6xGmZilVggvuTxmX6LUwgNYsyOJHH/060ETGb+yObZnKQoHrFRsoizYjM9ygnuk7k/BgD8B+ZsCl7sh6zsJI8C9CX+pM/B0DmIGIzkIhjx9+hC0jXgEQfYMV2yb7agL+4rlsPANR610Yl4Jv7zP/4obhtA0iXyKzYgajBge2IB3ZCdPeiHe8LV+WI5WbSlbwYm9C2OuydfZ9P07n/+UQiCAE5RAqVkLGHrLIPhbDqMmTBKTpKJOTpBuYRGLCRx50n6AFOm4HRGbhSKeesUpq8k6DMCYZ0ZsWfkQJnupz0jXcbO0ARjcmLjgqxghOCkZC2IMBTXUrygIcCmOsC5sCYGoQLh3s4nDzAFipQaBSdlVgwySmKUjBFbpVzBwd+UzBi1J7D6myGQHfOkCAGUchErxiDQk0tQEXjdRz8QK4Yq0Ei2AgrCIYjqf0gKMiCZw07S4dSSDgPgXPqF1QtSnCjrgCUZ7WCyRhqSHodktMiIACoZkwNhMPryG7Gif+1xRKSK/pE591FREOQESzgKLHmerm8ClGtSEjdqQProjJ0xaEZON+RgwGSCp+Duc0HK80DO6W8OBEfzRhAkOiULgmhELHAhB3QOf+26j4AlWQiYcEVaUplxLmdhE65FzPSfjj3jVRonm4Csf4KOvsGVvowC2K0ABF9JGTZwkvyQDv1hF3QpKCCDkjNZcvhen9mwxOCe7E+7MOTAsCaTaoxHVWRkYypb/A6Bcegz/2HjgpugKfnxUcHCKMqAgB4kC2QkgwJts0Ukw0iXvwtEbMQ96EJSgwvyAXvJRzA3UnQum/f4Q+ChF8GWr/Ax2LMtdm6kJxYJntrTPuwlCKNFgZ6cdC8YO7TJfrXDNuiBHdIj3yIzbBBSCU+8Y2eCK5yQFTLDH+YGSogHW+f/fNiIjM1ILpIjooCo0C27kwyNCskFWwTOQR+Ijmu1LyYhxGKhwYXgDr+UjtmzCgl9sb8QXHqGl3sbONGBPvtc/8Qs/cikW7FY5QCudO7eYip/4neSj3Pgqo90hWiyMZ/7HsmDn5hJn+yEztkwWcQa93Wtg14kJrEHOYru6VM/EYgMJF1HVvbHB+iLXesbrCU8ti+hScrkRKhS0YWN/iHrMOI/4pl78VfJUGIXW8RFeY0Nilc+0zckghwGSvzEZ/QGI/7KT/m4WOx/euMn7IecztN3NiAnSeCIWWwvc/fYFJKIBMKM3SEV9CdHaM+1YiE7Yb/IDX+QD9gU3MV5/sBWkS0yw0Xf+BQ8DBBgAGf2xd7EJ77ORtkXedgffcKYT9CnPslpGcy9Zw4CIQU1gdZIGiD+liQECB2jCMlQcpBsKFdABpKEnNm8BBOkBTVOk7KopE6xAppOuUcmzmXmOANwnu85AefPrMyMqnTGwYmRGdcCNW373AiAQihDgGX0EgTjcEgc7Zm8jCEzbSUFwYHTMijt62tWOmQTD33UN/0kk+DEmDmCth1ZPcA5nQ8nvzkTUqVvfuDs0I7AmFnRWebTXhkhIPifjAzEPV2nDw4yG51p3yFABbMkH3i5J4ICb/KQm7y+y6oI98kmI3TjXpKi4AsHOmIncMhGH/53aDvyw8j99Is82vU/W3O/2AgM9cln7IiNZMa+PmX2uz6yEe2SyY/7u7e/s0rF/TNj3bnkda/ox2dGUQINZ8rBFujMPdkOh6MnSYnsrke6JGP21rnBC/ngmZUVZHO41ncSFjtjhxyUnO6T85wrOHJo9gtrtiuxCXiCHxn0Vx8cZNVOZtvTZdrL6o/2ih1/Z2WIayRLCVgcIBt7z0z0dv/IAnuBUFCiIySS7lyn3/ERcuXvyNm2VbYEA8HP9zDwOyuM6DETXX3Gx0P4I5PzfZ5Z3fpAJnYUn6V339OrI9f6O5j4ns3xBf3RBhtm664jS/zN9bE98osPDrLynfQHQaTr2GWuG2ZoTTPMR7Ligw7di68kVtGla8mWz9srBfiI5GTQhJzDEQ5kNOjKrHj6gVV0ARf2SCfk1G/3YtOSDtuU3Ng+X2W/7s9GyCgWtX3cvYJv8GmvgHE/MrgeptqEV/Tn3MQCtpv4mUcMiLgfMSQz9/Wd7ZHL70yW939iCOzy7J/NJ1aLQdmsqI258xMrEs9gEExdp3/wYDd+YAg3fYE3GbUhLsNV7KIXeLun8/hRcIW/Pmk3uUh75Gb7+sLO6IVOtO1ceRlxRBaz4i3xTT/IRu7YfAb5dOc8scH3cpM+xG98P2ySYttge/vbyFJnjcJy+IzCgTdYDp3GCjEypSRsMkRksMhY5RgcCEi2bFgJcHhrrlUpOHfbzo0gMfuB2lBMhcgoIUviIKaypww/ujdUEXSMmlQaqm+NXlsW8FWeVAKMiFVwQ6rer2SShoGfxKS6qXI1ug62pjKlEsL2VaH727/R1Zf+3peuVetU9HIgFqouKm1t4tvfexWiNxTfxYAgKI9gZwKp0hnWVo+KQCcC2Q+hIlMRGFMRkDTEuzzq8/ipv6QNQVAGl5xVQTxiHV0HGTyGM5JGls17GlsJwqjWwZAkCKMaxHq/ikBFoCJQEagIDDUEKkEYahqt/akIVAQqAhWBikAXEKgEoQsg1iYqAhWBikBFoCIw1BCoBGGoabT2pyJQEagIVAQqAl1AoBKELoBYm6gIVAQqAhWBisBQQ6AShKGm0dqfikBFoCJQEagIdAGBShC6AGJtoiJQEagIVAQqAkMNgUoQhppGa38qAhWBikBFoCLQBQQqQegCiLWJikBFoCJQEagIDDUEKkEYahqt/akIVAQqAhWBikAXEKgEoQsg1iYqAhWBikBFoCIw1BCoBGGoabT2pyJQEagIVAQqAl1AoBKELoBYmxh4BNqvDx74u9U7VAQqAhWBikDXCIJX03oNpXd1D++1uYHc+7S9x/qhhx5qZptttvI+6vnnn7+ZaaaZqla6iID3h1977bXNUkstVd6G9tRTTzWLLLJIV14L6u1x2r777rvL29W8+tib5dZaa63mjDPOaJ5++ulm7733LveS4O+7777mgQceKP/T9xe+8IXmiiuuKO9U915z13W+he6RRx5pzj777GbiiSdudt555y4iU5uqCFQEKgIVgeEh0G+CIPB7R/3uu+/eTDPNNCXgt99f39PN77///ma77bZrpptuuuaLX/xiIQkSyoknnlj+r0f3EHjxxRebBRdcsLwjXoJGGM4999zmQx/6UL9u8sILLzQ77rhj87e//a358pe/XNo97bTTik4vvfTS5vvf/34hIwceeGDz4IMPNn/5y1+aqaeeuvnKV77SPP/8881JJ53ULLPMMuXd7gcffHCxh4MOOqiZYIIJ3iOX98AjGV43+6Mf/ahfMteLKwIVgYpARaDvCPSbIORW22yzTfPYY4+NkCC8+eabZeQ44YQTNr/85S9LtQHJkEg+9alPNZtssknzyiuvlMQz6aSTNhNNNFH5+4033iijzKmmmqqMOI2GXZdjvPHGK59LRJLM5JNP3rz22mvN22+//R40MpqVICeZZJL3fKd9937nnXfKSNioeLLJJivn/P3vf29UPaaYYooy+n311Vf/B2V90q6k7Hqykkub/icfuV5//fVyj1Ra/B252o1+/OMfL+do71//+le59/jjj1+ud3/fvfXWW4WY+d/f7uFHvzMyv+WWW5qLL764XL/tttuW0Xj6rgoAWwfZg5dzfPfSSy+V8+FAxhwIx5VXXtnce++9w97NjoDstddezWWXXVbapDf32WijjUrV4utf/3rR75/+9KfmpptuKtWCO+64oxCFCy64oPnc5z5XdErn+pO/VaXIEAJBFn2rR0WgIlARqAgMHAJdIwg77LBD8/DDD4+QIDz++OOlFH3ooYeWEWiOJNFHH3202XXXXUtCMgI955xzml122aUkIdcuueSSzeGHH95suOGGjccakrVEtOmmmzbXXHNNGcHeddddzX777dccc8wxJak9++yzZfQqsU4//fSlYrH55ps3BxxwwLAkLTGSyShYEkYIEI3LL7+8XCe5IQAvv/xy8+1vf7sQGgREckYcJKzTTz+9+dWvftVcd911hcyQ7eSTT27WXnvtZt55521uvfXWkiCNvs8777xmgw02KAlZ8v7sZz9b+mck7kdC3GmnnYrsiJT2PvnJT5YEv+eeexY5EASJeN999y0YGJUjXx7ZuK/HCsjH9ddfX+5r5E62rbfeuvTdceGFF5bS/QwzzNAsv/zyzamnnlr+VhHaZ599mvnmm6+58cYbS9Vh0UUXLde492KLLVZ+fvCDH5TPEDaYkRdR/M53vlMIEmJw7LHHFmL0ta99rVQT/vCHPzQ/+9nPik7vueeeZp111inYeeQEb2ThlFNOaa6++upCQNjWDTfcMKwy9eMf/7hZaaWVBs4rassVgYpARaAi0IxyguDxgpK3RCyptw8kQaLcf//9S1JFApCEhRdeuJAECUsCkkgkOr+RDclaAjOqPf7440sCXGCBBUqCkpQkTYlHkpHknS+JSbAptRutStwS2oorrljuLYGvuuqqZQRvJG2/7NC2AAAgAElEQVSOhMSufeeSRTn9W9/6VnkO795Gu5dcckkhDs5XUjcaNvrVFrkQo3nmmackXgn2/PPPLySBbErqRtVnnXVWwcjvO++8sxCEJZZYouDyxz/+sZAx30vocNAWnCRPFYPjjjuuYGI0vuaaa5bv4Yc8mQeAgDhUJmaZZZZm++23L6RJ/7faaqtmzjnnLCX9b37zm0VuSR6WDvdHFr761a+Wz2EHB0RFez6T5J955plSZdBnFSYkCz50t9pqq5WED1ukyvXOm2OOOZqrrrqqkLJll122VBsQJdWMo48+utl4442bGWecseBUj4pARaAiUBEYOARGOUFQIZAcJUyVghzK40rURqWSxcorr1xGwciCUaTkK/khCq4zcc3o2SjfaFjJ+rDDDiujcKNUo2Ej6ieffLIkM/MkjIYvuuiikuh8JiG7VmLKMeuss5YR9RZbbNGsv/76JYF5LKIMbn6EEb8Kg8QuAYYgSLyS35FHHtn85je/KaNwI3i/JWsyIylG1hI9YmPkbNQtoZNTMpeQEQTVEH3cbbfdymMTh1HzlFNOWf5WDVBZcH9JU3Vi6aWXLslcNeHmm28uCV6bq6++erkWoXEfk0l97lCtMDFUtQOpQXQQCX33W6JGQCT9zTbbrFxDHnMCZp999uanP/1pqZ7Qn/4geUb+KhDu0xNBMPEQSVBBgBvZ6IUeEBPXdBIEjyr0RzXh9ttvL/2tR0WgIlARqAgMHAJdIwhGh0rHJimOO+64JUlJrElo6YKk7jGB0r8EZ56B0bFRNPJw1FFHlWQqOUlKSs9K5B45GEF6vCBBnHDCCWWE73GBioBHCkrvt912WxkJuy8Sou0QBJUL99G+Ssbcc89dZs5L4KkkIAj6YhRttC55Ii76JGGrQhi9P/HEEyXhqhakgrDHHnuU5+1GzwgFsoPouJ/n7Ubpv/3tb0u1wL3Jr4pCBpUSSRsBUjFAEPR73XXXLeX4VDYkZue6N9KjouGRh3MlWO0aXfvbpE9tqohIrBI6wqXvmYNgxD/zzDOXqkYqL1tuuWV5bCJ5IyDaVJ1RBdCeigGMPJ6AB8wQJwSJ3lUAEBuPgCR7uHvEARuPSDIHAUGjL5UCbakeIQjw0Q78kQy4ui9bUNlBZuqExYELCrXlikBFoCIAga4QBInAiNtoWwI3kpRkjEb9dB6IgJnvRpvLLbdcGYmboGh0rSwu4SuLG4mrHPgxEjfSNunPyNyqB6Nlo1EJ3IhX0kAMlKOVr7VlpKk9yc3o3CQ6o1UJXFI1215iywQ85XbJUwkcIfj5z39eKhhG6SYNmuhHHm2Zg6A91QQJ1f2QGAmYbEbxKhTf/e53ywQ8yVwSlHDJZPY+zMzkV3lwjuoFPNxDRQCBcP9VVlmlEAcJG+Ewcld6R8j8bxKk/43yp5122tK2ZOoxij6SgVwIDR3RlwMG6623XiEgMEeyyIhMeHyhrczhMOr32MYhgbufxwOIjkrOD3/4w6JPfUAoVBpgTT46QgTMOdBn1R4EAA4elSBCyKFzVFXoDxFiS4iEKob70IfHLuZ01KMiUBGoCFQEBg6BrhAECc1zaYdn2569G2VLBKoFPR0SqmThWb7kb5RplG0kalRpDb1EakTpXInehDvVAM/1jUglLwfigIgYfUuIkpWSt1G064ySfS6pSFRZQSDZeZ7dXvJnNGzEbaQuUaogkEmSRkY850cUJFsHmZXDEQyTA92bPColKggIC3x85tGE6xEkMmnHeXlsQR5zIxyf+MQnymOIPC7wKEASN9nSs3+VE4nXpEttwtJcBwRKe+mj35HTPeFCRm059AnWDp+TR4UAQXAPFR7kA2kyP6C9ksHnmXTonsgVmclB/8GE7O5hkiWy4XNy0i/S43BPutV/18KdbSBNzvfYBaEktz635Rg496gtVwQqAhWBsReBrhCEUQmfhGcZ3RprrDEssRtxKrcbYb7fQ4KSuI1gjbyV7SX0wXZYLYAgmDSZyZCDTcYqT0WgIlARqAiM+QiMcQRhoCA3Albm93xcedscCKP1wXaoRHiUgtAo0ZvjUI+KQEWgIlARqAh0G4FKELqNaG1vjEGgvt9hjFFVFbQiUBEYDQh0hSAod5vN7nm8Z/eWr/V2mP3vmbzDygDPta3LF6z9+D+7F44GPLpyS5MkTdw0d8Kzd3MZ/NRj8CBgnoTVJiaodu6oOXikbIoNmQuS92iYGNrT4TzzR8znsZrI/Jzh+WE3+uh+5uKYjGq+iIm0mRfUjfZHZRuZJ2NOknkyqogmJI8Jh/lfJnmLn2KrVUl1jk7vmvOY2twrOFlpx7dssFcx+1/M+k0QgGvGvwlkgpS9Aszq7+19DCYNWhYogfptdYAZ9mbMW69v9r0gN6YeJixaMmiVgdn39nywisCkw3oMDgTsBGkZq3ks5q2M6N0ho0tqkzXNN5GwTGi1ouOQQw7pUZwjjjiiLBW1V4hls/zJBmEDdVjBY4WNDbgQEROTrSwaaFIyUP1BwsQfvmolD9uwvHZMOEzkNXEbYbOqyWojg6969IyAAa3VVlZaWcpt8rY9dypmA0AQVA4sQbMPgY2J7D0AdIyspwPLRQg4opUHAp/n/kbYZ555ZiEbGJ7Z9lYeCN6uybsFMH0z4B2Zod9+j4EVCc7Pewn873v7Ibg2uyf634/D9z732338uM6Pdno7bBDU+eZKa/gtw7PfQu6l3c52fKZ9fSCXfub/yOV636cPbTmCUXsnyPRF/12bdzIEM/fMex9ynf9zv7RPFvJGxnyuXW35PEm1810XPWHl3OHpNHhH3nY/Ov9O++13auTvyJJ3Svif07d1pA+WnlotYV8Fh8+CcWwtNhF7yLs+/J/75V0guV/bDtt/63/sTx/93zla6cTW9xKUkaFEHPsgb2dbrrXaBeFWoUMQLHcd3ltV2/LFjvWN3mEWW3G/nuzcpl8IgfkwVr+07aH9jpTOttOP+IP7OGd4ds7myJQqY2923il7W259i1/EH+GYWJIdQO0/YgWNbdftvdFpO1khRJ68DyS2rW+92XDiCxnJERto+0/kbWMTLNs4usb12vS3jcnseaIvYuunP/3p96zMSjzMffOOlsTD3nQX/3cP+Gg/Maodk2ERv4h9+t2OXzByTmJ6Zzxs99137pX+te2pHV8iX2TpjBVpUz/pOphpH5m2jT8dw8x8s/a7cTpjYuKBa33X1r/P9C822tO16UP8rjO2tvuVWBD71I++xN5On44c7fwRP4hfx/ciX2L1sNz4bm/o95F+Yq0Es3mNDX1sBqTsmK18O5txO6Mde+0bfRhl2/3Qmn8EwW97GigBG42rRjB+51oGqJxmJ0SEwhp6hoRUWG+vLUEf+VCpUN1wjj0PbOyTLZPt8mcUaYMkcmrDhD+jBoE1QDMgozagkkUp2mMUsilN2XzISLSdQF1vSSRZErRVVew7YJRiZYRqi50ebUwkqHM+bWKx9hUwCrRkUB8RDngp3+bw2MJ9jOIo33JK+wOoUsw111xl/wgYwFqSsRzRd1ZnmIgpoDufQRuhwt8uikaslikK+vZG4DzZ0pgT2PwIqYOjvQ7sXaACJClpy2oSSz39D0MYuLf9IcgBQzpRJbJhlNUoloFaPbLQQguV/sMbFmT1CMB9LWvE+uEJf/3KBlY2frIBkz0nLH2Fmf/dD9YSLMKWFSlkY2P2nmAX9GcJpRUhltQKHN4eucIKK5QllvZ24PyILPmMOshkOaxNoARjoxF7Odgh0yRSdmI1DN2xWQGc/VkSqm/kZDsJSJzRqNW1vieXSoFloB63hazaHIxd2NODzuBtvxFY6C8dsG0ECPb0DH/YGdnDTdkcIUci2COZyGM3S8uE9RXGqmBk4hvapOs2qWGP7k82erXk1ihWRUZ1EN58DLkxkVZ/E3z4nR86s7zZY0V7jhj9wjWHdtgZO3dvVQqjYz7Lzg1EbKamnx69kIO++Zr9SZSQ6dNBXn5nrw3LqG3S5nxLhO1pwt70h94NeiQVbdivJQcZDYL4Kzn97Rq+KA7Ciu24Do5sAOFwSELsHKkSO9yX77v2ueeeK3r2w95s9CbOiWuWL6sgiRWLL754wZm90JFzszkc2yOLZdx0ZaCWwRJ/Fg/Ylljkzanwcj5MyOtePtN3tsJPPS52rsGfc9mXtvklDJxDz/ZsEWfpVyyCefaS4Xvsgg+EPLFj9sA26dZSakvSyWCPFnLyebGcXdsllz2TlY/Cmh9nC3iPt/i83WWz14pz2Y74guzxWY+/+D3blqP4mWvYGcxTMRJv4cV33dcjO/cSo7zfx8Fu5TAxwJ4uZOKbBsZslG2FfLovfZJdHBaf3VuVr6f8SK/6Dl9L7slPJrZED3xKtQuuIad+swFY0Yk8zObELTbHXl1rozpLy70bhz5Nxve92KNP+k2/9vOhw34/YkgHKYCjEUiA6u1teyEIOs0ZGbFn9hIjwwKwoM3xbdzD0BmMRKDDnElwEUx8RimMQ2DSHkB1TomfMiUzQQNwlkIKvIiIEb7zJUyBBgERCCUzjiIwMPy8tdF1nAcJYjAMjMIy2oIDDCR+hEIChIN7CYQcwUZQEiCCwyg5vSAmYSJFDILR2TtC/8nicwlIUAxTpmRJQbLisPrLUF1r/wJ6YIBwcY3HHO7th9wCBkLFSJSh4eBeZEMK/I0wcRhG5/CcWaB3L7gzdPpi+IxKYEjich5noC8BDKEhv/MQCn2HsX7AXGAULAVgxnvttdcWYkI29oCskENwk2glOUFW/+2dgGjAUkKmI3r2LFaCJyuHlYQc9MfBJAkYIgYwtPkWmxKkkCDB3D0FTzYlOZEDuaBbwVqg0RbsBXpJViJCugQnZElAdx+BFvYSk++RyMikPTYvcDgnpW5YcWAysCv7SNAp7GBIhyEeiIKABm/24zzBDUYcH87sSyBmf2QWhPxIKgKkgEPvyAPbp0+2g/y0RyGCISKJVGoHxjbwghuf0A8Blf/qJ3ntX0HHbEOM0L6tzyVU1QhJ3XcJquyWPK7TF7pnP3TLzj2GFEPogZ70kYxsWwISUOlQHICbZJc+asturJKDviJ+NgzzXFpwhjW7YyttYkm//Nlok93BR2BlO3yHLUimYoqkZ3BDl3zKe0pgCxsxhW2LD4iP5CooG6AYHGTwQR62DSM+AU++7Tztuod29cd5Ypp7sifYOmBAF75DNCRgsrN/bdKJwQI8EAM2Tl/uIW6Rjd2QF97ZvVZcFRPFLokk9gsbGLJ/pIA/IFt820CPf7kG9mI3+xb7JW46oEd4sTm26RxxSD/Jxn/cmxzsFgGQa3yvku2ecgafF0MQBvYiHukDHZLB9frMdvPemDwGlkjhRz8GHHyefZMJSUA+yCZnsCv2g6TqM/nFIn4nroptBgJIBJzZOttnBwYAnQdcyGlulDxDR9plF/SR1wfA2H3gy+/EPniwC7Yr3ohbbDQv5nMvMVtM4qfsCRbijPgm9iLe9KX/MOoKQeDMkgoj1ZHhPYccUQWBQhkx8I3sAKvDAiADZxyUQLF2JmRMmKgRFUflcP623a9EzbgFGMEsTIlDMVKOJ9kY6UTR2rW9rx9gkocyOAqFCUKCrUDB0SiTbBIggiCZcxhYSJ4CMqMw+UlfKN5ohXFSIMfi9IwZ69MngURgkuTJzDCcpz+CAiOSfClQsOEg+p1krm2ki3FLRhIUhsnZtC8RkguzlWRsICWQklMQ5ciqJ/rQLj+6Fhbe5yBxOB+T54AIAhmV7gUkhiZQSybuxRjplWEKPq6lBwlRYuMsHEr/yMJAtcWWBAVBU1ISvDif4CmhIF4CAjJILgQBaaNfIwtVEU5GXoc+GL3QL92TI9UlSSXv2BBg9AlWbIMNScrkFYQkWdgbyUliHJQe2CY9qSwIAkiZtgRqyTKTyBATzs0fYIOAwQZe9IU8IWP6zgaN7ukDqXAu32DnCKH7sFs65h/8hC7s5eEzwZGtqxSwDUHEj/7AQR8lY74rOfIH9odouBddsGs4hdCzGXIJWOTSNqKtKiFBCTz0K4HyE76kv+SgA5jkHSjOk9jpgi+kFE7nkhDZBGUyqSLRi8ALL/9rXxCVnPQXRpI136cbfin48T3YCph8WdXTtfzMPQVYpE6iQkAQhBAWoz12xhcNOOBkFK0aI7nRocTCBviliddsmp7gKDbRJ7zZtKTDdvSdTfNN9ipZshV+6xr40wd/pAO6RnzhxOZ8rl8GEqqm+kX+2DtCxVb5kvtpDynSB6RBf8Qh8oqlYpsYwIfz5ldJEU4wEjP4NVwkfQkeTnTv/gZWdCIe8ld2To/IhWoV2+Bjkj19q0rSDbuCvcQmVqqSsLFUQdkyEoaQqoixL7oVZ+AnTrJFsooNYrAY4D766DwkVCxwHh1JsCo0MDWICUEw+kc86U9sQkz5PNtij/yLbZFfJYhPaZ+Nsin2Jjb5Ye/6J6a7n7yUd9G4pvMgn6Se7fnZGLv0ufsgG/A1uBMHER7tIzl0SLcwYzPig5yCtOYQ7/mGuCE2BjNYw9PnCIOcxu/6TRAII5lLoJSkAwKPZOW7zokfIQjYWE9zEARdHWLkHFcHBXJGYOtdHWesHFbCURnAzLAyyjQ6EYwAil3qJIUBVbCKETNSxoztC+gCMCd3nkQh+DEMv/UrBEGQci7Zneca8jJsRg18iYr8ggdmhq27hz4LCAgCw6RcBIPDcXZBjkMLHgIEEoJ4ZUdI7SMCRolKRgKttv1QLCeEEQODl3YkLAyXszNMMsFPQNeu0RWCJSlzDJ8JVJI+GXIwQoldMhEQTUgln/shN4JWTwRBvwV0AVdAwvLd2zX0y/iRNwGNM5ERrhIrpxVQBU2EJ8FA35zHydkGUmCUwXmd67fKjOCgOuBekryDUxvtC9wCkf+RHsmb0wt47s9WOD9MOQuCAH92IwEJUBKURAEHQUYiFaCcy24FSLaS+Q6wkkTojj6070BYBFsOK8GQnUxsClGQ/CUEMrmH+9ERMgATumE7bFIAcg27hQPdhiAIkNqAO7sloyBGFrolt2vYqWAoaQsc8NJP2MavkTk6gQES457uLxjDVrtsnWywZ/Mqf/CVJNiuvmhX0IefoCfRZK6A0a1Azd4QM4nTwTaQb1U2cusffGDNf9gmn4KBOEHPEhbb9qPf9C1esE0xQmWSzUtE2kbC2wSBfwqc8HWN/iOBYo9k6n76BQP2iOjG3/NGVRhpG5Hh9/xQKR1hgRssJCXJnj6RLe2LL3wH0dB3iUFiFePEKPrk52wV8eNjIQjiUCpSiITkL1HzS3FD0uEj/FDycIhZ+qQfkhoyweboUrwlKzuVlOiT/cgB5OOPMGBr9CO+iqn+hjmfCOkTc0IQYIR8sHnxDd7sgO7EebYgyYYgwMjffNMAEm5s0Wfah41BAz0hKWItmRAk+CGr2nA/xEvMDkFwX32AP+LCP2EDC4lbtUC/+az2Eb8MrNicfoQg0B1/cA99IZO4RUcIUeYu5PGdvOBcZF0b8o44CCu5S9sql+xNf/gVn24TBDoSp9kQPXYSBH2gW3lCPBLT+CL7pS9xSNwQp/tNEAQNiVbi5ISCBsdg2EBmOO1DsMRSfS5xAYPxCfApuTMGgY+CtCnpMhKBElgCo/MxY99zMGAYVXjGKGjkGTgDpHgKBCiGLSliWgIY5wGSzxkRw6RIDmO0wTEFDr8RBYmYUTlfoAC0z7F9B+XAg8zkZ/jYLDwEJs5i9K/P2qBowc3/+i9oUToj4FACl3KWQJ25EfClZEnXaAQW+klO96HwJPE8huHQggsD5WiCvyAlgGCpkqhgxRAZjv7DKQdd0pXkiEHDTDAgE1l9hqTpBwfPCIV+OBKdk5mzMnxBSRAzKhVM4c653VuSQPL0S7sSENwEUI5tZMB+3IezcybnIijsRJ9gR+8IRuao6AtWLZDBUHuCqmCCTJBBsPUZPOCOiLiHoEPPCIX7wdHn7MiIRoAxwiQ/YqZfvpOIlT/ZipGavuqfdlJpM/LwPScVNCQ5yYnTuy952An8sHxJ02hKdYc/ITRsziMF1R/faYsN5OVlkoMKFhsRdIwcJFKBTr8FfQmc32lXYtUO/bEzdi14JYgKSnRBrwKgfiHvzmHP+kR2ehRwyKgf7i/giheCu7+1Tb9Gw5K9Q5DmJ3SNMOW9JxIN2xXIxB79lXT1zXlGtuIKfYojmTfi/mzSeQIfH0fmlI7ZvNiAgGjbIx0DFfJIaA4+ok0VIH6q3bxaHTFB+gyOfKZ9SQTOsCATvMUoo2nt0G0ehxgEuL/n9XSMqMJfUiIb/2GPZGUX2mSL8ET46QBWqk8IDowlIT7vMzGOPyA0SKmk5n7kYR9wEwvJTTYlZvfXR3phI65FKtzXveicvdCP/vNT8YVs4oDEJEYY1SKV+oh4iCsSugTGBxGcrGCjL5+ppsBS0mcbYjfbphc+xs4kZYRWPBFXxVoEhp+If+6TqgJ/E7P5sz5JhNpxHv+BGZ+T3NsHXTnHfdkNW3PAVeXU+RK8WAQfA1LyuF/K9q7RVxhJ1AawMJKnxDUELWQhdoaw+oxe2CyMxZFszy8OI6qZt5Z3DpE1j/nZgLjHxmHKj10vPtIbzFwn7oiH/oezdhF1cVJ+6DdBYCgCQA4VA4Jh/JxJImgfFJf3GHAiwVT5JrNgU7JhEEpijDVsJpMSJThMMC+CQgw4FcUJ+pIqgBmapC/gcYSUDn2mypH3HqQcJplTMGIg6FOQ0a1AZPQoqAlgDMBBPv8L6mGAzvO9+wus7gVsjiL5MKa8D8F3ZIIH50EysES4aU+QF3A5VB6fuK/rGbTkpb+c2OjUKEKiIrugpH2sOpNsfKZ9v7NOPrqAu88EILLCuj2DmyMYKWifrO7tfI5ihCjB6LuApMxGfoEIiaBbI0Q64PQcSx8RBM4Hd8nGyAr+Dn8LOg44qG4IhhKHUSCbcy8JzW8JKROp4IBsSKT6wgkkBAcZVSpgJNmwPW0jLWSCFZtjm67zvdE6nNkFfNgmOTioEYYkIgC3ZyqzKXqBg0DG7tkEsog4dO694L506r6CAdzYvfuzVbL4oRP3olfJGhmGE1/wXXTivmwG7km4+qg9GLiWDzkP1ipAkhHfQQz0RXB2CGpw5k85tBGf8rm2yeB69sBWtM1/2BYfMnJFcCQMpIQd8yn4Ce58ie5yCNCCK/+RcIzq6cj1Ais9CWYCHL3AgRxw8D2MkV5H9EM29snOxAvnsz/20sbFNWyVredAqBA79sK3kGUyuDe/QADpnU/DT3xAbBz67X/35UvuS8cwzyMVsuq/c/gM3DMHSqKgI/fn62zbI0T/sxPnulcmovKx+C9cPAYSm+nWuXQnUdIdPxWn9TfPxQ3EkH02AEv2q3/swACGnpEKuiWHfugfoggLctArneexqP5JUoixfkqQWR3Bjv1N3+RFavRLfHIfiSsrqLSd6rQYK06zr8RV19GluOxH35EKCU//EC33Yh9ihnP5TeeyYHqmC3asD3QAM33mr3IXf3UO2eQlOuVzdOSgJ7EqMZnNRV/0YZCBAObdOK6JnWmTvhAP8TaPqumWH7N9csGIjOI6n3EP/UaaHGzVYE+chLlBPNvg92zYINd1PpNrYMPXHP0mCO3kPxB/U15YPaPG1OrRfQQYH1ae10i3Z5N3+26cm1EKOAxdqbX9wqxu36+zPcEikzAFx+EtBxxoWWr7FYHBgEAeXUh4DsnJIAGBz2c+RyoRBIMu1SGkoB4jj4C8pnqCaKgQtDEe+dYG7opBTxCwHeVTTM8IQ8mmBvTuG4RSvICgbG/E3l7S1u27YbIewWCpqj/KfljyqDzIoCTnOeSYsmPeqMSn3mvsQgBp7/T5nj5TujZ/xCjVo93e3tY7dqE38r2Fraq3KkZvK/5GvtXuXzHoCUL3u1xbrAhUBCoCFYGKQEVgRAhUgjAihOr3PSLgOarHEZ5ZefaZ58GjGi6lOs/uPW83N6AeFYGKQEWgItAdBCpB6A6OY10rJniaLGPVhFnIJrb0tDPYQAOjVOexkzkNlgbWZ6IDjXhtvyJQERhbEKgEYWzRdJf7aZa1pWNm8JpNa3mR2cSj4yCL5XKe5VliNZif6Y0OfOo9KwIVgYrA+0FglBMEa86tjzYhJstdzGI3g94yFbPLrQO1rt8MT8vTTGjLNZZjmPFp7a/lX9YHu846U5PrJAoJQ+k52z9bbmZZlYmO7utck9RMjjMJUvuWkViOolxu6ZVyte+tr/e5ZSLWk2ZvAO1bR2qtreUwNhWyjtT67OziaK2rvjmygZElLtq25MekwCx3MxLWlrXXZLPUzRIko+O8lMrMYf2z4oC8lslozx4J9gDQnmVgViC4t2stuYKXflmmo79m8VuC5Bz/W9dtGY5lh5Y3WTJoOZD15TA0a9lyG/sdWHJmaRE9WP5nmQxc/U1m58DYyhM/lijB294VJgRaUmbWLuwsoTLh1EY8+i6x50UtrlOVyPImE1XJiYhYpmSpmj6Z5Oja7GNhpUt7Od77cYp6TUWgIlARqAiMhmWOEoCkaS2pJGRjEGv9bURhCY01xRKMda02QrK+HkmwAYT1tja1yEY7NgOx8YNEKEk71y57ZtZat+vZtHasYbfOVJJyuMY6WxuAIBjWYFtjbkRsnbR7SMBJfM6V+JASSdghEVvLqw1JWInb5hvW1iMV2jA7XhLMEj47qSEbNgSx7tfaYUv9HBKvv609hpG9JPRDYrScKPtLSJr6b0Me/YcfoiTJGskjB2SSRK1Bl5wlauTJ/bQt2Uuk2b8BebJxiiTvkYENbOxvYCMVew/AUUK2lpzu7PNgnbvNgnxmUyD9tO42WzMjIVadIGvW6VrfrP82iEGAECkbCNEXQoYUWsdrhrQqAPz0K/v7w9QeEvYiQERcT1fORc4QsLz0xz4D9agIVAQqAhWB/iEwyisIEpTNI7Kph8ltdmWTACRzG+bY2EFSNWL0ndG2RIcwGM363uQ4O+cZWmUAACAASURBVHrZ/cvIUwJzjh9tSGI2yLCxRXZrk4CUwSUQSVrlIK9F1rY2jY7tNGW3KhPfnC/RZdtPVQKHTW8kJknaCN33khSyI4E5JD4JnGwOJMPuaBI3AoJUIEmutVkGmezmpjrhntqxPpls2rJLG/xspIGo+B5GNjIxHwCBsk+E9hAMz+Pzngf3lOhdb9MZJAMpIr/Nruy0pz+Ij6RsjoFrJXbnIlnatjkIbJEistmBy6geMdCnlPdVIWwyYykP8mcjGnse6D8SgpTlDZWqKEiGig0ygwjAQvUAnqobCJ6dyBAZOkBO7GqJHOoDTFQOkDyY1KMiUBGoCFQE+ofAaCMIEqNkYyRsC0wJxKhVYhDwjbAlCATBjk+2AFWWtnUkgmCkbB2uBGI3KVuZSvgSssQp6SEIqgp+Gw3b5cwoU/sSklE08uHRgQ1z7KYVgiCJ2vnQKNuGFqoP2UYY5JKYBOeRidG5qoQRtJ377HKnlO6eElneR4EgSL5GznbX831eMWorZzJlt8dsQ+wzpAhBsBWrA155DCIZSrawtL2nfQyMvFUDJF7VhJCSEAQESRu2alWipwPXGumrDKiUhCDYHwFRyJvwXBeCoD9wssObPQU6CYKdyZAEj0ToRB/zPgZ6RZBUizzqIDdihiDkLXJ06tGBRyyqBR5DqdoghghSmyDY2Y2ubC+sL/WoCFQEKgIVgf4hMMoJgkSrdC6YJ9gbBSpzWzan/G1kKjlLlkbWkgQC4Tm7pKoCoSrgmbaqgJE/kuB5uufm2pOIXC9x2c5SApXAJRtlaZUHsngWb6Qt+doWNPvLGxlLVhKXZK1ULjHljYl5A6TPPQIxcjbCJb95CrayVYVAACRBz+wleiV7Sd0OZc7XH4dRsrYlW8lUkpbQzdOwDSqSYX6CkbKKAuKAUFk5YPtM3+kDTOEooSr/I1ISOVngQg5VFtsNS/aqJEiTxyMSNpzNEYAdAuYe5IEZYuEedKVqgVg53yMQ5A258AjAAUvXSfoef2jTIwa/JXb4510SqhfOMe9En1UY4MoGPIJAdMwz8DjIo4e8hQ8G8PWD0CBqtjlVSalHRaAiUBGoCPQPgVFOEMwNULZWBhfoBXUje9WCvO9A0kYKPIYwt0BCUlHIq51dL+lL3MruKgySrxn1iELeluceCIH2JV+J1KFaYKKgXcEkYGVrJMPoE8nweEMCM7pGULy/QLIygTLzCbSNcCARSApCYTdAFQVySH6IQNbmm18hIZNHOV6S1GZ7WZ6E7n7OMQo2+VCVQ0XCoXri2TsCgmCRASFynftK0kbx5i34TsL2t3kdHuXA2xwGOOuHZK5077m/79t7k/vbYwKHRyjZ2xvB0I72/Y1cmD/h7zwWQYg8giE7XUr2ecsnIqV6otJingT9Izx5pa37qeT4zLwGcxbsHQ8PlRCPKRBMmJPPZ8iK+RX6n3cl9M8t6tUVgYpARaAiMMoJwshCrlQu2UgqOYwkJZyxbTKaRKvqYBSeZ/1WaCAiHn/k3fUji/GYcr6KhUmSeaEMuWGBaKm4qBohF/WoCFQEKgIVgf4jMOgJQqoA7Zf5ZNnf2PhOBiP9zGmgfvioCpiTMNQPBAkxau9zoHJhPoL5JyaUDuQ7JIY6vrV/FYGKQEWgjcCgJwhVXRWBESHQ00tlRnRN/b4iUBGoCFQEho9AVwiCpXPezGdkZz5AX3ayMxr03NlzZHMLjPw8jx+ZrXI9S7eMzmZBfptPMLp28xtTDU1Fgv5gZ76H+QV9rcy41vwDFR3zD+pREagIjBwCqn9WNpkL5BDHrEIy0TbLo3tqke+Je2Inv1VVbFcWe7rm1VdfLdc4xFtVWdfzd+1lzlH7WvOP2u84cS/7mGTDOL5PZrE47Zpj5Rrtt9s1r6kto2tMzkbw5Yy00b4/+d5PdVRbJnSbLG0Omk3iTByvx8gh0G+CwMA9FzdZj1LMdrfpzfAO15g1b3IcpTE6RmIZWzYOGlE3GKZJf5bxeQ4/1VRTlUmIJs3Vo+8I0JtJn/RmgyRLMBOshtcKfZk8avmjCZqWTNajIlAR6DsC2cXUnBoreKyqsoRbwrWM2sTp3g4ToS0PNjnXMmWrp0xIHt5hUrY9SRABcRdJMLfLKiBE36owk5xNzpbkDeLM8xIbctjzBKERe11PZv5v5ZHJxIiBhG6CtUd/yIQYYVKyOUQmk+cxoD1q7JgqdptbZOWUQaP7O+CTvW76jup/z7SfjIntcov9VUxAt4mdCez16DsC/SYIdgaUZCw58yP5M5b2nIG2OIzOMjubIklMnACrtYSRQu1R0JfDPgeWxlnmZ/UAw7STYH0G3Rf0/v8cyxitGMD0Lde054NqQl8OeltggQVKEKkEoS+I1XMqAv9FwGDKwMokbAlMQka6rViS8K1AGh5BePLJJ8tKK/HWJmiWMGdU3xvGBlX2NLESyF4jVgBZDSZ+IweWSluKbEWU1UdG95aJ77///iWuqjRaDWbPEfvPSORkVj1GcpxnLpAN4+w+K46I8ciHZdaWYFutloqEeyI6XrIm7iMa4rqlyvAwACGDpc4je8AXIbI/jSqC+1jx5v7Z7XVk2xwbz+83QWB0kj5DYRxGn/Yo6C1RcwjGxxBVEXJYSmjDH+yUIVqC570AHMAOf9a5qxBo1yjX+nvXICJKcdqz9p+j2Mgn7ymw7FH5CjPFVMlryaHPVR585zPnK0VhxNqU9LDbHJgwR2K82LcljpgxI7d/ACfHVq0okHQtvcOkte9abVvDb7UB5sx57LFABk6I1WO3SFKWQ+qPpYIpvaVkR1ZGbi8DexCQSfmOI5HfUkn94xgSOH3Y00BCtzSU7HSGUMHFRD/LMjm2tm02lZUCdKGyY8mhEYKNrOjPfgiWFZJPgLKLofvbV4ETckZ4GNl4/EAmIyM/8NN3GyH53woEclmyadQBB/8LYEqcmYQpoBox0T05vZ/DfdiJ4Og8eOpXXkGtH0isfiBAAisbsreE7b7ZIAyUMl0PV2QHnuSzoZN9N7I7o1GIzaNgSQby2bfDNZab2nhLcFQdU7q1pNYqHL/dz4hIwPQ3HNiq+6ZEzEas0pEgfAZTIyl2Q+7sAcE/kDmHqhtbpTfnSiwp+wqS7MZmYdq14iO7j+ZV2XSjP/aj0Ba78r++IY78Q5vsAz5zzTVX2cpcu3zRqJPNKmEbJIgB7I3Psg1JiV+yTbtxsguB39JZvkI3roEFu4SVR4VGrvTJ/+nYRl529LTklXywEXecx9fIJ9mQh9zaYluwhgO71Cf9YzdikWSVx2z0Ef93nViUd73QC9vTJzqGsz6wO/3hQ/pDhrxLBWawZYtk4dvszsEm7X5qoMQ/yCzBKovDgcyWAMNRLBFfYGGHVDYtFrmPiqnRMl3AxTJf9sz2yMT/4ZTHhnSRHUrtOaLqYJAFY/4mpiEIdEy3bIW/O8gaO1d1UPUQ38RTffCdKiQ7FePswOozutV3OKSKIDapXnicYo8TcXS77bYrMV08hZdzyZOKAox8xofFT1vhq0iIQ3xFdcQjbv1BtOwKSzb3csAUxuy8DiT7Rnf6TRDchuI5HaMVxFUIenuOTVkMn8Fn2+KIKmBJEIKrAORvykcM7KSovIUICCCUz5EkLkbIqAVzR9io35IJg2LQWDMDE8wYE4PTjntlr38JD9NVkmobEWPkEIyZUwku2C6WywF9J1kzeEyc8wtKggQ5BCTBxVI8QScbHXkcI/jZi8FmTvY5IKe2VWIkWLhwCHjB1iZLHMCSPudxXNdLPBKFoCKpSSJkohd9tKOhtpUx9U0w4aScnKx2ReSM2vO94EtW+DrX4xzXY+M2QfK/wGlzKYGfruCt75i7oMXxya0vEqH75SVOPrengVEMfUisggOiqD1Jmix0o2QpGAhYiAEMQopg7zojG4FIAoe3BCppw0MwFGhVSywHpQd9dI7vXWPXS23DQsAUXOGubddIlIIY/buPJZZKpypYyqO+EyCzRTiZfUeuvBobSZUkYE1/gjDdsQd+ZA4Omdg1O2WvZHNPuqFXJE3y8lsglfwFSGVpu1f6jh7gpi8qbYibRMJG8mxbcrYxFywkRrIL7P438tOuMnbsEYmkA/20TbdAK5FK2oIyuSVIOkcIYC45CMqeqQvQ9jeRBIySEULkk3+7B/tHbBFmJWcxBQ58G6mFJ52TkWzsBznQloON+1vypQN2iqCwRXaDDIopsEJQ9UP7yBe/dh3fR5Lg7Ro6hrP3qrANtk4fdCpZu0Yscy/9EP+Qu7zfhb4lWP5KL3mejjiIG3zfZ/QvNooV8CITW6ULpBJp9sPftMNm2TY9s0V2A2/JHzb0Q+9wa8/LQhDEJzaH5MNZrGNbCIJ7sk02gtiyfdezffvAwIVP+g7e9NETQaAPunQNu+Lj+qldREscgw1yzW5CEMRTcQD54p9kSjVarLPpmz7RI9yRIH0SPxBkAxXnwIXtsmO4wgdhoXsxrVYRRiFBYDwSJqOlfEGztwkhIQiM0mOF9iERUiqH8J2EzxGzta+gzwk5kaRvxMLBOalAZ+MdjiFwcFQBSXARtBgRY7RzoYTIyRi3ACdxGIUL0BIfo3MPRMSoIJMuOYUA6X55+6EgSSajfedJJEbsrpWQJTpBmzMKSgKmRJRghAwJvKov7i+42H1QEDU68L22BTA466fgayQo0dtwSUAVHMjMaTg/LCRfzF5QEygFMQFA0LMFsv8RFLirDnB8mCEDDiMrZE55UCCWgARxQR2+dKA/qi3OEQwkNMFA8EcS9YHDI04IC1kFDAFUEISTQIDIaAf27AexMrqDk0BHXv3n3IK4Q8DRtvtJ6OxBvyU+eGf5IxuBLXsyyhJg4A0/QUdAFvQRUO9yoHM2iGyRX0JKCdhoEdERNBEdiZcN+NzoxQFrdg4flQm2JpHzCRganflO0NJ3OuI7+iCxKd/CwG+61yc6t0Om89mzHTklOOdIZPB3DyVgI226lEzcQ/B0Lh0jCdkvg55DUNlu3lNCTjZNR4gYH2KPgq/z4WsDK4FY8mOviLX7q1xoX2AX+GHN3iRT/VZG1g8Jkyzsihz0qB02K3k4HxkS0NkRrPk23PwNLzbG3ukyB5n0XxmdLslgxC2ZsSGHah6dwYQ+JEx2Sx72L0EihjDPNfQvobN/faBv/uMa94CH2IBMa59eyEIObSJmbC3JDiZkp8dUgRAAuvQjsWnP5mj8BZ7ZbRamYhlSBVPnwgYJZ+PiDtKmHwiZikcOcVCM5qvwpls+nGTM17THB/iKOM1vVTYQNJU9Omaf9IZM9UQQxA52pA39yLt0kFZY8zkkib7bBEGfkBzVEfIZMCWZ838kgD+K2QYbbEM7iA5/TvWDXfmcD4QgiIv8gt0M9T1j+pb+R3xWVyoIWWZGuUb6ErrSW2antsUwUmFkEoOEn5EqQ/aTrZIlkrwSmPNJbEasDIbTCkacUGAScAQqyheQlYY5pxFgCAJDFYgFEwEzRsNwGZtA4cgoRmLgwBI2x3C0CYKE456Mn8NpQ4Igs0CKFHQSBM7BWY0KBFmJjsySvN8SncAHB31g0PBSMtSW3yEIAqpkIJBlBCbouS67Shq1SvCCgdKqoMShjRYkmRAE/ZLwOb1KSZsg6KNRMAIl0QlECILEYfRDnhAE95dkjYaMPJT03Z9N5E2MSsBG/PQm+OhvtsCGD70ZGRldS2jsgc5CEOiDLBzcyI48CJmAgLSxEcEYQWAr8JAAEIAQBOcJoEiAEZHRRgiCa+kHQaFPiSAEIXbs+hAEoxJEgr0jcYKlUbv+S7qIEdzZr3MERn2ULNgQfEIQJALkFlawlgwlF0mGzfInxFASci/kkQ7YgoTBXugmBMFvJMxIzjlIZJsgGGkaudG7vrJzcvIt53YSBH1WWhekVTf0my/rD3/SP0HdwX/hrlqiX86VqPmHc50XgiCRI+aIV+YosVPxBD4IEn0hQRIXn+ZffsO2kyCwHzZN95K8NvgbHzOCZbtwVG0YHkEQn9gMOzRwQdbcV+LhiyocqpASHJ2IHRKVvtMfu/aZBCvJtQkCPbE/coUgiDlIYpsg0L/BF6IHSwRN3CMP3YpfcIzf8g391L/eCIIEzD7ZhESMWPDxPGKACb2aWwBHBEIfMwrPY19VIX7m3u1HDAYc9CumIDUIk4GZOIUQIBuwVw1mU22CIC4go/AS+wwInMf2/YyIIIiTKhPuy4/JQA9kZyf0iSxWgjBicuCMfhMEDJixShIMz4if4Qr+gi5n6awSKEdybAxQMnONUYHEEabM0AU9ClcixPb9CEyYKeZsFMKJySBYIhKSBmKAjRtR+wyBMHpnMIIuVslBJCHGl1KdJCoAuFawVFIkhwATgqCfgqfAIPjoH8dlcIIDoyaDYOY7y2skaIlTPwVDfRWUlaUFRs/MOYpko3IiSXFM/ZM0ORRWT3aBEnaCiDYlQZhxPgmBLsjuHMlbwIGBETqMtCkpawt2RkNGBLDhfEbhEqbROYcU5CUAid0jEo5Hv+Q2ospOhhIMmTk04mIESLewcQ3dwkjQ1kfBS1BhC64V7OElMfiMDCllSpqIir64r36xAYGHrpECJE1Ak+DoVp8FchizH+3DCHkRwJRlyeR+AhLioY9sQBBBDFR/JDPXCaA5fCZoZoa1ERH70ifPxgVenyF+knNK9nRDHo+NEMq8dEugFUDhTz9Ii+8kY/r1mUSuzJ1HNhIMrI3U+JFE4b4SsL76kWzZL9KMSJk/wdb1BTGnTyNUPgAHycf5znO9vyXTjOqcK3EI6MinH7bOZ9iwfkg4/qZzpBxxY9v6x2Yz1ygkkQ8hKu6FIKsgSS7sB/mFM/9lE/DNowHXkFe/jYrzOJCt8k864+dsTtyQMCV4VSk6zu6bfMD5yDJizGZVhbSN2JJdPHAN/0SC4eHRJHtUneLPcNdnMdD/4pY+SnRiAPtyLmwSS7TFDxGQvPbe/T12ggvf5LOw4yNkR5b4FBtmQ8ijKqi4o1LI9umDjuEt4SLX8DGHgc9Gn+Z+iCdw8fhF2xIqgqvP4hA71D4fZG98j11lDpF+65970rdYR5f8HDFkH6lmsSmxil6QTzIjUPrLbzNYy8BR31QQ2SffETv5sj5pM4+WxA3VA+SDz4oH+mOgyg7YDqzdy6BMW31dyt23NDp0z+o3QWBEDJixcSzOiK0JtgIpZXQeEg/WGiZOqRwbu5eUGb/RJ3adZ1+MApMWpIywJU4JiQMp6TJ8gZizG2UwAImPgXECgUuSEWw4CqeR7CVL9xP4EAHJz/8Cu6DpJ8bkfhIUQ+PUgieiwuGQGfIzTknAaME5HmPoB+d2LwmX0aokuF4JFUYIQ55/CjAwgic2Tx79067Rg6BnJKoSIJBIphxaQCKr/kuckqggp/+ZeOYeiAR9GfHlWZ9+kMH1HDUTk5yHiHDWOB9iJZhIFJKpYOR6/XFfwZBcAomSObLkR1B1Xh4DcWKjD4EfeWJLdAYrkzYFGwEU44etPpODzlVpXC9JG0Xrq+QsqcIc0WE7Rq2ZlNm2KUlTQhNkjeT9LzkhRvQrGbuP7wQeo3MHXbhvRuLsMK8eV2nQT/2DjaAs0SEvbAGuCJW+8hl6YW8IgNKzgEc/AqSERQaBGG4qBpmLgoiynywt5m9GmuwQBvwBfu7PbhAndodMJJCrbrAxgVZCcOT+7mmUqN/sD450Tg7X8RN2qH3Bno+xEckPNmSgK3ZIn/TB5/xIJsiXETib5Rt5NII8kFEidq2qiT6TR+JDbvSTbrUp4bILJCQjQnEEGaZbNkI/fBl+SCNSKgmSU4Iqo6Rxxim/2xtu8RfVH3qkB3rzNxuFBTuDMZKqv/CCC1vLZNdM+JXU9Ist8EcHXNg9csPO2YTYobInsZGfrvi0uMaGXM/XJXT4O8RDyZbseZcKwggDOItzMOHX+u/66DMTLxEjGPjJLrXBJXNX4rtsmO4kdf2Eu37yE9e7D39AwDwiol+JHUaJA/qDvKi6GPwgUWKI2Ny5FwLCRH90jBiJO/oqdqnWuSd9iAHuTd98CiYqCWTju+KDKpbv8tho6Kb17vWs3wShe6L0ryWGLUkbfUkEDoGHs0jAgmZ/DkZpdJBn2Ix2MB4c0shVgjGiGMgjcxSMXAXz3mYGIxmCg9EYtl9nEA+kVsbetvmoKgSii/iMaOOg0Y1UlmojiFmiaPRtHoDRdnvuwOiWdUy+v9yA8IlDPQ1Yx+S+DbTsQ4YgAAqrN6Jo7+RohGpE2pfdHYcHNgbtkYXqBVZrouFgO1RJlCqNFDxmUMUJWRoIWZULjYSNoowolL97OoygzOdQpkVc6mZWA6GN2qaqpBEuPzA69QhgMJNRo2UVOKN9j4yMpvmQGKNyqbxfZ9v336497lChM1gUg+rRdwSGFEHoe7frmRWBikBFYHAg0PkCtsEh1dCRouL7/nXZVYLgmZQfz1t7OyjLjyMbv3g+pTzo8Ay4t10Y338365UVgYpARaAiUBGoCIwMAl0jCMplJtRYlmaGcW+zRLOGGZFQBjdjWenHJBOTbJTFTcKpR0WgIlARqAhUBCoCow+BrhEEz5Y987O/geUwvREE1QMrFayfNUPa7FWz6s16NZvaErC6BGX0GUS9c0WgIlARqAhUBEqV/93U9vuBh+WHqgAmB1kSNDyC4HaWvVgnbjMREwitx7asxxIUS78skbNE0jIoa2D9b4kU4uB61QrL0ix3cliSZ0mS7yxDtLzFBB8TCy0lslzL/5YgOTdbwbrWDFcTGE1eIb82rPW19CiH1RAm/tnXIZOeyGCJj0mAqib6YembGciWoZlopBpiqZHlSZb/mSxjJq1+uK8KCrmtiICFZZfkR5xMXHIvy4H03azsyIVkmY2b171aqmgJj+V1dAFfS7AsO7NUSv8skbSSwNr19pHNSMhp2ZC+WnpFj5YUWZJpDbYlRtZ2u6dHQOSHlaWWlj3BAq7O1ydLzCxxtB8GXP1v7wG6tHSRrJZ8+d5EUpjAVJuW7ZHH4V55b4QZ6pabxQbIoD/0rTJlqZU2fRY9ZT8JbWvLbxO/7MWgXasqTA6Dkz7SDzu0rJatsJ8sfc3GX/Smv3SiLf3Ub1jqB9zpUkXMypr2q3CtMEGi4WD5ofZV08y8J5/Z7JZ70Rls6dbfbCTtZykauzYp1+oa18a27PVgqakfslhPbylYDr5gaSK7sj48O32aMOeecNY/1T1tBksrgcia7XstoTQB1fLQvP3PuZHFPgaWTtpXgX+ZQPh+Xt3bj9BUL60IVAT6gUC/CYLgL4lJqAKm9b3t/bM7ZQtBkOA8khAwBEH/W3cu2Fifa327na8kSonebHn7JliHbPMN69etJMgGOFnvbZ0vsmJ9sMRhvbOkYfmQ9eXW9dqC19pf661978d1AppHHdbat+dRkFnyl6AlT8v1EAEzj60vt+ZWUrJ5UrYN1rZELXm6nzbzHgbkCHmwrhu5sPZdoLe2WR8FeLOw4WGplsoKAoUUSfQwsMbY+maEQqIw6xlW5JGwJDckQdAX1K3AkPBh0j7M/LZOWCKw/t+SK2QDZtaf04MNTyxlJIMgb/25ZY2SjMSo+mNJpUdDEq9+SpCqSnSL5LEJyVgCkhTplv6tS7cqBKm0jwBs6AoGbEG1SRJzXys0JDP3QDLgj0whJpKaxElmj7hg4kA+EBM6tA+F75E690HkbNBifwc2Y9MXm26xY7qDqb5ZHSNBIxvsDFFCFhE+6/+1xy4QMFjqNxKhSsauJXyEh52wO/dEhK19t7mO/Qvox6ZA5IOz/rPV7Dhq5Qf7g3devES3+szW3JPN21gJwaI397fLpORtf5DsFZCXBvFV68ZznnPoxsY4SIX7+JHc4Qxvy4iRZfKyT/sTuJ7OECz2pQ/sks/CJRtjsYnBvKqgH3G0XloRGJII9JsgCBJGCJK60aBA6LcNanoKBiEIzpEMJWUEwP4C/rcRikAlcArIkp4RlMArmQrMds2SIBAE50pORmqutZmJnfxcK5FLYpKvxCqwCWiIgsArQQt0Eju5BVWBzihVW0Zz6YPRtU1+7Mplow39c66EKikL1gK9ICihSuoSuWBt1Ohz65oFU/c1EpeIJE/kIVvdCswqJ9ZIG+mpPMBC8LeJChn1RWKHuUcykhE5JQkb1KhGGFH73o5wSJwNarTdeWSTGn2S7CRkyTH7mpMLeZC0BH3BXnUE6THq1X8ERxLXbzs+kiM7Ixp1klEChh38bShDFiNf9pPd1xAE/ZNI2YMKEYwkLOfSKfLiNxIiAXmsBQsVJ4nMhlfIk3s5jN4lPd+xJdUcCd3OcAiRe8KbTLCGuw2fEECVEPpDatga+9RnerCpTwgdW1BlkMCRChjQtyoBW8smQfSMGCICRvTsmnx58ZDRvuQtabNBJCekzEYvCBWiqrqDWMGU3tkpUqhiQQd8Arlwf/bPPmCElDjgy38sTdUOWyUznbE197dpjw2q4J6XdvkbkaYz1QkECYlDgugVtrYVRrTYXt6dwnedX6sHQzKH1E4NYQT6TRBsQCFROoy+jGgkPcFHubWTJHQ+YjBSd51AaLczQVOA0q4EkB3pBL6eCIKkJigjAdoRtJSvkQEBUdAT2MiY15caPUp2khuC4DpExf0EMtcJchKKQOsYHkFwroSB6Aj+2SoXmZEIJF+jPKOrEARtksnoOe9jUIaXaI3WEJiUgY2+jWQlBolQsiCPpCD56r8RrmTvftqTdCQCSUIVAqkwUpaQsmsaGUIQ4K+krMqABCBZSV7Okdz8ljh7IwgSpVG+6ocqjyQXgkBOpEU7MPUdfUu6vREEo386QqjggWjRF/tiF0bzRq1G1R4JIGCIHTLFDoZHEFRIkKDsNY/8IToIg3sgnEr6/qcThIisyuuwdy0900e2CleRQEbYk8RJLkQGwfLoR98RFzYioZLT9QgIfOwnIcna6Q9RC0FQHaFzxAVBgKkKDpKN+GjLXB4EAbFCBpACDQgBNgAAIABJREFUVRk2qZrEHlRfHHxQ8icLe9c3P3wOwUS6VAH8TVd29tOWe5LFeXzJ96pG5FKdgBXfQyCQY6SLzbF9jyLqURGoCIxZCPSbIAiEAqBDWTT7+ks0ErrA0z6UayWHvBdAUPe4QBXASCRvYpMEjGIEXMFOlUISlnQlVQFOQhO0BXkb8fhMIBS8kRPJwxalSqx5FGI0KmCRwQjQfVwnAPs7W0crgRvBGwkKqHm5EhmNNAVG9xI8jcDyqANZEAzJLdAjG4K/EabELWEYpRqZIgiSo+8kf4HZYwMjRQkCyYGn65WmyScYC9TKvUrriI5kh0ApLxv9Iw5wMZqWZCRXfTFqFPgF+ZTgQxDyml0kyUhWUpHkJRykDcnQnmslJDggMMhLXlgkoSNj7IDe3deoGh70jTzYhhWpU0GQKOEoIas6qMLA0igVDnSW5+ueZavUICewonvt0i896zP8PArxuUTrUBnyGQJoRCvZS1rkRwhgCzsEDHZ5lTDyQadGv3QEdzIiImwBfhKkETcigSyoDtCb7yVvOLAtv43q6RvphJfRNLnz0irXwwLm5PJIxT3IBTvVMHaXFxixU8lYtSSP5pAEfmBOD4KEKHhkBg/9ygiebGRQDWFDqkzkY1N0pKrgeySMftmhtpAvRNNjC33Pq4JVmeiK3yHBeTRGJ3QGA+S3HhWBisCYhUC/CUK7u8rDnjkLSAKwwCBRtQ9B1qjWc3EjQqMRCdEISzVBoDTC98xVaVbwMYnMKE0pWPuSplKm4KcdZVmjM38L5EZVyIUyvmRq0pSqhBGN8rBA5zmwpCOw+dz/npciO5K3YCchC6qSqOApGUmk9omXzARD5WojMSNQ5+q7AC+xZUIdsmGUL2AiSPqobUFb8hL8JWDkxXNseCBKSuDIBJKhBKwN8sJE0Jb0ECylcCN7SQOZMep2DlKFTNGLRI3MSAiqDAJ9u4LgObnHEEan9KNtfZEAVUAkLFjSQ+e8VgTC6Fc/XYPQwRExMwfDiNvoFcYhkf6nK4TEI57ONk3ENIlPUje/Q4IyipWE9RdW9EuH7EZiVhnx6MBPDglZ0iSLxKcawT4kSbZgXkJsiCxsK28nJK+E6Ty6Q4bJkhcPIUSSpKSNYBqtk8HfZEAg2TD8vaOE7ukQGdYG8kLXCIZEnEck2vO3pEpelQHESkKnO4lbxYws+o0o0Bnymb7xIXZAL/rPZnOwJfasr8gPm0DY8jgFHmzTnBeTb1WS+KC23De+iZAgpeyePcFS//k0YoP40xfS19+dTMessFqlrQgMDQS6ShAyWzvPVgX9ziWLmYEOvpS62y/oyLV5NOF35ws8OqF3ThKM6/PSEZ8hB7lnzmufMzw52o9HMsM+5+d+Rp0Cs1G14Nzub2b657P2bPasLJDAkQlkKY9kcq9g0YkJGXL/dp/ymd+qKgiDMj7Z4OCZvpG9pGbkHIJgFKrcjVC4V4K5drLKw2ftF7n0ZP4jkjNtZDXA8NoM0dEHZAfxkGhUMdo2FFmDWedjrU57681O2tdpy08+62yjbd/5u40HnbQ/b9twvmvbhvY79dlpZ9Gz81SikGOPbJCJtJ82siIkj5N6Wjbcvn/8pW3vSAxSls8QVuROFaSd7Nu2EvtG7PKqaMQljzaGRsisvagIjD0IdJUgjD2w/benSrlG7p45Gz2bmNXXPRxUApS2JfIs/+vmvusqEUbvRpLmFzgkW7J6rpx7eRSknG60aDUHWQbLYcRucqDHCZKTisPYPhI1uqdb1QuVBNWwgThU9NqvuFYRUkVoL5fs7b6qIfRlLgudqTrUoyJQERjzEKgEoR868+hBmTiVkuFtMd15G9cY0Rt1SXqu7eYSMInEkaVtvXVTmV4idigVD7ZgDicy1pes/L8GJevsw9EP8x2wS+nM4xSPLOpREagIjLkIdI0gKFmmxGgU3dtIzzkpVUuI2TSoXR4d20eJY645dUdy9pFNsfI4ojst/28r7hXbzXtEuknUBkru0dluG7PM2amYDYxGVBpV+7pZXRwYSfveKp82uPLb4MTAZLC/mrvvvRtaZ3aFIFC0MrVVAZRtApRZ8D0dyo+eJWdJnrK8iVomc7nWzH+TruoxdiLgsYgZ8n5MyrMSRql6IA73Ym+eq9uF0aREczRqsusd7SxxtdeGKoFHQCY6Vsy6b6EmeZswa6KulTdD4TBAtCLLY0PzaFQ4PWZtP84aCv0cKn3oCkEw094sd+vgzXS2gqC3krBysZnXWfZnNYJJV2ZSIxaCdGWTQ8W8Rr4fHtlkGaA5E+ZFWAbZ7QNBNd/Cox3LLa1I8WzfKpV69IyA0azVCfzcyh8rKyxlrRsgdd9irOyxEZZJxlagDBUCZsK0FT6W1rIftmSO1FDpX/ctYfS22G+CoEQk0FqqRfG2XbZErrdDtcFsecvMEAuGYUa97Xst3bOu3/p667KVma1b950KQ3uVhM1lzLS2lMzmMWa3+58clnHlMYbHFQIYYuIwqUtws+GNGeAmY1mWZ1mjpXWW0lnWxmgtM7Svgc+V+CwBtDbdcjYs2Ofk1bb17O0VBZaHSXY+s97dJEAHuSw/sycB2Sw/NOOb7P43adCyQEvYBIbcx1I3cxYkNvsAOEdbuacloGaPI1f65lqyZbMjAUc/7Q9ALisv2jP6884DnwWj6NB94GzE7X527oOD5Gq5p812yGTPCCNMIx/ywjGBwP31RR+d5zpyxFaMRrO6xFJWyyn9r1/6kpnwyGSWcyKj8JthhhmKqPqq6sCu3N8mRPqr36pbrkVc2RTdCcAwUiZHSpxHDjpgU4iDDaMs9aTjYG20Y7kiWzHp0yoQiTMrF9ixvrFf98t7JeyNwa7hYiWJ5av6Yr+F9gZW9nMwFwTulmmyaTLyM3jBMSsf3DOrFuierbMTshqdkdt92S79WWasbaTLdTCyMZfzYWbpo0MVT3uwcB4fpRck3jJeh8qBkS0fsgTYJMbsfQFvdk3OBH+yIxkOAwI+oS+ub6/wYYv0o2/8Tt+1Y/koGRzmN6j60BG9+V4y9ZteXWeEak+NtJ3HVRKTfpKLLvyvf/Bil/yTjbNTv/k7PZCDvfD1PI4Sd+Cnb3CPDbAR8UP/6NgqIT7DZvSNfxsc6bt4hZha8pxHa5ZBw8pKFatJ+HtW1YgBsHO+FVCwVrElG+wcZKW76DNx0DmWhFsqLDmLOzB1jxzOJY+t2u29YQVLKr6+c74++Iwt+e1+SLY+w9x+NeKsuNomkJaS+x/WlmizafHdMmv6cb4jO3jmvR6dj6CjU37bnjhLL2K23/FX+rWUnO/xB/f0fezT/iP8gDzsyaGqqHoZv/RZezVSsKJHGNh+XY4SFywLz2NyOQbW2hEvfSeesRW+KM6xCzHE3yrsZKOnLE0WB9iN+O5vMU1/4KySZ3m6vXDYkmpM+xE+2TLHjH60kb608wc7hz3c6duScHGj3wRBULB5DkcTnG2Fa++DGGonUWgTBGzSrnuSvc1zbOYj0AqeyAawHNa6q1D4zbAEKTO4EQnJyQoC6+LNmPa3pYOMgkzOIY/VBhKJ6ziv9wJQKgexbpuyVDUYvqRgQyGlPcnGOnLt+o3caINhChScA5kwq5xDSq6MECngDB6hcPZMFtR/RiM5uK9kbgMoa+W1K+BaZ64KIylzHntKUJz/BUEykJ/Bul4gS4AWOAUehoOESQocwzr+7LEPS0kI7vBxjuVoyvoMV8CS8HOQWaCydt/KC7tBwoNRGnVb/06P5BaUre4QsPztM7jCwzUwtXeEa1WLBF7kQX8lYuvp6UuS1Sf9hIF2HJxNYmLskrkklsQvGHIeeuFAHIPsdCtwaQsmMKZjG/7Y54Dz+tx96IDcNoiCGcJLDv0kl8Sm/TgvO3MNUsS+3M/37Ir+BWEBie0IgoKzfnu0oa82pWLv8LDBkL/dJ4lRgLZHgX0JBDE2wxbsjyAouyfZ7EcgOfMRq1TomIySpV0hPcZjYzZi4lcSIvuhe3i6HxsQFCQz9u9v+4fon+RMFo8ULDmFlX0O+Affgiks3EPgsjQVkRAbbJZEf2QXhGAOmxAQeJCRD6kuut45ZPK5NiQVK3JcL4jzdbFC39mQRIz4sUUyC9AIBLuCq50fE8QtKWZrSDy5JVhtuIfVF2xUGwgTuxfUycCP6DD7d9gXBO5igGv5tGs9ErPniOv4l31PtEfnkhDsPZJ1vb1SVMncR9yiEzFV0tAOHPgjjGDDL8VG14ljllnTE9ztx5JqG5uWANkDjDzW5VPIj9jg0QW9iU/8Uv+QDv6FkLJ9bUpcyKXrxV36oGcy2ESMLYmzrmfP2mfj8M77VsSNkESEn9/yNziyVTJKrGIL++RD4pNBlATMRhE3facTsZee+SibosccyBwbEYclVbE379kRk8QIiVQs4NtIF4KAVEjK5HKIyfQEd34EL/czIEAEkCckmp3LYwYqkjF8/B8SrQ9in/4b0LgeRvQmWdvrhH2yX3ECrnIaHfAteUMc0x77Ef/9LwfQKx3xbfuNiHFkZBf0yP7pTT/Jx7bFAzaI/MDebq/sDsmla3GFvuhWDOk3QYhisB4JXpIRIHt7ZtYmCMDIy5coVCcBz+kIKtEI1oyCsgR6xiC4O5dhAYDBcDgOzNkZHoPjpAIBR5E4sGIOQTZJyehOsGPYgiNGjoGRRbBxf2BRjATICSgm7BWp0W8OTCkCFwUxbuwfcWDA2mJIWQIpyNhYSRAQJAUHgUSi1wcJXlvOYTT6qR8MSyDjLAIgh5UcEQ4jd4FC4OVolO9+nNfzPkmAwo0UMETP2hmNNiUe5EP/jJw5D4wEvTi2Ua7kyLA5v8oARsxAnWtUIVkJhvRnBEE258ED3gzfvZEQOoWzzxgux/Ed+dzDToAci70IECGccFVNcC+OLkkKSKlEZMdGycv3nEj/4aA/xx9/fNELhkznbJVNCR6CEUdhU4gum+Pg8CCzJE5eTN/fHF6bnFlbPnNwTAkRnsiQoC1ocGyOC3OOqS06kJD5Dn/ILp/Zm0BAMEply3CSJBAG5+q762BPVvpnC/ogKSNJMCYngqF/ZEXkJckc5CYz36A/P8iAYOI8iZuvsGF+CVd4woyvsQHBDjn9P/buBFq7sfwf+NZKEZmiolRIA0JJkQYpIpShiIoGRRpJExKFMmXKECnRXBSZKhoMaUCSBs2DloqstJA0/dfn7vd9/7vHOe85zzuc95z3ufZaZ51znmfve/he3+t7Xfe9931v9UmKJERspI8CHfHBOSMVPISJkR/uSWwSvNUJc23iG5JL7RG89EOyIogIqnwOpsScyOEc/+gv1eWvfviHIK39/JV94KhtfEX5kjU8S8KhLXTF9YIi7hlASOC0z8yF4IlTAhNdEDQkT0kyDRoEIMGYj+Mne8NB4ul8AVPSl2evsjmavvIBeCiDDuVtmzQDjman+CG7CnD8JjpjhKgPzqN/eOE3Htm4y4CBpvI7iQ1b46X/YUTbtNuAB68ESvbmUzRM//WHPygzM3Z4pF7Y4n2eTcNXOLK9QQ+dyAvXaCFOSyrwQmLEZnxXQJNw8wMY8EVJAGxoHRvkIU5Y4iK9URbMBUN9Uj8/pZ3wNkCg8frHFkbiub0tSRNw6SmuqJ/OCOiSZ/zPoFJ/xRh2cC6d1D+H5BHmbCL+0O4kJ/RR4g1b7Rd/6IX2sB0NkxQpQ7LDv+BPM+gAH+eL9EockwyJV/RRHPGdBE4soQ10gp3hDDc25AN8FF997n+6pY+SlnmSIGQaUYVESON0tD+92B+NcjiZPQPogIbLtgV929RyOIJIuBkhpOonCDI9wZgQyfKQzXXED4iMAuB+giB7zDSqKXYG1Q7iSQiQnINwAEGQAXwvQ0NG9SOMIIqkBIqROQbh4Pja5BxERWyODXxiKUsVUJIgMD7hVad2SyQ4JgJIFpCKM3HSvCRJ3X4c+ql+gpKdKTkQxxAwBCPOIpGBEdLCSHuJNUFC+n6CQEQyE2DEkUAiQcjrqE2/wYhYITeCEUefC/RsoY3EWB1GeuxqlC3wOY/YGy2bhsQZox/fSxCQEx/0nbiNlSBkyk7wck0eciLu7KVuGT3xkLQSavZRh2RC++EnuDhHhq4/sNAWQQnmgg5+6CcOZNQv+HI2okycBY8kxUkQ2FHQIebKIHhG4JyYExIpSaC+Kp8I9RMENtZPNhJ0+I2+EE/tI3j4rW48wwG2Z2/CK9HUZmJD/My6EEKCPZggmIlSP/EiHhFCduSHEil80BfT3QIT3ARmfiLRZwOjaLyWuKgfXkYjEgRBnSBKIvi8oGwkCMPBBIHIEk0JAh6wC/7lPSX4KxFRBoxgry56MFGCYERpJIsnkm/CKKDgC38kjPpLVPmRtgkA+ssOzhOg6Adt4rM4xd/YwTlEHq9pBq5l5ifvtNAG5/JxPpxEgs3VBUc8lIhIEIg8P1IPm+MezcKl7NKJy+pKUi9pkWzTJLySmBo4CYySAwkIHHFceQJwBhDax0bqdNAwAYoWsSM/dz6+GVHzOz5n8IajRtwSR8ELLjATDyQZ2ki/YWOmAl7qkXDSTaNmSYIAB3uaKeipj37BVnKC03wNB3CTtufQfiNndnU9f9MfiRkOJUEQZ2i59qevyuBLcOKz2pNt/tkbZyQI7J531/Bf7eHzNA8P+wkCzRcDJCw0mt2i9fDH3bxoTx2wpMO5PcOHxSz9hyHusgXf4ZO4gAfKhS87SnL0C3ckGfionZIxvICRpELdbGvgpG+4ITFjo7lOEICu4UYBRBB5jUZljojd3/YWYAKpaRgdjVNwfo0mbJxQp11HpBgeoAKcbBUZdNTfnE5WhtzOkQBwahm+wA4Azg4UogFwRENKwMiW8qZCIkbUOKSyZMAcmOiZPZBscFoG4xymB2WDiCYgGnEihxGzkQqnIcL6xNhGgkQYifMiG5knEWDQvMrYaBuZ9VFwlO367VpYCDBIRjwZUuDObnqIo2+5XpIkIBBl9cOEvWAEe3Xm/QYSNSSDod/6wa4ExQFLQkPMZOGSGriwk3IJgODLOYgOUXCuPhIUZEZgwkwQBCEJIhEhDAIZjCWXkjM2zFQj58oMAVzhhS/EG+/YQABycAh2zQwCPCV+uIKbuEeECJt6OApR40Sw9b2khYMLTBIBnwvSOKEuOEtujDYIoTbDQLB3wJiA4YW+Kc/1mX0SVPENJgI9jOCPm/qmTewuMWIDuMMTh2GM89rG6V1HJOEBW3bGc7bhP3A2G2BmzHc4QewkJQ7CIzElgvzI5xIFoxm2107Xs7eEKkm9JMDIG6Z8UxsldkSWDwme7E4T4AYvvJA0w4Ud9Tu3//RTspekjH0ETz6pfCM9mkIbcEzZbA5L5cAXH/KOktwvVpdRNdzYKLNU7IK7OKnNOCIZ4mP8SbthyD9xTJ/whBjrhwRGAFE+u7KHJB8+fJLvayeuKEM9MMNN3JLUGDDot2vVm+dsJPXsSaP4vhGw79hPGezidgvfFfQlWRLwzM7ouyDKj+kIDYMN/OiDhE9Z7Cm5xCs6oW0SMlyj4YJQZmcMLnCd79NU3OczmenFKzqun/pGX5zPhhKR3JPPrIW2SEYNLnBA8q49OC1QKlus0A7cpL38S9yQnApmdI4vG03TRwE6h/r1VfDVBsmkgZv/1Un7aJp2wUockLD0H1L2mfJxhr4biEl6+VQSBLizjcCMi3jOfzObqGzXCvrqxFmjfZwxSHIdH3ItP5EEsxlMJEcSVr4iiKuH3QVuusb3cwvONfxeTII7+0oQ8AuXYKgeXDMYomnsmIEK7ZBEwgOv+FR7Tuc/efpjFrTD/SFD40AMq/MabySGCO51Eab+kYCPmMSIgxEhQVcgk7nIrNznNuLRQQ4JoGRURkAAQWACS+QYDnk5gus4sCDOQMiU5wUEGiAhHAf0vWwVoAIR4yMGUVcegxEnDkHcJA8cXJZPWBBdkCMukoHMSiCfvnNWU7MClMCsrQjNaZSX+14MTlT0FSlgSRwIJoyJNqJqo8/8T5Q5i3ZwHNPm7KBcZflMMqK/6hUwODqMtCm7P5qmlZ0TBn/DCH4EX+CHhzqJsClYdjLNaxQl4ySIZoyQWlKAdARYWXllNdyIKwd0Hsxk8uzgthLn48T6Y7QCF0KN5ERH0uVw75Ww6GfaCds84yFB4GwIj9qZqSJgApB+4hoBEewFFIIpIDqXg+kTexN3tmZD3+MBIeO4OGiEIhmAlf7ABs6wUjZOEi0iDnsOyD8EEXxkA0FF/XmhmOuJHZz8zZGJt1E7n5JUKINttYvoED1Cqj6jFHYiSAKD8vVLGzJVTHz5oTozklIWP5bs6DsRwzf9hzPMcRLWeQ8Im+AWQfE57gtexBHH/BiZ8GWclmiwuQOH9If/EGZ1Zn183n+ifTghCBF5NshUKzvgBxuYkWJvGEjo9EkZbMSf2Yi/sK1kSuAk4njNV/g/bvqfJuCivjiHb2U3T2XSK75L2+DBz3JrFe76oy3wkuDx67wHRHkZlQoGRqfsyu/4kkQit9L4JkzgL3ATcxxiC/2SfNBK3JNACALskKl2tnEtLYZrZrUkVnyXn9FJGqfPuCZhwmNBEY4GItqfKWh2xSf+irM0z2wQv5Ic4IL24H+w1af+Q4SSHzYzeIzesz+OaKf2CrJsKkbQEoFUssbH4acNfNBhhk5A1M7cWqENdEX7DNrYx3WSPhynUbkVBG+JAyxpVp7/6ccsAR4HBWixSuJhhsEgSnKGO/wFx2m8BCd6JKDDNPs9+D63JOAkCfI/nkpkcYTdBX63hTOozntxYM1O9JF/SQpxwucSCX2Q8GmDRE3sM0uibdpvZgFm8KYdEmeDGcmqZIf2KUu5+jXXCQKjEh6N4UAheJ5yHVzumCdedZwoAcO5yVMiFNkgRIBijP7TpHka2bmAd73z/K8t2agpb5nM06z9On3mWmW7NgZVb57O1Rff95+g5YC+V6dr1KHffufpUef0N46SlWlbpv5c2z/Xtdqsvtx/YnTXpf7+3v45N7slplwJFGHgpIQ576GYU4z6G1bFBjDs90fbtVn/4BGHiKjDVvtgFpvCq9+vPJGffsS+/Y23cm+wj13402+n4MXhBQPCgn++zwOLWa2hXcrXJvUF7/BZPT5jS5+lverMtF9GHs7rb7Gduvr9gZuylAMn5WurmQ5JW0a8hFAAI54ObSTm+pC+wByeDv1xzqB/hOvaDrvwMbf90oe+P/Y5pq3+Fyz0LXZUDszSnrR7kLf+189sqtRvT59DcIidxxqa9H233758nv4Hq759lBsf6V+rz4QUzhIuuCawZtSo7XkGRzlZZePcPhdcpw9JDqMVro/G+N51fT3pvyMmfO/veip5EAAkOwR9LP1zvrb4GdxsyOBC4E9wNhqUvAm8+Brdi4ZqKztHM2OLfr+ywqJvr0GfTXnK1+exlqzDA4e02U/fp7MqJ+1IPBmL74Na1OdP3wfhFM2O9qRfrtFG9enLWDvPpixtywob18HDtX0dGXwfT99XlY8vwREGro32DPIs2IbbONjXqsS6+ILrZxf7+j4QDYoe9Pna58ZcJwjDzTfU2fMDAUY2qjGKc1tEFtx/snd+1DlWmWY6ZPxGV2ZTJCpTech8ZcBmbowqjJSm8w50WapqJJfDjInZg+nc7qm06fyoy6yRUZ0ZTKOk6bhJD582G2EWQFvNCA1zGA2aHekHcEm7xKi4NQySo31uJQgLif1Ny8tICYLp/vGWmc7P7spwPRjlMEXbD3zzs96UbZRAGI1aiaAH1/qzC1PRhqpj+iOAI5lZwJGJ3leyIHuU0fV0e0fKgsSk6p46BCpBmDqsq6aFCIFMs04mARnm3NlBlGnm/tTjTIE0GJhy7d9umyntr3aOJgLZJG8m+ty8sFglCPMCxSpjpBCw7tvtC8uwPGHvgbPxBMQDZR4YcnhQMxuoDAuY+6Bu33gQrL8ca9hypvp8I3VL3dz79nCb52Q8GDeqgjvV+Fd9c46ApNZDlnzPg9LTeaZpzns5+ysrQZhfyFa5CyUC2fjEihFT1VZwWBGRJWr9TguIHoKz4sa9ZLd+PGnff6BxsiC5D201gifVLQmdCYf76B6Ws6zV0+RuOXnyO1tjz4Q+VBtHGwEJrlULVnVYhjmZGcOFCbEpTxCIhpGXB3DcJyes9gaw1Cf7cRtd9EcYWfZEnPOd7C77TPs7e3Z7ItQyGedZ/qUuy47ca/QAmKVb2uChHwLugTAP81h2ZhmbEZ7lbZZQuZdtOZX2WUJiaWPqIfKWOZkutSY2G2rk3qZrPDSnDOem7erWbm00urSkDfn8bzlKRlna556+drlGXYMZrIcBsze9gGW5kyUr2uopfs8BWFLnc+XCxLIxS1ssOfN0dB6GkiVbRkW8TatZjua77NdtVUSeVO8/+KSfynYuO2Xfb/tV6L8jT8/a48JaZtPMylePQ3mets5Wr8FM+zxI5v+cb1mV83ymjzYpUjceKceqgDxJ7n/1WVrF7vomUDmHPTLtnf6knXmBEw5YQcDm2ZnS0jVLxbKW37JJwmEd/eDhWpzGP8uY4GHZbhKEbAXuuuDob0uT+pu+eLjM0ibPmRh99xMEOFgCnKe89cHySXw3avcgpLbruyWvuBDMnQtLNrMcE4cd2msZmqVO6nTwq7xbJNtA+xzvfJf3qlh9gYMwdb7lWPrOLzxAy87hluvt+8AeNqtJu/QptsjT1srjN8roi7Tr+JF+WJbHl7PdueV5uMm3LAHVBnWziT0N8FA/+3xha8tAnaNd7GDGBrfh3F855DsP/Vk+B2fawYfgzqfZ1/k0Avf9bzmisiVNfMpyvGx0lhURedo9/kGj8Mx5WUFimZ42RZdwWT2SMG0IRs6nK/hh5ouuwFDZ+kM/+ATc6JtniKz+oTf+d51y9UO7suqMrdjaMk/nZSVb9Fk7aK/ztRXnLS/243AdbuGYNqUtMISd+IAH2opfyuLD0V+88B3MlJml6MELdSYhAAAgAElEQVSMduib9nhgG0/6duZj+EJ/4UUX4euw14RYoe3s5RwrSiT32WJ9YUoCZteXKU8QOKw9BqyptQmH9bkcjDNaY5rNV7JJjc1sjJ6Iq30NLAlzrifVs9mSURzB9oMoHIJTMaZlJ9YnEz3ktw6WY1qLazmctekIYp24NarWwxrtEVN1+9/0kt/WjWqLxMNIDoklEJ6ct47UdJTdIAURa1oto3IgJtIRDuKpz8rSH9PT+qRca4Dt60A0rUe39tlaWPVbHzuYINgvwiY3RmnW/PrfmlpT2VY02EyK2FlN4Dz7AyC9pYgCjdEtYbEmVlut97UfhHXJzrV2mPAKiNblEkHthLu+6L9+2/SDc1m5AAsOrh32aRCgjRoFUfZgi+wamDXc1jXjALtkbwV1EAYJkr5xVHsZsA3bCj6wZzPXEg591nciwdbagWvWTGcNOhspz7Q/p5dg4Iv6LCnDA7Yl3PYfwFObmcBg8MFPiQe+Op/gjHUQWKs7LDGDOYxzaAdsBA5LHtkDBridZY7Zx8OT93iAM/0EQfkwlyy6Vl+sdbaqBUaSBZvf5MU0hJ8PZOc3Auo7+29Yu68+XIGzwEGArXG3iRIbEmr7AvAdtsVzHLE/BQztU2AdtnKTsArQgoA+8nn8wznX4j+u22/E2n++re+CO5vDJvvq64e2JfjhLo7hoM8ENu3nN9aN448gbk8SwcC+KZIg/p73fUjsnCMAWx8vIYUdv4ErTPAWF2Bv1YPbJPgPB9jop4RM8mfzGj4sIbFvQ15dLrg4T3LOv/Hcnh32Z9Aee6PAwzn8SV2wwEnY4yMe0y06yR8lTBIEt7n4H74rX1sNDBzwVY9DMObDfJwdXCMxyBbV6qADtC5vOtUWXJCEsRse2jQLZ2DItsrDTbfdBGIaiAv26wgGeTEYOwvYeG9GjA/SJO2SVNAe2MKdv6ibX0RjaYx6+bzzDHTogKTLufyf5tNU+oUTWeZLZ9iFPsM97/ywHwc+0jN9F0f8z0Z4LYFmMwkJHRmlY8oTBAGGUBDBCD/HRyRJATIzIkGWTRJezsVIiGI0RYRsfoGYBJdwK4uzIyejcmrlZRtbRiUoCJo12tacE0COkRfBCELETXJgVKocbXKOgEBYtcEa4xCIMyIhR3OdqWdiJLi7zujPiEWSgoAcVeDhIBzLuQgp0SFMCJ4XrRBKU9h5y1mfnJItIzKbdRiRcF79scGReomOEZ5EQd1IToCyCVXWwguScJaxEw2ioi2EloDoH2FUD4GVUQuKhJST6hN7EjQBKG/Y49SCKwdUhtEaYcoLr9hQOwUC52lrdgcTUAU9oq1sfSGKApPDiEYQkMiwCXsQFTgrXyKiD65lF4FSO4i6UR/bwsIsBPydoz2uhb2gJ7EzEsm2uH3sfUf8jTSymdJYwiFI46u2GrHCSCKYxNFzBfhk0xRc4AcEMCNobRPoBE8jWTbQ5/5tCjbDEwJreafrs7EVu0tK2UQA8jdM+JJEK0FJkklMcVf7fG5Wgb9KPP3oLxvCQ0CVHAlkEhOfSVyM5rJsMEl3tu9mXwl5XpSFCwIrf3SNAMs38B8f9cv6fQkWu0sWaQN/z6wPn9Qn7cAZdpVQ8FujdgFWQNOWbOokIGc/fMkSn+eL8IWT5JIv4KLkRVKiD2b0cF0QVZY6JfpGv24fwYMNnINHAhGt4/+Se/yDPZuyi6SFHdUjYOGGUbVNfwRA5wpIeCzBwiX98kxHNtHBI23XTwmyhImeZrtp10j0lB9dgHn0BP/ZVn38DQfw0OZM/JK9cIvf67fzaQFN8Tl74Qzbamde0JWdGSWV/WWVeftt3l+ShJQP6yONommSHhqpPDjot0Ei28CXH/AJmm+GAn/MMOCgNukz2yjDZ+xKg/iONuiHPuG6srIbptkuWNITyUYGBXTKzKJYMCe3CGdqUjHlCYJRo6wbITmcER7x56QIiHj9BAFBCAqHJaRIYMtIwmWaCnE4MWHKCz6IBnHLew8EzyQIHCtTZxIPBGB8oxDOwMHMQiifcxIGwpE3igmI2iEAER6kM43nFokMVYKA0AKLz7WR8HEEwiSzRl6jEP0m6OpGdqQ1OiCKHJqASHwEYuKXTS1CNgmCwJeZEk5JOAVmowvCauYiCUKmBTl2Xj/tM1NxHNJojSOxi7I4gwQB/gKCvmhr3pCp/drF0eCYBIEDcVJ4cE7CqHx2MZWn/Gw9bEREjGTvrjNCkNQZYcCc4+uTNhM4Ns4BD2IFbyJrhMWGBFj5uCLwSz4kBRIjbdaX8RIE9hNgYGfkRmgHEwSJprokSZIKWEdIxnv4johqg/bknQ3aL0FQviDHDsRROyUIRkUSLjNOziWQRArf81paWEh6BCYJCD7pI2GGaV5CZdQmWME/b0AljrgheGZ7ZCNS/WFnAQ8eEiB45TYN3sPQ7IXkQDnsSFzxNQmC2QzcwYu8sluygwuCpr7po+APB4kwPuGNUaEEQT0GAsoWCJzPN4m8I7fkBEXBnv2T9CtP4MYNmPItyZrAR4MkIsrpJwhGpNoruaAzuM02ElU2MKrNw6K4aKaM38LZzAE742Pe64LDbMNe2uB8CXbeeKsuvqhvdIhmCNQCpnIEfRrp9oCEhG8bzBjo5JAgmBnLrpPqMbPmwAn+JDDyH4kNnkkQ4WhUrJ9sy2eNunFb0KRRnp9hezMD/F57+RwdYxtaZeaAfuGVfpgF4L8w0OZ+gqDd9Ncsn5ku+EjA2Fp99DnbvdMCWPleQoF3EgR1w5zmZstzeJk9wWP9w0HJljZmq2d2hAO+wZgusTe8DBZhgjP46bkDSX3aTo/ZX5srQZiP6Q5yIY6s26gbAWWwjMkhjIIFIgSVHHAsyQTHQa68odH3BBxxkDBTiDJQTiQIu+9qlII8BFeSQRCyc5ppM2QmKn4ILSc3xUnAjDKUL8EwM4Fc2ihBQGyiJFhIbLQHQWWd+iORICQElAhrv1GDTFVdiG2KVoDRZ1mr8mSuhI4wOBdJTdW5Fqm1P2uiOYIArnx1ITi8sq2sNnFsszFGJUSWwMGfWCSomTYWpF3rGsFBokSYJVpEnggRGg7MMZ0Df3+bsSEqsHaudumP6UMjFQ7JJvDLa2vNBrhOm4mAugUa5bGT8wR61xMt2GgjpxaE9Ysd4AgXmLqWyLmOndiXbZzHfgKe9gtMBE29hIbAsR1uGjmzNw661lQlewoqSTKVDU9YCnjEHgfx1IxWki+zHAJR7ukTLwmnUZpDP9mCQOG1vklqYZvnVgREHNNfswvamhGpMsysaZsgTuQFLSLHV4z4CR2M4CPRJdz6apbIDIIkB19wQbsEePzX9swa6C+cJFr8TIKCC2xDvJUrMSHoZmUEVwehJ8q+i0/6rR7t1F7+RgfgIiEVrNkLH9SZzYycz544RfwJNR5IENjKqFpyAQv+w69w3Mg9t/MEAfpgtsRn/tce/cdvWiRgSpIkV5ICgwV2wz/YZIdD+NEL+PIvNtF2yaXfeID3bMC/3cLhzziuD/zagEEb/MDSIEeC4VrBFu7q8LcgDQu6oq+5zSRo0QrnsBeOs7ckop8gqNN5sDHax3F1+ls78ZzvGnCwicGCBEI9EjY/fIad6IJESxKuv66jo/DK66hpjXK1g2ZlRszffAauBlFwhz+cYCghV6Y+sD+/oN+wU55bvxIEugdD3GEL9eAHW9EDOOGr9tBxXMFF/OdnfJsf8HeY6GcGqZLdvD5be2GMG/xYIjZKK3CmfAbBSFoWm2lcfxOUvP+dQwswnIfYE13CGKfl4KZ1jfA4t9EXpyKAprgE3Tw8IygYrWYkiHAhK8fmFLLzvGgmD/dwQCRCzuxXrU2SGmRWn9GTIGFUZypee8yO5LW+yInIyIXIpkeRWPuUz0mUla2olUHkBRttky1rG2GSBSO6kZ5rBc9MLbpfhvh5BTZxEawFGAmSjNsshxkBIwxtNIrhmIKN4MPxiQsHdV7uqxMkzqDtHEtZ2c9cQgcHwdsMiXuInEyy4p4ubDifYKD9hEX56mErWT2H00+BSvBnWwFHH42AlQFPoyFYGokJDO61CmCmQrXBj8SKrYwW2c7UKtFxjSTECJotCLRRuJEQXkn0/E2A87CppM5IHub6K9kkhoK3JAie2SobPra3dq7Ao24Bw0FU2cU5MCEuRok5BFrY4yjx00eBGo+NSPsH/uc1rwkOfElQZB/1+99sg4BDkAUlozL+IBHBfdiboeMbuGdkzy/wQZLj4FcE2WhQUMx9bokL3OHGbnnIE//UTXBxSr0RUUkUvrEZ7NmWjYm5+iWgsGEDvoFLeQWtIGE6Gd8lJvA3IyChwuXMIOCREanrlYn/klH+kql87VK/33gAI+WxHZ3JyJfdaYpAI3HmR3CRdOEA3MwsGvGynTZKgGiYxMXsjSQ0b9d0DZvjC81L0qVtEkl8lig7T4DCQTgK3oIo/AVB7VI+PzJw4qf643v24AMGDs6hM3l1dN4rY/ZO4MUPMwYGAnA0glafuiXMsOHnkmz8xHfJpu/8COASO7eatIs98qyQWR9JIf+hY/qNL9lVVQKY95zwb/2mNXzP/24xSFBoiD6ZNaGFebgWR/A9t+kE7QzAnKud2syH3GKjMeIJrGg3HvIFfkbP6QcMYeS3JJxO0C1xSfJt0MDvJBE4k5mZ+TiGnlZFT3mCkFGPkbnpGwZjOAaSCWbffIFHYBU8fIa4/Sl2f/efpiZI+T77ShMtBwJnz28O4sie3P4WMIigoKI9RCZP5vs7e7orP5mw+pSbfbiV09/ruv+0L8ft7zeel/OoEykF0Tz1L/HIw4hEJasfkNgUKUciSg7XZs9ybTFLkXcNaGv2au/jxKH003f+jsjmKeiIfn/VhXP6e7L3VzH0y+73P+3osz3vNSC6eRpcfXBge6KpTQIm58y+4n73V0dk5kPfJYv+ZzfnwSB210fYE608qOQcuIYr+jL4LgD9yNPzWcUhiDmXHcOh9A322mLkQdgknA7lEiJtZ2N2748+fK6vjj6O+Di4HW5uMfT3t9cOQVFCoX3OkbgJYgIrH9NeyQOM8opln/X33M8KAdg51JG/08fg5v/4WnihrcEczv1tvuGnXvbWDueyd3wp7zPJKgx+0H/iHBZZ4RC79N/vwraSIEHIrINRqe+1J4LvN31xPUy0SVu0Kbzq+3VWdmg327o2nGTHrM7RF3wNzs7zmfqiNzig7LyHQ3/U7xrtpG/wyHn9TbX6f+d9AeGjdigXbsHL/85TbniWWwwCu1E9P8m7GGCnHH3TLmVpF5vAsV/ueO3q+0m4oh39lQN5jTabhFfaEOydC2u8VC/s+vqbmJGNwrIaITxImX39GfSnvLMi8cD3Bgd5j47/w8Gs2IkvSIwlHn6P2l4ICyRBGEyRMjWcJ7d9716tEf2oGWSs9JFDmDJFXKPHheUeGEGQ7Bg1SRLHWio4rdLp2TTGqNMoxmh3qra5Jmimis1S5Ml+XOE7GWHPFPzmpJ0Chhkjo0wJplmQ6fhehTnp27y6xnNWbj966NOtgQXxjpZ51ZepLocvuVVq5gO3zJaM2jEtEoRRA736+/8RMJ1plFOb5xQrhkWAgLvfbCToMBWc5zuGLWthPd+tkOyB4tmbeqfD5C0tAfVMjYHqwjIom3zv/3tmJQjDIlbnFwKFQCFQCBQCI4BAJQgjYOTqYiFQCBQChUAhMCwClSAMi1idXwgUAoVAIVAIjAAClSCMgJGri4VAIVAIFAKFwLAIVIIwLGJ1fiFQCBQChUAhMAIIVIIwAkauLhYChUAhUAgUAsMiUAnCsIjV+YVAIVAIFAKFwAggUAnCCBi5ulgIFAKFQCFQCAyLQCUIwyJW5xcChUAhUAgUAiOAQCUII2Dk6mIhUAgUAoVAITAsApUgDItYnV8IFAKFQCFQCIwAApUgjICRq4uFQCFQCBQChcCwCFSCMCxidX4hUAgUAoVAITACCLQEwXu/zz777Paee6+sffzjH99ttdVW7b3iC/Lwlr9zzjmnvY3MseKKK3YPfehDu+985zvt9bbeff6iF72o/a6jECgECoFhEfBGSK+bP/3007tnPetZ3RZbbDFsEXV+IbDQItAShJtuuqnbcMMNuze84Q3dF7/4xe6yyy7r3vKWt3SHHnpot8giiyywznvd5g9+8INup5126pZffvnugx/8YLfssst2b3/727uLLrqoO/XUU7vnPve5I/sqzgVmmKq4EFhIEJAg0JKXvexl3bvf/e5u9913X0h6Vt0oBOYegVkJAuc47rjjuo9+9KPdq171qm7ttdfuvv3tb3dG8YI0R1pnnXW6JZZYovvNb37T/fOf/2y1SyB8t/LKK3e//e1v23ePfexju5VWWqn73e9+1673fRINI/+HPexh3W233db96Ec/aqN/dS222GLdX/7yl+5vf/tb9+AHP3jW+ZKEjTbaqHv0ox/dsnzHIYcc0tp5xRVXdA94wAO6P/zhD232QxsWXXTR7s4772x19g/1Kstx73vfe1b773//+7fPf//737dZCe12/OlPf2ptfMQjHtHOv+OOO2YVl76kDjMt/VkM5ZmVGTyU4xr9dI626qt677777oadssyU/P3vf28/OZzj/FtuuaVhpb9wVObtt9/e3XjjjS15WmGFFWbVzVauUZfztdvffi+55JItsWKf4OVzeOir81yv/Bz9finX9c5dbrnlmt3YWxskc3fddVfrUw7nKltbYZ22KhPW6tG3hzzkId1SSy3V7GM2Cwb6ed/73rf717/+1drqtyO4w1Q7XKMPytIvf8PNDJTvgpdrXcNGfmubdvg7PPFbe5WhTn1ZfPHF27n45rNVVlmlfZ66YAqHX//6182uuOn/Pg7q7nMRjvohSdcefNPnPn/Z24/vYYyjyyyzTGtbeMNW4VLqjN/B07kwgH9soS14AU9985sPO7/PS5+Fl8pRhnY86EEP6pZeeulWhkMb0/boQvrrenbBC9eyp9lAWPQPdsRlPFZ2uJhz+Jk+K4cN9Fs7HLkWNg984ANnYa8t6tdO56s7h2vY6wUveEFLEnbYYYfu4Q9/eGsXu+IgXGgL3GgCHP1WD+6n//gSX9a2Qc1RDpuo3/V+4xLO40H8XTmux8n4I8z0SZ3a3OcH26VPsWd8X53sFd/+4x//2PRHf5yjnD//+c/dzTff3PoNJ9c4D4/YyP8wVwYM4mfxo3yuvL42xr/YPX13vb/5PPvqU38QGj2InsMQFjmcq79wU1/a7TPX0hD94es+U44+akN0nM3GGvjGz/t1wWMwnsSuymC3YBM8wum+1gZj7WLTnKt9zoOLsmDOxvgtHvibL+BGX0eiT87nL86ju/p66623tnjEhnwDTjjgiN6k3r7v+S62jfa1BEEDFcBwL3/5y7vzzjuvO+KII7rnP//57VbDk5/85JZlP+Yxj+kuvvjiNnL/yEc+0gC/7rrruu222645w/e///3mMFdddVWbiXDNscce2z3pSU9qRPv85z/f7bjjji0B2XXXXbs11lij+9KXvtTqEfxf8pKXtPLcQiBSjiQIq622WnfyySe3z7Ttk5/8ZJvpcJ1yna/Txx9/fBsFIA7H++Uvf9kC7pZbbtl96EMfaqLutsR73vOebvXVV2/l7L///k2gTTUSCWV99rOfbcD6e+utt+4OP/zw5pgJEk94whO6b37zmy1pMtPi/xwc8JWvfGX39a9/vQk+IyL0euut15IiOOfnsMMO67bddttuk002aXhcffXV3TOe8Yw2M2KmBFE4ERIQYMLC+Ej7xje+sdtll126Zz/72d0zn/nM7pJLLmmzLF/4whe6s846q3vXu97Vzvn0pz/d7bnnnt0LX/jC1k/t8r0p1X333bc74YQTmsNIwr785S93BxxwQPeNb3yjO/fcc5to5BBozeawz1577dXKEOw/85nPdG9+85vb9a57xzve0ZLL733ve60+xIWb20XPec5zurXWWqtxZO+99+4uvPDCdi5HxEGJgzLgrR44wYXt8Ebb41DqX3/99ZuQ44Rr8FXC+d73vrf1Fyc5pfpg9OEPf7h1B654cPnllzec8VUi/LrXva47//zzu1/96let/bhjdk0/cEWd2sX5JK5PecpTuv3226/bdNNNu9e+9rWNextvvHF3wQUXNBz5xT777NM9/elPb0mZ/rLZt771rVaHduPdpZde2vrPtso888wzZ4mzaW994ZvKZpejjz6623zzzZvtcUz/XvziFzfe6Sff5APspQ51/+QnP2l+oA799ptvEwYcxhVl6r/ZxNe85jWtfD4Ni9122635B24aBGjzxz/+8Tby/sUvftGw1WdBlSZ86lOfavWyz5prrtn8FLcFJ8k9X9WvHPBgPzqjbG3Sdhwg/PyAULJdAjhhxT+3RZ/2tKd1j3vc4xpHcF/db3rTm9pnMHn/+9/fuGl21EFI+TbuaQ/+soFzaBE8BTntUj5fOO2005of8j9BmS30GYfxm5332GOP1ne/8UAZb3vb27ozzjijYUPMib/2qQ/H2Ake9MTgB3/Z9JRTTmlaSehxGZdOPPHEhgksaBS74LDPDjzwwFYOHh988MHt1vErXvGKVj5ccZiPwZOf+f8DH/hAswn+44XraYk+wk6f6ITfT33qU5tN6BXsaTz/1kdaL8FKMoprePPOd76z8Vmf8Qdn4A4b+scPEzD1+3Of+1wLdGIGfn7sYx9r5eOpz+HGH6MZ9EHMUq7YBE96y1Zszufo1Ve+8pXuZz/7WbMVnxk8xDTcoBdsrr9HHnlka5/gDA9azq70CB/hTvtWXXXVhpU20ALli1fPe97zmkZplximXG3VNzyGB66/9KUvbbFQ7GBz5YoX2uy7a665pl1Ldww84EDXtUVd+KvtzoMrXogVEn0xAUfhj9vKo5UmBPgMO371q19tnGFP7cRBPJ/1kKLOEyAnOJAQkRj8rW99a0sIEPDaa69twkMMGOx973tfM8InPvGJJtwIdMwxx7RGCQrE8NWvfnVzLkTRKEGX+PjceRoii9cBTkt4+1mY/wFHXBxIJ1gh+EEHHdSANMpBbEIFKN9zjs0226wlCtokIBIgSQIxJ0D6SGyVlSABME6MhBIFTifJIb4SAeL505/+tIkPQzLS4MHBYnxGEzgQ07kEE76ul9QQYUTww7jOJXICDyI5F24Ewuf6RWwQhF3YgI0EUGWymXYSPH0i6MRGUOI4RksEQ5LEXhFKtr3yyitboIDbzjvvfI9+ST5gx2mIjDoRGjeIAKeQcGmPOtiGCCE2R2VrzoKgeCPBI3C4AAeBRf3sSUQ4ojbr86Me9aiW6HAsmMIiMxy4I/Eg0vqsHfqrbm3ECaMWApiDuKsXnwRGnJGgwl0b9YvjaxehYgccgp+ycUCSKoHQlgRiNiGo7MOeruVwuKZ/AjX78Rlt1W51CBZf+9rXmrMTV9hwYMGG2GmjtilDoOGv2slmRJ4NJLGEWqLHb2AVjIwOJOj6zX8lyMSMTwgmsPBbuQKAgELMBHb14AncfS4pYAvXaLO+4Lzr+A6xkxTA3XUnnXRSw8w1hAiH1IvXAoq24+kGG2zQxByP+Rz8aQNOCWCw0HYiRvT4k0BNNI1Ifaf/uC2Rgyut0Y+IrgDiwCnfCRq5xaos9bMlv8INvPE9/9dPSa6gi1fah6f6I9GXbK+77roteP/85z9vAZ2wa4+EQ1DTB7aRxOijICKBEAQFGIMEbdhmm20ab+iQIEiL9FsdeAVjv/EFJxx8xTmPfOQjm8/DFD/wgS/QBPXwv+uvv749c0GX9U+g23777VtbDH5uuOGGFqzZQpDDa9yFu+8FKb6Ap7BRFg2mnw7+c9RRR7WEUx/FAz6k3frmM/jgg8PgSRl8FL/ZUrIMX1zBLf3BJ4klbRAnJFDqZS/2eeITn9j8hl/hOz2kqcr0G+Zi1+Ah+Et8DYL5hWSFziVZ1Ge+gBMSTtopcVQmnmfmXVtwQD30yHWCNa7AUqzRRgcdEMPwB976QjdwXTyAIbzFEnW4TiwTa2mC2UQxFBbsiBvaQX/Uj3PazzfwRwzKDJa+8muJEP7QUNf4jK0c91jFwNgEghNxeMYVQJFKJZzOaFbjiQ8QCT0CIZgRJXHn+DqjYhkfgxBU4MlggIKwgowGu855g8fsbjEgEifMiADhzRgITkg0mCAQC8kCIdZGgUi9CKtfhNRUHsFAXImMvwUBWRrxEniJnTKMVJHKeQSDU2eqT0bG2LJDokrIOADjEVDOBjsEkYm6TrD48Y9/3AzGDs7RXgRwSGg4rPK0CbZGT0a1kgcE0wakQFpCAwuEF8BcQ+yU63+OmfbBgDhIfoiU9hPdwUNw4TSw4pAElu0Ri/MLsBI5WT/ngRE7cyajIOULQrglCBIuSSRecH7XcE5l6AtBlVRoD4cQIHFJti4wJfixJ0Eg3v42KheQfMYptUG9hCzJp6DBRsSGoCtPkiQYCbTf/e53W6IEb2KI3/AkysowbWj6T6BlJ+KsfH1hF7b2m4hKntidzdjJ/8SMnSUQbE9A8AqffMZOkgKHeggA/PiWAE0wBQ/YwASXjeZwlJ35gH71EwS24zOERZk4gdeEiD3ZRUAm3s7TZgFNGYKD2T6CQ7RgYrBAnNheeUYuDsmgBCHT5pIKYilx45fap2+ugyUtYVMJB39O2XwjSSfcCBfxd61bjRIO9pD8CCR8k934EHsKEMo2QNGmPqcJrWRCv2gVfzDiYi/Bnv/wRwdMBSt+g5d4jzv0Bn8FM4MTwZUuEWLl4ouAQjtzC1UZAjif4zc4j++vf/3rW0LNxuwCLzNGginNpIV4CSd+4Hp1RcyTIAimuGD0q4/0GuY0huZJyPgpW7MnfeGLBiu0RHDRdjxkJ4NHAY8+SPTxjW6wEf8wHc0XJAPsF/8SaPBU8sEGrlWnAZL6tFHAzewrLaBdNBfvxIbEDjbHdz4s0PM5QVTdfJxm8CE6LgkyuMFNOmeJulsAACAASURBVA4/SQvOssd4h77SIG3CH/6AP+yrPIkYm+CFtphZ028JoABvoEPv+ArN0j99gqN2+EzcZFua6aADYoPZPHGWf9II2OI1HeOfBu7K1leclUhJMuHiOtzzPVvip7gNV33HDxwTP8R13MMNtuO7+qxNfvM9+hcbtgQBMTgy5wEA5wA8wsqkkZFIOA8hNQKRkUylEgSOmRkDDfQZMgKQ6MmEGZe4ma7RED+cn3MTdUb0Xd+JkyAYPSrDkWcQODxDMryRthGrAEZYJTTIDgTfZQYB6YyCBXQ/6jZDgBSclfBwZOIuE2c8wU49/QQBFqYDjUo4v8AgSAPfkQRBtkgg+gmCoKdM9foe2bXJ9ZyZoZARqQYTBNmlICboyyqJCSMzMKcTIJFH+RwbUQRHzk0wOQGhZU/BhU0EUKR3nsTNNJTRDU6wi/aFMPAlpISL0GkLoVQWUTRqQXB/uyYJAgE0+la/RA7hiQmRE4wQ1m9ChNQEFxc5CcdnUxhJEgSejLb7MwhGWYIE/qlL5k4sOJ/sWX0wzm0T5Worfme0qz8CsXNxB+/0Adc5IqfUVtwRnCQNgktmfPDJ34I/R8MD10sEiR47wD8zCDgqk8cj/oDbRFL7YZCn6vUNNpI3tiG0/JQAazMcCBT76LNkmL8MziAQIAmR9hMbiYXpZYFC/URXGyUQ/BlP2NIhcOJ6EgBYSsIIPh6pG8cEjyQIuBQBxxsJk3MIqjr0hT3MIAgkRBRnBShl8G3aAksDDG2SbOqf6WmDGUKsn/qCL9qkj37DEb+d67cAkfvP2oIrEiG+r336BxvtMsrGIfjQO3XxNW2njYKGvgvIggR+aovrcEgfYMoO7MxmAgR+0Bb9oylsq23sxz5w1N9M6/NDmNAuWEhAkyDw+/5qM0mqurULB7UFX/mPpMbAAV/5mASZTWFF52FD92ml6+Cgz/ogIPIF+iPw6EtmEGgnX5Jk4qJE0SFBgJP62YcP8vs8qyGow1vy4qBBdBb2mWWCg8HZYIKgLc6XQEiYtJ8vGnTRWoEdLhIrMwg4jRvil3jATrS1/4wVzZWwwpe9lUVPJAhszpfZhsbBQ3IoGeU7fJH9xASzeX7jFGxwT520VaLMr+GvbgkCHxa7BH6cdb6YIdmhO+KBwaUELwmCdmmD+CgJwT8JrPbpK0wNMsQzOuY8g0sY0BGYsAc9hTk9x0P2oclJ2lqCIPsAJMB0ntgTLJ0RhACdbBJwGs+4rpNhawBnADqx0xmNQBojAOQQRDgQZyIESIxIEgLBHPE1jkABKfcuMwWjDQKqURYiEydBPEHP9C0BYRQjJw6CMMjpWo7AAK5HesJFuNWLUPqNrARaOxnevSjtgYEfZRihaYcAhcTETf8QVluR33QSxxDg3GeXEftbgOGUBJezIo8sVQAWCAg7oZRkwJR4CSoc3WeSMaTNvSKERDwBRRmCr2DImYx6Ob56YS5hgxcBYV8EZi+CjEy+d51AzonY3rSoOhHQd3m2gsjpl+tyuwj52dzok0MRIm0lNIIwXGX0khh1SISMRJEfsdkFtwgMYeHgcFQ+u+qndhMPeOirvsmM2drUGkEV2PFKfWzmvDwX4zf88zAdAVQGXhBw/SZI/pYI4LnEQRIn0c2IX9DENwGCUxEPfRG0+I2ghJ94lXvERFkAw21JHHGBATFRr8CDfxwTDkRamcSKkOCKhJst4Y83ggvHhmtW9wgEmYHAfUmmNmmHQIhnyuCjsFc+/8AlQUfg0lc8zH10uMOOmJkxwzfBATdxANclfdqoPkmlhFnf2DUPdRE+1/Ihh3L5DE4kqRYglW2QQKiS+AiE/A6v8IePE1WawS6CKJE2MsNr2ElAcJEtCatArQy+5zCiJdS4rh+4JPGnhX7CQZoGD5xiY0INR4kQTOiR6yQuuEqMCTGNkYTwG/7BxuzuGiLO1uqWMErOaSX/ZFc+R1P4sWBAb9hAUgEfONCVYJqH/4zi2Q2OfIJm5TkG9fiBrd8Cm+CLAz7jvwIGnrGl+nJ7GGbajMd8BDYSLQmDz8QCmBgA0iCJsvPZTZsERdiwB79iD9iYcVGfgw0NeHACR/SB/sCS5mmr/3HUDx7rN34ZaNIaM3L6LLjyIZ9rI70yqNIuekTbBGZ8DfckaXCgH3AWS7QVj2gLPsOcn+gTTaLRyqYDzoclXN3G5n80gu3UTcPFE/qg7w6arC440x118REJNy7jA72QpLGjuuHM7rnVIo45jz/wJXaUNPnBN8mTNtIkuNMBek4LnQ93CYbyxQxJOK7ic0sQEI6zmM5wss7pjM8ZVdBjdGLLAMRIIzMlT4gBQAAFVY0yVZfVCJwLIQk5gyofoZAgTwQLjqaOOBpRjqioP09GSxq0hbDkCXXT1jonyycMAJZpa3v/qeo4EKMQyzwJrF6iJ1PTHmIAeO3joMQOGSUyBN3BcYiAAKYegmzqJlN9zoVlVh7ot0P7JS3wMPoU1COg8CeysGVYBifU+skxBA/OQVwQFZHh5EC6rErIA6eucw58zSQE+6w+gZu2Byv21b/MarCl2y2EgQDKMvv9gqEf7WZPSZ5kEQ5ED955IFM9+OR8eLKpZNR5bI6I8CCYfmDAxuzKPtohiOEBp1SG/rF5bIH07KjdeOlv+KtHO7SdkOXhVzZgI3ixG4yyAiJP8sJceQKwQ1nawdGcK8nKChrfays84CBxxB+YZtWKc8Jr9QpuEiIBzm9tVqZ7gTBjE2W6xv/66Ee5MPc5n3St/3GfgPmd2wvaidP6wUZ8Ez6CO1+CsYPdlKVMeEh62SczPvqDrw5tcB1hUo7+qoe/xzfzBLfzYSb4wdNAAr7Ohav+5Z51+pjnSZzDT/VJ+fCgL8SNCBJE1/vMgRd0Rv+1Pdj7zjlJiDPL53P24/v4J6BJGAgzjNjNd9qnPm3BVQFGoiAo0Ax90l/8yBP6WRHjf23PA4nqhINkRADh2zjvM/w2MhecibV6lSPpZjft1g/t0tdoCg3JqhH9Zzu+r004pVz2Z2O+x2/YCY9oJP2gu/wjT7zjlEQowUed2gOX/uqq1oj/65Pyc4tV3fRM+9kfdtqIL9EGgZiG9VeA8UN1Oyer2/RV/crCCWXjomRYnRLq6AOfxn0aShtwM21gA3zWBgMN/Rf4Hf5PcqidnkeSCBnUqVMbccWRVRn+5kNZxaKexKWsEPO/NvIXPkTv2JB9cEP7/FZ+btWwD7vpi2txXJ38gG2Vyd+dTxvZPOfhPDwkMOqBIX92rUM9uTXCD7MaRnvx1/XBWYwYeidFGWEMokKVmPaUteX+Y0hTv/8XAeCb2kFUQSEjqcngJBmRRZrmMrpAkLGW6kymrMFzCL6pKM5tlJUHaGS5RrdGq/Nj0yyOnqd0JSGy8QSLOenHTLtGAmj0YMQwr2w50zAYtr2SPUHc9KkRchK+YcvJ+UlKzIjmgezx/NKo1OjQ6NkIb6xnpiZqh/poaB7QNKKWlJmNkKDwM1PBuUc9UXmj9r1En2aIN6bI4TjsAX8Yu32V29nwl6wl2VSmZM1sVf82xLB1TfX5Bupm0iSfBu79Jb1z0pahE4Q5qaSu+S8CiO32gmBg2lB2N9lDEDd16DAiRILBNeSTLWvwPKIlyTO12R9dzWl5k72Os7vFIwMntqbkjWjqKATGQ8C9eNO+DomVRHluDkmqqV2jMIcpV6P7sQ4BKecJ7P1gMtk2qA/njVBx3fR61tKbWjc7YYRXx9gImEmAn1G34J7bRYXXfxFwe9YspthAT+eWS5UgFLMKgUKgECgECoFC4B4ILHQJgntM7hu6D+WekenA7LQ2XezvtozpSvcV3a4xIzATD/0wXZfdMnM/S1/cKvDj2YWZNEU3P+zgXqxnJ3K/t6aP5wfKVeZ0QCDPc3newy0099OzVHc6tK/aMBwCC1WC4IE796Q81OPepClz01HT6dkIQdRDSJ6I5kDuObrXlc1bhjPfgj1bYuDpb88PwNhqBIelYaa5PLvgPthYm5Is2JZPXe2mlD3d7ME6D2Sxu9tFo/SsxdShXTUtSARw3UPOng1xy9AtGH8Pcyt1Qba/6r4nApNOEGSGjv6mHPMKUEHTU66esJzTNzMipyUt7lFZAuQJT4EpD39lJcRY97jzZL8naBE79/YFQD9z+oBe+tQPkFmf7IEoT5ZaauYeqIeu+kcwUfe8etYg5edJ2IkeYMk+7tnLfyx7a6cRsae8LY1xeCLcQz9Zruoczxlkf2//s0f6NZHNtTd7lc+Oc9rr3IkSQvV7oj/rsecVj8crx6xW9pWwJNKs0TDHWDzij2Zm+tzCX/45Px94ZEd1zO2sEH+Nvw2DxVjnsiWb91dD9Pk2p+XPqzbiJXv131UwTJssk8sW78NcB1++RXPmh24PtsXKL77vWQo6Smtjk6yooGfjvQdBW8Oric5P3Vm1FW0ZBp+JzhUX2E1fxmpzNGx2A6DBfvhfuX7nfTbjtQNv4iPz06dnh0NLECwrsV7TNKgn1xHZMkYj8ux6Z7tOI17rJAmeJ+kFBkvSrFP1N8H3AJHRkpE7xzXFb0QvAGYpmg0erHH21Kj1vx40yZIka+c9qJP9vNWPcHkPgSVBwHUbwVKjbP/qoT1t0oa85MX6T2tOrbW1CYb2WFNqZCs4ChTWwRoFZ2tly2c8sOcpV+tnEUR7PWEs8fC/tlhGkx3VPGznO0uTHNbYWmaiHfquT55+zqFexpfQWCVg5UA/WFuCJIFwHnGw5tWSm6z9hrfP7SfhoUcP6+g7IYCd5WOydtP/2goT69KtJbZm3a0NI3znClzWHrNHtuC01M5eEer1kAtHyLroschk1cN4CYKHsXAry62s+7VUVpn6oI/WK1uTqw0RFmuUzQZZz24pjz7pg35Z00t4rB3ODJHlZx4C1V/LUs1qWEdNGC1ngpMRPAz0OUuPJGew0F/XRsjZCzezlaklba6ztEr52dZZ2bijfDNWHmTTHyMny7g89GmGCF9w1zJVt5TUK/GylIlPZbdIQufJabfH9MFDedm211p65+q3h+X4Iyws94OxlS78yBPMNnyxtIr/ZfdTPg1jfYSLduB6EmB900d9tzeE83BM/+xb4qlv7VMHvxQQ9BN2sHI+P7BCx209fI1mWH3jf34hicMtAuk8mGTlAD/FURqDC7C2FI3tXQcnDybCT+Kk7z53Pj9SpjY4jxB7kFFf+Ibv+IJtcnGFTemWtf/46wEvS9ocfMeSZOfTInqQZYy4SZMspcxmVbQmmyDBltbY+AtP7AGgDH1hG4MCAxm44xcsBFZYKTs719qbwoPJMHe+5c1sjw/0Qx9pDP4qhwbQUnu44F52wsQL17FjdrxkN/WzHezUT88GA5F9ZvhMBizKgJUBAKzs18Kf/c2/bAIlJmivlQZ4wvZWYKkPNjiXl+JZdolvuGjJn/7rL11Wlz7ql9U+2bMAzyybhX3eLcFO7JU9FdjbterBV76Gv1bA5MAf/eaf9srAN/7hAXLcYDcJS5ZU9pdw2uNCX3Eattpu5lSZ6tU+7VWnctlJDGFbGLOJsmEnPsGLHoq9bsvyc3WwNQ3RzzkdqE6UCE2YIGRTC+uyGc+62jSSsxEWxOM01qQChpMhOwcg2pZX9MHKCyXs6GdzB4HQ+cRKOQRTmYQhO0kBCymcmyVEQOPkrs3LjAQLGy/ZiMnGHNrNkRAGsASacDK8vQOIG6JbX205E0FKwNYen5kKt+kMp0Qym+N4ClRiJCC7j2wKnaAIRnBBCqJNiBFYMJO8EDRkIJScK+LTz3rtRqntiELsCLGD42sDQsHNiDPvUhBMJCH6CV8bOmmHzX4QmygJ+r6XfGgrbLXfbIXgLDmy+Qps4K8MgqvPpgf1UTLgewkibIizAK7fwyQI7MgBBTvT7JyDIGmLtppuFwTZmojDwKyDthA4eHIS7dU/QZD4wZeIsKP2EWqHYAN/4s2usBCUbRQkkMNZn3yPFzjsb/jiluRYcsdJcZFo5T0Oysc7/XCtsq1rFpTUS2BwhS8QJ0/CC842Y1K3xEGySDTwVuLqILx4R1wEKOVrs+TX5lV8j43Yil+yt+TRcj8+oU0ER53+5yvaZgQt8GU3QecQavgblUielGVwIHA5iBssiZWEB9ZsL8G1ftv/eAEjOqFddrMTLGAAS0md8gwS7BfB5toKM4m4a/SNv8KXzf3vvODBXwkiTvBzGuJa97Uls3xcO9hfm1zP5/Ee1wQt/ZQ8SF5hwpf5A78XEAVD4m3UmpcqxSbaQf/wz2euZxua5TAg4DNsol022DGI0D42g5dz9V8duABz+BjY0ARBXdDUVvjxL35KR9yzh6dyYc2ucOXLgo/2Z/dCONGmvGiJj8CDruQlSbRZ+WzNX+BnwOHgX/zUOWPNruInLYVnXkqkf5Jh/XcbAce1TXKnz/pjbwg8pHFsLzFkawM012i3JJ8W5B09AjPuZ/8L/iXBsImdQK8eyaO2sCPbiUe4xp783KAzW11LeOFkd0HnSMQGE6A8ByYJob00wSCXHdlAQkOrxYO84EnSToPEQYmWMiQR/DLblos1eRujhAkG2kHbJZo4hwf8TSJprwP8pVsGptnZV3vFkWyuNTfBfk6ubTMIgCFmDEHMGAbxGYGjIDKwZVCEiBHNCCAPUhlJAFCCIDASCE7BORCG4ZAnCYJzORCQAMLhACcLlB0SxUzbEC27msnQgak8osgRiBwycjYiom51Ah7IxE07jWKRRnsFawQTfB3EkOHzdkMGVk9eKsPRstGT7xBa2wQwoq5vxBLpiRMHhBWDGt0iMAL4rH9oS15MxaHtwIUMhESwQniBEt7EngMSe9gSRQ6DcM4jlogtOAqknCHbYcNTkiUB0o9s/QxX9UhwEJPwShA4MRGHib5JgvSZwKhjmARBQIIZoRYE9VkmjweSApjAyKiVg5p6N7KXPBAGIzK2FqzMIrCLwOJWBuxl6ZyQnYkVPmXbXYHLZ64nSpIReLE/gVOfERbeGFUIVoI4PPLSH/VpC9vyAbjCh030Q2KoTEIi+HB8vFZGduIjasSDyHJ6/ZDQ5cVjMElwwSmJhmRWWTjsXLbHFdfwK4Emr2A36hRQLM9zXl7YJMGBLf4rD18IGqyUyW/NDuEUAXPgivJxXmCUmMFT34kivHEDdoKMwAQr59IAPCPu7K7PgioOC6YSMzOU7CBw+N+ISPA1Y4bDEW8+LJE1WIAzH8cHttJuP3TDtRFW7YeRgOda7TOzkJE27koWBCqjMu2DJ34LZvrX57d+wFkAp098KwE0rw6nHRJqgV2wop+4jV9G00bH/EySj6fqleTDJDO1giR+wwq38V8yZtQoMGiv8rVTwseXBLrs/KledsIB9oYvDRDwcQ/OEgNJsN80nU6xiYCfl7g5f7xbjpJ4yzpxmP7oH17RLVqkvXCPFhuwKQuHzUbSXvoveaa7eRmR4JvbjziEa/rlOnoksYQxW4tJbCpp1Bcc4mNG32bTJN/0gh9KwvGaRuAATVaWPueNpLElu2hjXpWsDXjNF5SThy0NarMEXLDnB9mCPDu+wlVZZh74I18Xi7SPjuiHOAs3iZ945Zq80ZYOsXM0yyCPf9EbdYvNU33MShAEW4Ioc+J0APQ/QiElkSEesj3Bk+AjKmHleBycgxIgGZhrCJ6sanYJgmyY4yOQOk1LCUb9GQREMMLg1EkQkIThBQXtIdTqQlyjbEQTICQDRnl5sYcAIRAqMwkC4iAtMTCC0x9OaetOAZs4IUO+53gI7XtORxwRRt8dsDTyIQbaQOhMD2Yf+xiZeBnFwRsZCSQx0kbXwFSgI1ScCWEkSgI2EhN62Eqo4A0PxDa6liDoS16qI/MWiJDUterOzAZSc1xlCYCSQyMyIskBfZYXupgWG8zCx7vFICBxFLMdypQswUkbBAd2McKQYKW9vpMACEK4p+8COaGQ0MCEQLneeUZWxAMvjPiMsjklgSA+7K69uCFAEy+jOMkA3PPSEkKvbfDqJwj4QxQJpMCnDs5ttON67ZMgwIjIsnO47Fxc4dzO0V+ioO7BBIHt+JPETHDJ67wlbzhGgPUnW93yMUIqMGQHSRx1nQTFdzglaSBUzk+CAEv9lujzFe1MgkBg84pdvigA6AOBFAjMktAC/uN/QSYv+mJHAY4NBDf2UY8A5jcfZWczUb4n8niLi/yvnyDQBPVIymBPWyRk9InNcYMfCMDq5zeS5Vwj4KofHoINvYKd6zNtK/lQb/aw7ycIbM7GdAd3DQok+o4kCITed/yQHrC7/sEcV2HF3toFF7/ZSMAVBEz3C5r0iE3oiSTAdUalysQnfM0DrnjMN5MgCMTwgxH+sr1ALtkQDA2eaAh7+a1MbTLz6zP8kUTgriO3YfqBiHb44VdJEGiL5FQ7JDym2f0vOEo6BFwrGGgizNki0+YSCQOV/r17NqGZAjKb0Xc+YmAjgLKVWQ96wZa4g5u0m4bSZoMyCbbRfRIE5bKTgYrBLvwkDtnrQoLgbwkiHPkhG8EOTvqpDdmK2yDWrAGccY0GaDc/kigkQdAefiQhUD4c9MNv30nk8IlWS+b5ZhIEbdZWiSW/N9tiVpMWTPXREgQCAnAOgSg6IMM1siCGCC0LMgLg3DpuVAE4goaQAkleY+xzYsD5OQISmaqVSbofhExGzEZ2yhZEXCuQcCKAMwSjcDZGVyciSFCMVBjJdxyAU8q0BTR1C8oIgkgcB7C+44yMj0hGQ/0EATH0jcgRBaLIeERZ3zmWYJPtmAUazsvJ9VF/8lZJ13IaBJe5CqocNm810w+CYFQnaHKqLMVUH7KaIRH4jBDUIYBLRNSpr0ZdsHOtkZRzkFHwIRowZhMCCy+zKAKrZIqzSMBkr9pITDlD3m9OUIlvHBBmnEyCxq4ES8LCZv4XJOCiXWxISPSb4GmLOn0uAdQ+NlQGh3cOJ5Ao+i0gc2BCZLSgffpAIIiH2QY2Vlbu3eKp643G/C0Y4jDxh737x5me5HyCk+Ao6OFFlmlKwIiLvkkUiAShFxAEIrxiY76CL773AzciD39tz5auOOs8nJbIEgrY+DvTxWwgMLlWe7SLDwp4zlUf3mTLcUEf1xz6GtEmfP6XLBBjfZRk4R2cJFlGPkbXZqRgKqBIhImgQ9uJuL4L6LCWNLKBH36ufgmLgYHAyq+1XdIpucMFHNXuvFQMv/hoEjNiSgv4iATL95JVhyRAMNKWvJpanWwpAPFDnJMo45wgJ1nkN/otGSHeeauepJCv5JaQ6/ir63Bev9iQjbQ5OzPqOz4LABIXt4UE+WyRTaNcD29thQefUa4y+J6BRWYOtZF+0DK+aETJp4i/gI+jAjibwJyusVE2MBN06S+82JBP6kte+pN3fPBZI03210b+hVeCtXP5l6DKVyQhuCv5og1sJ3Hgo3xAOw0+9F+d/Nj5+kiP9IVO4aCApr+STTNukkQawCbKpuXO00+45nZlZl1cbwYE/yWeAjdN5MsSbHEGZjQdlySyeKwPdFK/JRUw4ae0kj8bpNJ/tjPo8rmZBgk0HxOc9TtviaVN2itm0RQc0wb9EnPoiRgmVrKR8mmLOtkSd/GJr4g9eY8J7mszDsOWhuVtvnRBnOU3Yo/v+CBesCWNgpv2T/XREgQixbkFxNx3yT7aBBLhCYmRFVJzCOBmlYC/swc1MQUiQjKKrDr7hGeEkD2rkVR5podklIiAAHm6nQFkmz4DcPbzDkiCj7qVRxwFPgLB0WTcCKwOCZCRp/bKmPtvi8wtBuQVsJEM4Uw7GpUyHsfP+yPUzdkR1m8Ed3AchHKYeUFc9cFURswBsg8/4eTQ6tHmwdcqw9D3bEDA4EhQiZN+cujgnSnUBGD1wiP792sPYmkTMsNCcmN62YwCgSM2HFa7ss96kilT5hIkAu5cgSovSRFYjapzDQzU5fy8h0Id7AFLAUV5ghDxIdoybiM7ImY60IGDhBnfYC+71j9BP+8GcJ7+5B58HsoS7LRRcPYZfPCVnR3qy4u4tCGYSH7y9krn9ffOVzc/IHh5P0Z2v4N19szXZyJOyJTtiB2cpxy2Y8dsba0/bC3hIazOxz2H/5WDPwTNSC/T+XCPv+ACHuoXzuMVv9N3/VMGTvGXrObBXecpI/7Gx/iiunIusXbAFXe0VTBUD80g0s4n6NohMEjksuop73bIuy7YFZ8lQWyHH9oQbZAw46EDJtpIf9TlHO2Ci3IcxFub2Juv6idslGPgwR7wxAkHP9ZmdsxT9nRFO/kof3XgonIIPE3IMmS2gy1MXQMXbYM1HgjquOw8ZWm/7/kPLmtjXh+e/glCZg0cdIUN8EWdMKdLeeodvvqrPoFGculcdUrqJEQwkiBIBgRjWkxnJSgwDxdxg6/6nx7ASMA0gwtzWCaYOoeNw2nt8Zm2w9Lf2mIUzbbaxl+Vy/b0F5fy4qxoeAZgRuPKcg3u+J9WsCOsDeryIDHdkQhItPMqYwmw5MZIm79HH2iSmdzooIDb3jHwf7O16hFDxCw/7M438AYP6TPt8juDSmXBIg/aZ68XOhXeOz9vdtUP59NUiTx/4cc4ixfBB59wyKDCtfER/7PhgjgmvcxxQTRuKuok+gKXEbgZjwW1nGQq+jod6hCo3YLhhFkONR3aVW0oBGYiAu5ZmykQmIyYBWBBziyNmQj6lofrZtc/SZNRsGlvCfx00kEBXhDvb4FtFknyJeGfCYdEKA9954HJBbEqYVisRjpBYDRTi0bdRr6mA2sDm2EpNPnz4e0+vGlUB0EyYphOYjT53tSZhcCCR0Ay4LaY50WMWo1CzSS5rSSomhl0K3Kiw4yAsub3PhoTtWOs7+mGo68TY302J2VP1TVmfNxCMCtl9lHckcxN92OkEwTGCdEGCTjdDTdT29fHuzCfqVasdk8nBHLLtt+m0rXpZKH/tmUm2mTkE4TpR6PhWuT+XO7/jkVA9xmzKclwJdfZhUAhUAhMHwQ8P2O2121Kz/J45hhprgAAIABJREFUFiV7Uwy20nMc7tt7vsQ9/myANX16MzNaUgnCzLDTuK10f87T11lyky1VPWDj/pynjz3kWUchUAgUAjMVAbdArDCwssnDhB40dKtyrBfdSQo8EGjVgZU8BlBZ0TRT+7+g2j3fEgQGnZt3CLhnk21O5wc4c9o+o/SsEhhrSm9e30+fqJ3a4qloTxB7EtrT9q7xAI+lNn5yTFTWeDjnCe18r05lDfu8Rra7nR/2nF2Z2sou49lmrPuZk+HfeFwYry3OV+7cvsdgsPysHJoI17Gmoie6Zqzv55RHyhpsw2S5NDf3nAf5O9V9Vt9k+DQn7ZrJ10yESZ9ntM3yVfsgWGHhp/+8xCAn3e+3CsCqL9eZTRhWm+eVv8xkG7UEQYDxwJiHVCzvkn1Zi2mrT9M6HoARaKx5tuTDUhFPvVoCZJ0+4/jxdLq1njI9T9Va0yqLs8TFOnGAE7Psl2/ZjWUwliRaxmdpiWU61pH6znlWF1gfbymm5STqN8XkiVZP6CrPU7c2K1G+pT7KsizTcjMPhNiow7UOy2GsVbUcx3fWiXuoB4kkJB7s0SfLZSzfyYuErP01VY94MlRL8yyNtPbX8iWHz61tNXrPboSWJem/KS5TXXDRZuVa1pNduLRfezxwZGmR9rguS8ng4OnXsQ716Z/lT0kQTL95EIYTWbqkLu20pMzTzvZisIzUOmfLgtyqYF99YkszD2yh/fAxC8GWlsJZl+58D0VZrmPJkXrUYZ0xO1pqZU27JZHWIVsXDk8Zv8/YBN6+U4+gacmPPlje5e+sPTdaYHd7I+CLZZN4ph+uM0qAm0OblCF58b0lW7DFY/sAWL/s0I9sUINP+Gx/ActKlYVDBCzL0jxxnHc/wMyySOu22dwOkPY18L0nldXn1o51zLB3PpysdTY1yi88oGQ9N3+ziobNLYuzbt0afLbJUiy4us4ySUtUra/mD65nY8vH4KINuJ2tl3EMTpZU8gv+IJFkW/jDBh/Zim1xWhLH/2iCz3HBZ/YswQ99xGM21jdTvrQjLzZzjWlfNvI3bsDUw6nwgikO2L/DxjHaZZ8Oy3DZx0Yy+g5vHLZMz/py6+iz6ZFllNrOpnxGP/km37aMUbsEBja1FA4ncc1+CzDgW5b7abMlZGkDzXMuPYInDbLSxhp5ZcMCxh6stUeDZYF4ph2WQtJF+oCTyubz+pmN1pxrBAwT9Vjmpl24yC/5Me77gb/lcGypv3itzdqhbtd6EBEvYOp659FMmqb99i2wDBS2VjsoSzthl3ciwGvwwD8+CVd9g6X+sJO9K9jFg494ie95Z4L61UXT2DBLXpXvc3jqG67ZKEgf2S/cSztwx94E7KcMeynYMyWbn9FoNqH7fJ9N8BhGYgX+8g9+lffOsIW2wipLRrXfeZZT80f7z+gL/tACGkCr4WHZqCWh9JXfZb+MmRz8J9P2liAAwYYXwLNOk6NYG88wjJptUBGYswOKeBNAguXHBg9AlCQAF/EIkw0m8pIMpBCAOCDQGcVvQQLw2cSFU2WzCEa2a1reeUBoOBziC3JEg8NxGg7le44qudFeJCcw2YvBTmU2wdAmYpkthLXB7m2SIcuCCKG+2p9B4pTd/ZDHeljCQoy1QxDXJu1GauVwYPUgIKfyGcJZv61u5WoLB7d6wrmciKDDgoPqO1HjDIKjtcDDJAiSOmXZIMXyJRvuKIsd4MExOSNHI3acyeccKFtVW0JFEFxDkAigIKufxDP79cOKGOuDtuOUa5WLU/gAVwmUQCGBYhu4CD4CLg4JnjhiBoQtiJ3AyD4SGTgJJIQy9xWJl82iCIC1yQKoQEAsfO4WDLsJpLibFw7BRT+InSBBNNWtr2zEpgKPtej8g8jqHxtKeNgtm4dlAx7JsfL8FnDhIAAQL/aUEOindeuWocEFtyR/MNQ3iRVc1IXjMBQ49RNf7R9hjb/PYz/+IUjwOf3THyMofmCKVbkE0aYuNl3he3ARpA0IiF58hOiynVGbxEyg4e+w1C97F/AdfcJPZToH3+DBD5wjkEqKBEEJrlEcm+MbTJzD53Hej6CgDWxFU+wxoI3KwxdBQpJJP2CsDewlGDpXMieI6I9yXIvTNEFg1Cf7qtA2Sa622dMggVg97I6/8IIlHvncNZIq/bU/CdwlLXiRd6UIftrgSXXc1b5sgmNXPKNfSZO/JYI4w59suIT3EmfL9/KyPHoqOPNbeznwHRsnCay4I+F3LXtKMLVPQqW9bAMHqxj4jL5LXNhPe7UPD8ea5RXoJbUSXX2AE/3BOZsoaZN+B2u6QGdoovbb24MeK4dGCt60C8dxF+f5lg3ZYKI8eogbBh4GO+wrqVamvui/BAW2MOCj7KoMfJGQ4xsusgP+a7/zXOM8/MNj7cM12q0MPoZTYpdkw+E8PigOGazAUptcM7hvzWQC7Uw9Z9ZWy5yfuCIMEbPxCuflEEZINqkgjIxAmGRbyGhzCH9nRzwikXcGIC+xIzTARySB14YWHJFgZvc7gqEuTqH+3DfPZiaCD0MJAplWN3Ix+hPQBCoiwWmRnyFleYQHCXIY8cniJTEyciRCfMQVFAVSgQxpEFpQ0l6Ekez4nxALktopgEiiCI+AIXDog6SGY+kTQmoX4tuhkjjpr8yVowu0AiQn48x+c3i4Ibadu7RFW4dJEDgBYSCA6ufs2s1hs2UrrNhPVp6ZEHVwSMIkQEiI2EMAJZQCb/Yuhx2x8D17wAZWghm8lMP5tIPIsB0+4Y7nJvRb4LUHBYFj47x10CYpkjsBAJ4EkqiauRL0fO6Q2OKvoAI7QYGosD3xyG0WPMlOd9qh7ZIMiZqgoB/aYWaKMDjYmKiyob7pv6BCzCWguIIzhA2W/ACnXaOP+Ev8cBMG2Y1P3XxK37PrnMBB0PgX+wu2zpEMwYLY8zdcxW9JqHIzs6Qvkh4zJwKcxAYWcBDQJF2SXX3XVu3XVpwQwHOwCxzU4RwzB2wDO/XjBQ5LbHATR7MVrzbzA+LuQTGBz7naLnhIdCSE+UzSzObZClhdBg2CBl9Vn2BPP9gAl+DpMwMBtqUNDvzEJ7piFog9YaTtEjU8EeDUoV0CGK1KoqndvsvOpxKEbK+MW2yvXzRA4sBXtTvvrVCOpJAWwNTn8HOutjjgLUngK/6mFc6VuLIjXzR7ou5wn7/QS0FWkktvsuOi/uI1mwn4bMLeMBbsYMv38dl5BixmLyTRuDrWtLvRv+vNwrIbv8MX/WFfPPIDKzGBlgjQZuTwVh0SevqKGzhHgyWl4R3ss8U3POBoNoGO00mDUnakNQaikmV9hRdf87fzcIFuCdrZ/js7SEqE6K1DUkUv+JP+safYoU3aqq95S6nEWuygCzhDy2iacukL3+Wr/Y2TZmoCMFG7/ydBkKHJyImMwIbcRsd5BXPeUDhegoAgiJgXn8giiRGjKlO27PskCByCsCRTRFgjGsLit/YIuEYaeSMkxzDyzW0R/3MMQiN5YEiJjSSAoPtJgqAthAmhBO9srWyXMQ5MPMZKEEyZykIFBX1DXOcZWRMlQmpEyIFlxvqrb5xGIoJMslEjRElIEgTTWRxAosCZZdauEzQEQm1iB9dyNmQf673u491i6CcIeRkVZxCQ+uLK2dhmMEHQT4FFEsRGcOA0AhBHYyNlEf3ZJQjEmIizoaSHfdmNaMv0OZ6ykyAY1RsF4VtEko2cI8mULCijnyAQGw4u2dJvYghLQTpvYlOP2Qt4J0Hg5AIDuxoFsyuByDsccNqIRf+M3vN2Pnj4Xx0wdRvE1Dm8iCTRk7QoN7d+BC1cMOJjayNcHMF7wpmXSkkSjFj0IQmCWQEjb8HJbQW8If5GRWyr74TUiEwfkyAIKIIqHPiezzMzg5s4qN6JEgQ+p35czPtV9FOyZEqXbf3uJwj4k/7BRXIkyLIfHM0I8BmYa5upaaKP8xI27RSA+Bfu82Ojd5gS8LwES7BNgiAYOk8CbiTO1mZE4MO/BQ1JlcAgKONjP0GAq3ZLyvBbgFMnH8sr5iWQfFT/aVwSBBxgE30URHwuQXO9AC7x4NNwpBNmF+DifEFvvARBmdrNh3BKWyRLyhc4Jfz0if3x2WySxJVvCoJJEARBM3K0kU+OlyAI3mxES+FE//UTjhI1nMtrndXrQWlc1SeYTZQgwFaflSFJEgP4O5/JbJvEHs9wRGIpMLuOzosLfE2Sg+s+80A2/6Yd/FEcwx8aT1uTIOCZBMFgGDYGEtqb2SP2phfqYl8coic4IRmlWxIj7aELC/vREgSBFZgyPdksQggCiMWJ8k51zosAAqCAiGycGfkJub/zMhQjcIFbMGREZRMv4Mo+kZ34Mao6GZV45kUcyM04zjcKVTbCEgoipW6OwNgEnuAgB9FlUETOlp+EgeMgsfJk+EYWyuJggq6ZEyQRaAgZB0GWvGBH2YSUmBjBcS7lwgmBBU79lfyYZSEQAgKhN+2lfX47Bw764Fz4GHWoBw6ISYAILscRGIkIEYAZnAm7pMnBdurOe+TZkfNxHgmNPiA3nF1DALU3b4+DKWdka46RN4bBXLsEI0mWBEJyw2EJDceCialp4kGstRX2HEkAFlTwha0Ebvwx8hesjBJNKSpXW81yaBsBNYOgTKJoJM52psoJmxE5bgmK2WSJ+Bs9cHj2kFTCy25ybGWUJNDkNkam0tnIyJxN2Mf/+sAO6hRc4GE0AzsjO8KizdqPJ3jmb8IhyGqDUYd7t/qU1/JKWgkOwTWrZqQnIZF8SVZhQOT8zl732gZfPMZXgVF9+KA/OITPRvRGqfqg7WxGvIySlAlPQUrdpuj5GRvBUYBOEm0Uxkf0A+78StKo7drL/vTArJfP8Bveed8K7uWhMMkCfrOX9poqluDhBW7zPTrDFvrgM23BE5yUmOE0PdBvyaJkRGDUfsGDrdSJNzANv/FTX/BHG/Gfn/AFs3BwxUX1wTBb26oPZ/JsByz5L6zYSLDHNXblYwY9ZtLcQqQ7giWdk/TyVf7jO/i7JsmY26LwVB9/YlMBW/voAcxgAwMzWBIgPqR+XKNT/BeWCdY0hTaYPZC4+lxbJR60Sj0SMLzAMb4giPpbO2iTg6bxM4kdftJDfcEtvDazIfnQhhxmH2EJJ76ND9rO/3HIQEBd2s5m+E1flaN/EsTcXoKfNtFBU/qSHlyUfNEEMYNWS+zoIJ4Z4WsjP4Y9vmgfjPPyN5oHEzrIR8UwduDzZlb1X7vEIYkXTsIoL9QTZ8S2vDBKWyTbC/vREgTOReAQjsGMOATCTGnnwUWZK+GVCeeJbMHVZ/4npoRMwOKQnJooEBzixCBGZg5OgAwEghAzWl7sI1MVWDg2J1UeEhoxumfvINbKczC86dRMNyOTwC+zdCC1jM9hepoIaWteq2o0kD2xBUakyMOUBAAZBDPnIzwxJlCcmgAQNIRXhwCXpTX6aKSTFwnBw7nanQfIEB2GhAjR824HAiYzF4SJvHYhs/o5rSTLQbAJAqdhF31VR4Ig8dd+7dUXbVBXHNf3phzZT/slQQ715QVZ/uc8bKk9HI/DaEdex+qcrO7oP3EuAGoTgYNzpjqNHhxmYdgu3DM6YFu4qaNvawKLB6aecUGbjECMOvI2OtexDzzYRHuJIj5z+rwlNDMI+CTA6huhZjPi7xoCT8SMPhzELW9qFIycQ3STIAk2uCMxwxWBEY8kG4KVJNDozG22fK/9+iVwOxc3lc2+2iiw6w9BU7cAgjPamZdlCUxElu3UT+DZvz/tyt7OJ/oSB1yR5BFO9bgeF7RBP/KuAefBnB3ji/iSETKRNprjcxIpR18TBBr45vXJkl+JnfpohOTUCM6oWjkw0gbTzXzUtQYgdMPffCJv1pRsajtfMcuAO+zOZknoaBhu4D1u0AT9kKzRH+1id3/Dnm/qs7rxVTl4yMckZQZLpsHNokpe+Lo2uMa1uO62XB5wpgfaLlE0YyChEUydy+747/z0Oe84oMmZ1YJF/50Hkk8+gmd0kn30m+3pisAmUYv++SzvrJGo4J7zzWgKvmaz8gIweoIT7ON6/DZQg7l24LoELQMU9s6Mn7arS1/y4HpuYWRFAN7SoryNlobCv/9mR3XiAQzCM/XwSwkMLmoPbrGN+JBbfHTftbDgd3n3hJjmOvZy8Hd1xrfhwje1l67hE/zNQEggDKDwyzXqEJvgsrAf822Z48IOXJIRmTEHF/Cy4mE69R3pCT/Rlx1PdumpZJAACkoSh2GXCE0nDMZqi2BJzAUIwXM62E6QMprzk6WQeXKfEEo0TeMa8daxcCMgoLvNaDZofu3ZLwBLGI32DQbGO7TFOZKivJp7OvjLws2A6dG7ShDmwg6SAtNqgo2HurLUbi6KnKeXyuQ9HyDzNpo0WjO6mOjIqgAjc1m3e+a53z/RtTPleyMCt6iMbMwsuJ0zHY4ss+23RZJnatSP0c3ClqxNB9ynYxv4oURxftnbzJQ6+Pbs6pAUmLo3E+LWkudM6hgNBCpBmAs75zaLIozMJzs6n4sqh76Uc2fK33T2ZMUm1zl/fm5YNXSH5tEFM8F2/a5OtKnMPIKliikExkTALYPoXEE0OghUgjA6tq6eFgKFQCFQCBQCk0agEoRJQ1UnFgKFQCFQCBQCo4NAJQijY+vqaSFQCBQChUAhMGkEWoLgiXVrVN2XtazDPgHuO1uHapmIdd/uRVuPa1mIJSCWmHjK3ZI6y6qyJ4HzPByX+/E2ePE0rqVxlmN5WM5T2v625MSyF+dauuaJcstVPDhjSZC1sJbQeFDOUqjcB3Mv3bpZS3I8na8Ma6GtS7dGO/ttQ8FyJWu5XWNJojZri2Wdlqx4wt9yJu1UVrYB9nCQ9fSWuGRPfGWr01pcy5Us93KO5TTWMFvL7UlzG55YI+vhMp9Zv2w3NBvgwM66ZEu8PHSmTzD0VLDlMx4M9DdMLB/VN0twPAAJCzhbFmjpoyeQla+/1hx7eMjSOz9WHui38i2HgjW7eCDP/3UUAoVAIVAIFAKzQ6AlCJ6czrsYbExho4hskWqtuTXAdrCz8YZgbzMO67IFWutJPckvqRCErEm2qY010dYMZwtNa0pdI5BbH27tataGC96CpfXZltXZ9MM6ZWt0XScxsV44uytm4xdJhvW7grGAqn4bZyhX/dby29jGml6btkhk1CU4S4RsjmGzGMmI5UT2B7Dhho1WbAqjr9Y827TJYYMVuDjfOdqX7U2dl3XQgrC1xpYVWmtu3begbC20JENyIyGSKFlzbL2+dtgrQt9sNmJdufXy+icRsJxSH61N9iSx9uuj5M4T+Dbx8IS7tfrWmluSZEmchMamQj6XgFiDPexbGMuFCoFCoBAoBEYPgVlbLQsuRu6Ch8BjgwqbBwkoZg0kEUagRq8CqbW5RuTWxzoEb0FdMBTsBTIB0ujbqFr5lsoIXjagseROUBZgbfwhcKpXguA8G3JIVrTHhihG+4K/UbRAK/gZNUsG1GFGwyyITTxsvCGxsCxH0iHoCtgSBd/bMMUmITbNEfydK8mwO6RRvx0FrRHWT5un6IfDWnQJkARDsiNxsSGKZMeaeu2RVMBKgM6GROq3yYZdveAg0cjGKpIKbZEMWI+vr3an0x+zFDaBMpMiSbNFrA2HJFmWKNkAxpbDbGDWwexCXo5idgNGeYOaGROb0fTfSzF6dK8eFwKFQCFQCEwWgf9JEEx1mzI3DW7K3bS46XAJgoBlFsFIWIA3VW/q3AjdTlwCkD3nfd5PEEzRC/xmGkzhu8YIXBA2te9HgiDwJUEwA2FfAdcIfoK7JMCafgmC3dEEYjs0GkFLVrLDoBkAu2wZmfcTBO0XYCUCtnk16yFwS4TMckhQ7FDnxzS/WytmHTL6ToJgS1XtMZsi4bBHgG1Rs3uhXcLUrww4qQem9tC3b4J266td79y6gbHdBe1I6H+3EswsaK922eJVMuIwe6FP6rOTmURJQmF3SDMN1jPrkwQjCQLM3f6QnCizEoTJukadVwgUAoXAaCPQEgTByYjdtrMCiCBrG0mBzW0Cm+uY4jfyNpoWhDK1Ljnwlj67CdrhzahckBOwbQtrL3z30E2Lu3Vg2t8tBjMTkhCzFoKYwKtuU/UCvyBui1XXSFjMILglYGpeYDQK1w712wLVSNz9egFU2wRJo3j34z0z4P68YKw8wVRCYIQumBv9K1v74aDfkg57spuBsM2pe/mCrOcIBOe8ttiIXRJgpsEzFEb89kR328Dsgi1FbfNqRsX+4G4XwFliIoibDTCyt42sv/OmMM9quIWhPtuLeh5BgDeDIwkzW+FZB7M8ecmJmQu3HswcSMDgILkzuyO5Yhv911dJiUSujkKgECgECoFCYCwEWoJgFO/lHw4BR0B2mA4XkI16jabdBzeiNv1uv3UBKg+/CT6SAYHdrQjXSTIELwFUoPWdciQDeae2qXLlm4J3vkDvYUkPD5o+V5aAKGC77+8w+vZjRC4I2sPdPXyJhWRGkHa7w+Fefvb0zwjbLIaZArMSvvcApCl6swt50Ydg7wFAZTkkMu7zO9dMhPYqVxIggXCP3wyAJEOylHczmHWBl6TDjIJbLJIlzxO4JSKAu63if0mMxMeRdym4xSIJkmSoz20XtyRc51kQMygOMzUOiQHMPLBpZkG5ZmycJ8nRTgmW8iRGdRQChUAhUAgUAuMmCAVNIVAIFAKFQCFQCBQCfQRqH4TiQyFQCBQChUAhUAjcA4FKEIoUhUAhUAgUAoVAIVAJQnGgECgECoFCoBAoBCZGoGYQJsaozigECoFCoBAoBEYOgUoQRs7k1eFCoBAoBAqBQmBiBCpBmBijOqMQKAQKgUKgEBg5BCpBGDmTV4cLgUKgECgECoGJEagEYWKM6oxCoBAoBAqBQmDkEKgEYeRMXh0uBAqBQqAQKAQmRqAShIkxqjMKgUKgECgECoGRQ6AShJEzeXW4ECgECoFCoBCYGIFKECbGqM4oBAqBQqAQKARGDoFKEEbO5NXhQqAQKAQKgUJgYgQqQZgYozqjECgECoFCoBAYOQRagvDvf/+7u/vuu8ft/CKLLNLd5z736fyuoxAoBAqBQqAQKAQWfgRagnDVVVd1e+65Z3frrbe2JCCJgMThXve6V7fOOut0p556arfMMsss/IhUDwuBQqAQKAQKgUKgmzWDcNBBB3UHH3xwt/HGG3ennXZa94tf/KLbYostupVWWqm7+uqru+WWW25W4vCf//xnns0mjFfWvKyj7FwIFAKFQCFQCBQCwyEw6xmEww47rNt33327zTffvDv//PO7H//4x926667bPeQhD+nMMBxyyCHdLbfc0i277LLdDTfc0BKJ3XbbrTv++OO7X/3qV91iiy3WbkP89a9/7ZZaaqlu5ZVX7n74wx92yy+/fLv2xhtv7NQh8O+1116tlcccc0wr0//KvPzyy7sllliifWa2Qnuuv/767qyzzmrn77TTTt1mm23WXXLJJd2ZZ57ZPttmm226+9///t1ll13W7bffft2iiy46HAJ1diFQCBQChUAhUAjcA4FJJQiC9LHHHtvtv//+3XrrrdeShvPOO6876aSTuhVWWKHbdtttu9e+9rUtSTjqqKPauZKLrbbaqj3bcOWVV3Znn312d+ihh3arr756d8UVV3Rbbrlld7/73a9bY4012ncnnnhit+OOO7YGvv71r2+Jh2Tg9NNP79Zcc812q8Oshjpuu+22bq211uruuOOO7ic/+Ul3xhlndOeee2534YUXtgSjjkKgECgECoFCoBCYOwQmlSCYCfAMwt5779295z3vabMHG220UQvoZhE23XTTbrvttmuJwE033dTOlSC4RWE2YOutt26/r7nmmm611VZrMweSiqWXXrrNNpiBOPDAAzu3OVZcccXu4osvbsnBXXfd1V177bWtrNtvv7074ogjuvXXX79bddVVu7XXXrt9JmlYfPHF27lmEuooBAqBQqAQKAQKgblHYOgEwe2CTTbZpNtggw267bffvtt9991bgiDYC+SXXnppd8opp7S/zThcd9113c0339ztvPPO3TnnnNNmH9xq2GGHHdoswHHHHde+d+tBwuF7txDc6jBT4Hpl3Xnnnd0uu+zSno9w3kUXXdSSAgmCJKOOQqAQKAQKgUKgEJh3CLQE4R//+Ed3wAEHdIcffnj3jGc8o035mzUwU2BE75aA5wD22Wefbtddd22rGswmHHnkkd0qq6zSZgM23HDDNmOgnKOPProF9ZNPPrl9f8IJJ7RZA88aKM8zDpIKqyZ8fsEFF7RbDnvssUe35JJLdh/60P9r7y6A7KqyNQDvNwRmcHeH4O4W3N3d3QIEdwvuFhyCa4I7QRIk6OAEdwseCBACTM2rb706eZ3bt9OdTiadTNau6uq+956z5d+n9/+vf69zzxUhBtTRrVu3aM+dFV27dg03wjbFN998U9xl0adPnxARPXv2DBcicxCG38WRNSUCiUAikAiMvgiEQHj22WdLx44dy8CBA2Ovv3379rFV0L9//0DGnQxLL710bC/YIujbt29sKcgp6NSpU5C03AA//fr1i0TG2WefPRIMJRr26tWrjDHGGJEjgMDlG6jDucSJ15IaO3ToUNq1axe5CV7LP+jdu3fp0qVLiIG///3vIRb0hxuhcDD++uuv0r1799KjR4/oQ5ZEIBFIBBKBRCARGDYEBt3miGSbKux/CYkchM6dO4cTgOiRvvN8XltE/N5H+MhdqX57z+cEiYL45RrIa7DFQBTYsnBXxL/+9a/4qYo2leo9gkZdXjs+SyKQCCQCiUAikAgMOwIt+qpl+/+2Edj4kgRtCQzPfX/C4dRTTw3xwQHgHLh9MUsikAgkAolAIpAItA0CLRIInAB3DFROgTwBkfvwKuodMGBAuBGVo8BVyJIIJAKJQCKQCCQCbYNAiwRC23QtW00EEoFEIBFIBBKBtkIgBUJbIZ/tJgKJQCKQCCQCIzECKRBG4snXwV0PAAAgAElEQVTJriUCiUAikAgkAm2FQAqEtkI+200EEoFEIBFIBEZiBFIgjMSTk11LBBKBRCARSATaCoEUCG2FfLabCCQCiUAikAiMxAikQBiJJye7lggkAolAIpAItBUCKRDaCvlsNxFIBBKBRCARGIkRSIEwEk9Odi0RSAQSgUQgEWgrBFIgtBXy2W4ikAgkAolAIjASI5ACYSSenOxaIpAIJAKJQCLQVgikQGgr5LPdRCARSAQSgURgJEZgkEBo+Mjm6lHNtb8d05KHNHn0csPHMFePaK6Hgzq1MzzLf6LOlvTPuGvH6kmV+tPw/eHRv2q+hoRd7Zy2ZAxNHTMsdTU33uY+r/oES+Ntasy1jx0f3tfVsOCX5yYCiUAiMKohEALBUxQPPPDA8vrrr5fJJpusnHTSSeXoo48u66yzTnnkkUfKpptuWi688MKyyiqrlAMOOKDJMX777bflhBNOKP/85z/LFVdcUS699NLy2muvlTvuuKNMOOGEjc574YUX4jHPm2yySXn88cfLmWeeWfcx0tdee2159dVXy3zzzRf1OefWW28t1113XZlkkknKkUceWeaaa65yxBFHlFlnnbW8++67Ze655y477bRTozb/+OOPss8++5QOHTqUbt26xblLLLHEMM3bl19+WY466qjy4YcfxqOwxxlnnKjvzjvvLBdddFFZbrnlyjLLLFOuv/76stRSSxXjhme7du0atdu1a9eYh4kmmigefX3ooYfW7Vvfvn3LKaecUnbdddcy77zzxtM299hjj8BS3SeffHLg+d133wUmXbp0KWONNVarxvnnn3+WTp06lbfeequMP/74Ze+99y4333xz2XzzzctVV11VrrzyyvLEE09EG8Z02GGHBaaXXXZZ+fzzz6PdcccdN66x2oLUvT/zzDOXZ555Jupcf/316/bzpZdeKq4FmEw99dTF9aYv22+/fbnmmmvK8ccfXw455JDy66+/ltVXX71J7FoFQp6UCCQCicBohkAIBKS51lprlcUXXzzI84MPPigbbrhhLNb33ntvEOk222wT5EM8NFUszMjp7LPPLr179w4Cv/zyy4PUEXltueuuu6LeHXbYoTz00EOlV69esfDXFgTy5JNPlqWXXrr07NmznHvuueXwww8PwdCjR48yzTTTlAcffDBI3w+BsuCCC5ZLLrmkUV2//fZbfLbmmmtG366++uqy2WabDdO0//zzz9Gniy++uLz33nvF47AV40bgSy65ZJltttnKOeecEyLLGIiAeoQN/+eee65MPPHE4ToQHPUKYn344YeDFO+7775wKeaYY46y7777luOOOy5wmXPOOWMOiCnzUe8R2q+88kp54403QsRMO+20jRwQbbs+Vl111SDuLbbYItolrBA1IaKPxMkCCyxQXnzxxdKvX7/y7LPPloMOOqh89tlnMU7zT1TUEwiuO4JOvQif2GpqzEQIfAgpwmyeeeYpxx57bDnttNPK22+/XQYOHBgCZcwxxwzxkiURSAQSgUSgdQgMJhCQgEX/66+/LmussUZEYxZei75FHIksv/zyZeyxxw6is43Qp0+f8thjj0XEuOiii5Z77rmn7LnnngXxIG1EgignmGCCIgJUl2ha1IvIt95663LGGWeU888/P4hG1FxbRI3EAwJS54477hhkRjAgQG6HCFbEjDAeffTR+EzUW6+ssMIKZeeddw4iEuFXkfwUU0wRY2dNL7TQQuXll1+Ofld/e02AaEP0StRMPvnkcf4PP/wQ7gr3AhE///zzQbxEiPHqM1Gz3nrrRZ+feuqputs1RAQBIaKGxYknnhgCYLHFFgsh1LDY0jBGDpDztNO5c+ey5ZZbRvsEg/Y5OU0JhMqJ4OBwjHbbbbcy3XTTDeZuVAKBkDMOkT5SJkb8cAoQ89prrx1zutpqq4WwRNjvvPNOCAbXjD7WK4Sn8cFFvepx/gYbbNBIRP3+++9R/7bbbhvjJL4uuOCCstdee8X1BXtiheuRAqF1i0KelQgkAokABOoKBIvwMcccE+SDQJEO8keeImEkj6i/+eabct5554XTgMgQNHu9EggIlO1PINhysF1hUSca2OMWetsF2hLte79esfCrg6j4+OOPy0YbbTRoH5pjQVgQJlwG7SMpgmaRRRapW59of+ONNw4y4k5oX+R/ww03RP9mmWWWIFUuCrJhkyNQ49RvpKhNogWREyu2MwgqhAizu+++O0hMNMsCF2l7n3PBOYFLvT3yp59+unzyyScxDk4Et2P++eePPupLbRFJa8MWzI033hiCC1nCmwvRnEBQn719ggcpG/eUU04ZoguGSq1A+OKLL8oDDzxQVlxxxbD84VjlBsBp//33DxHBifroo4/iMw7HuuuuW3c+OC8Egjrh7/pbeeWV4/XCCy/c6Jxddtkl5sv1Zf632mqrwNe8aisFQi5uiUAikAgMOwJ1BUJttQiEQBA9I3HWvq0GNjbinnHGGSPaFgki/VqBIFpGDt4XoSJTzgOreEgJjM0Nj8XM9UCG9vZbW1jbtjpE/CLkr776qtx0001hp8sbqMSE1wgY6RFGyy67bIgSkb0InaBCWoSFqFpETxDAy/GtKYgV0dp6kQNACCiEGkdHe1wJjo08jIbFubUCwXvEFEGgEAH65305FNWWAbeDEKonEJoaB6fAfBAM3IjWFo6IMRsjkcDlQPzG2759+xCs8h44FJyJhsW1mgKhtcjneYlAIpAI/D8CQyUQkJ2IW0Qrau3evXtsObDWBwwYUD799NPYF64VCKJtSWPOQTpyFDgGCLnevnhLJuj777+PSNVWh6iTpVwlB7bk/IbH/Pjjj9E/0ao+EQC2WIyTCEB6Z511VuRKiORvu+22EA7sbaTNRZCnQSCI4hE2t0T0jyjlAthCGdYCNzkTStUn2zvmhauD6JsTCAhUzoWtkCra1r/bb7893A+uAOeD6KnuWKl1EOqNQ/6J3AfJlXIPbH+0dj6q+okWmBOf+kKcSpjl4nBj9Le2jRQIw3qV5fmJQCKQCPwfAi0SCCI6FjASJQbsybPILdwiWBEpux3R2gbo2LFj2Pwic1a1hDXbAvbERdas+J9++ins6YYFEdk3lj9QS3YNj0NGu+++ezgXcgmQm+x67zUsnADEjWTkEgypEADyLzgHtgdErtwRESrSNGakZGyIi43PIZBsKKp1HmIkhogCWNk+Qca2LIy74V0LMBUFE1gIuqniOHeBwGSqqaaK7YCYuP/5n6jP2G1hEDbwaE4g+JyYqootAbkYp59+erRRL3GyOYEg/wB5u2OCSLBNQoBIoGxYOAy2MMyHbYymikRSIsyWTsNtGCKB43TwwQfHFpdrrLa/KRByaUsEEoFEYPgg0CKBUJEfkkXybHX2LwIgAJCkSN5rAsJrCWb20lnfInyvuQcWeYl9iEIdDYu9fja5iNytgE25C8SJfeuKKEWtRIrkwYbF/jwilxzH1RhSYVeLypEOgrNtQSggJGJBdr2cgBlmmCEsbha8REDRu+0W2xAcFCIB+bkbwW+3HxJXHBPJf1WRzyHp0g+R1VRBupwMOR61t20SKm4rJcQQvcz9lgiEhscgf8W5TX1vQHMCwZ0FthWq779QF/FHJDUsVSKk64AL0FR58803y0orrRTJr7VzSgBIYiSqOCq1fU6BMHwWhqwlEUgEEoHBBIJIGcHVErPtAz/VF9pUvwkG73MOfH+C8zgD1RcD+W3BFuk61mduCZx00knjvvjagohsW4jCEUxTX8qEdEWtVXGc71moPR4JI1V70k0lyFV1IDfH2+vXj/79+8eYFOMwRs6FvteOk3tRjdtnXAfEXp2rb7V75dWdB0TRkPITtC1fQB218+IWQgl6xBLnplYcwIhI4lQ0dRdDS/4FKoEg/4JbUdsPEb/roCpIW39r80tgZBvG1kyt29OwH+bCmAmshgIAFrZSOD1u3azmpzrXtWbMxJk68i6GlsxuHpMIJAKJQH0EQiCwnCXWSQazby56bosif8Etjyzk2lv6hrY/yITQkKvAwaiNroe2vuF9PAFh28H3JHBUhraw6xGlHAkJlrWFiNpvv/1i68HtklyG1uZ7EAgEFtHkS5dcH62piztDqNgWak1+giRKzg2RUS8plWCCCdeKA8HZyJIIJAKJQCLQOgQGfdWyyJ5QEIW7Pe6/obT0K3zbYqzD2jduBuJuaq7UT0SIqokjLkdrv3pYXa4Proc6tNmauoZ1zG6r5TzVc5/MIdegcnKIoqaOa4v5zjYTgUQgERjVEMiHNY1qM5b9TQQSgUQgEUgERgACKRBGAMjZRCKQCCQCiUAiMKohkAJhVJux7G8ikAgkAolAIjACEEiBMAJAziYSgUQgEUgEEoFRDYEUCKPajGV/E4FEIBFIBBKBEYBACoQRAHI2kQgkAolAIpAIjGoIpEAY1WYs+5sIJAKJQCKQCIwABFIgjACQs4lEIBFIBBKBRGBUQyAFwqg2Y9nfRCARSAQSgURgBCCQAmEEgJxNJAKJQCKQCCQCoxoCKRBGtRnL/iYCiUAikAgkAiMAgRQIIwDkbCIRSAQSgUQgERjVEEiBMKrN2H9Jf4f1wU3/JTDkMBKBRCARGGkRCIHgKXgXXXRRee+99+Kpf/vss0880ne55ZYrzz33XDw2uF27dvHo4CeeeKLstttuZayxxiqeKHj77bfH43WXXnrpsvbaa8djgF9//fXSvXv3MtFEE5Udd9xxsCcOfv311+X888+PRzp75PENN9xQVl111fL888+X3XffvYw99tiNwOrZs2f0zaOGP/jgg3hcsCcZPvvss+X9998v22+//aDHOavn6aefLghonnnmibo9odKTAO+7777y+eefx/mvvfZa6dOnz6C2Zp999hi7+qeccsry7bffRr21Ty30dER9nmSSScq7775bllxyyUaPHv7iiy/K1VdfHfhssMEGZbHFFitvv/12eeCBB8r8889f3nzzzdKxY8cyxhhjNBprjx49ykcffVQmmGCCwHyTTTYZaS+e1nbsrrvuijk6/fTTW1tF3fMGDBhQzj333LL88ssH1nvssUc577zzyu+//17at29f9tprr8C0NcX1dPzxx5cffvghrg+Pk/b46gUWWKC8/PLLZe+99x5sPgcOHFi6desW/xuLLLJIPE5d/y644IKy7bbblmuvvbZstNFG5fLLL4/uLLTQQnG9uVazJAKJQCIwMiAQAgHZrrnmmmXeeectu+66a5CjxWvTTTctDz74YHnppZeC9C2wjkWuHqXbpUuXWPCIgg8//DAWZyLBD4J79dVXg4wRgYXPQk0wEA+Of+GFF2Kx3HrrrQtifPLJJ8t0003XCJd99923PP7442WFFVYIgfLMM8+Ua665JhbsRRddNBZiwsICvNZaa5VPPvkkBMyJJ54YBEtcbLfddrGY77///mWcccYpq6yySrSjX1999VWIII8Kfuihh6LOTz/9tDz66KONCMX4Caepp546cCGWjjzyyEF99vlWW20VQuPHH38MvPSXkDrrrLPKaqutVp566qnA0COJawuiIXzgR0A88sgjbXKdEF7GT7QN73LrrbfGuC677LLhWjXxZ+7WW2+9cv3118c147pwXfrs3nvvjeuitrgWEfqMM84Yx9d7lDVhSKASdv5XCGr4mE9zCy//Bwox4XPteo+Q1B/nr7zyyuWUU04phxxySLnlllviOnL9TDjhhHFMPdE4XEHKyhKBRCARaCECgwQCYhVtH3rooeWzzz6LRRAxi8AQPSK1oJ9xxhlBbhUBWzAnnnjisvrqq5dJJ500jhc5zzLLLCE2EORVV10VC5/I+6STTorF1KKsnc0337ycfPLJ5dJLLw0xMt544zXquijLYr/ggguWe+65J0SCBRvpI/VKIPTu3TveszCL8Cz2RImxzTTTTOGK6Ifj9EHbv/zySxwr4hcRPvbYY2W22WaLMVr4a8mC20IozTXXXKVr164ROTYkUfUay6mnnhrjW3zxxWPMxNdRRx0VfYEDcVSPDJxnrCLeimi0yb0hGoxDn+DKieBkIDaF0Pnrr78CkymmmCLmxTEzzDBDHEdAET5Vu+ri6MBy8sknD2Fonp1HyMGPuPMZ0eVzka4oXD1//vlntEV4VXVqX18Roz64Jvr16xd4c2mMwZy88847cZ7y8ccfh8Oz8MILRz0cGEV7xqbvinqQ7Zxzzhn1wMe533//fVwb+rPUUksF+XLBRPbGfthhh4WYa0ogEL+uY/3ibHF9ap2GSiAQecSz69D/AzFivonAMcccM/ppvnbZZZcQAly0+eabL3Dzv+Fac527Ljha3IVtttkm5iAFQgtXrTwsEUgERggCdQUCItlzzz2D0BBEFekh0RNOOGGQg2BBraJggqJDhw4RDVmokXCnTp1iO2HZZZcNB+LAAw8M0VFF9RZFi7c2zjzzzFhA6xV2tK0OBILwkLKy0047BbEQCBZn4sbC7T1tXHzxxeXuu++OBRhxcA4Qn0UdESKj2267rVxyySWxWCMUkT+RgsCQRb1CGIgGRcFrrLFGWWaZZQYdhhyMHy4Im+uhf8gYdvp10003lXPOOadupPrwww/HGBGLLQ9uxQ477BDtcViIGo6LH3h4b5111glSP/vss8P+Rm7aRsCI/LfffguRgrAIAsT95ZdfhgUvcibg4AaHXr16lYMOOiiO5xJpGzHb9kDE5ky9XAAigBgUSSNB7ay//vrRL4R59NFHh2AhKqeddtoQRdpyHXjfMVweWHNbiI0VV1wxxJo+EkL6x9UhUh1LmCF72xTml3AxJngTdBwd7bk24ExINCcQTJ6+m38k/dZbb0U/uF+Vo1UrEH7++edoB/auneOOO26w7QH1EViuByIA1gSza5FANH/ct8kmmywFwghZ6rKRRCARGFoE6goElViYuQQi1co6rRUIVWMWbIs+21/EJvJD1hZOkbMtBYuj6JmzgFRF6xb7qn6kWs/+rSIyCzRSFzVW0V1DgVDlLiAZ/UAmtkAQmYWfq2Abg62LBEWh6iIY5phjjnL44YcH+flBTA3bqQUVuTnG4k9kIGHkqRg/cnN+586dS9++fYMIHGeM+u53hWlt3eqs+qANrseFF14YZEqYGJ8IW5tIEtmIfokV4oGDYiwEhSh64403DsImAK688soQaoiU+EO6SFQ0az64OvDgACBHc3XMMceEbb/EEkuEGOCwwFSUjhwrgQR/RA1L2zhcB/NLJBIc3CnikPC47rrryp133hl1OQYZE6WEhrpF31wav/Vd1M5ZITgcq+0tttgiflj8xAURyV1AuLBVX3VN1AoE+HI0kLxCvLD6zZkcA4KVWEX6zlVqBYJjXQfm1ZzBhrj0vuuYYDJ/5s28+K2d6v/K7+oaSAdhaJetPD4RSARGBAJNCoR6jdcTCGx0EbkFlYNgUfRjQRUtHnHEEUFyErAs3sjROUhHtCzCa22pJxAqQSEPQhvECxHCXiZc5p577iAhjocoT/SPOBFRawpykL9wxx13xOlIBbFxUORIECsEQ2v3lpEt8iNqEApiE9UjYCRL/EiUZFuLUpGxKFrkyzGQsCdZk1hDzLCHhW2b0047LQRGlXBXTyCok7AjJNj9BApnA74+q9wcY4czEnedcEAINCTOgueccJwcw6kQqesHIjUO2zo+dz2YC9tOrit9hy+RQCBpF7EjXHWrQ7/69+9fZp555rp5HbUCATkjZXOkcMtcS9wm16x6CChip9o2qBUItdcK/Ikqxdy8+OKLcb15z3VgTARu7ZYVQZECoTX/eXlOIpAI/KcRGCaBwMZGVtwCFj4iEMFWCXYEgMWXDW6vWBHlIRaEKvpruNdrEZb1zY6v9p2HBIBo1yLMwmcxiyS1TYQgF5Y+ux5pi5YREIGgP4gJuYpGReK2H2oL8meLu/Og3ueOt8Drg1wGRb+rPW1jdJ6ENW5Cw+I8JIIYkWlTxRYNskJmyIrgQjTuwJCLwZ6X/6GfxtycQBDlsuyRN8GAqFng6nenhchd/4kMxIu81l133RACnAkuANLzea1AcD04DiFyNcwnQYLkOTeEGVfCnSba5XrISyAAjOuAAw6IpFVioqFAgJ0fc6YeYtQcEziuPVtBRIDtLVsstaVWIMBeX10PiqRQ9bgW3G3ATagVdM0JBA4CB0UxP3Iv5Cq4/jktHC1YGm/tdZAC4T+9zGX9iUAi0BoEWiwQRJcsa+SKhBCFCI4tXCUWsqEt8sgDKSBYETAhUEVOIno5Ccho+umnH6zPMs2RsT1u4qKK3uoNzK2PFl8Ls/18FrZ2tIlwvdZPn4sORY0WeY6B9y3iyMjtmUitXua6KBU5aofYaElh1SMZWwv28BV4ILOGBZm4/VH7N998c5NV20pA/LDhRLC/kSwSlciI5IwbqSFlrok7NFjy8h+ILRE7Icc+h6vtHndS2BbiMHAgqjnkUCBrxE7gcH5gSExwDmwp2L4Q0RMWxFnlAumjLaXNNtsshCABh2hdA2x380pE2n+3z89Zkluif7YDbHUgU9cQN8o15DP1+cy86YPPnEsQuF0QzpwFWzH1rpnmchDgorhumrrNsDmB0HACuSSuG1soBKI6bT0RcbXbaOkgtOS/Ko9JBBKBtkBgMIGAWERS9chShIysLGgWYTasaBQhV8UCK4IWrVtQEdlUU0012LgQmoQ35Fa7mFtYRZkW/fvvv3+I96yL2iUjKtrUjv75sdeLGKvFni0u0kZC9ry5FvptAZddbuujXkGMoneLvL3zlhT2N3KtCiz1x21sDYv9a3kRXAw2/5CK/AaYIhnkrIiAiSwRszF5LZlQMb4qT8Lras5E5W75NCb1mAP9Mx+SFgkQY+ay2MM3Drkairs6iCxWuWN9Dt+G8+hz+QvwZrMjePUTA77zgvirEkCreYM9x8J2D8HhuCo3oMoFQarcjCqZkdCApzFynFw35rHed2gYO+djSHcxtGReGwoEArDe/0hVj2PhrH8N/zdcB7XFsYRq3sXQklnIYxKBRGBEIjCYQLDgi0ZFam1RJN+JdEWnyKStC+tZBCsarxU6w9o3RCjit/1RkfCw1jmk87UHW86GhEWOw397IUbd2SE/gHgw7qYSYZvDAoETQ1wyro/tlSE5XM3V53OCjvslB4OY4tK0NlelJe3lMYlAIpAIDA0CIRBEWVXkZ9GzCLZFqW4RlIw3pAhtRPVNREw0DSsR1OsvwhFhtpawhhYD80vwKOz6kUGADe0YhvZ4+LL1/bYNYsytva78j9g+4pxwlDgWw/qthwSM/ikcF0mRre3f0GKTxycCiUAi0BwC+SyG5hDKzxOBRCARSAQSgdEQgRQIo+Gk55ATgUQgEUgEEoHmEEiB0BxC+XkikAgkAolAIjAaIpACYTSc9BxyIpAIJAKJQCLQHAIpEJpDKD9PBBKBRCARSARGQwRSIIyGk55DTgQSgUQgEUgEmkMgBUJzCOXniUAikAgkAonAaIhACoTRcNJzyIlAIpAIJAKJQHMIpEBoDqH8PBFIBBKBRCARGA0RSIEwGk56DjkRSAQSgUQgEWgOgRQIzSGUnycCiUAikAgkAqMhAikQRsNJzyEnAolAIpAIJALNIZACoTmE8vNEIBFIBBKBRGA0RCAEgicLPvbYY+Xrr78u//jHP8oaa6xRnnjiiTLXXHPFc+39/uyzzwbBM+6445YZZ5yxTDjhhMME2TPPPFM++eSTsummmzZ6zO1vv/1WevXqFY/W7d27d1l22WXLeOON16i9H374obz88stlttlmK2+99VaZddZZy7fffjvoOOOZbLLJypRTTjnCnpxYNf7+++8HrmuvvXaZdtpp421PrPQEv2mmmaZ8+OGHZZZZZikzzDBDo3GZk0ceeSSwNz44mIuqeET0Bx98UP7888/Srl27ssACCwzX8XnSoGtgySWXLE8++WTU//TTT8eTEfV9xRVXbPXc6/Pdd99dtDHRRBMVY/3555+j/+uvv/5wHUerO5knJgKJQCIwmiMQAuGPP/4oa665Zpl44onLhhtuWKaYYoqy8cYbB3H36NGj3HLLLeWss84qDz30UBC1xwZPP/305a677iozzTRTqyE84YQTon4/HvHcsDz11FNlnXXWKaeddlo5+OCDy4MPPhgkWVtuuOGG+HyjjTYqN910U7nttttK586dC/Gx1lprhbB5++234/PLL7/8P/Lo5noAEAKHHXZYufTSS8vjjz9eFllkkTjsp59+KgsvvHCMxeODt9hii3LMMcc0quLXX38t0003Xdl2223LJZdcUu6///5yzz33lIsuuqh07NixHHrooeWAAw4I7GC01VZbhbgbXqVPnz7xWOhTTjmlHHnkkdEucXD11VcHhtqtV3788cd4HHLtfDY8FgbzzjtvXGsrrLBC1Gu+XWdE3iSTTDK8hpH1JAKJQCKQCLQSgUECAZmussoqQTwiX6933333INXXXnstfp9xxhnlueeeK998801Zfvnly+GHHx4kJSIcY4wx4ln2FnsRLRJBcpyAf//73/G8e0KkX79+cazI0Xl9+/YNkeEYbsDf/va3ECqia6IF6a+66qoRxc4zzzyNhol8K8I87rjjyquvvhqkdt1110WELTolLnbccccg0fPOOy/a//7776MtZKRtxMYR8f6kk04ax4hw9VEdjuVg+BwB+lFEvgMGDAhRZfzG2L9//zjHbySrfYSoHfUhfQLsggsuiL/33XffRuPS9txzz12OPfbY+ByBfvHFF2WzzTYrt99+e7R7zjnnBHGrW9vaNA7FuLzWn6o4RpRujowDzkSFfn333XcxfnPAbfn000+DvAmTlVdeudxxxx0xlj333DNwbUogPP/886VTp05lscUWi+uHA6LdWoEw//zzlwsvvDDcFeXee+8tu+yySwqEVv4j52mJQCKQCAxvBAYTCIiYQEDsm2++eRHh+0FIiEikiqjfeOONIFuuwhxzzJq+qtAAAAc+SURBVBGRMgva1sTxxx9ftt9++4iQRfJjjz12kI9I+ogjjojXREaXLl2izoEDB4YIQIREwUcffVSOPvroECii/ltvvbVss802IVAQV20hVjgIe++9dznxxBPDQdCHa6+9NkhOQZL6q+8vvfRStGsMtjcIHAIIEYrs2flbbrllRPwEx1RTTRWkqZ+I8tFHH40tCwIESfqNcG0h6Cdxok/e22effWIs3bp1K6effnoQNkGgX5tsskm85/Vyyy3XaFwcCJ8ZG+J84IEHyiuvvBLCYqeddgq7n7Ow6KKLxrmOP+qoo8qbb74Z4zrkkEPK1FNPHdE/sfD5558XW0MnnXRS4DPBBBOEACIyzKNtHHP4+uuvRz3rrbdeEPyVV14ZAo1bpB4CgYBsSiAQG4QMQYH09QH2rodqi4iDUAkELpHCHUmBMLz/vbO+RCARSARaj0BdgVBFlAhBpCk6Rqocg4UWWii2GJAHMuQU7LbbbkGiyBwRIBd12GtHgggH4YsYr7nmmhAUiOnkk0+OaBSZiFZF1IQD4kLYVTRPYIjqRfH1irbHH3/8QdGv9hoKBH1BjNo788wzy/nnnx9C6NRTT422DjrooBAvhMrDDz8c/UaMHBWiwLgJhu222y5ITNSrfo4KgkO86pMzYLtALgdxMPPMM4fI2WOPPYLgu3fvHu9xFgglRImoYVivGH8V1RMl6l933XVDaHAS4MmJUTg1SyyxRMyJcRAE+kIsLLPMMmW11VYrO+ywQwg6GJ999tkxTxdffHEcQ6ARAV7rn79/+eWXEAVcHkSv1BMIjueMcAoabi9wVghMrs3+++8fAk5JgdD6f9g8MxFIBBKBEYVAXYFQr3ECAaEi2CpStuiLXIkFZEYgICMkJonNcSJvBCzyRUiiZ7kN5557bkSycgWQsv1nxIU8JEBK7mttqRUIonl9lBi39dZbF/vrCJFw0H8iQbQu8jXOq666KghdZG/7giNiG+T6668vSy21VFj/juEacCAQKEIWvRurcvPNN8d7tkVgQExwOZoSOS0ZK5zgiOi7du0aOCJ0YoNo0CY3ALHbPoAt8UTkEHncFUSuH++++27Y+TfeeGM4LMZpHEjc2OGv3tpSTyDox4svvhhjI8TkFhCRMLYVQnwRKMRQCoSWzHQekwgkAolA2yMwVALBFkMVXXMAkIvIH2kgV1sRst4JBCRvS0COwBVXXBF2vSifABBVSnZjkyMx0SxbH9lxDuQRsOXlLTQszkVC6hlSaSgQiAD2OXEi6kbuXA3tzD777EHwtkZ23nnn8uWXX4ZAQL7yBiRkNiUQiBnR+gYbbBCuCuGBwBG0HIwqil9wwQWjbS4JgaLO2oKgbUsQHLX79Q2PlSSKjOHseLkJ7H9i5eOPPw5nA5aSH5E8FwDhs/rNg2RNeDvfe9we80hcEHucD3MztALB1g2BqO9+YDDffPOFmOFqVPka1VjSQWj7f/zsQSKQCCQCzSHQIoFgz5ldjaAs/hZ+OQpyBg488MCwt5GuxMX77ruvuAVPxIooJRqy9Fnt9q332muvEAuOZ+OLZEWdEtskwYlqJdpph6VfFXkR9u2/+uqrIGL11yvyCWxhEAVsfue5XU8kz7UQ0RIwti3UoU4ugvYIGXvh8gzs3YuARb4I3r4/FwLh66vXiFSkbosA8Xbo0CGSML0mMhC18eoHgYCIETaSb1iMnzCxBcGhqFeMQ04Hu36//faLLQ1bF9X2jO0QZC8nwbwge8IFDiuttFKIAfPHFSHE/DYfthyQuXrkeXBJ5GEQF85viYPQ8Bg5JLYW2rdv3+TtiikQmvu3zM8TgUQgEWh7BFokEBAO+1x0iPxY1uxoSXOy/QkDEb88AZY2wmFlI39EjJBF8gizyo53L72EQUWmu+i9Otd5SK3hrXJInEVOkPTs2TO+76BekWQnmtZXbYpefc+A4yt7H4kRGfbVjcUdAtXdCupseDeG18aoffWpw2/ix7YDt8N4CRPtEDc+R5DGRDxVdw/YapCvYGwNCxy5AdwMjkRTAoFwqdpH8PBUv2JejJWzQGjpFwFknqriGA4Pd8T3RhAz3BjfG6HPfqrx+5zQG1qB0JJLOgVCS1DKYxKBRCARaFsEBvseBPfduy9f1D+0pSKXimD8bkg49V4PTRuiUpG4iJdIGJa9/KovQ7LzW9o3Y6zESGvrc4eH6J7rUCUdtrT91hxX9XlozpWI6IurbK0QS03dxdCSOqvvQZBLIVeFs0L0XXbZZbENkt+D0BIU85hEIBFIBP6zCIRAsODbl5ZUJwplpY9sRaKhiJyIGVZxMLKNzbhsVdRLChxZ+irHoEpolF9ia6a1hZMib4Loc3eGueUe+U4GuSDD8wufWtvHPC8RSAQSgdEdgXwWw+h+BeT4E4FEIBFIBBKBOgikQMjLIhFIBBKBRCARSAQaIZACIS+KRCARSAQSgUQgEUiBkNdAIpAIJAKJQCKQCDSPwP8Cl/2l3m9U4ZIAAAAASUVORK5CYII=;" parent="7J8ZopOZNkx4ZM-3AKjg-1" vertex="1">
                    <mxGeometry width="680" height="354.38" as="geometry"/>
                </mxCell>
                <mxCell id="TJWJ-TtYRMVYAXdc9j6F-4" style="edgeStyle=none;html=1;entryX=0.5;entryY=0;entryDx=0;entryDy=0;" parent="7J8ZopOZNkx4ZM-3AKjg-1" target="TJWJ-TtYRMVYAXdc9j6F-3" edge="1">
                    <mxGeometry relative="1" as="geometry">
                        <mxPoint x="240" y="430" as="sourcePoint"/>
                    </mxGeometry>
                </mxCell>
                <mxCell id="TJWJ-TtYRMVYAXdc9j6F-0" value="strart" style="rounded=1;whiteSpace=wrap;html=1;" parent="7J8ZopOZNkx4ZM-3AKjg-1" vertex="1">
                    <mxGeometry x="180" y="370" width="120" height="60" as="geometry"/>
                </mxCell>
                <mxCell id="TJWJ-TtYRMVYAXdc9j6F-7" style="edgeStyle=none;html=1;entryX=0.5;entryY=0;entryDx=0;entryDy=0;" parent="7J8ZopOZNkx4ZM-3AKjg-1" source="TJWJ-TtYRMVYAXdc9j6F-1" target="TJWJ-TtYRMVYAXdc9j6F-2" edge="1">
                    <mxGeometry relative="1" as="geometry"/>
                </mxCell>
                <mxCell id="TJWJ-TtYRMVYAXdc9j6F-1" value="string[] array;" style="shape=parallelogram;perimeter=parallelogramPerimeter;whiteSpace=wrap;html=1;fixedSize=1;" parent="7J8ZopOZNkx4ZM-3AKjg-1" vertex="1">
                    <mxGeometry x="180" y="535" width="120" height="60" as="geometry"/>
                </mxCell>
                <mxCell id="TJWJ-TtYRMVYAXdc9j6F-9" style="edgeStyle=none;html=1;" parent="7J8ZopOZNkx4ZM-3AKjg-1" source="TJWJ-TtYRMVYAXdc9j6F-2" target="TJWJ-TtYRMVYAXdc9j6F-8" edge="1">
                    <mxGeometry relative="1" as="geometry"/>
                </mxCell>
                <mxCell id="TJWJ-TtYRMVYAXdc9j6F-18" value="" style="edgeStyle=none;html=1;" parent="7J8ZopOZNkx4ZM-3AKjg-1" source="TJWJ-TtYRMVYAXdc9j6F-2" target="TJWJ-TtYRMVYAXdc9j6F-17" edge="1">
                    <mxGeometry relative="1" as="geometry"/>
                </mxCell>
                <mxCell id="TJWJ-TtYRMVYAXdc9j6F-2" value="for(int i; i &amp;lt; array.Length - 1; i++)" style="shape=hexagon;perimeter=hexagonPerimeter2;whiteSpace=wrap;html=1;fixedSize=1;" parent="7J8ZopOZNkx4ZM-3AKjg-1" vertex="1">
                    <mxGeometry x="150" y="625" width="180" height="80" as="geometry"/>
                </mxCell>
                <mxCell id="TJWJ-TtYRMVYAXdc9j6F-5" style="edgeStyle=none;html=1;entryX=0.5;entryY=0;entryDx=0;entryDy=0;" parent="7J8ZopOZNkx4ZM-3AKjg-1" source="TJWJ-TtYRMVYAXdc9j6F-3" target="TJWJ-TtYRMVYAXdc9j6F-1" edge="1">
                    <mxGeometry relative="1" as="geometry"/>
                </mxCell>
                <mxCell id="TJWJ-TtYRMVYAXdc9j6F-3" value="string[] array&lt;br&gt;int counr = 0;" style="rounded=0;whiteSpace=wrap;html=1;" parent="7J8ZopOZNkx4ZM-3AKjg-1" vertex="1">
                    <mxGeometry x="180" y="450" width="120" height="60" as="geometry"/>
                </mxCell>
                <mxCell id="TJWJ-TtYRMVYAXdc9j6F-11" value="" style="edgeStyle=none;html=1;" parent="7J8ZopOZNkx4ZM-3AKjg-1" source="TJWJ-TtYRMVYAXdc9j6F-8" target="TJWJ-TtYRMVYAXdc9j6F-10" edge="1">
                    <mxGeometry relative="1" as="geometry"/>
                </mxCell>
                <mxCell id="TJWJ-TtYRMVYAXdc9j6F-8" value="array[i].Length &amp;lt;= 3" style="rhombus;whiteSpace=wrap;html=1;" parent="7J8ZopOZNkx4ZM-3AKjg-1" vertex="1">
                    <mxGeometry x="154" y="740" width="172" height="100" as="geometry"/>
                </mxCell>
                <mxCell id="TJWJ-TtYRMVYAXdc9j6F-13" style="edgeStyle=none;html=1;entryX=0;entryY=0.5;entryDx=0;entryDy=0;" parent="7J8ZopOZNkx4ZM-3AKjg-1" source="TJWJ-TtYRMVYAXdc9j6F-10" target="TJWJ-TtYRMVYAXdc9j6F-2" edge="1">
                    <mxGeometry relative="1" as="geometry">
                        <mxPoint x="140" y="795.62" as="targetPoint"/>
                        <Array as="points">
                            <mxPoint x="120" y="900"/>
                            <mxPoint x="120" y="790"/>
                            <mxPoint x="120" y="665"/>
                        </Array>
                    </mxGeometry>
                </mxCell>
                <mxCell id="TJWJ-TtYRMVYAXdc9j6F-10" value="count++;" style="whiteSpace=wrap;html=1;" parent="7J8ZopOZNkx4ZM-3AKjg-1" vertex="1">
                    <mxGeometry x="180" y="870" width="120" height="60" as="geometry"/>
                </mxCell>
                <mxCell id="TJWJ-TtYRMVYAXdc9j6F-20" style="edgeStyle=none;html=1;entryX=0.5;entryY=0;entryDx=0;entryDy=0;" parent="7J8ZopOZNkx4ZM-3AKjg-1" source="TJWJ-TtYRMVYAXdc9j6F-17" target="TJWJ-TtYRMVYAXdc9j6F-19" edge="1">
                    <mxGeometry relative="1" as="geometry"/>
                </mxCell>
                <mxCell id="TJWJ-TtYRMVYAXdc9j6F-17" value="string newArray = new string[count];&lt;br&gt;int k = 0;" style="whiteSpace=wrap;html=1;" parent="7J8ZopOZNkx4ZM-3AKjg-1" vertex="1">
                    <mxGeometry x="386" y="625" width="210" height="75" as="geometry"/>
                </mxCell>
                <mxCell id="TJWJ-TtYRMVYAXdc9j6F-22" value="" style="edgeStyle=none;html=1;" parent="7J8ZopOZNkx4ZM-3AKjg-1" source="TJWJ-TtYRMVYAXdc9j6F-19" target="TJWJ-TtYRMVYAXdc9j6F-21" edge="1">
                    <mxGeometry relative="1" as="geometry"/>
                </mxCell>
                <mxCell id="TJWJ-TtYRMVYAXdc9j6F-29" value="" style="edgeStyle=none;html=1;" parent="7J8ZopOZNkx4ZM-3AKjg-1" source="TJWJ-TtYRMVYAXdc9j6F-19" target="TJWJ-TtYRMVYAXdc9j6F-28" edge="1">
                    <mxGeometry relative="1" as="geometry"/>
                </mxCell>
                <mxCell id="TJWJ-TtYRMVYAXdc9j6F-19" value="for(int i = 0; i &amp;lt; array.Length; i++)" style="shape=hexagon;perimeter=hexagonPerimeter2;whiteSpace=wrap;html=1;fixedSize=1;" parent="7J8ZopOZNkx4ZM-3AKjg-1" vertex="1">
                    <mxGeometry x="388.5" y="730" width="207.5" height="80" as="geometry"/>
                </mxCell>
                <mxCell id="TJWJ-TtYRMVYAXdc9j6F-24" value="YES" style="edgeStyle=none;html=1;" parent="7J8ZopOZNkx4ZM-3AKjg-1" source="TJWJ-TtYRMVYAXdc9j6F-21" target="TJWJ-TtYRMVYAXdc9j6F-23" edge="1">
                    <mxGeometry relative="1" as="geometry"/>
                </mxCell>
                <mxCell id="TJWJ-TtYRMVYAXdc9j6F-25" value="NO" style="edgeStyle=none;html=1;entryX=0;entryY=0.5;entryDx=0;entryDy=0;" parent="7J8ZopOZNkx4ZM-3AKjg-1" source="TJWJ-TtYRMVYAXdc9j6F-21" target="TJWJ-TtYRMVYAXdc9j6F-19" edge="1">
                    <mxGeometry x="0.1511" relative="1" as="geometry">
                        <mxPoint x="336" y="870" as="targetPoint"/>
                        <Array as="points">
                            <mxPoint x="366" y="890"/>
                            <mxPoint x="366" y="770"/>
                        </Array>
                        <mxPoint as="offset"/>
                    </mxGeometry>
                </mxCell>
                <mxCell id="TJWJ-TtYRMVYAXdc9j6F-21" value="&#10;&#10;&lt;span style=&quot;color: rgb(240, 240, 240); font-family: helvetica; font-size: 12px; font-style: normal; font-weight: 400; letter-spacing: normal; text-align: center; text-indent: 0px; text-transform: none; word-spacing: 0px; background-color: rgb(42, 42, 42); display: inline; float: none;&quot;&gt;array[i].Length &amp;lt;= 3&lt;/span&gt;&#10;&#10;" style="rhombus;whiteSpace=wrap;html=1;" parent="7J8ZopOZNkx4ZM-3AKjg-1" vertex="1">
                    <mxGeometry x="417.88" y="830" width="146.25" height="120" as="geometry"/>
                </mxCell>
                <mxCell id="TJWJ-TtYRMVYAXdc9j6F-26" style="edgeStyle=none;html=1;entryX=0;entryY=0.5;entryDx=0;entryDy=0;" parent="7J8ZopOZNkx4ZM-3AKjg-1" source="TJWJ-TtYRMVYAXdc9j6F-23" target="TJWJ-TtYRMVYAXdc9j6F-19" edge="1">
                    <mxGeometry relative="1" as="geometry">
                        <mxPoint x="356" y="790" as="targetPoint"/>
                        <Array as="points">
                            <mxPoint x="346" y="1018"/>
                            <mxPoint x="346" y="770"/>
                        </Array>
                    </mxGeometry>
                </mxCell>
                <mxCell id="TJWJ-TtYRMVYAXdc9j6F-23" value="newArray[k] = array [i];&lt;br&gt;k++;" style="whiteSpace=wrap;html=1;" parent="7J8ZopOZNkx4ZM-3AKjg-1" vertex="1">
                    <mxGeometry x="407.25" y="980" width="170" height="75" as="geometry"/>
                </mxCell>
                <mxCell id="TJWJ-TtYRMVYAXdc9j6F-33" style="edgeStyle=none;html=1;" parent="7J8ZopOZNkx4ZM-3AKjg-1" source="TJWJ-TtYRMVYAXdc9j6F-28" target="TJWJ-TtYRMVYAXdc9j6F-32" edge="1">
                    <mxGeometry relative="1" as="geometry"/>
                </mxCell>
                <mxCell id="TJWJ-TtYRMVYAXdc9j6F-28" value="return newArray;" style="whiteSpace=wrap;html=1;" parent="7J8ZopOZNkx4ZM-3AKjg-1" vertex="1">
                    <mxGeometry x="640" y="740" width="120" height="60" as="geometry"/>
                </mxCell>
                <mxCell id="TJWJ-TtYRMVYAXdc9j6F-35" style="edgeStyle=none;html=1;entryX=0.5;entryY=0;entryDx=0;entryDy=0;" parent="7J8ZopOZNkx4ZM-3AKjg-1" source="TJWJ-TtYRMVYAXdc9j6F-32" target="TJWJ-TtYRMVYAXdc9j6F-34" edge="1">
                    <mxGeometry relative="1" as="geometry"/>
                </mxCell>
                <mxCell id="TJWJ-TtYRMVYAXdc9j6F-32" value="PrintArray(newArray);" style="shape=document;whiteSpace=wrap;html=1;boundedLbl=1;" parent="7J8ZopOZNkx4ZM-3AKjg-1" vertex="1">
                    <mxGeometry x="635" y="840" width="130" height="80" as="geometry"/>
                </mxCell>
                <mxCell id="TJWJ-TtYRMVYAXdc9j6F-34" value="END." style="rounded=1;whiteSpace=wrap;html=1;" parent="7J8ZopOZNkx4ZM-3AKjg-1" vertex="1">
                    <mxGeometry x="640" y="987.5" width="120" height="60" as="geometry"/>
                </mxCell>
            </root>
        </mxGraphModel>
    </diagram>
</mxfile>